<svg width="160" height="142" viewBox="0 0 160 142" fill="none" xmlns="http://www.w3.org/2000/svg">
<g clip-path="url(#clip0_11415_170397)">
<path d="M72.2241 107.374C72.2241 105.738 73.4812 104.555 75.1729 104.555C76.0713 104.555 76.8393 104.876 77.3501 105.471L76.6908 106.091C76.2887 105.662 75.7924 105.449 75.22 105.449C74.0789 105.449 73.2529 106.246 73.2529 107.374C73.2529 108.502 74.0789 109.299 75.22 109.299C75.7924 109.299 76.2887 109.086 76.6908 108.65L77.3501 109.277C76.8393 109.872 76.0677 110.193 75.1621 110.193C73.4848 110.189 72.2241 109.007 72.2241 107.374Z" fill="#EBEBEB"/>
<path d="M66.6382 111.667H59.8096V104.876H66.6346V111.667H66.6382ZM60.1718 111.307H66.2723V105.237H60.1718V111.307Z" fill="#EBEBEB"/>
<path d="M58.5089 113.077C58.3061 112.925 59.9363 110.488 62.4467 107.904C64.9536 105.312 67.3409 103.604 67.5003 103.798C67.6742 104.004 65.5912 106.004 63.1278 108.556C60.6535 111.098 58.7191 113.242 58.5089 113.077Z" fill="#E0E0E0"/>
<path d="M67.6127 112.943C67.3917 113.102 65.5297 110.845 63.0699 108.236C60.6174 105.615 58.4801 103.615 58.654 103.409C58.8097 103.214 61.255 104.923 63.7582 107.594C66.2687 110.258 67.8192 112.799 67.6127 112.943Z" fill="#E0E0E0"/>
<path d="M20.9496 85.22L17.595 84.9821L16.8234 86.4816L15.541 86.3915L19.0368 79.9285L20.2649 80.015L22.8152 86.9034L21.5111 86.8097L20.9496 85.22ZM20.6054 84.2179L19.5476 81.2117L18.0841 84.0413L20.6054 84.2179Z" fill="#EBEBEB"/>
<path d="M9.99832 86.7593L1.7605 86.1754L2.34736 77.9785L10.5852 78.5625L9.99832 86.7593ZM2.14812 85.8438L9.66142 86.3736L10.1939 78.8977L2.68426 78.3642L2.14812 85.8438Z" fill="#EBEBEB"/>
<path d="M0.0108526 87.8227C-0.177523 87.6569 2.05038 84.8633 5.32885 81.9364C8.60007 78.9986 11.6286 77.0882 11.7735 77.2937C11.9329 77.5099 9.19056 79.734 5.95919 82.6357C2.72419 85.523 0.210096 88.003 0.0108526 87.8227Z" fill="#E0E0E0"/>
<path d="M11.1177 88.439C10.8858 88.5832 8.84992 85.6454 6.07138 82.2463C3.3037 78.8363 0.840323 76.2446 1.0287 76.05C1.19534 75.8661 3.992 78.1911 6.80315 81.6551C9.62516 85.112 11.3314 88.3165 11.1177 88.439Z" fill="#E0E0E0"/>
<path d="M159.928 49.5634C160.243 50.6664 159.555 51.5568 157.892 52.0254L154.675 52.9301L152.842 46.4923L155.874 45.638C157.428 45.2019 158.446 45.62 158.736 46.6401C158.924 47.3033 158.729 47.8837 158.308 48.291C159.062 48.3162 159.689 48.7272 159.928 49.5634ZM154.313 47.0943L154.816 48.8677L156.519 48.3883C157.352 48.154 157.74 47.7251 157.573 47.1375C157.403 46.5392 156.848 46.377 156.015 46.6113L154.313 47.0943ZM158.681 49.7869C158.497 49.1417 157.928 48.9975 157.022 49.2498L155.081 49.7977L155.609 51.6541L157.551 51.1062C158.457 50.8539 158.866 50.4285 158.681 49.7869Z" fill="#EBEBEB"/>
<path d="M140.728 57.6451L138.478 49.7402L146.422 47.5017L148.672 55.4066L140.728 57.6451ZM138.927 49.9889L140.978 57.2017L148.226 55.1615L146.172 47.9487L138.927 49.9889Z" fill="#EBEBEB"/>
<path d="M139.644 59.7861C139.409 59.6959 140.554 56.3148 142.637 52.4507C144.712 48.5829 146.904 45.7605 147.111 45.9047C147.335 46.0561 145.517 49.0732 143.47 52.894C141.409 56.7077 139.894 59.887 139.644 59.7861Z" fill="#E0E0E0"/>
<path d="M150.299 56.6106C150.128 56.8232 147.212 54.7506 143.437 52.4941C139.67 50.2232 136.467 48.6191 136.58 48.374C136.674 48.1469 140.097 49.3833 143.926 51.6903C147.759 53.9864 150.458 56.4231 150.299 56.6106Z" fill="#E0E0E0"/>
<path d="M112.381 0.1875H19.3484V94.0948H112.381V0.1875Z" fill="white"/>
<path d="M112.381 94.0947C112.381 94.0947 112.377 94.0551 112.377 93.9794C112.377 93.9037 112.374 93.7956 112.374 93.6478C112.37 93.3558 112.37 92.9196 112.363 92.3501C112.359 91.2075 112.352 89.5133 112.345 87.3036C112.334 82.8916 112.319 76.4249 112.301 68.1992C112.279 51.7694 112.254 28.3142 112.218 0.18744L112.381 0.349647C85.3054 0.356856 53.3902 0.36767 19.3557 0.374879H19.3485L19.5369 0.18744C19.526 34.6007 19.5188 66.8367 19.5115 94.0947L19.3485 93.9325C47.2426 93.965 70.4853 93.9938 86.7508 94.0154C94.8981 94.0335 101.296 94.0479 105.665 94.0587C107.849 94.0659 109.526 94.0731 110.656 94.0767C111.222 94.0803 111.653 94.0839 111.943 94.0875C112.087 94.0911 112.196 94.0911 112.269 94.0911C112.341 94.0911 112.381 94.0947 112.381 94.0947C112.381 94.0947 112.348 94.0983 112.276 94.0983C112.203 94.0983 112.098 94.1019 111.957 94.1019C111.671 94.1056 111.247 94.1056 110.689 94.1128C109.566 94.1164 107.9 94.1236 105.726 94.1308C101.368 94.1416 94.9814 94.156 86.8523 94.174C70.5578 94.1957 47.2825 94.2209 19.3449 94.2569H19.1819V94.0947C19.1746 66.8367 19.1637 34.6043 19.1565 0.18744V0H19.3449H19.3521C53.3866 0.0108138 85.3018 0.018023 112.377 0.0252323H112.54V0.18744C112.504 28.3575 112.479 51.8523 112.457 68.3038C112.439 76.5151 112.424 82.9673 112.413 87.3721C112.406 89.5673 112.399 91.2507 112.395 92.3861C112.392 92.9485 112.388 93.3774 112.384 93.6658C112.381 93.8064 112.381 93.9145 112.381 93.9866C112.384 94.0587 112.381 94.0947 112.381 94.0947Z" fill="#263238"/>
<path d="M26.6481 15.5034V17.9942H26.1844V15.8927H25.6555V15.5034H26.6481Z" fill="black"/>
<path d="M27.1299 17.7238C27.1299 17.5472 27.2639 17.4282 27.4233 17.4282C27.5827 17.4282 27.7167 17.5472 27.7167 17.7238C27.7167 17.8932 27.5827 18.0194 27.4233 18.0194C27.2639 18.0194 27.1299 17.8968 27.1299 17.7238Z" fill="black"/>
<path d="M57.8423 5.43564C57.8423 4.7003 58.4147 4.15601 59.1899 4.15601C59.9651 4.15601 60.5375 4.6967 60.5375 5.43564C60.5375 6.17459 59.9651 6.71528 59.1899 6.71528C58.4147 6.71888 57.8423 6.17459 57.8423 5.43564ZM60.0702 5.43564C60.0702 4.92739 59.6934 4.55972 59.1899 4.55972C58.6864 4.55972 58.3096 4.92739 58.3096 5.43564C58.3096 5.94389 58.6864 6.31156 59.1899 6.31156C59.6971 6.31156 60.0702 5.9475 60.0702 5.43564Z" fill="black"/>
<path d="M63.258 4.19214V6.68292H62.874L61.4938 4.99597V6.68292H61.0337V4.19214H61.4177L62.7979 5.8791V4.19214H63.258Z" fill="black"/>
<path d="M63.9282 4.19214H64.3919V6.29002H65.6996V6.68292H63.9246V4.19214H63.9282Z" fill="black"/>
<path d="M66.0693 4.19214H66.533V6.68292H66.0693V4.19214Z" fill="black"/>
<path d="M69.4347 4.19214V6.68292H69.0507L67.6705 4.99597V6.68292H67.2104V4.19214H67.5944L68.9747 5.8791V4.19214H69.4347Z" fill="black"/>
<path d="M71.9849 6.29363V6.68292H70.1084V4.19214H71.9342V4.58144H70.5721V5.23027H71.782V5.61235H70.5721V6.30084H71.9849V6.29363Z" fill="black"/>
<path d="M73.9993 4.58138H73.1697V4.18848H75.2925V4.58138H74.463V6.67926H73.9993V4.58138Z" fill="black"/>
<path d="M77.5203 6.29363V6.68292H75.6438V4.19214H77.4696V4.58144H76.1075V5.23027H77.3174V5.61235H76.1075V6.30084H77.5203V6.29363Z" fill="black"/>
<path d="M77.8281 6.4197L77.9875 6.05924C78.1868 6.21784 78.5056 6.33319 78.8135 6.33319C79.2047 6.33319 79.3677 6.19261 79.3677 6.00878C79.3677 5.47169 77.8788 5.82494 77.8788 4.89856C77.8788 4.49484 78.2013 4.15601 78.8859 4.15601C79.1866 4.15601 79.5018 4.23531 79.7191 4.37589L79.5742 4.73635C79.3496 4.60298 79.1033 4.5417 78.8823 4.5417C78.4947 4.5417 78.3389 4.68949 78.3389 4.88053C78.3389 5.41041 79.8242 5.06437 79.8242 5.97994C79.8242 6.38005 79.4982 6.71888 78.8135 6.71888C78.4259 6.71888 78.0346 6.59633 77.8281 6.4197Z" fill="black"/>
<path d="M80.759 4.58138H79.9294V4.18848H82.0523V4.58138H81.2227V6.67926H80.759V4.58138Z" fill="black"/>
<path d="M38.2404 26.447H36.987L36.7406 27.0237H36.2625L37.3891 24.533H37.8455L38.9758 27.0237H38.4904L38.2404 26.447ZM38.0846 26.0829L37.6137 24.9943L37.1464 26.0829H38.0846Z" fill="black"/>
<path d="M25.6266 6.67936C26.1888 6.67936 26.6446 6.22587 26.6446 5.66646C26.6446 5.10705 26.1888 4.65356 25.6266 4.65356C25.0644 4.65356 24.6086 5.10705 24.6086 5.66646C24.6086 6.22587 25.0644 6.67936 25.6266 6.67936Z" fill="black"/>
<path d="M28.7094 6.67936C29.2716 6.67936 29.7273 6.22587 29.7273 5.66646C29.7273 5.10705 29.2716 4.65356 28.7094 4.65356C28.1472 4.65356 27.6914 5.10705 27.6914 5.66646C27.6914 6.22587 28.1472 6.67936 28.7094 6.67936Z" fill="black"/>
<path d="M31.7921 6.67936C32.3543 6.67936 32.8101 6.22587 32.8101 5.66646C32.8101 5.10705 32.3543 4.65356 31.7921 4.65356C31.2299 4.65356 30.7742 5.10705 30.7742 5.66646C30.7742 6.22587 31.2299 6.67936 31.7921 6.67936Z" fill="black"/>
<path d="M112.381 10.677C112.381 10.7274 91.6594 10.7707 66.1019 10.7707C40.5371 10.7707 19.8193 10.7274 19.8193 10.677C19.8193 10.6265 40.5371 10.5833 66.1019 10.5833C91.6558 10.5833 112.381 10.6265 112.381 10.677Z" fill="black"/>
<path d="M102.205 17.6411C102.205 17.6915 86.0734 17.7348 66.178 17.7348C46.2753 17.7348 30.1475 17.6915 30.1475 17.6411C30.1475 17.5906 46.2753 17.5474 66.178 17.5474C86.0734 17.5474 102.205 17.5906 102.205 17.6411Z" fill="black"/>
<path d="M57.9547 20.0776C57.9547 20.1281 51.7818 20.1713 44.1671 20.1713C36.5523 20.1713 30.3794 20.1281 30.3794 20.0776C30.3794 20.0271 36.5523 19.9839 44.1671 19.9839C51.7818 19.9839 57.9547 20.0271 57.9547 20.0776Z" fill="black"/>
<path d="M34.3317 27.4203H31.0315V24.1365H34.3317V27.4203ZM31.3901 27.0598H33.9658V24.4969H31.3901V27.0598Z" fill="black"/>
<path d="M38.8236 32.5822C38.8236 33.0111 38.4867 33.2598 37.8419 33.2598H36.5957V30.769H37.7694C38.3708 30.769 38.6932 31.0214 38.6932 31.4179C38.6932 31.6738 38.5628 31.8612 38.3708 31.9658C38.6425 32.0487 38.8236 32.2577 38.8236 32.5822ZM37.063 31.1295V31.818H37.7223C38.0447 31.818 38.2259 31.7026 38.2259 31.4755C38.2259 31.2449 38.0447 31.1295 37.7223 31.1295H37.063ZM38.3563 32.5353C38.3563 32.2866 38.1679 32.1748 37.8165 32.1748H37.0666V32.8922H37.8165C38.1643 32.8958 38.3563 32.784 38.3563 32.5353Z" fill="black"/>
<path d="M34.3317 33.6527H31.0315V30.3689H34.3317V33.6527ZM31.3901 33.2922H33.9658V30.7294H31.3901V33.2922Z" fill="black"/>
<path d="M36.4219 38.245C36.4219 37.5024 36.9942 36.9653 37.7622 36.9653C38.1716 36.9653 38.5194 37.1095 38.7512 37.3799L38.4505 37.661C38.2694 37.4664 38.0412 37.369 37.7804 37.369C37.2623 37.369 36.8856 37.7331 36.8856 38.245C36.8856 38.7568 37.2623 39.1209 37.7804 39.1209C38.0412 39.1209 38.2658 39.0236 38.4505 38.8253L38.7512 39.1101C38.5194 39.3804 38.168 39.5246 37.7586 39.5246C36.9942 39.5282 36.4219 38.9911 36.4219 38.245Z" fill="black"/>
<path d="M34.3317 39.8851H31.0315V36.6013H34.3317V39.8851ZM31.3901 39.5247H33.9658V36.9618H31.3901V39.5247Z" fill="black"/>
<path d="M36.5994 43.2336H37.6934C38.5049 43.2336 39.0591 43.7311 39.0591 44.4808C39.0591 45.227 38.5049 45.728 37.6934 45.728H36.5994V43.2336ZM37.6717 45.3351C38.2295 45.3351 38.5918 44.9963 38.5918 44.4808C38.5918 43.9654 38.2295 43.6265 37.6717 43.6265H37.0631V45.3351H37.6717Z" fill="black"/>
<path d="M34.3317 46.121H31.0315V42.8372H34.3317V46.121ZM31.3901 45.7605H33.9658V43.1976H31.3901V45.7605Z" fill="black"/>
<path d="M66.1743 25.7766C66.1743 25.827 60.7295 25.8703 54.0168 25.8703C47.3005 25.8703 41.8557 25.827 41.8557 25.7766C41.8557 25.7261 47.3005 25.6829 54.0168 25.6829C60.7332 25.6829 66.1743 25.7261 66.1743 25.7766Z" fill="black"/>
<path d="M99.6473 32.0126C99.6473 32.0631 86.7109 32.1063 70.7533 32.1063C54.7921 32.1063 41.8557 32.0631 41.8557 32.0126C41.8557 31.9622 54.7921 31.9189 70.7533 31.9189C86.7109 31.9153 99.6473 31.9586 99.6473 32.0126Z" fill="black"/>
<path d="M49.8073 44.4773C49.8073 44.5277 48.0286 44.571 45.8297 44.571C43.6344 44.571 41.8521 44.5277 41.8521 44.4773C41.8521 44.4268 43.6308 44.3835 45.8297 44.3835C48.0286 44.3835 49.8073 44.4268 49.8073 44.4773Z" fill="black"/>
<path d="M70.7533 38.2448C70.7533 38.2953 64.2834 38.3386 56.3064 38.3386C48.3257 38.3386 41.8594 38.2953 41.8594 38.2448C41.8594 38.1944 48.3257 38.1511 56.3064 38.1511C64.2834 38.1511 70.7533 38.1944 70.7533 38.2448Z" fill="black"/>
<path d="M26.7205 53.3519V53.7449H24.8766V53.4349L25.8692 52.4941C26.1119 52.2634 26.1554 52.1156 26.1554 51.9786C26.1554 51.7515 25.9996 51.6181 25.6917 51.6181C25.449 51.6181 25.2461 51.701 25.1048 51.8777L24.7788 51.6289C24.9708 51.3694 25.3186 51.218 25.7316 51.218C26.2749 51.218 26.6263 51.492 26.6263 51.9317C26.6263 52.1732 26.5575 52.3931 26.2097 52.7175L25.5396 53.3519H26.7205Z" fill="black"/>
<path d="M27.0103 53.4745C27.0103 53.2979 27.1443 53.179 27.3037 53.179C27.4631 53.179 27.5971 53.2979 27.5971 53.4745C27.5971 53.644 27.4631 53.7701 27.3037 53.7701C27.1443 53.7665 27.0103 53.644 27.0103 53.4745Z" fill="black"/>
<path d="M37.3674 62.1938H36.1139L35.8676 62.7706H35.3894L36.516 60.2798H36.9725L38.1027 62.7706H37.6173L37.3674 62.1938ZM37.2116 61.8334L36.7406 60.7448L36.2733 61.8334H37.2116Z" fill="black"/>
<path d="M101.332 53.3879C101.332 53.4384 85.2003 53.4816 65.3049 53.4816C45.4023 53.4816 29.2744 53.4384 29.2744 53.3879C29.2744 53.3374 45.4023 53.2942 65.3049 53.2942C85.1967 53.2942 101.332 53.3374 101.332 53.3879Z" fill="black"/>
<path d="M57.078 55.8247C57.078 55.8751 50.9051 55.9184 43.2904 55.9184C35.6756 55.9184 29.5027 55.8751 29.5027 55.8247C29.5027 55.7742 35.6756 55.731 43.2904 55.731C50.9051 55.731 57.078 55.7742 57.078 55.8247Z" fill="black"/>
<path d="M33.455 63.1671H30.1548V59.8833H33.455V63.1671ZM30.517 62.8066H33.0927V60.2438H30.517V62.8066Z" fill="black"/>
<path d="M37.9506 68.329C37.9506 68.7543 37.6137 69.0067 36.9688 69.0067H35.7227V66.5159H36.8964C37.4977 66.5159 37.8201 66.7682 37.8201 67.1647C37.8201 67.4206 37.6897 67.6081 37.4977 67.7126C37.7658 67.7955 37.9506 68.0046 37.9506 68.329ZM36.19 66.8763V67.5648H36.8493C37.1717 67.5648 37.3528 67.4495 37.3528 67.2224C37.3528 66.9917 37.1717 66.8763 36.8493 66.8763H36.19ZM37.4796 68.2821C37.4796 68.0334 37.2912 67.9217 36.9399 67.9217H36.19V68.639H36.9399C37.2912 68.6426 37.4796 68.5308 37.4796 68.2821Z" fill="black"/>
<path d="M33.455 69.3995H30.1548V66.1157H33.455V69.3995ZM30.517 69.0391H33.0927V66.4762H30.517V69.0391Z" fill="black"/>
<path d="M35.5452 73.9955C35.5452 73.2529 36.1175 72.7158 36.8855 72.7158C37.2949 72.7158 37.6427 72.8636 37.8745 73.134L37.5738 73.4151C37.3927 73.2205 37.1645 73.1231 36.9036 73.1231C36.3856 73.1231 36.0089 73.4872 36.0089 73.9991C36.0089 74.5109 36.3856 74.875 36.9036 74.875C37.1645 74.875 37.3891 74.7777 37.5738 74.5794L37.8745 74.8642C37.6427 75.1345 37.2913 75.2823 36.8819 75.2823C36.1175 75.2751 35.5452 74.738 35.5452 73.9955Z" fill="black"/>
<path d="M33.455 75.6356H30.1548V72.3518H33.455V75.6356ZM30.517 75.2751H33.0927V72.7123H30.517V75.2751Z" fill="black"/>
<path d="M35.7263 78.9807H36.8203C37.6318 78.9807 38.1861 79.4782 38.1861 80.2279C38.1861 80.9741 37.6318 81.4751 36.8203 81.4751H35.7263V78.9807ZM36.7986 81.0822C37.3565 81.0822 37.7188 80.7434 37.7188 80.2279C37.7188 79.7125 37.3565 79.3736 36.7986 79.3736H36.19V81.0822H36.7986Z" fill="black"/>
<path d="M33.455 81.8678H30.1548V78.584H33.455V81.8678ZM30.517 81.5073H33.0927V78.9444H30.517V81.5073Z" fill="black"/>
<path d="M65.3013 61.5234C65.3013 61.5739 59.8565 61.6171 53.1438 61.6171C46.4275 61.6171 40.9827 61.5739 40.9827 61.5234C40.9827 61.4729 46.4275 61.4297 53.1438 61.4297C59.8565 61.4297 65.3013 61.4729 65.3013 61.5234Z" fill="black"/>
<path d="M98.7742 67.7595C98.7742 67.81 85.8379 67.8532 69.8803 67.8532C53.919 67.8532 40.9827 67.81 40.9827 67.7595C40.9827 67.709 53.919 67.6658 69.8803 67.6658C85.8343 67.6658 98.7742 67.7054 98.7742 67.7595Z" fill="black"/>
<path d="M48.9343 80.2241C48.9343 80.2746 47.1556 80.3178 44.9566 80.3178C42.7613 80.3178 40.979 80.2746 40.979 80.2241C40.979 80.1736 42.7577 80.1304 44.9566 80.1304C47.1556 80.1304 48.9343 80.1736 48.9343 80.2241Z" fill="black"/>
<path d="M69.8766 73.9919C69.8766 74.0424 63.4066 74.0856 55.4297 74.0856C47.449 74.0856 40.9827 74.0424 40.9827 73.9919C40.9827 73.9415 47.449 73.8982 55.4297 73.8982C63.4103 73.8982 69.8766 73.9415 69.8766 73.9919Z" fill="black"/>
<path d="M93.2716 88.7778H78.3573C75.8288 88.7778 73.782 86.7376 73.782 84.2252C73.782 81.7092 75.8324 79.6726 78.3573 79.6726H93.2716C95.8002 79.6726 97.847 81.7128 97.847 84.2252C97.8506 86.7376 95.8002 88.7778 93.2716 88.7778Z" fill="#FF5252"/>
<path d="M82.0814 83.1401V85.6165H81.6104L80.3715 84.1134V85.6165H79.8027V83.1401H80.2773L81.5126 84.6433V83.1401H82.0814Z" fill="white"/>
<path d="M84.5954 85.1588V85.6202H82.6682V83.1438H84.5484V83.6052H83.2406V84.1423H84.3962V84.5892H83.2406V85.1624H84.5954V85.1588Z" fill="white"/>
<path d="M86.5953 85.6165L85.9939 84.7586L85.4034 85.6165H84.7405L85.6606 84.3585L84.7876 83.1401H85.4396L86.012 83.944L86.5735 83.1401H87.1966L86.3308 84.3369L87.2582 85.6165H86.5953Z" fill="white"/>
<path d="M87.9754 83.6088H87.1785V83.1438H89.3484V83.6088H88.5514V85.6166H87.9754V83.6088Z" fill="white"/>
<path d="M92.4856 85.4292C92.4277 85.4292 92.3697 85.4003 92.3335 85.3499C92.2791 85.267 92.3009 85.1552 92.3842 85.1012L93.5398 84.3334C93.5941 84.2973 93.5978 84.2433 93.5978 84.2216C93.5978 84.2 93.5905 84.1459 93.5326 84.1135L92.3914 83.443C92.3045 83.3926 92.2755 83.2808 92.3262 83.1943C92.3769 83.1078 92.4892 83.0826 92.5762 83.1294L93.7173 83.7999C93.8622 83.8864 93.9528 84.0378 93.96 84.2072C93.9636 84.3766 93.884 84.5352 93.739 84.6289L92.5834 85.3967C92.5545 85.4184 92.5218 85.4292 92.4856 85.4292Z" fill="white"/>
<path d="M30.6402 33.5951C30.5279 33.4833 31.2307 32.611 32.2052 31.6378C33.1797 30.6681 34.06 29.9688 34.1723 30.0806C34.2809 30.1887 33.5818 31.0646 32.6073 32.0379C31.6292 33.0075 30.7489 33.7068 30.6402 33.5951Z" fill="#FF5252"/>
<path d="M34.7735 33.9376C34.6612 34.0494 33.7266 33.2924 32.6796 32.2507C31.6327 31.2089 30.8756 30.2753 30.9843 30.1672C31.0929 30.0554 32.0312 30.8124 33.0781 31.8541C34.1251 32.8959 34.8822 33.8295 34.7735 33.9376Z" fill="#FF5252"/>
<path d="M29.8431 63.3439C29.7308 63.2321 30.4336 62.3598 31.4081 61.3866C32.3825 60.4169 33.2628 59.7176 33.3751 59.8294C33.4838 59.9375 32.7847 60.8134 31.8102 61.7867C30.8357 62.7563 29.9554 63.452 29.8431 63.3439Z" fill="#FF5252"/>
<path d="M33.9764 63.6863C33.8641 63.798 32.9295 63.041 31.8825 61.9993C30.8356 60.9576 30.0785 60.024 30.1871 59.9158C30.2958 59.8077 31.2341 60.5611 32.281 61.6028C33.3279 62.6445 34.0887 63.5745 33.9764 63.6863Z" fill="#FF5252"/>
<path d="M100.107 136.557L74.673 128.425C74.6042 128.403 74.5353 128.396 74.4629 128.4L54.8971 129.856C51.4593 121.58 47.152 111.202 45.1921 106.469C44.5328 104.883 43.0729 103.766 41.363 103.543L20.1816 100.789C19.0731 100.644 18.229 101.755 18.6674 102.778L30.5966 130.462C30.9154 131.204 31.5349 131.781 32.2993 132.048L56.5309 141.665C57.0852 141.885 57.6865 141.964 58.277 141.896L59.8239 141.726C65.1962 141.167 91.6884 138.478 99.995 137.617C100.589 137.563 100.672 136.737 100.107 136.557Z" fill="#E0E0E0"/>
<path d="M100.107 136.557C100.107 136.557 100.151 136.568 100.23 136.607C100.31 136.647 100.422 136.741 100.473 136.914C100.527 137.076 100.506 137.339 100.299 137.516C100.198 137.606 100.049 137.642 99.9008 137.649C99.7522 137.664 99.5892 137.682 99.4226 137.7C98.0605 137.844 96.0536 138.053 93.4706 138.327C88.2975 138.864 80.8168 139.639 71.5756 140.594C69.2643 140.832 66.8444 141.081 64.3195 141.344C63.0588 141.474 61.7728 141.607 60.4614 141.74C59.8057 141.813 59.1464 141.881 58.4762 141.953C57.8096 142.054 57.0851 141.986 56.4475 141.719C51.3722 139.707 45.9492 137.559 40.2399 135.295C38.8126 134.729 37.3672 134.156 35.9073 133.576C35.1755 133.288 34.4438 132.996 33.7047 132.704C33.3352 132.556 32.9657 132.412 32.5926 132.264C32.4078 132.188 32.2195 132.123 32.0311 132.04C31.8427 131.958 31.6616 131.853 31.4949 131.73C31.1617 131.485 30.8755 131.172 30.669 130.815C30.4661 130.447 30.3357 130.072 30.1654 129.705C29.8467 128.962 29.5242 128.216 29.1982 127.466C28.5498 125.967 27.8977 124.453 27.2384 122.924C24.6011 116.811 21.8733 110.481 19.0802 103.997L18.6963 103.106C18.5695 102.825 18.4209 102.486 18.4535 102.14C18.4789 101.448 19.0368 100.828 19.7178 100.716C19.8011 100.698 19.8881 100.698 19.9714 100.691C20.0547 100.698 20.1453 100.698 20.225 100.709L20.7032 100.77L21.6559 100.893C22.2899 100.976 22.9238 101.059 23.5542 101.138C26.0791 101.466 28.5787 101.791 31.0494 102.111C33.52 102.432 35.9616 102.749 38.367 103.063C38.9684 103.142 39.5698 103.218 40.1675 103.297C40.7652 103.387 41.3593 103.423 41.9607 103.568C43.1453 103.87 44.1886 104.624 44.8443 105.629C45.1812 106.131 45.3732 106.696 45.6014 107.23C45.826 107.767 46.047 108.304 46.268 108.838C46.7099 109.905 47.1483 110.964 47.583 112.013C48.4524 114.111 49.3073 116.177 50.1478 118.199C51.8251 122.243 53.4335 126.129 54.9659 129.827L54.8862 129.78C61.8814 129.265 68.2826 128.793 73.9484 128.375C74.1259 128.36 74.3034 128.349 74.4809 128.335C74.5787 128.328 74.6838 128.36 74.7598 128.385L75.0098 128.465C75.3431 128.573 75.6727 128.677 75.9988 128.782C76.6508 128.991 77.2957 129.196 77.926 129.398C79.1867 129.802 80.4039 130.195 81.5703 130.57C83.9033 131.32 86.0479 132.008 87.9824 132.628C91.8477 133.872 94.8798 134.848 96.9483 135.515C97.9772 135.851 98.7669 136.106 99.303 136.279C99.8319 136.46 100.107 136.557 100.107 136.557C100.107 136.557 99.8283 136.478 99.2958 136.312C98.7597 136.143 97.9663 135.894 96.9338 135.569C94.8617 134.913 91.826 133.951 87.9534 132.722C86.0189 132.105 83.8743 131.424 81.5341 130.682C80.364 130.31 79.1504 129.921 77.8861 129.521C77.2558 129.319 76.611 129.114 75.9589 128.908C75.6329 128.804 75.3032 128.699 74.9699 128.594C74.8033 128.551 74.633 128.465 74.4845 128.472C74.3106 128.486 74.1331 128.497 73.9592 128.512C68.2971 128.937 61.8959 129.42 54.9007 129.946L54.8427 129.95L54.821 129.896C53.285 126.197 51.6693 122.315 49.992 118.271C49.1516 116.249 48.2966 114.187 47.4236 112.089C46.9889 111.04 46.5469 109.98 46.1049 108.913C45.884 108.38 45.6594 107.843 45.4384 107.306C45.2102 106.769 45.0182 106.213 44.6958 105.738C44.0654 104.772 43.0583 104.043 41.9172 103.755C41.3521 103.618 40.7435 103.575 40.1458 103.488C39.548 103.409 38.9467 103.333 38.3453 103.254C35.9363 102.94 33.4946 102.623 31.0276 102.302C28.557 101.982 26.0574 101.657 23.5324 101.329C22.9021 101.246 22.2681 101.163 21.6342 101.084L20.6814 100.962C20.359 100.933 20.0439 100.843 19.7541 100.904C19.1599 101.001 18.6673 101.545 18.6455 102.151C18.6166 102.457 18.7397 102.735 18.8738 103.034L19.2578 103.924C22.0508 110.409 24.7786 116.739 27.4123 122.852C28.0716 124.381 28.7236 125.895 29.3685 127.398C29.6909 128.147 30.0133 128.894 30.3321 129.636C30.4987 130 30.64 130.393 30.8248 130.728C31.0204 131.067 31.2848 131.363 31.6 131.59C31.7558 131.705 31.926 131.803 32.1035 131.882C32.2811 131.958 32.4694 132.026 32.6542 132.102C33.0273 132.25 33.3968 132.397 33.7663 132.541C34.5053 132.833 35.2407 133.125 35.9689 133.417C37.4288 133.998 38.8742 134.571 40.3015 135.137C46.0071 137.404 51.4302 139.56 56.5055 141.578C57.1286 141.838 57.8024 141.906 58.4617 141.805C59.1283 141.733 59.7912 141.665 60.4469 141.593C61.7583 141.459 63.0443 141.33 64.3086 141.2C66.8335 140.944 69.2535 140.699 71.5647 140.464C80.8096 139.531 88.2903 138.777 93.4634 138.255C96.0463 137.999 98.0532 137.801 99.419 137.664C99.5892 137.646 99.7486 137.631 99.9008 137.617C100.053 137.61 100.187 137.577 100.285 137.494C100.484 137.328 100.509 137.08 100.459 136.921C100.412 136.755 100.303 136.662 100.227 136.618C100.147 136.571 100.104 136.561 100.107 136.557Z" fill="#263238"/>
<path d="M67.3733 131.547L76.9116 135.519L88.7974 134.286L78.799 130.177L67.3733 131.547Z" fill="#F5F5F5"/>
<path d="M60.1788 139.051L78.799 137.379L61.0192 130.364L55.3027 130.793L58.324 138.046L60.1788 139.051Z" fill="#F5F5F5"/>
<path d="M98.2634 136.546C98.2634 136.55 98.2199 136.557 98.133 136.568C98.0388 136.579 97.912 136.593 97.7526 136.611C97.4084 136.647 96.9158 136.698 96.289 136.762C95.0066 136.885 93.17 137.065 90.9058 137.281C86.3486 137.703 80.0742 138.287 73.1442 138.929C67.9783 139.394 63.182 139.826 59.1899 140.187L59.1319 140.19L59.1102 140.136C57.8314 137.026 56.7663 134.448 56.0201 132.632C55.6578 131.734 55.3716 131.031 55.1688 130.537C55.0746 130.303 55.0057 130.119 54.9514 129.986C54.9043 129.86 54.8826 129.795 54.8826 129.795C54.8826 129.795 54.9152 129.856 54.9731 129.979C55.0311 130.112 55.1108 130.292 55.2122 130.523C55.4223 131.013 55.723 131.712 56.0998 132.603C56.8605 134.412 57.9437 136.982 59.2514 140.082L59.1717 140.035C63.1602 139.668 67.9602 139.224 73.1224 138.749C80.0561 138.129 86.3341 137.566 90.8913 137.155C93.1591 136.961 94.9958 136.806 96.2782 136.694C96.9049 136.643 97.3976 136.604 97.7453 136.579C97.9047 136.568 98.0315 136.561 98.1257 136.553C98.2163 136.543 98.2598 136.543 98.2634 136.546Z" fill="black"/>
<path d="M19.2795 101.809C19.2795 101.805 19.3339 101.809 19.4426 101.823C19.5585 101.838 19.7143 101.856 19.9135 101.877C20.3373 101.931 20.9423 102.011 21.7212 102.111C23.3006 102.324 25.5684 102.634 28.3651 103.013C31.169 103.402 34.509 103.867 38.2113 104.415C39.1351 104.555 40.0842 104.703 41.0551 104.851C41.2978 104.891 41.5405 104.934 41.7832 104.974C41.9028 104.992 42.0296 105.02 42.1563 105.049C42.2179 105.064 42.2831 105.074 42.3447 105.092C42.4027 105.118 42.4643 105.139 42.5222 105.168C42.7577 105.276 42.9787 105.428 43.1598 105.626C43.2468 105.727 43.3301 105.835 43.3808 105.968L43.5221 106.322C44.2792 108.203 45.0653 110.15 45.8659 112.147C49.0647 120.131 51.9628 127.358 54.0639 132.603C55.1036 135.216 55.944 137.336 56.5273 138.81C56.8134 139.538 57.0344 140.104 57.1866 140.501C57.259 140.688 57.3134 140.836 57.3532 140.94C57.3894 141.041 57.4076 141.092 57.4039 141.092C57.4003 141.092 57.3786 141.045 57.3351 140.948C57.2916 140.843 57.23 140.699 57.1503 140.511C56.9873 140.118 56.7555 139.556 56.4548 138.835C55.8571 137.368 54.9949 135.256 53.9335 132.65C51.8179 127.412 48.9053 120.192 45.6848 112.215C44.8842 110.218 44.0981 108.272 43.3446 106.39L43.2033 106.037C43.1671 105.932 43.0946 105.835 43.0149 105.749C42.8555 105.572 42.6563 105.435 42.4389 105.334C42.3846 105.305 42.3266 105.287 42.2723 105.262C42.2143 105.244 42.1563 105.237 42.0984 105.222C41.9825 105.197 41.8665 105.168 41.7434 105.15C41.5007 105.107 41.2579 105.067 41.0188 105.024C40.0516 104.873 39.1025 104.725 38.1787 104.584C34.4764 104.044 31.1436 103.553 28.3397 103.142C25.543 102.739 23.2789 102.411 21.7031 102.18C20.9278 102.065 20.3229 101.974 19.899 101.913C19.6998 101.881 19.544 101.856 19.4317 101.838C19.3339 101.823 19.2795 101.812 19.2795 101.809Z" fill="black"/>
<path d="M38.0047 118.375C38.9103 119.583 39.0951 120.971 38.414 121.475C37.733 121.98 36.4469 121.414 35.5413 120.207C34.6356 118.999 34.4545 117.611 35.1319 117.107C35.813 116.602 37.099 117.171 38.0047 118.375Z" fill="white"/>
<path d="M147.409 89.7154C147.047 89.0187 147.228 88.8537 146.354 87.4119L145.226 86.5107L137.478 81.8247L105.629 80.3455C103.015 80.5088 99.0848 85.0014 98.1087 86.8631C97.3044 93.8415 97.1398 100.036 97.1398 100.036C97.1398 100.036 96.2039 107.795 97.1398 111.464C98.0758 115.133 99.1835 116.457 100.635 119.31C102.086 122.162 104.561 124.64 104.561 124.64L105.834 134.442L134.288 136.975L147.318 136.235C147.318 136.235 146.151 116.914 146.151 116.57C146.151 116.41 147.778 112.679 149.526 108.72C152.498 101.978 150.816 96.2548 147.409 89.7154Z" fill="#455A64"/>
<path d="M76.2344 125.03C76.3757 125.015 77.7849 115.557 78.705 113.401C79.5744 111.372 98.191 87.2856 98.191 87.2856L102.574 101.329L100.694 108.845L90.5401 120.989L87.6746 129.791L76.2344 125.03Z" fill="#455A64"/>
<path d="M150.802 97.3247C149.465 88.8935 142.865 89.2612 142.865 89.2612L136.304 100.619L136.297 124.1L104.646 126.825L104.06 134.733C104.06 134.733 135.591 141.906 142.876 139.502C147.698 137.913 151.769 133.901 152.215 127.344C152.664 120.78 152.139 105.756 150.802 97.3247Z" fill="#455A64"/>
<path d="M90.5872 120.992C90.551 120.996 90.522 120.362 90.2141 119.399C89.9134 118.444 89.2686 117.161 88.142 116.104C87.0153 115.048 85.6895 114.482 84.7114 114.241C83.726 113.992 83.0884 114.003 83.0921 113.967C83.0921 113.956 83.2515 113.945 83.5376 113.953C83.8238 113.96 84.2404 114.003 84.744 114.111C85.7438 114.324 87.1132 114.883 88.2724 115.968C89.428 117.052 90.0692 118.379 90.3445 119.359C90.4858 119.853 90.551 120.264 90.5764 120.549C90.6017 120.834 90.5981 120.992 90.5872 120.992Z" fill="black"/>
<path d="M105.733 126.504C105.733 126.5 105.78 126.493 105.871 126.479C105.972 126.464 106.103 126.446 106.273 126.421C106.639 126.374 107.161 126.306 107.824 126.219C109.182 126.05 111.131 125.808 113.533 125.509C118.365 124.925 125.027 124.121 132.381 123.231C133.816 123.062 135.221 122.892 136.565 122.734L136.482 122.824C136.725 116.436 136.834 110.81 136.801 106.776C136.79 104.761 136.757 103.142 136.728 102.029C136.714 101.481 136.707 101.052 136.7 100.749C136.7 100.612 136.696 100.5 136.696 100.417C136.696 100.342 136.696 100.306 136.7 100.306C136.703 100.306 136.707 100.342 136.714 100.417C136.718 100.5 136.725 100.608 136.736 100.749C136.75 101.052 136.772 101.477 136.797 102.025C136.844 103.139 136.895 104.754 136.924 106.772C136.989 110.806 136.902 116.444 136.667 122.831L136.663 122.91L136.584 122.921C135.24 123.083 133.83 123.249 132.399 123.422C125.042 124.291 118.38 125.073 113.544 125.646C111.138 125.92 109.186 126.144 107.827 126.299C107.161 126.371 106.639 126.428 106.273 126.468C106.103 126.486 105.969 126.497 105.867 126.508C105.78 126.504 105.737 126.508 105.733 126.504Z" fill="black"/>
<path d="M152.657 126.504C152.661 126.504 152.661 126.551 152.657 126.648C152.65 126.753 152.642 126.89 152.635 127.066C152.621 127.434 152.563 127.978 152.45 128.67C152.338 129.362 152.143 130.202 151.831 131.154C151.501 132.098 151.038 133.144 150.353 134.207C149.676 135.27 148.752 136.326 147.574 137.238C146.408 138.158 144.941 138.875 143.311 139.264C142.499 139.473 141.648 139.589 140.778 139.686C139.905 139.758 139.014 139.801 138.105 139.787C136.286 139.762 134.413 139.574 132.512 139.268C128.719 138.648 125.107 138.057 121.821 137.516C120.18 137.246 118.619 136.986 117.159 136.745C115.703 136.481 114.348 136.233 113.105 136.009C110.631 135.548 108.624 135.198 107.233 134.989C106.545 134.888 106.005 134.809 105.628 134.755C105.451 134.73 105.313 134.708 105.212 134.694C105.117 134.679 105.07 134.668 105.07 134.668C105.07 134.665 105.121 134.668 105.215 134.676C105.32 134.686 105.458 134.701 105.635 134.719C106.005 134.758 106.548 134.823 107.244 134.917C108.639 135.105 110.653 135.436 113.131 135.879C114.37 136.099 115.728 136.337 117.184 136.593C118.648 136.831 120.209 137.083 121.85 137.347C125.136 137.88 128.751 138.468 132.541 139.084C134.432 139.39 136.301 139.578 138.105 139.603C139.007 139.617 139.894 139.578 140.76 139.509C141.622 139.416 142.467 139.304 143.267 139.098C144.879 138.72 146.317 138.021 147.477 137.119C148.639 136.222 149.56 135.187 150.237 134.138C150.922 133.093 151.389 132.059 151.726 131.125C152.045 130.184 152.251 129.352 152.374 128.663C152.494 127.975 152.566 127.434 152.592 127.066C152.61 126.89 152.624 126.753 152.632 126.648C152.646 126.551 152.653 126.504 152.657 126.504Z" fill="black"/>
<path d="M104.882 127.088C104.878 127.088 104.868 127.037 104.849 126.94C104.831 126.828 104.81 126.684 104.781 126.5C104.723 126.096 104.643 125.534 104.542 124.82L104.552 124.846C103.918 124.146 103.103 123.252 102.154 122.203L102.151 122.2L102.147 122.196C101.72 121.58 101.285 120.891 100.883 120.12C100.488 119.349 100.111 118.509 99.7778 117.608C99.1221 115.802 98.6077 113.758 98.336 111.581C98.0354 109.216 98.0752 106.938 98.1803 104.883C98.2926 102.825 98.5063 100.983 98.7092 99.4404C98.912 97.8976 99.104 96.654 99.2417 95.7925C99.3105 95.3744 99.3649 95.0464 99.4047 94.8048C99.4228 94.7003 99.4409 94.6174 99.4518 94.5489C99.4627 94.4912 99.4699 94.4624 99.4735 94.4624C99.4772 94.4624 99.4772 94.4948 99.4699 94.5525C99.4627 94.621 99.4518 94.7075 99.4409 94.812C99.4083 95.0536 99.3685 95.3852 99.3141 95.8069C99.2018 96.6684 99.028 97.9156 98.8432 99.462C98.6584 101.005 98.4592 102.847 98.3541 104.898C98.26 106.949 98.2237 109.212 98.5244 111.563C98.7925 113.722 99.2997 115.755 99.9445 117.55C100.274 118.447 100.64 119.284 101.028 120.048C101.419 120.812 101.846 121.501 102.263 122.117L102.259 122.11C103.198 123.17 103.998 124.078 104.625 124.784L104.636 124.795V124.81C104.719 125.527 104.784 126.093 104.831 126.493C104.849 126.677 104.864 126.821 104.875 126.936C104.882 127.034 104.886 127.084 104.882 127.088Z" fill="black"/>
<path d="M141.126 127.964C141.105 127.978 140.862 127.65 140.467 127.12C140.072 126.594 139.518 125.873 138.873 125.102C138.225 124.334 137.612 123.663 137.159 123.184C136.707 122.705 136.424 122.409 136.442 122.391C136.46 122.373 136.776 122.633 137.254 123.09C137.732 123.548 138.366 124.208 139.018 124.983C139.666 125.758 140.21 126.493 140.576 127.045C140.945 127.592 141.144 127.949 141.126 127.964Z" fill="black"/>
<path d="M83.9904 126.186C83.7223 124.647 82.3095 123.443 82.3095 123.443C82.3095 123.443 81.6393 121.573 80.6286 121.079C79.6215 120.585 78.8136 121.573 77.9406 121.306C77.0675 121.039 75.1838 120.971 74.5788 121.306C73.9738 121.641 73.2348 123.512 73.2348 123.512C73.2348 123.512 72.3618 123.512 71.4887 123.98C70.8113 124.345 70.4563 124.788 70.3331 124.968C69.8295 124.719 69.1956 124.936 68.8007 125.332C68.4022 125.729 68.1921 126.273 67.9929 126.796C67.8299 127.221 67.6669 127.646 67.5038 128.072C67.4278 128.27 67.3517 128.483 67.377 128.692C67.4241 129.049 67.7864 129.312 68.1487 129.33C68.5109 129.344 68.8587 129.157 69.1123 128.901C69.3477 128.663 69.5868 128.385 69.7607 128.097L69.8803 128.933C69.8803 128.933 70.0795 130.256 71.1554 130.339C71.8944 130.393 72.7023 129.535 72.7023 129.535L74.5824 129.333L74.8505 131.204C74.8505 131.204 75.22 132.422 76.5966 132.408C77.2704 132.401 78.1435 131.273 78.1435 131.273L79.8896 131.943C79.8896 131.943 81.9073 133.349 82.8456 132.88C83.7875 132.412 83.5194 131.41 83.5194 131.41C83.5194 131.41 84.1932 130.674 84.4613 129.87C84.7294 129.067 84.2584 127.726 83.9904 126.186Z" fill="#FFBE9D"/>
<path d="M69.8658 128.609C69.8151 128.609 69.7788 127.715 69.9346 126.623C70.0868 125.531 70.3729 124.68 70.42 124.694C70.4744 124.709 70.2715 125.57 70.123 126.648C69.9636 127.729 69.9201 128.612 69.8658 128.609Z" fill="#EB996E"/>
<path d="M72.7857 126.85C72.8364 126.846 72.9089 127.47 72.9487 128.241C72.9741 128.627 72.9523 128.998 72.8473 129.247C72.7422 129.499 72.5937 129.596 72.5828 129.578C72.5611 129.557 72.6625 129.438 72.7205 129.203C72.7857 128.969 72.7857 128.634 72.7603 128.248C72.7205 127.48 72.735 126.853 72.7857 126.85Z" fill="#EB996E"/>
<path d="M74.0391 126.053C74.0753 126.089 73.829 126.399 73.4848 126.749C73.1407 127.095 72.8327 127.347 72.7965 127.311C72.7603 127.275 73.0066 126.965 73.3508 126.616C73.6949 126.27 74.0028 126.017 74.0391 126.053Z" fill="#EB996E"/>
<path d="M74.289 122.456C74.318 122.456 74.3216 122.845 74.3325 123.476C74.3434 124.103 74.3615 124.972 74.4122 125.927C74.4629 126.882 74.5354 127.747 74.5933 128.375C74.6513 129.002 74.6839 129.387 74.6585 129.391C74.6332 129.395 74.5535 129.013 74.4593 128.389C74.3687 127.765 74.2745 126.9 74.2238 125.938C74.1731 124.975 74.1767 124.107 74.1985 123.476C74.2238 122.841 74.2637 122.456 74.289 122.456Z" fill="#EB996E"/>
<path d="M81.3387 123.173C81.3532 123.18 81.2626 123.353 81.1322 123.674C81.0054 123.998 80.8496 124.478 80.7156 125.087C80.6504 125.397 80.5815 125.732 80.5055 126.089C80.4294 126.45 80.3461 126.843 80.1867 127.235C80.0309 127.628 79.7882 128.025 79.4187 128.324C79.06 128.627 78.5311 128.8 78.0276 128.666C77.7813 128.605 77.5422 128.479 77.3755 128.281C77.2053 128.086 77.1219 127.845 77.0821 127.614C77.0133 127.145 77.0423 126.713 77.0604 126.295C77.1075 125.462 77.2415 124.719 77.4009 124.11C77.5567 123.501 77.7414 123.022 77.8755 122.697C77.9443 122.535 78.0022 122.412 78.0457 122.33C78.0892 122.247 78.1109 122.203 78.1182 122.207C78.1327 122.214 78.0602 122.394 77.9443 122.722C77.8284 123.054 77.669 123.533 77.5313 124.139C77.39 124.745 77.2705 125.48 77.2342 126.302C77.2234 126.709 77.198 127.153 77.2669 127.578C77.3031 127.791 77.3792 127.996 77.5204 128.155C77.6581 128.317 77.861 128.425 78.0747 128.479C78.513 128.594 78.9731 128.45 79.3064 128.176C79.6433 127.906 79.8751 127.538 80.0273 127.163C80.3243 126.406 80.4185 125.653 80.5888 125.051C80.7409 124.442 80.9184 123.959 81.0706 123.638C81.1467 123.479 81.2119 123.357 81.2626 123.281C81.3061 123.209 81.335 123.169 81.3387 123.173Z" fill="#EB996E"/>
<path d="M82.0486 123.984C82.0957 123.984 82.016 124.557 81.5414 125.051C81.0741 125.549 80.5053 125.664 80.5017 125.613C80.4836 125.559 80.9799 125.379 81.4074 124.921C81.8421 124.471 81.9942 123.966 82.0486 123.984Z" fill="#EB996E"/>
<path d="M78.1616 128.648C78.2123 128.645 78.2993 129.33 78.2522 130.173C78.2196 130.772 78.129 131.287 78.0602 131.525L78.0529 131.55L78.0384 131.554C77.9443 131.586 77.9008 131.518 77.8935 131.489C77.8863 131.453 77.9044 131.435 77.908 131.438C77.9153 131.442 77.9189 131.456 77.9334 131.471C77.9443 131.485 77.9841 131.5 77.995 131.482L77.9769 131.511C77.9805 131.265 78.0312 130.754 78.0638 130.162C78.1109 129.33 78.1073 128.652 78.1616 128.648Z" fill="#EB996E"/>
<path d="M82.4255 127.152C82.4472 127.17 82.2479 127.408 81.9328 127.787C81.6176 128.165 81.1793 128.692 80.8279 129.344C80.4765 129.996 80.328 130.667 80.3207 131.15C80.3098 131.637 80.404 131.932 80.3714 131.939C80.3533 131.947 80.2084 131.658 80.1867 131.15C80.1577 130.645 80.2917 129.935 80.6576 129.258C81.0235 128.58 81.4908 128.061 81.8313 127.7C82.1755 127.34 82.4037 127.134 82.4255 127.152Z" fill="#EB996E"/>
<path d="M81.6791 130.476C81.6791 130.476 81.2444 129.175 82.5087 128.285C83.773 127.394 87.555 125.048 87.6383 125.048C87.7217 125.048 92.0833 123.617 93.92 123.418C95.7566 123.22 103.795 127.203 103.795 127.203C103.795 127.203 105.661 129.878 105.36 132.444C105.059 135.011 103.382 135.159 103.382 135.159L101.049 134.596L98.6438 134.138C98.6438 134.138 93.3222 135.613 92.4999 135.339C91.6775 135.065 91.3769 134.164 92.2789 133.673C93.1846 133.183 95.7892 132.419 95.7892 132.419L97.7925 131.572L91.2646 132.498C91.2646 132.498 85.751 133.59 85.1206 133.425C84.4903 133.262 84.3816 132.797 84.3236 132.332C84.3236 132.332 82.103 133.425 81.4437 132.823C80.7844 132.221 80.4692 130.966 81.6791 130.476Z" fill="#FFBE9D"/>
<path d="M95.753 128.897C95.753 128.912 95.5791 128.919 95.2639 128.923C94.9524 128.93 94.4959 128.93 93.9417 128.959C93.3874 128.991 92.7209 129.045 92.0108 129.229C91.6558 129.319 91.2936 129.445 90.9349 129.611C90.5727 129.777 90.214 129.982 89.8373 130.191C89.4605 130.397 89.0874 130.591 88.6998 130.732C88.3158 130.876 87.9173 130.952 87.5441 130.981C86.8015 131.038 86.1277 131.02 85.6097 131.197C85.088 131.37 84.7366 131.669 84.5555 131.914C84.3707 132.159 84.3345 132.336 84.3128 132.329C84.3055 132.329 84.3128 132.286 84.3345 132.203C84.3599 132.123 84.4033 132.008 84.4939 131.875C84.6642 131.608 85.0192 131.273 85.5626 131.074C86.1096 130.869 86.7979 130.88 87.526 130.811C88.2614 130.764 89.0041 130.447 89.7431 130.029C90.1162 129.824 90.4821 129.618 90.8516 129.449C91.2247 129.279 91.6015 129.153 91.9637 129.067C92.6955 128.89 93.3693 128.847 93.9308 128.832C94.4923 128.822 94.9488 128.84 95.2603 128.854C95.5827 128.868 95.753 128.886 95.753 128.897Z" fill="#EB996E"/>
<path d="M93.7822 126.161C93.7858 126.168 93.7459 126.19 93.6662 126.223C93.5865 126.259 93.467 126.305 93.3112 126.36C92.9997 126.464 92.5324 126.576 91.9564 126.67C91.3804 126.77 90.6848 126.85 89.9458 127.044C89.2068 127.239 88.4461 127.614 87.6636 128.036C86.1022 128.908 84.5952 129.524 83.4903 129.917C82.9397 130.116 82.4869 130.26 82.1717 130.353C81.8565 130.447 81.6826 130.49 81.679 130.48C81.6754 130.465 81.842 130.4 82.15 130.285C82.4905 130.155 82.9252 129.993 83.4432 129.795C84.5336 129.373 86.0153 128.742 87.573 127.873C88.3555 127.448 89.1344 127.07 89.8987 126.879C90.6595 126.688 91.355 126.623 91.9346 126.54C92.5143 126.46 92.9743 126.374 93.2895 126.291C93.6047 126.208 93.7749 126.147 93.7822 126.161Z" fill="#EB996E"/>
<path d="M99.0749 127.693C99.0459 127.693 99.0387 127.52 98.9699 127.261C98.9011 127.001 98.7561 126.655 98.4844 126.352C98.2127 126.05 97.8831 125.869 97.6295 125.776C97.3759 125.678 97.2057 125.653 97.2093 125.624C97.2093 125.603 97.3904 125.581 97.6694 125.649C97.9483 125.718 98.325 125.898 98.6221 126.23C98.9228 126.561 99.0604 126.954 99.0967 127.235C99.1401 127.52 99.0967 127.693 99.0749 127.693Z" fill="#EB996E"/>
<path d="M102.074 131.756C102.042 131.749 102.107 131.514 102.02 131.15C101.94 130.793 101.679 130.321 101.23 129.972C100.777 129.622 100.278 129.438 99.9189 129.301C99.5603 129.168 99.332 129.085 99.3429 129.056C99.3501 129.031 99.5856 129.07 99.9624 129.175C100.332 129.279 100.861 129.452 101.346 129.824C101.832 130.202 102.1 130.728 102.15 131.125C102.208 131.529 102.089 131.767 102.074 131.756Z" fill="#EB996E"/>
<path d="M84.3199 132.333C84.3272 132.343 84.2185 132.419 84.0048 132.52C83.791 132.625 83.4759 132.754 83.0701 132.884C82.8636 132.945 82.6535 133.017 82.3927 133.068C82.1319 133.104 81.8529 133.079 81.574 132.985C81.2769 132.898 81.0451 132.635 80.9147 132.351C80.7843 132.066 80.6973 131.738 80.7408 131.392C80.7662 131.147 80.9111 130.905 81.0849 130.757C81.2588 130.599 81.4472 130.487 81.6392 130.393L81.5921 130.498C81.4508 130.026 81.4798 129.514 81.6863 129.142C81.8855 128.771 82.1464 128.512 82.3746 128.317C82.6064 128.122 82.8057 128 82.947 127.917C83.0883 127.834 83.168 127.798 83.1752 127.809C83.1933 127.834 82.8818 128.011 82.4507 128.404C82.2406 128.602 81.9978 128.865 81.8276 129.211C81.6501 129.557 81.632 130 81.7696 130.447L81.7914 130.516L81.7225 130.552C81.382 130.728 80.9726 130.988 80.9328 131.413C80.8929 131.705 80.969 132.008 81.0849 132.268C81.2045 132.527 81.3892 132.74 81.6356 132.816C81.8855 132.906 82.1428 132.935 82.3746 132.909C82.6028 132.873 82.8347 132.805 83.0339 132.754C83.436 132.643 83.7584 132.531 83.9758 132.448C84.1931 132.372 84.3127 132.318 84.3199 132.333Z" fill="#EB996E"/>
<path d="M143.728 30.1714C150.851 29.8421 156.357 23.8299 156.026 16.7426C155.695 9.65526 149.653 4.17675 142.53 4.50596C135.408 4.83517 129.902 10.8474 130.233 17.9347C130.563 25.0221 136.606 30.5006 143.728 30.1714Z" fill="white"/>
<path d="M135.946 32.1821C135.949 32.1929 136.076 32.1317 136.322 32.0992C136.565 32.0668 136.942 32.0848 137.333 32.2903C137.525 32.3948 137.721 32.5426 137.873 32.7481C138.021 32.9535 138.13 33.213 138.145 33.5014C138.184 34.0637 137.895 34.7414 137.297 35.0442C136.696 35.3362 135.975 35.1631 135.547 34.7883C135.326 34.6044 135.181 34.3629 135.105 34.1178C135.033 33.8727 135.033 33.6276 135.065 33.4113C135.138 32.9751 135.348 32.6651 135.522 32.4921C135.696 32.3155 135.822 32.2542 135.815 32.2434C135.812 32.2398 135.783 32.2542 135.725 32.2867C135.696 32.3011 135.659 32.3227 135.62 32.3551C135.58 32.384 135.533 32.4164 135.489 32.4633C135.301 32.6327 135.069 32.9463 134.982 33.4005C134.942 33.624 134.939 33.8835 135.011 34.1466C135.087 34.4062 135.239 34.6729 135.475 34.8712C135.703 35.073 136.007 35.2208 136.333 35.2785C136.663 35.3398 137.025 35.3037 137.348 35.1487C137.666 34.9865 137.916 34.7198 138.061 34.4206C138.213 34.125 138.275 33.797 138.25 33.4906C138.232 33.1842 138.112 32.903 137.945 32.6868C137.779 32.4705 137.569 32.3191 137.362 32.2146C136.945 32.0091 136.554 32.0055 136.304 32.0524C136.243 32.0632 136.185 32.0776 136.141 32.092C136.094 32.1064 136.054 32.1208 136.025 32.1353C135.975 32.1641 135.942 32.1785 135.946 32.1821Z" fill="#263238"/>
<path d="M132.377 24.6485C132.377 24.6485 132.345 24.5872 132.272 24.4646C132.2 24.3421 132.095 24.1655 131.954 23.9348C131.885 23.8194 131.805 23.6897 131.718 23.5455C131.638 23.3977 131.566 23.2319 131.479 23.0516C131.392 22.8714 131.301 22.6804 131.204 22.4749C131.149 22.374 131.109 22.2658 131.07 22.1505C131.03 22.0351 130.986 21.9198 130.943 21.7972C130.562 20.842 130.28 19.602 130.182 18.153C130.092 16.7039 130.24 15.0206 130.827 13.2795C130.903 13.0633 130.979 12.8434 131.055 12.6235C131.146 12.4072 131.251 12.1946 131.349 11.9747C131.399 11.8665 131.45 11.7548 131.501 11.6467C131.551 11.5349 131.599 11.4232 131.667 11.3222C131.791 11.1096 131.914 10.8969 132.04 10.6806C132.106 10.5725 132.164 10.4643 132.232 10.3562C132.305 10.2553 132.381 10.1507 132.457 10.0462C132.606 9.83714 132.758 9.62807 132.91 9.419C133.069 9.21354 133.254 9.02249 133.424 8.82064C133.511 8.71971 133.602 8.62238 133.689 8.52145C133.732 8.47099 133.776 8.42052 133.823 8.37366L133.971 8.23669C134.37 7.87262 134.754 7.47972 135.218 7.16252C135.442 6.9967 135.659 6.81647 135.895 6.66148C136.138 6.51369 136.38 6.3659 136.627 6.21811C136.75 6.14602 136.869 6.06311 137 5.99823C137.13 5.93695 137.261 5.87207 137.395 5.81079C137.659 5.68823 137.92 5.55126 138.195 5.43591C138.757 5.24126 139.311 5.00696 139.905 4.8808C140.054 4.84475 140.199 4.8051 140.347 4.76906C140.42 4.75103 140.496 4.7294 140.572 4.71499L140.8 4.67894C141.104 4.63208 141.412 4.58882 141.72 4.54196C142.028 4.50952 142.343 4.50592 142.658 4.48429C142.814 4.48069 142.974 4.45906 143.133 4.46627L143.608 4.4879C144.245 4.4879 144.883 4.60324 145.524 4.68975C145.839 4.76545 146.158 4.84115 146.477 4.91684L146.716 4.97452C146.795 4.99975 146.871 5.02498 146.951 5.05382L147.418 5.21242L147.889 5.37102L148.346 5.57288L148.802 5.77835L149.031 5.88288C149.103 5.92253 149.175 5.96579 149.252 6.00544C149.541 6.17125 149.835 6.34066 150.128 6.51008C150.404 6.70473 150.682 6.90298 150.958 7.10124C152.041 7.9303 153.005 8.93959 153.816 10.0822C154.595 11.2465 155.185 12.5082 155.569 13.813C155.653 14.141 155.736 14.4727 155.819 14.7971C155.87 15.1323 155.921 15.4639 155.971 15.7956L156.008 16.0443L156.022 16.293L156.048 16.7904L156.073 17.2879L156.051 17.7817L156.029 18.2755L156.019 18.5206L155.986 18.7622C155.942 19.0866 155.895 19.4074 155.852 19.7282C155.7 20.3554 155.573 20.9862 155.345 21.5774L155.193 22.0243C155.142 22.1721 155.066 22.3127 155.004 22.4569C154.87 22.7416 154.751 23.03 154.609 23.304C154.454 23.5743 154.301 23.841 154.146 24.1042L154.03 24.3024C153.986 24.3673 153.943 24.4286 153.899 24.4899C153.809 24.6124 153.722 24.7386 153.635 24.8612C153.302 25.3694 152.878 25.7983 152.494 26.2453C152.287 26.458 152.066 26.649 151.853 26.8509C151.748 26.9518 151.639 27.0491 151.534 27.1465C151.425 27.2438 151.306 27.3231 151.193 27.4132C150.965 27.5862 150.737 27.7593 150.509 27.9323C150.277 28.0945 150.03 28.2315 149.791 28.3792C149.328 28.6929 148.817 28.9055 148.331 29.1434L148.15 29.2299C148.089 29.2552 148.023 29.2768 147.962 29.2984C147.835 29.3453 147.712 29.3885 147.585 29.4354C147.335 29.5219 147.089 29.6228 146.839 29.6949C146.585 29.7598 146.335 29.8211 146.085 29.886C145.962 29.9184 145.839 29.9473 145.716 29.9797C145.589 29.9977 145.466 30.0193 145.343 30.0374C145.093 30.0734 144.85 30.1131 144.604 30.1491C144.484 30.1707 144.361 30.1779 144.238 30.1852C144.115 30.1924 143.995 30.1996 143.876 30.2032C143.636 30.214 143.397 30.232 143.162 30.2392C142.926 30.2284 142.695 30.2212 142.463 30.2104C140.622 30.1203 138.992 29.6481 137.666 29.0389C137.5 28.9632 137.333 28.8911 137.174 28.8154C137.022 28.7289 136.869 28.6424 136.721 28.5595C136.572 28.4766 136.427 28.3937 136.286 28.3108C136.217 28.2675 136.145 28.2315 136.076 28.1882C136.011 28.1413 135.946 28.0981 135.88 28.0512C135.623 27.871 135.381 27.698 135.145 27.5322C134.917 27.3627 134.721 27.1717 134.522 27.0059C134.424 26.923 134.33 26.8401 134.239 26.7608C134.145 26.6815 134.058 26.6058 133.982 26.5193C133.826 26.3535 133.678 26.1985 133.544 26.0543C133.41 25.9101 133.279 25.7803 133.171 25.6542C133.069 25.5208 132.975 25.4018 132.892 25.2937C132.725 25.081 132.598 24.9188 132.511 24.8071C132.424 24.7025 132.377 24.6485 132.377 24.6485C132.377 24.6485 132.417 24.7062 132.501 24.8179C132.588 24.9332 132.711 25.0954 132.87 25.3117C132.953 25.4199 133.044 25.5424 133.145 25.6758C133.25 25.8056 133.381 25.9353 133.515 26.0831C133.649 26.2273 133.797 26.3859 133.953 26.5517C134.029 26.6382 134.116 26.7175 134.207 26.7968C134.297 26.8761 134.392 26.959 134.489 27.0455C134.685 27.2114 134.881 27.4024 135.109 27.5754C135.341 27.7412 135.587 27.9179 135.844 28.1017C135.909 28.1486 135.975 28.1954 136.04 28.2387C136.105 28.2819 136.178 28.3216 136.25 28.3612C136.391 28.4441 136.536 28.527 136.685 28.6135C136.833 28.7001 136.982 28.7866 137.138 28.8731C137.297 28.9488 137.464 29.0209 137.63 29.1002C138.96 29.7202 140.597 30.2032 142.452 30.2969C142.684 30.3077 142.919 30.3185 143.155 30.3293C143.39 30.3257 143.633 30.3077 143.872 30.2969C143.991 30.2897 144.115 30.2861 144.238 30.2789C144.361 30.2753 144.484 30.2681 144.607 30.2464C144.854 30.2104 145.1 30.1743 145.35 30.1347C145.477 30.1167 145.6 30.0986 145.727 30.077C145.85 30.0446 145.977 30.0157 146.1 29.9833C146.35 29.922 146.603 29.8571 146.857 29.7923C147.111 29.7202 147.357 29.6192 147.61 29.5327C147.737 29.4859 147.864 29.4426 147.991 29.3958C148.052 29.3705 148.118 29.3525 148.183 29.3237L148.368 29.2371C148.857 28.9992 149.371 28.783 149.842 28.4694C150.081 28.3216 150.331 28.1846 150.563 28.0188C150.791 27.8458 151.019 27.6727 151.251 27.4997C151.364 27.4096 151.487 27.3303 151.595 27.233C151.704 27.1321 151.809 27.0347 151.918 26.9338C152.132 26.7319 152.356 26.5373 152.563 26.3246C152.95 25.874 153.378 25.4415 153.715 24.9296C153.805 24.8071 153.892 24.6809 153.983 24.5548C154.026 24.4935 154.073 24.4322 154.117 24.3673L154.233 24.1655C154.388 23.8987 154.544 23.6284 154.7 23.358C154.845 23.0805 154.964 22.7885 155.098 22.5037C155.16 22.3596 155.236 22.219 155.287 22.0676L155.443 21.6134C155.674 21.015 155.801 20.3806 155.957 19.7462C156.004 19.4218 156.048 19.0974 156.095 18.773L156.127 18.5279L156.138 18.2791L156.16 17.7817L156.182 17.2843L156.156 16.7832L156.131 16.2786L156.116 16.0263L156.08 15.7775C156.029 15.4423 155.979 15.1071 155.928 14.7718C155.845 14.4402 155.758 14.1086 155.674 13.777C155.287 12.4613 154.689 11.1853 153.903 10.0102C153.088 8.85668 152.113 7.84018 151.019 7.00391C150.737 6.80566 150.458 6.60741 150.179 6.40915C149.882 6.23974 149.588 6.07032 149.291 5.9009C149.219 5.85765 149.146 5.81439 149.07 5.77474L148.839 5.67021L148.378 5.46114L147.918 5.25568L147.444 5.09347L146.969 4.93126C146.89 4.90603 146.814 4.87719 146.734 4.85196L146.491 4.79429C146.169 4.71859 145.85 4.64289 145.531 4.5672C144.883 4.48069 144.241 4.36534 143.597 4.36534L143.115 4.34371C142.955 4.3365 142.796 4.35453 142.637 4.36173C142.321 4.38336 142.003 4.38697 141.691 4.41941C141.38 4.46627 141.072 4.51313 140.764 4.55999L140.536 4.59603C140.459 4.61045 140.387 4.63208 140.311 4.6501C140.162 4.68975 140.014 4.7258 139.865 4.76185C139.264 4.88801 138.702 5.12591 138.141 5.32417C137.866 5.43951 137.601 5.57649 137.337 5.70265C137.203 5.76753 137.072 5.82881 136.938 5.89369C136.808 5.95858 136.688 6.04148 136.562 6.11718C136.315 6.26857 136.069 6.41997 135.822 6.56776C135.583 6.72636 135.366 6.90659 135.138 7.0724C134.674 7.39321 134.287 7.79332 133.884 8.15739L133.736 8.29436C133.689 8.34122 133.645 8.39529 133.602 8.44576C133.511 8.54669 133.424 8.64762 133.337 8.74854C133.164 8.9504 132.979 9.14145 132.819 9.35051C132.667 9.56319 132.515 9.77586 132.367 9.98493C132.29 10.0895 132.218 10.194 132.142 10.2985C132.077 10.4067 132.015 10.5184 131.95 10.6265C131.823 10.8464 131.7 11.0627 131.577 11.2754C131.512 11.3799 131.461 11.4917 131.41 11.6034C131.359 11.7151 131.309 11.8269 131.258 11.935C131.16 12.1549 131.055 12.3712 130.965 12.5911C130.888 12.8145 130.812 13.0344 130.736 13.2543C130.153 15.0061 130.008 16.7003 130.106 18.1602C130.211 19.62 130.505 20.8636 130.892 21.8189C130.936 21.9414 130.979 22.0568 131.023 22.1721C131.062 22.2875 131.106 22.3956 131.16 22.4965C131.262 22.702 131.356 22.893 131.443 23.0733C131.533 23.2499 131.606 23.4193 131.689 23.5635C131.776 23.7041 131.859 23.8338 131.928 23.9492C132.073 24.1763 132.182 24.3529 132.258 24.4719C132.338 24.5908 132.377 24.6485 132.377 24.6485Z" fill="#263238"/>
<path d="M136.612 17.6626L138.525 15.7594L142.209 19.0216L149.447 12.0935L151.222 13.9931L141.938 22.6911L136.612 17.6626Z" fill="#FF5252"/>
<path d="M137.844 81.825C133.316 86.4352 122.943 96.2524 117.056 94.6891C110.551 92.9592 105.539 85.3722 105.288 80.5009C108.281 79.4264 111.358 78.3116 112.483 77.637L112.492 77.6367C112.759 77.4779 112.915 77.3415 112.921 77.2383C113.029 76.2793 111.036 68.0853 111.036 68.0853L124.92 64.3787C124.92 64.3787 125.062 67.1463 125.986 70.2342C126.784 72.9143 128.173 75.8461 130.579 77.3951C132.512 78.6321 135.183 80.219 137.844 81.825Z" fill="#FFBE9C"/>
<path d="M112.921 77.2309C113.03 76.2719 111.037 68.0778 111.037 68.0778L124.921 64.3712C124.921 64.3712 125.063 67.1389 125.987 70.2268C115.768 81.4907 112.906 77.3438 112.921 77.2309Z" fill="#FF9A6C"/>
<path d="M99.9304 60.3456C99.196 62.5339 95.8284 63.3963 92.4018 62.2561C88.9754 61.1253 86.794 58.426 87.5191 56.238C88.2535 54.0497 91.6211 53.1873 95.0477 54.3275C98.4834 55.458 100.665 58.1573 99.9304 60.3456Z" fill="#FFBE9C"/>
<path d="M101.076 36.3135L93.3217 38.1752C93.3217 38.1752 89.1444 49.4507 92.5945 56.799C95.1414 62.2203 101.076 36.3135 101.076 36.3135Z" fill="#1B2D35"/>
<path d="M133.789 52.8948C133.471 54.8723 132.944 56.7725 132.234 58.5759C128.003 69.4041 115.382 76.7395 105.76 75.208C94.5301 73.4306 90.9382 60.2986 93.1458 46.4382C93.5107 44.1781 94.1048 42.0134 94.9016 40.0012C98.9429 29.685 108.098 23.0653 117.483 24.558C128.703 26.3356 136.006 39.0247 133.789 52.8948Z" fill="#FFBE9C"/>
<path d="M127.081 31.792C127.081 31.792 130.084 27.4476 133.523 27.8667C136.962 28.2859 140.175 32.2446 140.175 32.2446C140.175 32.2446 134.763 29.7272 131.881 30.1982C131.881 30.1982 136.845 31.7094 137.888 36.3215C137.888 36.3215 133.068 31.8824 127.081 31.792Z" fill="#1B2D35"/>
<path d="M132.537 27.9144C129.565 33.1656 124.169 35.7345 120.485 33.6656C116.802 31.5968 116.231 25.6678 119.202 20.4166C122.173 15.1655 125.969 11.7227 131.254 14.6654C136.893 17.8023 135.508 22.6633 132.537 27.9144Z" fill="#1B2D35"/>
<path d="M135.221 52.8909C134.761 54.836 134.066 57.0794 133.356 58.8736C131.277 60.5075 127.211 61.0087 127.211 61.0087C127.197 60.625 123.32 43.0682 123.219 42.6031C123.239 43.1833 107.528 38.5652 94.9135 39.9984C94.7787 39.9092 94.6533 39.8197 94.5188 39.7399C93.7276 39.1668 93.1228 38.5406 92.7043 37.8614C92.7043 37.8614 92.7043 37.8614 92.704 37.852C88.6638 31.4389 100.909 21.4279 114.912 22.8992C115.167 22.9188 115.403 22.9483 115.658 22.9866C116.159 23.0542 116.661 23.1311 117.163 23.2268C122.827 24.321 127.148 26.5841 130.217 29.6573C135.936 35.3773 137.358 43.892 135.221 52.8909Z" fill="#1B2D35"/>
<path d="M130.214 29.6624C120.561 25.8895 99.8675 20.6673 92.6946 37.8608C88.6538 31.4449 100.901 21.4294 114.906 22.9014C115.161 22.921 115.397 22.9506 115.653 22.9889C116.154 23.0565 116.655 23.1335 117.157 23.2291C122.822 24.3238 127.144 26.5879 130.214 29.6624Z" fill="#041821"/>
<path d="M113.564 57.2068C113.599 58.2172 113.251 59.053 112.8 59.068C112.349 59.0831 111.945 58.2724 111.911 57.2621C111.876 56.2517 112.223 55.4159 112.674 55.4008C113.125 55.3858 113.529 56.1965 113.564 57.2068Z" fill="#1B2D35"/>
<path d="M98.2683 56.3081C98.3031 57.3185 97.9556 58.1543 97.5046 58.1694C97.0443 58.1847 96.6497 57.3737 96.615 56.3634C96.5803 55.353 96.9278 54.5172 97.3787 54.5022C97.8296 54.4871 98.2336 55.2978 98.2683 56.3081Z" fill="#1B2D35"/>
<path d="M102.816 56.398C102.21 58.1695 102.127 60.1202 102.593 61.9308" stroke="#1B2D35" stroke-width="0.75" stroke-miterlimit="10" stroke-linecap="round" stroke-linejoin="round"/>
<path d="M112.226 47.4636C113.946 47.1343 115.805 47.5695 117.197 48.6298" stroke="#1B2D35" stroke-miterlimit="10" stroke-linecap="round" stroke-linejoin="round"/>
<path d="M95.5797 44.4946C97.2314 44.0926 99.0607 44.4725 100.414 45.506" stroke="#1B2D35" stroke-miterlimit="10" stroke-linecap="round" stroke-linejoin="round"/>
<path d="M105.828 66.8316C108.56 67.2096 111.431 66.4012 113.563 64.6606" stroke="#1B2D35" stroke-width="0.75" stroke-miterlimit="10" stroke-linecap="round" stroke-linejoin="round"/>
<path d="M138.587 59.379C139.106 61.6283 136.668 64.0986 133.148 64.9005C129.628 65.7024 126.36 64.5195 125.841 62.2701C125.321 60.0208 127.759 57.5505 131.279 56.7486C134.8 55.9561 138.077 57.1293 138.587 59.379Z" fill="#FFBE9C"/>
<rect x="56" y="3" width="27" height="5" fill="white"/>
<path d="M48.1797 6.02344V6.29297C48.1797 6.72526 48.1211 7.11328 48.0039 7.45703C47.8867 7.80078 47.7214 8.09375 47.5078 8.33594C47.2943 8.57552 47.0391 8.75911 46.7422 8.88672C46.4479 9.01432 46.1211 9.07812 45.7617 9.07812C45.4049 9.07812 45.0781 9.01432 44.7812 8.88672C44.487 8.75911 44.2318 8.57552 44.0156 8.33594C43.7995 8.09375 43.6315 7.80078 43.5117 7.45703C43.3945 7.11328 43.3359 6.72526 43.3359 6.29297V6.02344C43.3359 5.58854 43.3945 5.20052 43.5117 4.85938C43.6289 4.51562 43.7943 4.22266 44.0078 3.98047C44.224 3.73828 44.4792 3.55339 44.7734 3.42578C45.0703 3.29818 45.3971 3.23438 45.7539 3.23438C46.1133 3.23438 46.4401 3.29818 46.7344 3.42578C47.0312 3.55339 47.2865 3.73828 47.5 3.98047C47.7161 4.22266 47.8828 4.51562 48 4.85938C48.1198 5.20052 48.1797 5.58854 48.1797 6.02344ZM46.9961 6.29297V6.01562C46.9961 5.71354 46.9688 5.44792 46.9141 5.21875C46.8594 4.98958 46.7786 4.79688 46.6719 4.64062C46.5651 4.48438 46.4349 4.36719 46.2812 4.28906C46.1276 4.20833 45.9518 4.16797 45.7539 4.16797C45.556 4.16797 45.3802 4.20833 45.2266 4.28906C45.0755 4.36719 44.9466 4.48438 44.8398 4.64062C44.7357 4.79688 44.6562 4.98958 44.6016 5.21875C44.5469 5.44792 44.5195 5.71354 44.5195 6.01562V6.29297C44.5195 6.59245 44.5469 6.85807 44.6016 7.08984C44.6562 7.31901 44.737 7.51302 44.8438 7.67188C44.9505 7.82812 45.0807 7.94661 45.2344 8.02734C45.388 8.10807 45.5638 8.14844 45.7617 8.14844C45.9596 8.14844 46.1354 8.10807 46.2891 8.02734C46.4427 7.94661 46.5716 7.82812 46.6758 7.67188C46.7799 7.51302 46.8594 7.31901 46.9141 7.08984C46.9688 6.85807 46.9961 6.59245 46.9961 6.29297ZM53.6523 3.3125V9H52.4805L50.1953 5.1875V9H49.0234V3.3125H50.1953L52.4844 7.12891V3.3125H53.6523ZM58.3281 8.08594V9H55.4648V8.08594H58.3281ZM55.8438 3.3125V9H54.6719V3.3125H55.8438ZM60.2461 3.3125V9H59.0781V3.3125H60.2461ZM65.9727 3.3125V9H64.8008L62.5156 5.1875V9H61.3438V3.3125H62.5156L64.8047 7.12891V3.3125H65.9727ZM70.8086 8.08594V9H67.7812V8.08594H70.8086ZM68.1641 3.3125V9H66.9922V3.3125H68.1641ZM70.4141 5.62891V6.51953H67.7812V5.62891H70.4141ZM70.8047 3.3125V4.23047H67.7812V3.3125H70.8047ZM75.8164 3.3125V9H74.6484V3.3125H75.8164ZM77.5664 3.3125V4.23047H72.9258V3.3125H77.5664ZM82.0508 8.08594V9H79.0234V8.08594H82.0508ZM79.4062 3.3125V9H78.2344V3.3125H79.4062ZM81.6562 5.62891V6.51953H79.0234V5.62891H81.6562ZM82.0469 3.3125V4.23047H79.0234V3.3125H82.0469ZM85.6953 7.51172C85.6953 7.41016 85.6797 7.31901 85.6484 7.23828C85.6198 7.15495 85.5651 7.07943 85.4844 7.01172C85.4036 6.94141 85.2904 6.8724 85.1445 6.80469C84.9987 6.73698 84.8099 6.66667 84.5781 6.59375C84.3203 6.51042 84.0755 6.41667 83.8438 6.3125C83.6146 6.20833 83.4115 6.08724 83.2344 5.94922C83.0599 5.80859 82.9219 5.64583 82.8203 5.46094C82.7214 5.27604 82.6719 5.0612 82.6719 4.81641C82.6719 4.57943 82.724 4.36458 82.8281 4.17188C82.9323 3.97656 83.0781 3.8099 83.2656 3.67188C83.4531 3.53125 83.6745 3.42318 83.9297 3.34766C84.1875 3.27214 84.4701 3.23438 84.7773 3.23438C85.1966 3.23438 85.5625 3.3099 85.875 3.46094C86.1875 3.61198 86.4297 3.81901 86.6016 4.08203C86.776 4.34505 86.8633 4.64583 86.8633 4.98438H85.6992C85.6992 4.81771 85.6641 4.67188 85.5938 4.54688C85.526 4.41927 85.4219 4.31901 85.2812 4.24609C85.1432 4.17318 84.9688 4.13672 84.7578 4.13672C84.5547 4.13672 84.3854 4.16797 84.25 4.23047C84.1146 4.29036 84.013 4.3724 83.9453 4.47656C83.8776 4.57812 83.8438 4.69271 83.8438 4.82031C83.8438 4.91667 83.8672 5.00391 83.9141 5.08203C83.9635 5.16016 84.0365 5.23307 84.1328 5.30078C84.2292 5.36849 84.3477 5.43229 84.4883 5.49219C84.6289 5.55208 84.7917 5.61068 84.9766 5.66797C85.2865 5.76172 85.5586 5.86719 85.793 5.98438C86.0299 6.10156 86.2279 6.23307 86.3867 6.37891C86.5456 6.52474 86.6654 6.6901 86.7461 6.875C86.8268 7.0599 86.8672 7.26953 86.8672 7.50391C86.8672 7.7513 86.819 7.97266 86.7227 8.16797C86.6263 8.36328 86.487 8.52865 86.3047 8.66406C86.1224 8.79948 85.9049 8.90234 85.6523 8.97266C85.3997 9.04297 85.1172 9.07812 84.8047 9.07812C84.5234 9.07812 84.2461 9.04167 83.9727 8.96875C83.6992 8.89323 83.4505 8.77995 83.2266 8.62891C83.0052 8.47786 82.8281 8.28516 82.6953 8.05078C82.5625 7.81641 82.4961 7.53906 82.4961 7.21875H83.6719C83.6719 7.39583 83.6992 7.54557 83.7539 7.66797C83.8086 7.79036 83.8854 7.88932 83.9844 7.96484C84.0859 8.04036 84.2057 8.09505 84.3438 8.12891C84.4844 8.16276 84.638 8.17969 84.8047 8.17969C85.0078 8.17969 85.1745 8.15104 85.3047 8.09375C85.4375 8.03646 85.5352 7.95703 85.5977 7.85547C85.6628 7.75391 85.6953 7.63932 85.6953 7.51172ZM90.207 3.3125V9H89.0391V3.3125H90.207ZM91.957 3.3125V4.23047H87.3164V3.3125H91.957Z" fill="#FF5252"/>
</g>
<defs>
<clipPath id="clip0_11415_170397">
<rect width="160" height="142" fill="white"/>
</clipPath>
</defs>
</svg>
