<svg width="315" height="206" viewBox="0 0 315 206" fill="none" xmlns="http://www.w3.org/2000/svg">
<g clip-path="url(#clip0_11415_170255)">
<path d="M5.65712 193.566C5.65712 193.566 9.89593 172.076 9.89593 170.381C9.89593 168.685 9.61511 162.465 8.20041 154.83C6.791 147.195 2.5469 128.248 1.41831 125.138C0.289731 122.028 4.52854 116.374 5.65712 109.868C6.78571 103.361 9.33429 97.1463 12.7253 93.1831C16.1164 89.2252 28.2765 80.4617 28.2765 80.4617H34.4969C34.4969 80.4617 32.2344 117.784 35.3447 123.442C38.4549 129.096 44.1084 140.975 44.6754 146.061C45.2423 151.153 41.846 159.636 42.4129 164.441C42.9798 169.247 38.1741 177.163 37.0402 180.559C35.9116 183.95 36.4733 194.695 36.4733 194.695" fill="#FFBE9D"/>
<path d="M5.65712 193.566C5.65712 193.566 9.89593 172.076 9.89593 170.381C9.89593 168.685 9.61511 162.465 8.20041 154.83C6.791 147.195 2.5469 128.248 1.41831 125.138C0.289731 122.028 4.52854 116.374 5.65712 109.868C6.78571 103.361 9.33429 97.1463 12.7253 93.1831C16.1164 89.2252 28.2765 80.4617 28.2765 80.4617H34.4969C34.4969 80.4617 32.2344 117.784 35.3447 123.442C38.4549 129.096 44.1084 140.975 44.6754 146.061C45.2423 151.153 41.846 159.636 42.4129 164.441C42.9798 169.247 38.1741 177.163 37.0402 180.559C35.9116 183.95 36.4733 194.695 36.4733 194.695" stroke="#455A64" stroke-miterlimit="10" stroke-linecap="round" stroke-linejoin="round"/>
<path d="M27.7148 90.9259L23.1952 96.1819C23.1952 96.1819 22.0613 102.238 21.4944 105.062C20.9274 107.891 19.7988 110.154 19.7988 110.154C19.7988 110.154 21.7805 114.679 22.9091 116.374C24.0376 118.07 24.6046 119.765 24.6046 119.765L27.7148 121.747V90.9259C30.2581 89.2304 27.7148 90.9259 27.7148 90.9259Z" fill="#FFBE9D"/>
<path d="M27.7148 90.9259L23.1952 96.1819C23.1952 96.1819 22.0613 102.238 21.4944 105.062C20.9274 107.891 19.7988 110.154 19.7988 110.154C19.7988 110.154 21.7805 114.679 22.9091 116.374C24.0376 118.07 24.6046 119.765 24.6046 119.765L27.7148 121.747V90.9259C27.7148 90.9259 30.2581 89.2304 27.7148 90.9259Z" stroke="#455A64" stroke-miterlimit="10" stroke-linecap="round" stroke-linejoin="round"/>
<path d="M12.0947 110.869C12.0947 110.869 14.3784 110.541 16.662 110.541" stroke="#FFBE9D" stroke-miterlimit="10" stroke-linecap="round" stroke-linejoin="round"/>
<path d="M19.926 93.8984C19.926 93.8984 23.1899 94.8786 23.1899 96.182" stroke="#FFBE9D" stroke-miterlimit="10" stroke-linecap="round" stroke-linejoin="round"/>
<path d="M0.518555 198.889C0.518555 198.889 1.45537 183.523 1.45537 182.108C1.45537 180.694 1.45537 179.284 1.45537 177.87C1.45537 176.455 2.87007 175.395 2.87007 175.395C2.87007 175.395 16.6462 172.571 30.4223 177.16C44.1984 181.753 41.0193 189.171 41.0193 189.171L39.2276 204.62" fill="#455A64"/>
<path d="M0.518555 198.889C0.518555 198.889 1.45537 183.523 1.45537 182.108C1.45537 180.694 1.45537 179.284 1.45537 177.87C1.45537 176.455 2.87007 175.395 2.87007 175.395C2.87007 175.395 16.6462 172.571 30.4223 177.16C44.1984 181.753 41.0193 189.171 41.0193 189.171L39.2276 204.62" stroke="#455A64" stroke-miterlimit="10" stroke-linecap="round" stroke-linejoin="round"/>
<path d="M195.964 146.347H31.3816C28.5734 146.347 26.3003 144.074 26.3003 141.266V43.4154C26.3003 40.6072 28.5734 38.3342 31.3816 38.3342H195.964C198.772 38.3342 201.045 40.6072 201.045 43.4154V141.266C201.04 144.074 198.767 146.347 195.964 146.347Z" fill="#455A64" stroke="#455A64" stroke-miterlimit="10" stroke-linecap="round" stroke-linejoin="round"/>
<path d="M189.86 140.408H37.4856C34.6774 140.408 32.4043 138.135 32.4043 135.327V49.3548C32.4043 46.5467 34.6774 44.2737 37.4856 44.2737H189.86C192.668 44.2737 194.941 46.5467 194.941 49.3548V135.332C194.936 138.135 192.663 140.408 189.86 140.408Z" fill="white" stroke="#455A64" stroke-miterlimit="10" stroke-linecap="round" stroke-linejoin="round"/>
<path d="M182.93 48.168H139.54V75.9368H182.93V48.168Z" fill="white" stroke="#455A64" stroke-miterlimit="10" stroke-linecap="round" stroke-linejoin="round"/>
<path d="M182.93 72.8425H139.54V75.9368H182.93V72.8425Z" fill="#455A64" stroke="#455A64" stroke-miterlimit="10" stroke-linecap="round" stroke-linejoin="round"/>
<path d="M182.93 73.9395H139.54V74.8402H182.93V73.9395Z" fill="white" stroke="#455A64" stroke-miterlimit="10" stroke-linecap="round" stroke-linejoin="round"/>
<path d="M161.022 68.2869C164.539 67.9904 167.149 64.8993 166.853 61.3826C166.556 57.866 163.465 55.2554 159.948 55.5519C156.432 55.8483 153.821 58.9395 154.118 62.4561C154.414 65.9728 157.505 68.5833 161.022 68.2869Z" fill="#FF5252"/>
<path d="M164.183 62.0551L158.625 58.8496V65.266L164.183 62.0551Z" fill="white"/>
<path d="M182.93 78.9358H139.54V106.705H182.93V78.9358Z" fill="white" stroke="#455A64" stroke-miterlimit="10" stroke-linecap="round" stroke-linejoin="round"/>
<path d="M182.93 103.61H139.54V106.705H182.93V103.61Z" fill="#455A64" stroke="#455A64" stroke-miterlimit="10" stroke-linecap="round" stroke-linejoin="round"/>
<path d="M182.93 104.707H139.54V105.608H182.93V104.707Z" fill="white" stroke="#455A64" stroke-miterlimit="10" stroke-linecap="round" stroke-linejoin="round"/>
<path d="M161.022 99.0557C164.539 98.7592 167.15 95.6681 166.853 92.1514C166.557 88.6347 163.465 86.0242 159.949 86.3207C156.432 86.6171 153.821 89.7082 154.118 93.2249C154.414 96.7416 157.505 99.3521 161.022 99.0557Z" fill="#FF5252"/>
<path d="M164.183 92.8229L158.625 89.6121V96.0337L164.183 92.8229Z" fill="white"/>
<path d="M182.93 109.704H139.54V137.472H182.93V109.704Z" fill="white" stroke="#455A64" stroke-miterlimit="10" stroke-linecap="round" stroke-linejoin="round"/>
<path d="M182.93 134.378H139.54V137.472H182.93V134.378Z" fill="#455A64" stroke="#455A64" stroke-miterlimit="10" stroke-linecap="round" stroke-linejoin="round"/>
<path d="M182.93 135.47H139.54V136.37H182.93V135.47Z" fill="white" stroke="#455A64" stroke-miterlimit="10" stroke-linecap="round" stroke-linejoin="round"/>
<path d="M166.819 124.251C167.262 120.75 164.783 117.553 161.281 117.11C157.78 116.667 154.583 119.146 154.14 122.647C153.697 126.148 156.176 129.346 159.677 129.788C163.179 130.231 166.376 127.752 166.819 124.251Z" fill="#FF5252"/>
<path d="M164.184 123.585L158.625 120.38V126.796L164.184 123.585Z" fill="white"/>
<path fill-rule="evenodd" clip-rule="evenodd" d="M124.752 138.77H50.8537C49.1581 138.77 47.7805 137.393 47.7805 135.697V60.492C47.7805 58.7965 49.1581 57.4189 50.8537 57.4189H124.752C126.448 57.4189 127.825 58.7965 127.825 60.492V135.697C127.825 137.393 126.448 138.77 124.752 138.77Z" fill="#FF5252"/>
<path d="M18.6758 130.823C18.6758 130.823 23.7571 119.77 24.324 115.526C24.8909 111.288 23.7571 101.39 25.1718 97.4324C26.5865 93.4745 25.7387 88.3828 29.1297 86.4065C32.5208 84.4249 37.0457 84.9918 37.8935 92.9076C38.7412 100.823 37.8935 113.264 38.1743 117.508C38.4551 121.747 45.8095 127.972 46.0903 137.017C46.3711 146.066 43.2609 155.397 42.4131 159.355C41.5653 163.313 38.1743 172.643 38.1743 172.643" fill="#FFBE9D"/>
<path d="M18.6758 130.823C18.6758 130.823 23.7571 119.77 24.324 115.526C24.8909 111.288 23.7571 101.39 25.1718 97.4324C26.5865 93.4745 25.7387 88.3828 29.1297 86.4065C32.5208 84.4249 37.0457 84.9918 37.8935 92.9076C38.7412 100.823 37.8935 113.264 38.1743 117.508C38.4551 121.747 45.8095 127.972 46.0903 137.017C46.3711 146.066 43.2609 155.397 42.4131 159.355C41.5653 163.313 38.1743 172.643 38.1743 172.643" stroke="#455A64" stroke-miterlimit="10" stroke-linecap="round" stroke-linejoin="round"/>
<path d="M26.5652 95.5516C26.5652 95.5516 28.8435 94.884 31.673 95.4509C34.5024 96.0178 36.1979 96.5795 36.1979 96.5795C36.1979 96.5795 36.4787 93.7501 36.1979 90.9261C36.1979 90.9261 36.5741 87.6941 34.6136 86.3907C32.6532 85.0872 28.7376 85.4104 27.4341 88.3511C26.1254 91.2864 26.5652 95.5516 26.5652 95.5516Z" stroke="#FFBE9D" stroke-miterlimit="10" stroke-linecap="round" stroke-linejoin="round"/>
<path d="M33.6336 100.749C33.6336 100.749 27.1058 98.7889 25.4739 101.401" stroke="#FFBE9D" stroke-miterlimit="10" stroke-linecap="round" stroke-linejoin="round"/>
<path d="M27.1057 102.381C27.1057 102.381 29.0662 103.033 33.305 102.71" stroke="#FFBE9D" stroke-miterlimit="10" stroke-linecap="round" stroke-linejoin="round"/>
<path d="M197.368 54.7327C197.368 54.7327 190.014 56.9951 190.58 58.9714C191.147 60.953 204.717 77.9131 206.979 77.3515C209.242 76.7846 211.785 69.4357 211.785 64.344C211.785 59.2522 197.368 54.7327 197.368 54.7327Z" fill="#455A64" stroke="#455A64" stroke-miterlimit="10" stroke-linecap="round" stroke-linejoin="round"/>
<path d="M257.458 104.686L250.522 96.3038C250.522 96.3038 241.473 75.0996 238.929 70.8556C236.386 66.6169 230.727 54.4571 228.751 53.8901C226.769 53.3232 223.945 53.0424 223.097 52.4755C222.25 51.9085 218.859 50.78 214.334 50.4939C209.809 50.2131 200.478 48.2315 196.52 47.1029C192.562 45.9743 192.281 47.1029 187.47 48.7984C182.664 50.4939 168.242 55.5856 167.113 56.4334C165.985 57.2811 167.394 59.8243 171.071 61.239C174.748 62.6537 176.444 61.5198 180.683 60.9582C184.922 60.3913 191.428 59.2627 192.276 59.2627C193.124 59.2627 199.344 60.1105 200.478 60.6774C201.607 61.2443 204.436 65.7691 204.436 68.0316C204.436 70.294 203.869 72.8372 203.869 72.8372L203.752 92.473C203.752 92.473 212.707 102.572 218.906 106.016C225.105 109.46 228.089 109.688 228.089 109.688L237.732 118.642" fill="#FFBE9D"/>
<path d="M257.458 104.686L250.522 96.3038C250.522 96.3038 241.473 75.0996 238.929 70.8556C236.386 66.6169 230.727 54.4571 228.751 53.8901C226.769 53.3232 223.945 53.0424 223.097 52.4755C222.25 51.9085 218.859 50.78 214.334 50.4939C209.809 50.2131 200.478 48.2315 196.52 47.1029C192.562 45.9743 192.281 47.1029 187.47 48.7984C182.664 50.4939 168.242 55.5856 167.113 56.4334C165.985 57.2811 167.394 59.8243 171.071 61.239C174.748 62.6537 176.444 61.5198 180.683 60.9582C184.922 60.3913 191.428 59.2627 192.276 59.2627C193.124 59.2627 199.344 60.1105 200.478 60.6774C201.607 61.2443 204.436 65.7691 204.436 68.0316C204.436 70.294 203.869 72.8372 203.869 72.8372L203.752 92.473C203.752 92.473 212.707 102.572 218.906 106.016C225.105 109.46 228.089 109.688 228.089 109.688L237.732 118.642" stroke="#455A64" stroke-miterlimit="10" stroke-linecap="round" stroke-linejoin="round"/>
<path d="M223.097 52.4756C223.097 52.4756 225.927 55.3049 227.622 58.9767L223.097 52.4756Z" fill="white"/>
<path d="M223.097 52.4756C223.097 52.4756 225.927 55.3049 227.622 58.9767" stroke="#455A64" stroke-miterlimit="10" stroke-linecap="round" stroke-linejoin="round"/>
<path d="M249.691 136.651L228.189 112.416C228.189 112.416 218.292 108.177 211.79 103.933C205.289 99.6947 197.368 86.1202 195.391 83.0101C193.41 79.8999 189.171 73.6796 185.78 71.4172C182.389 69.1548 176.168 62.0867 174.754 59.2574C173.339 56.428 175.882 52.7562 178.993 52.4701C182.103 52.1893 195.111 58.4096 197.373 61.8006C199.636 65.1916 206.137 72.2649 206.137 72.2649" fill="#FFBE9D"/>
<path d="M249.691 136.651L228.189 112.416C228.189 112.416 218.292 108.177 211.79 103.933C205.289 99.6947 197.368 86.1202 195.391 83.0101C193.41 79.8999 189.171 73.6796 185.78 71.4172C182.389 69.1548 176.168 62.0867 174.754 59.2574C173.339 56.428 175.882 52.7562 178.993 52.4701C182.103 52.1893 195.111 58.4096 197.373 61.8006C199.636 65.1916 206.137 72.2649 206.137 72.2649" stroke="#455A64" stroke-miterlimit="10" stroke-linecap="round" stroke-linejoin="round"/>
<path d="M190.3 62.3674C190.3 62.3674 186.909 65.7584 186.623 67.4592" stroke="#455A64" stroke-miterlimit="10" stroke-linecap="round" stroke-linejoin="round"/>
<path d="M192.843 62.6536C192.843 62.6536 190.3 66.6115 188.604 68.0261" stroke="#455A64" stroke-miterlimit="10" stroke-linecap="round" stroke-linejoin="round"/>
<path d="M187.47 56.9949C183.793 59.5434 181.25 64.3491 181.25 64.3491C181.25 64.3491 175.204 62.1502 174.748 59.2573C174.287 56.3697 175.204 53.4715 178.987 52.4701C182.77 51.474 187.47 56.9949 187.47 56.9949Z" stroke="#455A64" stroke-miterlimit="10" stroke-linecap="round" stroke-linejoin="round"/>
<path d="M266.982 162.209C265.923 160.444 232.38 124.11 231.321 120.581C230.261 117.047 234.5 108.924 241.213 101.507C244.758 97.5912 253.59 91.2066 258.539 96.4096C260.584 98.5555 285.424 118.467 287.638 120.581" fill="#455A64"/>
<path d="M266.982 162.209C265.923 160.444 232.38 124.11 231.321 120.581C230.261 117.047 234.5 108.924 241.213 101.507C244.758 97.5912 253.59 91.2066 258.539 96.4096C260.584 98.5555 285.424 118.467 287.638 120.581" stroke="#455A64" stroke-miterlimit="10" stroke-linecap="round" stroke-linejoin="round"/>
<path d="M107.834 140.286L108.798 125.175C108.798 125.175 109.45 127.771 109.937 128.746C110.425 129.721 120.328 125.175 120.328 125.175C120.328 125.175 117.731 107.637 116.105 101.305C114.483 94.9739 113.996 86.6925 112.534 86.2051C111.071 85.7176 92.7224 77.113 92.2402 77.113C91.7581 77.113 81.8498 78.0879 81.8498 78.0879L65.7742 87.8317L68.1797 140.286H107.834Z" fill="#455A64" stroke="#455A64" stroke-miterlimit="10" stroke-linecap="round" stroke-linejoin="round"/>
<path d="M95.0962 99.7002C95.075 100.235 95.0485 100.755 95.0061 101.258" stroke="#455A64" stroke-miterlimit="10" stroke-linecap="round" stroke-linejoin="round"/>
<path d="M94.1211 85.7175C94.1211 85.7175 95.0483 91.7312 95.1172 97.3952" stroke="#455A64" stroke-miterlimit="10" stroke-linecap="round" stroke-linejoin="round"/>
<path d="M106.965 98.3544L107.013 95.7847" stroke="#455A64" stroke-miterlimit="10" stroke-linecap="round" stroke-linejoin="round"/>
<path d="M106.483 124.216L106.933 100.267" stroke="#455A64" stroke-miterlimit="10" stroke-linecap="round" stroke-linejoin="round"/>
<path d="M122.32 140.286L121.143 130.399L110.017 132.518L113.821 140.286H122.32Z" fill="#FFBE9D" stroke="#455A64" stroke-miterlimit="10" stroke-linecap="round" stroke-linejoin="round"/>
<path d="M108.252 127.925C108.252 127.925 110.727 126.865 113.906 124.92C117.085 122.976 120.089 122.446 120.969 124.036C121.853 125.625 123.793 130.039 123.088 130.749C122.383 131.453 111.961 134.813 110.901 134.813C109.842 134.813 107.902 131.252 107.902 131.252C107.902 131.252 107.542 129.694 108.252 127.925Z" fill="#303F46" stroke="#455A64" stroke-miterlimit="10" stroke-linecap="round" stroke-linejoin="round"/>
<path d="M83.7943 73.3829C83.7943 73.3829 81.961 74.8559 81.357 75.8202C80.5463 77.1183 80.0588 79.3913 80.0588 79.3913L87.0423 89.135L91.4241 82.316L93.0455 81.3411L100.029 86.0514C100.029 86.0514 97.5916 77.611 94.9953 75.0095C92.3991 72.408 85.2567 72.7312 83.7943 73.3829Z" fill="#303F46" stroke="#2C393F" stroke-miterlimit="10" stroke-linecap="round" stroke-linejoin="round"/>
<path d="M92.3939 39.5845C92.3939 39.5845 96.0711 42.5251 96.4419 44.1835C96.8075 45.8366 95.7955 49.4607 95.7955 49.4607L90.9209 39.9501L92.3939 39.5845Z" fill="#455A64" stroke="#455A64" stroke-miterlimit="10" stroke-linecap="round" stroke-linejoin="round"/>
<path d="M91.2652 38.1487C91.2652 38.1487 97.9201 52.5974 98.8951 57.4719C99.87 62.3411 99.3825 66.8872 97.5969 70.2993C95.8113 73.7115 93.8615 73.224 93.8615 73.224V84.2659C93.8615 84.2659 85.2567 77.4469 84.7692 76.6362C84.2818 75.8255 83.4711 74.3632 83.4711 74.3632C83.4711 74.3632 82.4962 67.221 79.4124 65.1069C79.4124 65.1069 75.3538 65.7586 74.3789 62.0232C73.4039 58.2879 74.2146 56.9898 76.8162 56.6666C76.8162 56.6666 74.7074 51.3099 74.2199 47.7388C73.7324 44.1677 79.741 43.0285 83.3121 40.7555C86.878 38.4719 91.2652 38.1487 91.2652 38.1487Z" fill="#FFBE9D" stroke="#455A64" stroke-miterlimit="10" stroke-linecap="round" stroke-linejoin="round"/>
<path d="M93.8616 73.2186L90.7249 72L93.6761 77.4626L93.8616 73.2186Z" fill="#455A64" stroke="#455A64" stroke-miterlimit="10" stroke-linecap="round" stroke-linejoin="round"/>
<path d="M76.4878 57.7951C76.4878 57.7951 74.3789 56.9845 72.1059 54.0597C69.8328 51.135 69.1811 48.862 72.2701 43.9928C75.3592 39.1236 86.396 34.5776 89.4797 35.065C92.5634 35.5525 94.5133 39.4468 90.7778 41.884C87.0424 44.3213 82.4963 45.2962 82.4963 45.2962C82.4963 45.2962 84.2819 43.8338 82.332 43.5106C80.3822 43.1874 76.4878 45.132 76.811 46.7586C77.1342 48.3799 79.5715 47.8924 79.4072 50.4939C79.243 53.0901 76.9699 55.8506 77.7859 56.8255C78.5966 57.8004 80.5464 58.6111 78.9251 59.0985C77.2984 59.5807 76.4878 57.7951 76.4878 57.7951Z" fill="#455A64" stroke="#455A64" stroke-miterlimit="10" stroke-linecap="round" stroke-linejoin="round"/>
<path d="M87.8531 60.3914L85.4158 62.3412" stroke="#455A64" stroke-miterlimit="10" stroke-linecap="round" stroke-linejoin="round"/>
<path d="M86.7192 61.6895C86.7192 61.6895 89.803 64.6142 95.1598 62.1769" stroke="#455A64" stroke-miterlimit="10" stroke-linecap="round" stroke-linejoin="round"/>
<path d="M87.853 62.6643C87.853 62.6643 88.828 64.7731 91.4242 65.4248C94.0205 66.0765 92.7224 63.1518 92.7224 63.1518C92.7224 63.1518 89.1512 63.1518 87.853 62.6643Z" fill="#455A64" stroke="#455A64" stroke-miterlimit="10" stroke-linecap="round" stroke-linejoin="round"/>
<path d="M85.0607 52.8835C85.315 53.6517 85.2409 54.3617 84.9017 54.473C84.5626 54.5843 84.0805 54.0544 83.8261 53.2862C83.5718 52.5179 83.646 51.8079 83.9851 51.6966C84.3242 51.5854 84.8064 52.1152 85.0607 52.8835Z" fill="#455A64"/>
<path d="M93.5014 50.4464C93.7557 51.2146 93.6815 51.9246 93.3424 52.0359C93.0033 52.1471 92.5211 51.6173 92.2668 50.849C92.0125 50.0808 92.0867 49.3708 92.4258 49.2595C92.7702 49.1482 93.2523 49.6834 93.5014 50.4464Z" fill="#455A64"/>
<path d="M89.2095 54.0968L82.5864 56.285C82.0194 56.4705 81.4048 56.1632 81.2193 55.5962L80.2603 52.6927C80.0749 52.1258 80.3822 51.5112 80.9491 51.3257L87.5723 49.1375C88.1392 48.9521 88.7538 49.2594 88.9393 49.8263L89.8983 52.7298C90.089 53.2914 89.7764 53.9061 89.2095 54.0968Z" stroke="#455A64" stroke-miterlimit="10" stroke-linecap="round" stroke-linejoin="round"/>
<path d="M88.7908 49.2859L91.1539 48.5017" stroke="#455A64" stroke-miterlimit="10" stroke-linecap="round" stroke-linejoin="round"/>
<path d="M80.255 52.6929L76.0215 56.8786" stroke="#455A64" stroke-miterlimit="10" stroke-linecap="round" stroke-linejoin="round"/>
<path d="M99.2184 46.0432L96.071 48.6977" stroke="#455A64" stroke-miterlimit="10" stroke-linecap="round" stroke-linejoin="round"/>
<path d="M99.9282 50.849L93.3051 53.0372C92.7382 53.2227 92.1235 52.9154 91.9381 52.3484L90.9791 49.4449C90.7936 48.878 91.1009 48.2634 91.6679 48.0779L98.291 45.8897C98.8579 45.7043 99.4726 46.0116 99.658 46.5785L100.617 49.482C100.802 50.0489 100.495 50.6583 99.9282 50.849Z" stroke="#455A64" stroke-miterlimit="10" stroke-linecap="round" stroke-linejoin="round"/>
<path d="M81.5212 50.1653C81.5212 50.1653 83.4711 47.7281 86.3906 48.0566" stroke="#455A64" stroke-width="2" stroke-miterlimit="10" stroke-linecap="round" stroke-linejoin="round"/>
<path d="M90.4492 46.7533C90.4492 46.7533 91.7473 45.4552 94.1847 46.1016" stroke="#455A64" stroke-width="2" stroke-miterlimit="10" stroke-linecap="round" stroke-linejoin="round"/>
<path d="M90.9368 49.8369C90.9368 49.8369 95.8061 59.2522 95.3186 59.9039C94.8312 60.5556 91.5832 59.9039 91.5832 59.9039" fill="#FFBE9D"/>
<path d="M90.9368 49.8369C90.9368 49.8369 95.8061 59.2522 95.3186 59.9039C94.8312 60.5556 91.5832 59.9039 91.5832 59.9039" stroke="#455A64" stroke-miterlimit="10" stroke-linecap="round" stroke-linejoin="round"/>
<path d="M67.7185 86.8567C67.7185 86.8567 64.958 86.8567 64.1473 89.2939C63.3367 91.7312 55.7068 119.495 56.5175 120.305C57.3282 121.116 67.5596 121.768 68.6935 121.445C69.8326 121.121 74.702 102.45 74.702 102.45" fill="#455A64"/>
<path d="M67.7185 86.8567C67.7185 86.8567 64.958 86.8567 64.1473 89.2939C63.3367 91.7312 55.7068 119.495 56.5175 120.305C57.3282 121.116 67.5596 121.768 68.6935 121.445C69.8326 121.121 74.702 102.45 74.702 102.45" stroke="#455A64" stroke-miterlimit="10" stroke-linecap="round" stroke-linejoin="round"/>
<path d="M71.7773 120.793C71.7773 120.793 72.429 117.545 69.6685 116.247C66.908 114.949 62.3619 115.108 59.6013 117.222C56.8408 119.331 56.3533 118.843 55.7069 122.907C55.0552 126.966 57.8157 129.562 60.0888 130.049C62.3619 130.537 64.3117 131.024 67.0722 128.264C69.8328 125.498 71.7773 120.793 71.7773 120.793Z" fill="#303F46" stroke="#455A64" stroke-miterlimit="10" stroke-linecap="round" stroke-linejoin="round"/>
<path d="M88.881 103.695C88.881 103.695 87.7418 128.534 83.5242 137.79C83.5242 137.79 87.5828 139.088 94.2378 138.442C100.893 137.79 107.065 134.219 107.065 134.219C107.065 134.219 109.339 120.581 110.478 113.926C111.617 107.271 112.263 103.536 112.263 103.536C112.263 103.536 110.801 104.67 102.519 105.157C94.2431 105.645 88.881 103.695 88.881 103.695Z" fill="white" stroke="#455A64" stroke-miterlimit="10" stroke-linecap="round" stroke-linejoin="round"/>
<path d="M78.2734 124.041C78.2734 124.041 68.8579 118.197 67.5598 118.197C66.2617 118.197 62.362 119.495 60.7406 123.23C59.1193 126.966 59.2782 128.915 61.3923 129.562C63.5012 130.214 77.1395 131.512 78.7662 131.512C80.3875 131.512 84.2872 132.322 86.5603 132.322C88.8333 132.322 94.8418 131.671 95.6525 130.372C96.4632 129.074 89.8083 129.562 89.3208 129.398C88.8333 129.233 95.4035 127.967 96.3042 127.776C97.2209 127.575 98.413 126.314 96.6274 125.826C96.6274 125.826 99.7112 124.364 97.7666 123.066L88.7009 121.471L91.5038 120.883C91.5038 120.883 97.8514 122.579 97.7666 120.634C97.7295 119.823 92.5688 118.197 90.9474 118.197C89.3261 118.197 80.716 124.041 80.716 124.041H78.2734Z" fill="#FFBE9D" stroke="#455A64" stroke-miterlimit="10" stroke-linecap="round" stroke-linejoin="round"/>
<path d="M96.6222 125.827L88.3406 125.175" stroke="#455A64" stroke-miterlimit="10" stroke-linecap="round" stroke-linejoin="round"/>
<path d="M106.785 38.3342C108.692 40.7449 111.453 42.6312 114.706 43.6643L108.316 54.9181L120.169 44.5492C120.285 44.5492 120.402 44.5545 120.518 44.5545C126.246 44.5545 131.296 42.0854 134.268 38.3289H106.785V38.3342Z" fill="#455A64" stroke="#455A64" stroke-miterlimit="10" stroke-linecap="round" stroke-linejoin="round"/>
<path d="M120.296 15.5881C111.156 15.5881 103.749 21.872 103.749 29.6289C103.749 35.6478 108.21 40.7767 114.483 42.7742L108.093 54.028L119.946 43.659C120.063 43.659 120.179 43.6643 120.296 43.6643C129.436 43.6643 136.843 37.3804 136.843 29.6236C136.843 21.8667 129.436 15.5881 120.296 15.5881Z" fill="#FF5252"/>
<path d="M114.446 29.9308C114.446 28.9135 113.625 28.0923 112.608 28.0923C111.59 28.0923 110.769 28.9135 110.769 29.9308C110.769 30.9481 111.59 31.7694 112.608 31.7694C113.625 31.7694 114.446 30.9481 114.446 29.9308Z" fill="#455A64"/>
<path d="M122.638 29.9308C122.638 28.9135 121.816 28.0923 120.799 28.0923C119.782 28.0923 118.96 28.9135 118.96 29.9308C118.96 30.9481 119.782 31.7694 120.799 31.7694C121.816 31.7694 122.638 30.9481 122.638 29.9308Z" fill="#455A64"/>
<path d="M128.991 31.7694C130.006 31.7694 130.829 30.9462 130.829 29.9308C130.829 28.9154 130.006 28.0923 128.991 28.0923C127.975 28.0923 127.152 28.9154 127.152 29.9308C127.152 30.9462 127.975 31.7694 128.991 31.7694Z" fill="#455A64"/>
<path d="M91.2651 174.922C93.0268 174.922 94.4549 173.493 94.4549 171.732C94.4549 169.97 93.0268 168.542 91.2651 168.542C89.5035 168.542 88.0754 169.97 88.0754 171.732C88.0754 173.493 89.5035 174.922 91.2651 174.922Z" fill="#FF5252"/>
<path d="M91.2653 163.673C87.9749 163.673 85.1455 165.655 83.895 168.484L86.0303 170.391C86.6291 168.055 88.7485 166.322 91.2653 166.322C93.9675 166.322 96.2088 168.314 96.6061 170.911L98.7732 168.823C97.6023 165.814 94.6828 163.673 91.2653 163.673Z" fill="#FF5252"/>
<path d="M82.4431 167.186C84.0963 163.991 87.4237 161.797 91.2652 161.797C95.202 161.797 98.6036 164.108 100.209 167.44L102.201 165.522C100.034 161.723 95.9438 159.148 91.2652 159.148C86.6449 159.148 82.6021 161.654 80.4138 165.374L82.4431 167.186Z" fill="#FF5252"/>
<g filter="url(#filter0_d_11415_170255)">
<path fill-rule="evenodd" clip-rule="evenodd" d="M243.489 23.2562V38.8662C243.489 40.5107 241.489 41.8413 239.018 41.8413H210.506C208.035 41.8413 206.035 40.5107 206.035 38.8662V19.8919C206.035 18.2474 208.035 16.9167 210.506 16.9167H236" fill="#FF5252"/>
</g>
<g filter="url(#filter1_d_11415_170255)">
<path fill-rule="evenodd" clip-rule="evenodd" d="M245.986 18.786C245.986 15.69 243.469 13.178 240.368 13.178C237.266 13.178 234.75 15.69 234.75 18.786C234.75 21.882 237.266 24.394 240.368 24.394C243.469 24.394 245.986 21.882 245.986 18.786Z" fill="#FFB9B9"/>
</g>
<path fill-rule="evenodd" clip-rule="evenodd" d="M229.334 154.432V167.61C229.334 168.998 228.211 170.121 226.822 170.121H210.805C209.417 170.121 208.293 168.998 208.293 167.61V151.593C208.293 150.204 209.417 149.081 210.805 149.081H225.127" fill="#FF5252"/>
<path fill-rule="evenodd" clip-rule="evenodd" d="M231.898 150.93C231.898 148.88 230.234 147.216 228.184 147.216C226.133 147.216 224.47 148.88 224.47 150.93C224.47 152.981 226.133 154.644 228.184 154.644C230.234 154.644 231.898 152.981 231.898 150.93Z" fill="#F0AE00"/>
<path fill-rule="evenodd" clip-rule="evenodd" d="M218.928 152.742C215.171 152.742 212.124 155.344 212.124 158.549C212.124 160.467 213.216 162.163 214.895 163.222L214.588 165.919L217.365 164.197C217.868 164.298 218.387 164.356 218.922 164.356C222.679 164.356 225.726 161.755 225.726 158.549C225.731 155.344 222.684 152.742 218.928 152.742Z" fill="white"/>
<path d="M218.744 32.3896V33.6553H214.455V32.3896H218.744ZM214.941 25.124V33.6553H213.33V25.124H214.941ZM221.346 27.3154V33.6553H219.793V27.3154H221.346ZM219.688 25.6572C219.688 25.4268 219.766 25.2354 219.922 25.083C220.082 24.9307 220.297 24.8545 220.566 24.8545C220.836 24.8545 221.049 24.9307 221.205 25.083C221.365 25.2354 221.445 25.4268 221.445 25.6572C221.445 25.8838 221.365 26.0732 221.205 26.2256C221.049 26.3779 220.836 26.4541 220.566 26.4541C220.297 26.4541 220.082 26.3779 219.922 26.2256C219.766 26.0732 219.688 25.8838 219.688 25.6572ZM224.926 32.4834L226.402 27.3154H228.02L225.846 33.6553H224.861L224.926 32.4834ZM223.848 27.3154L225.342 32.4951L225.395 33.6553H224.404L222.225 27.3154H223.848ZM231.6 33.7725C231.119 33.7725 230.688 33.6943 230.305 33.5381C229.922 33.3818 229.596 33.165 229.326 32.8877C229.061 32.6064 228.856 32.2803 228.711 31.9092C228.57 31.5342 228.5 31.1318 228.5 30.7021V30.4678C228.5 29.9795 228.57 29.5361 228.711 29.1377C228.852 28.7354 229.051 28.3896 229.309 28.1006C229.566 27.8115 229.875 27.5889 230.234 27.4326C230.594 27.2764 230.99 27.1982 231.424 27.1982C231.873 27.1982 232.27 27.2744 232.613 27.4268C232.957 27.5752 233.244 27.7861 233.475 28.0596C233.705 28.333 233.879 28.6611 233.996 29.0439C234.113 29.4229 234.172 29.8428 234.172 30.3037V30.9541H229.203V29.8877H232.648V29.7705C232.641 29.5244 232.594 29.2998 232.508 29.0967C232.422 28.8896 232.289 28.7256 232.109 28.6045C231.93 28.4795 231.697 28.417 231.412 28.417C231.182 28.417 230.981 28.4678 230.809 28.5693C230.641 28.667 230.5 28.8076 230.387 28.9912C230.277 29.1709 230.195 29.3857 230.141 29.6357C230.086 29.8857 230.059 30.1631 230.059 30.4678V30.7021C230.059 30.9678 230.094 31.2139 230.164 31.4404C230.238 31.667 230.346 31.8643 230.486 32.0322C230.631 32.1963 230.803 32.3252 231.002 32.4189C231.205 32.5088 231.436 32.5537 231.693 32.5537C232.018 32.5537 232.311 32.4912 232.572 32.3662C232.838 32.2373 233.068 32.0479 233.264 31.7979L234.043 32.6064C233.91 32.8018 233.731 32.9893 233.504 33.1689C233.281 33.3486 233.012 33.4951 232.695 33.6084C232.379 33.7178 232.014 33.7725 231.6 33.7725Z" fill="white"/>
</g>
<defs>
<filter id="filter0_d_11415_170255" x="202.035" y="16.9167" width="45.4536" height="32.9246" filterUnits="userSpaceOnUse" color-interpolation-filters="sRGB">
<feFlood flood-opacity="0" result="BackgroundImageFix"/>
<feColorMatrix in="SourceAlpha" type="matrix" values="0 0 0 0 0 0 0 0 0 0 0 0 0 0 0 0 0 0 127 0" result="hardAlpha"/>
<feOffset dy="4"/>
<feGaussianBlur stdDeviation="2"/>
<feComposite in2="hardAlpha" operator="out"/>
<feColorMatrix type="matrix" values="0 0 0 0 0 0 0 0 0 0 0 0 0 0 0 0 0 0 0.07 0"/>
<feBlend mode="normal" in2="BackgroundImageFix" result="effect1_dropShadow_11415_170255"/>
<feBlend mode="normal" in="SourceGraphic" in2="effect1_dropShadow_11415_170255" result="shape"/>
</filter>
<filter id="filter1_d_11415_170255" x="230.75" y="13.178" width="19.2361" height="19.2161" filterUnits="userSpaceOnUse" color-interpolation-filters="sRGB">
<feFlood flood-opacity="0" result="BackgroundImageFix"/>
<feColorMatrix in="SourceAlpha" type="matrix" values="0 0 0 0 0 0 0 0 0 0 0 0 0 0 0 0 0 0 127 0" result="hardAlpha"/>
<feOffset dy="4"/>
<feGaussianBlur stdDeviation="2"/>
<feComposite in2="hardAlpha" operator="out"/>
<feColorMatrix type="matrix" values="0 0 0 0 0 0 0 0 0 0 0 0 0 0 0 0 0 0 0.25 0"/>
<feBlend mode="normal" in2="BackgroundImageFix" result="effect1_dropShadow_11415_170255"/>
<feBlend mode="normal" in="SourceGraphic" in2="effect1_dropShadow_11415_170255" result="shape"/>
</filter>
<clipPath id="clip0_11415_170255">
<rect width="314.61" height="204.382" fill="white" transform="translate(0.0407715 0.715576)"/>
</clipPath>
</defs>
</svg>
