<svg width="405" height="272" viewBox="0 0 405 272" fill="none" xmlns="http://www.w3.org/2000/svg">
<mask id="mask0_11415_170248" style="mask-type:alpha" maskUnits="userSpaceOnUse" x="0" y="0" width="405" height="272">
<path d="M0 0.1875H329.17C370.592 0.1875 404.17 33.7662 404.17 75.1875V271.165H0V0.1875Z" fill="#2E4A75"/>
</mask>
<g mask="url(#mask0_11415_170248)">
<path d="M109.491 150.658C72.7854 225.521 -3.12628 125.971 -27.557 131.138L-25.8347 169.603C-35.3686 146.639 -37.8909 166.388 -37.8909 162.714C-37.8909 158.121 -15.4572 73.1536 -16.649 58.2269C-17.8407 43.3001 -10.4209 0.816286 -8.03738 -4.35067C-6.13059 -8.48423 56.0775 -9.90033 82.0972 -11.814C174.854 -6.83843 362.378 -51.7718 391.934 -11.814C428.878 38.1332 437.22 105.878 370.482 143.194C296.012 184.835 155.373 57.0786 109.491 150.658Z" fill="url(#paint0_linear_11415_170248)"/>
</g>
<defs>
<linearGradient id="paint0_linear_11415_170248" x1="552.4" y1="246.173" x2="447.721" y2="-151.375" gradientUnits="userSpaceOnUse">
<stop stop-color="#0052D4"/>
<stop offset="0.386694" stop-color="#4364F7"/>
<stop offset="1" stop-color="#1EBBFF"/>
</linearGradient>
</defs>
</svg>
