<svg width="246" height="148" viewBox="0 0 246 148" fill="none" xmlns="http://www.w3.org/2000/svg">
<g clip-path="url(#clip0_11415_169148)">
<path d="M226.831 75.9669H204.859C203.342 75.9669 202.111 74.734 202.111 73.2138V42.7518C202.111 41.2317 203.342 39.9988 204.859 39.9988H218.793L229.579 51.1347V73.2138C229.579 74.734 228.348 75.9669 226.831 75.9669Z" fill="#EBEBEB"/>
<path d="M218.793 39.9988V48.5708C218.793 49.9855 219.937 51.1311 221.349 51.1311H229.579L218.793 39.9988Z" fill="#F5F5F5"/>
<path d="M218.906 49.3235C218.906 49.3235 218.797 51.4037 221.16 52.0875C221.247 52.1129 221.342 52.1311 221.432 52.1493C222.507 52.342 229.579 53.6004 229.579 53.4404C229.579 53.2658 229.579 51.1383 229.579 51.1383H221.349C221.353 51.1346 219.298 51.0619 218.906 49.3235Z" fill="#E0E0E0"/>
<path d="M226.831 75.9668C226.831 75.9522 226.994 75.9704 227.306 75.9122C227.611 75.854 228.076 75.7158 228.552 75.3303C229.013 74.9485 229.488 74.2793 229.536 73.3883C229.55 72.5009 229.532 71.468 229.536 70.3188C229.528 65.7073 229.517 59.1065 229.503 51.1346L229.525 51.1891C226.261 47.8215 222.616 44.0683 218.731 40.0605L218.797 40.0896C216.212 40.0896 213.525 40.0932 210.755 40.0932C209.372 40.0932 207.967 40.0932 206.551 40.0932C206.195 40.0932 205.839 40.0932 205.484 40.0932C205.128 40.0969 204.765 40.075 204.427 40.1332C203.745 40.2423 203.109 40.6387 202.703 41.2097C202.419 41.6061 202.245 42.0789 202.216 42.5626C202.198 43.0499 202.212 43.5591 202.205 44.0573C202.205 45.0538 202.205 46.0467 202.205 47.0286C202.205 48.9961 202.205 50.9346 202.205 52.8366C202.202 56.6444 202.202 60.3176 202.198 63.8198C202.198 65.5691 202.194 67.2748 202.194 68.9332C202.194 69.7624 202.194 70.5807 202.191 71.3844C202.191 71.7881 202.191 72.1845 202.191 72.5809C202.198 72.9773 202.165 73.3701 202.241 73.741C202.383 74.4866 202.862 75.1376 203.487 75.5122C203.799 75.7013 204.147 75.8213 204.5 75.8722C204.852 75.9159 205.222 75.894 205.582 75.9013C207.023 75.905 208.406 75.905 209.728 75.9086C215.006 75.9195 219.283 75.9304 222.242 75.9377C223.716 75.945 224.86 75.9522 225.644 75.9559C226.029 75.9595 226.323 75.9631 226.53 75.9668C226.729 75.9595 226.831 75.9668 226.831 75.9668C226.831 75.9668 226.729 75.974 226.53 75.9777C226.326 75.9813 226.029 75.9813 225.644 75.9886C224.86 75.9922 223.716 75.9995 222.242 76.0068C219.283 76.0141 215.006 76.025 209.728 76.0359C208.406 76.0395 207.023 76.0395 205.582 76.0432C205.222 76.0359 204.859 76.0613 204.481 76.0177C204.108 75.9668 203.741 75.8395 203.41 75.6431C202.75 75.2503 202.245 74.563 202.093 73.7738C202.013 73.3774 202.045 72.9773 202.038 72.5845C202.038 72.1881 202.038 71.7917 202.038 71.388C202.038 70.5843 202.038 69.766 202.035 68.9368C202.035 67.2784 202.031 65.5728 202.031 63.8234C202.031 60.3248 202.027 56.6516 202.024 52.8403C202.024 50.9346 202.024 48.9961 202.024 47.0323C202.024 46.0503 202.024 45.0575 202.024 44.061C202.027 43.5591 202.013 43.0681 202.035 42.5553C202.067 42.0389 202.252 41.5298 202.554 41.1043C202.986 40.4933 203.668 40.0678 204.402 39.9514C204.772 39.8896 205.131 39.915 205.487 39.9114C205.843 39.9114 206.199 39.9114 206.555 39.9114C207.974 39.9114 209.375 39.9114 210.759 39.9114C213.525 39.9114 216.215 39.915 218.8 39.915H218.84L218.866 39.9441C222.747 43.9555 226.381 47.716 229.645 51.0873L229.666 51.1091V51.1419C229.652 59.1138 229.641 65.7146 229.634 70.3261C229.626 71.4789 229.637 72.5045 229.615 73.3992C229.561 74.3157 229.064 74.9921 228.592 75.374C228.102 75.7631 227.63 75.894 227.321 75.9413C227.165 75.9668 227.045 75.9741 226.962 75.9741C226.871 75.9704 226.831 75.9668 226.831 75.9668Z" fill="#E0E0E0"/>
<path d="M229.579 51.1347C229.579 51.142 229.507 51.1492 229.369 51.1529C229.209 51.1565 229.009 51.1638 228.762 51.1711C228.21 51.1783 227.455 51.1892 226.533 51.2002C225.586 51.2074 224.464 51.2111 223.226 51.2183C222.601 51.2183 221.948 51.2183 221.273 51.2183C220.572 51.2038 219.853 50.8837 219.363 50.32C219.116 50.04 218.931 49.7127 218.822 49.3672C218.706 49.0253 218.691 48.6471 218.702 48.3162C218.706 47.6397 218.706 46.9851 218.709 46.3595C218.717 45.1194 218.724 43.9993 218.731 43.0464C218.742 42.1227 218.753 41.3662 218.76 40.8134C218.768 40.5661 218.775 40.3661 218.778 40.2061C218.786 40.0679 218.789 39.9951 218.797 39.9951C218.804 39.9951 218.811 40.0679 218.815 40.2061C218.818 40.3661 218.826 40.5661 218.833 40.8134C218.84 41.3662 218.851 42.1227 218.862 43.0464C218.869 43.9956 218.873 45.1194 218.884 46.3595C218.884 46.9851 218.887 47.6361 218.891 48.3162C218.847 48.9853 219.04 49.6727 219.508 50.1964C219.966 50.7201 220.63 51.0183 221.284 51.0329C221.959 51.0365 222.612 51.0401 223.233 51.0438C224.471 51.051 225.589 51.0583 226.54 51.0656C227.463 51.0765 228.218 51.0874 228.77 51.0947C229.016 51.102 229.216 51.1092 229.376 51.1129C229.507 51.1201 229.579 51.1274 229.579 51.1347Z" fill="#E0E0E0"/>
<path d="M218.379 47.6468C218.379 47.6977 215.783 47.7414 212.585 47.7414C209.382 47.7414 206.79 47.6977 206.79 47.6468C206.79 47.5959 209.386 47.5522 212.585 47.5522C215.783 47.5522 218.379 47.5959 218.379 47.6468Z" fill="#E0E0E0"/>
<path d="M223.879 51.9237C223.879 51.9746 220.053 52.0182 215.333 52.0182C210.613 52.0182 206.787 51.9746 206.787 51.9237C206.787 51.8727 210.613 51.8291 215.333 51.8291C220.053 51.8291 223.879 51.8727 223.879 51.9237Z" fill="#E0E0E0"/>
<path d="M223.879 56.2008C223.879 56.2517 220.053 56.2953 215.333 56.2953C210.613 56.2953 206.787 56.2517 206.787 56.2008C206.787 56.1498 210.613 56.1062 215.333 56.1062C220.053 56.1062 223.879 56.1498 223.879 56.2008Z" fill="#E0E0E0"/>
<path d="M223.879 60.4776C223.879 60.5285 220.053 60.5722 215.333 60.5722C210.613 60.5722 206.787 60.5285 206.787 60.4776C206.787 60.4267 210.613 60.3831 215.333 60.3831C220.053 60.3831 223.879 60.4267 223.879 60.4776Z" fill="#E0E0E0"/>
<path d="M223.879 64.7545C223.879 64.8054 220.053 64.849 215.333 64.849C210.613 64.849 206.787 64.8054 206.787 64.7545C206.787 64.7036 210.613 64.6599 215.333 64.6599C220.053 64.6599 223.879 64.7036 223.879 64.7545Z" fill="#E0E0E0"/>
<path d="M223.879 70.0279C223.879 70.0788 220.053 70.1225 215.333 70.1225C210.613 70.1225 206.787 70.0788 206.787 70.0279C206.787 69.977 210.613 69.9333 215.333 69.9333C220.053 69.9333 223.879 69.977 223.879 70.0279Z" fill="#E0E0E0"/>
<path d="M214.313 70.0278H198.716C197.87 70.0278 197.184 69.3404 197.184 68.493V63.1651C197.184 62.3177 197.87 61.6304 198.716 61.6304H214.313C215.159 61.6304 215.845 62.3177 215.845 63.1651V68.493C215.845 69.3404 215.159 70.0278 214.313 70.0278Z" fill="#E0E0E0"/>
<path d="M199.348 64.3689H200.786C201.82 64.3689 202.532 64.9944 202.532 65.9545C202.532 66.9147 201.82 67.5402 200.786 67.5402H199.348V64.3689ZM200.749 66.9401C201.377 66.9401 201.791 66.5655 201.791 65.9545C201.791 65.3436 201.381 64.969 200.749 64.969H200.081V66.9365H200.749V66.9401Z" fill="white"/>
<path d="M202.888 65.9547C202.888 65.0127 203.621 64.3145 204.619 64.3145C205.614 64.3145 206.351 65.0091 206.351 65.9547C206.351 66.9002 205.614 67.5949 204.619 67.5949C203.621 67.5985 202.888 66.9002 202.888 65.9547ZM205.611 65.9547C205.611 65.3509 205.186 64.94 204.619 64.94C204.053 64.94 203.628 65.3509 203.628 65.9547C203.628 66.5584 204.053 66.9693 204.619 66.9693C205.186 66.9693 205.611 66.5584 205.611 65.9547Z" fill="white"/>
<path d="M206.707 65.9547C206.707 64.9982 207.44 64.3145 208.428 64.3145C208.976 64.3145 209.434 64.5145 209.731 64.8782L209.259 65.3146C209.045 65.0709 208.78 64.9436 208.464 64.9436C207.872 64.9436 207.451 65.3619 207.451 65.9583C207.451 66.5584 207.872 66.973 208.464 66.973C208.78 66.973 209.049 66.8457 209.259 66.5947L209.731 67.0312C209.434 67.3985 208.976 67.5985 208.424 67.5985C207.437 67.5985 206.707 66.9111 206.707 65.9547Z" fill="white"/>
<path d="M212.153 67.5438L211.387 66.4419L210.635 67.5438H209.793L210.966 65.9291L209.851 64.3689H210.682L211.412 65.3981L212.127 64.3689H212.919L211.815 65.9L212.995 67.5402H212.153V67.5438Z" fill="white"/>
<path d="M200.753 115.299L184.118 144.444L151.204 144.921C150.158 144.935 149.301 145.761 149.243 146.808L182.716 146.903L183.976 146.859L225.887 146.943L234.357 132.312L245.176 116.779C245.884 115.761 245.154 114.364 243.916 114.368L202.078 114.528C201.53 114.532 201.025 114.823 200.753 115.299Z" fill="#EBEBEB"/>
<path d="M245.179 115.474C245.179 115.481 245.11 115.488 244.98 115.495C244.823 115.503 244.627 115.506 244.391 115.517C243.84 115.528 243.084 115.539 242.13 115.557C240.129 115.572 237.294 115.597 233.805 115.623C226.747 115.637 217.054 115.659 206.347 115.684C205.676 115.684 205.011 115.684 204.347 115.684C203.719 115.637 203.149 115.914 202.822 116.405C202.19 117.543 201.57 118.667 200.96 119.769C199.736 121.983 198.553 124.122 197.427 126.159C195.173 130.221 193.14 133.879 191.422 136.964C189.712 140.008 188.326 142.484 187.345 144.23C186.87 145.059 186.492 145.717 186.22 146.194C186.096 146.397 185.998 146.565 185.919 146.699C185.85 146.812 185.81 146.867 185.802 146.863C185.795 146.859 185.824 146.797 185.882 146.677C185.955 146.536 186.042 146.365 186.147 146.15C186.405 145.663 186.757 144.994 187.207 144.146C188.159 142.382 189.509 139.888 191.172 136.814C192.864 133.716 194.871 130.043 197.097 125.966C198.215 123.926 199.391 121.783 200.608 119.565C201.221 118.452 201.846 117.321 202.481 116.172C202.869 115.554 203.654 115.204 204.351 115.263C205.011 115.263 205.679 115.263 206.351 115.263C217.057 115.288 226.751 115.306 233.809 115.324C237.297 115.354 240.129 115.375 242.133 115.39C243.088 115.408 243.847 115.419 244.395 115.43C244.635 115.437 244.827 115.444 244.983 115.452C245.11 115.459 245.179 115.466 245.179 115.474Z" fill="#E0E0E0"/>
<path d="M215.685 130.126C214.945 130.948 214.926 132.141 215.645 132.792C216.364 133.443 217.548 133.301 218.288 132.479C219.029 131.657 219.047 130.465 218.328 129.814C217.609 129.163 216.426 129.304 215.685 130.126Z" fill="white"/>
<path d="M3.8629 115.848C3.8629 116.165 3.8629 133.279 3.8629 133.279H0.958496V135.171H3.8629V146.837H58.168V136.222H54.1454V133.909H58.168V130.439H59.9542V128.864H57.8304V115.848H3.8629Z" fill="#F5F5F5"/>
<path d="M43.748 115.899V146.641H58.1684V136.029H54.1458V133.909L58.1684 133.981V130.512L59.9909 130.515L59.9583 128.722L57.8344 128.672V115.848L43.748 115.899Z" fill="#E0E0E0"/>
<path d="M44.7754 134.92C44.7754 135.025 34.9476 135.112 22.829 135.112C10.7067 135.112 0.882568 135.029 0.882568 134.92C0.882568 134.814 10.7067 134.727 22.829 134.727C34.9476 134.727 44.7754 134.814 44.7754 134.92Z" fill="#E0E0E0"/>
<path d="M44.7754 133.149C44.7754 133.254 34.9476 133.341 22.829 133.341C10.7067 133.341 0.882568 133.254 0.882568 133.149C0.882568 133.043 10.7067 132.956 22.829 132.956C34.9476 132.956 44.7754 133.043 44.7754 133.149Z" fill="#E0E0E0"/>
<path d="M47.5962 128.384C47.5962 128.49 37.7684 128.577 25.6498 128.577C13.5275 128.577 3.70337 128.49 3.70337 128.384C3.70337 128.279 13.5275 128.191 25.6498 128.191C37.7684 128.191 47.5962 128.279 47.5962 128.384Z" fill="#E0E0E0"/>
<path d="M47.865 141.371C47.865 141.477 38.0372 141.564 25.9186 141.564C13.7963 141.564 3.97217 141.477 3.97217 141.371C3.97217 141.266 13.7963 141.178 25.9186 141.178C38.0408 141.178 47.865 141.262 47.865 141.371Z" fill="#E0E0E0"/>
<path d="M185.076 41.6536H163.613C162.128 41.6536 160.926 40.4498 160.926 38.9623V9.20589C160.926 7.71843 162.128 6.51465 163.613 6.51465H177.224L187.759 17.3924V38.9623C187.763 40.4498 186.561 41.6536 185.076 41.6536Z" fill="#EBEBEB"/>
<path d="M177.227 6.51465V14.8902C177.227 16.2722 178.345 17.3924 179.725 17.3924H187.763L177.227 6.51465Z" fill="#F5F5F5"/>
<path d="M177.336 15.6248C177.336 15.6248 177.231 17.6577 179.54 18.3233C179.627 18.3487 179.714 18.3669 179.805 18.3815C180.854 18.5706 187.763 19.7998 187.763 19.6434C187.763 19.4725 187.763 17.3922 187.763 17.3922H179.725C179.725 17.3922 177.717 17.3268 177.336 15.6248Z" fill="#E0E0E0"/>
<path d="M185.076 41.6535C185.076 41.6389 185.236 41.6571 185.541 41.5989C185.839 41.5444 186.293 41.4098 186.757 41.0316C187.207 40.657 187.672 40.006 187.719 39.1332C187.734 38.264 187.716 37.2602 187.716 36.1364C187.708 31.6304 187.698 25.1823 187.683 17.3959L187.705 17.4505C184.514 14.1628 180.956 10.4932 177.162 6.58002L177.227 6.60911C174.704 6.60911 172.075 6.61275 169.374 6.61275C168.024 6.61275 166.651 6.61275 165.265 6.61275C164.92 6.61275 164.571 6.61275 164.223 6.61275C163.874 6.61638 163.522 6.59456 163.192 6.64911C162.524 6.75458 161.903 7.14372 161.507 7.70016C161.231 8.08566 161.061 8.55117 161.031 9.02032C161.013 9.49674 161.028 9.99499 161.021 10.4787C161.021 11.4533 161.021 12.4207 161.021 13.3809C161.021 15.3011 161.021 17.1959 161.021 19.0543C161.017 22.7748 161.017 26.3643 161.017 29.7829C161.017 31.4922 161.013 33.1579 161.013 34.7799C161.013 35.5909 161.013 36.3874 161.01 37.1729C161.01 37.5657 161.01 37.9548 161.01 38.3403C161.017 38.7295 160.984 39.1113 161.061 39.4714C161.198 40.1987 161.667 40.8352 162.273 41.1989C162.578 41.3844 162.916 41.5007 163.264 41.548C163.605 41.5917 163.969 41.5698 164.321 41.5771C165.729 41.5807 167.08 41.5807 168.372 41.5844C173.531 41.5953 177.706 41.6062 180.596 41.6135C182.034 41.6207 183.156 41.628 183.922 41.6317C184.299 41.6353 184.586 41.6389 184.786 41.6426C184.978 41.6462 185.076 41.6535 185.076 41.6535C185.076 41.6535 184.978 41.6608 184.782 41.6644C184.583 41.668 184.296 41.668 183.918 41.6753C183.152 41.6789 182.034 41.6862 180.593 41.6935C177.699 41.7008 173.524 41.7117 168.369 41.7226C167.08 41.7262 165.726 41.7262 164.317 41.7299C163.965 41.7226 163.613 41.748 163.242 41.7044C162.876 41.6571 162.516 41.5298 162.193 41.3371C161.547 40.9516 161.053 40.2824 160.904 39.5114C160.825 39.1223 160.857 38.7331 160.85 38.3512C160.85 37.9657 160.85 37.5766 160.85 37.1838C160.85 36.3983 160.85 35.6018 160.846 34.7908C160.846 33.1724 160.843 31.5031 160.843 29.7938C160.843 26.3752 160.839 22.7857 160.835 19.0652C160.835 17.2032 160.835 15.312 160.835 13.3918C160.835 12.4317 160.835 11.4643 160.835 10.4896C160.839 9.99862 160.825 9.51856 160.846 9.01668C160.879 8.51116 161.061 8.01292 161.355 7.59832C161.779 7.00189 162.444 6.58365 163.159 6.47091C163.522 6.40909 163.874 6.43454 164.219 6.43091C164.568 6.43091 164.916 6.43091 165.261 6.43091C166.648 6.43091 168.017 6.43091 169.371 6.43091C172.075 6.43091 174.7 6.43454 177.224 6.43454H177.263L177.289 6.46364C181.079 10.3841 184.633 14.0573 187.817 17.3486L187.839 17.3705V17.4032C187.825 25.1896 187.814 31.6377 187.806 36.1437C187.799 37.2711 187.81 38.2712 187.788 39.1477C187.734 40.0424 187.251 40.7043 186.786 41.0789C186.307 41.4571 185.846 41.5844 185.545 41.6353C185.392 41.6608 185.272 41.668 185.196 41.668C185.116 41.6571 185.076 41.6535 185.076 41.6535Z" fill="#E0E0E0"/>
<path d="M187.763 17.3923C187.763 17.3996 187.69 17.4068 187.556 17.4105C187.4 17.4141 187.204 17.4214 186.964 17.4287C186.423 17.4359 185.686 17.4468 184.786 17.4578C183.86 17.465 182.767 17.4687 181.555 17.4759C180.945 17.4759 180.306 17.4759 179.645 17.4759C178.959 17.4614 178.258 17.1486 177.775 16.5958C177.536 16.3231 177.354 16.003 177.249 15.6612C177.137 15.3266 177.122 14.9593 177.133 14.6319C177.137 13.97 177.137 13.33 177.14 12.7226C177.147 11.5116 177.155 10.4169 177.162 9.48585C177.173 8.58392 177.184 7.84565 177.191 7.30376C177.198 7.06373 177.205 6.86734 177.209 6.71096C177.216 6.5764 177.22 6.50366 177.227 6.50366C177.235 6.50366 177.242 6.5764 177.245 6.71096C177.249 6.86734 177.256 7.06373 177.264 7.30376C177.271 7.84565 177.282 8.58392 177.293 9.48585C177.3 10.4132 177.307 11.5116 177.314 12.7226C177.314 13.3336 177.318 13.97 177.322 14.6319C177.278 15.2866 177.467 15.9557 177.924 16.4685C178.371 16.9777 179.021 17.2723 179.656 17.2868C180.317 17.2905 180.952 17.2941 181.562 17.2977C182.771 17.305 183.864 17.3123 184.793 17.3196C185.694 17.3305 186.431 17.3414 186.972 17.3487C187.211 17.3559 187.407 17.3632 187.563 17.3668C187.694 17.3814 187.763 17.3887 187.763 17.3923Z" fill="#E0E0E0"/>
<path d="M176.821 13.9881C176.821 14.039 174.287 14.0827 171.161 14.0827C168.035 14.0827 165.497 14.039 165.497 13.9881C165.497 13.9372 168.031 13.8936 171.161 13.8936C174.287 13.8936 176.821 13.9372 176.821 13.9881Z" fill="#E0E0E0"/>
<path d="M182.194 18.1668C182.194 18.2177 178.454 18.2614 173.847 18.2614C169.236 18.2614 165.497 18.2177 165.497 18.1668C165.497 18.1159 169.233 18.0723 173.847 18.0723C178.458 18.0723 182.194 18.1159 182.194 18.1668Z" fill="#E0E0E0"/>
<path d="M182.194 22.3455C182.194 22.3964 178.454 22.4401 173.847 22.4401C169.236 22.4401 165.497 22.3964 165.497 22.3455C165.497 22.2946 169.233 22.251 173.847 22.251C178.458 22.251 182.194 22.291 182.194 22.3455Z" fill="#E0E0E0"/>
<path d="M182.194 26.5206C182.194 26.5715 178.454 26.6151 173.847 26.6151C169.237 26.6151 165.501 26.5715 165.501 26.5206C165.501 26.4697 169.237 26.426 173.847 26.426C178.458 26.426 182.194 26.4697 182.194 26.5206Z" fill="#E0E0E0"/>
<path d="M182.194 30.6993C182.194 30.7502 178.454 30.7939 173.847 30.7939C169.237 30.7939 165.501 30.7502 165.501 30.6993C165.501 30.6484 169.237 30.6047 173.847 30.6047C178.458 30.6047 182.194 30.6484 182.194 30.6993Z" fill="#E0E0E0"/>
<path d="M182.194 35.8529C182.194 35.9038 178.454 35.9474 173.847 35.9474C169.237 35.9474 165.501 35.9038 165.501 35.8529C165.501 35.8019 169.237 35.7583 173.847 35.7583C178.458 35.7583 182.194 35.8019 182.194 35.8529Z" fill="#E0E0E0"/>
<path d="M172.816 35.8529H157.651C156.806 35.8529 156.119 35.1655 156.119 34.3181V29.1829C156.119 28.3356 156.806 27.6482 157.651 27.6482H172.816C173.662 27.6482 174.348 28.3356 174.348 29.1829V34.3181C174.348 35.1655 173.662 35.8529 172.816 35.8529Z" fill="#E0E0E0"/>
<path d="M163.246 31.4485C163.246 32.1395 162.731 32.5686 161.903 32.5686H161.278V33.4233H160.563V30.3247H161.903C162.727 30.3247 163.246 30.7539 163.246 31.4485ZM162.52 31.4485C162.52 31.1066 162.299 30.9066 161.863 30.9066H161.278V31.9831H161.863C162.299 31.9831 162.52 31.7867 162.52 31.4485Z" fill="white"/>
<path d="M163.754 30.3247H165.159C166.172 30.3247 166.866 30.9357 166.866 31.874C166.866 32.8123 166.172 33.4233 165.159 33.4233H163.754V30.3247ZM165.123 32.8341C165.737 32.8341 166.14 32.4668 166.14 31.874C166.14 31.2812 165.737 30.9139 165.123 30.9139H164.47V32.8341H165.123Z" fill="white"/>
<path d="M168.122 30.8993V31.7176H169.556V32.2922H168.122V33.4196H167.407V30.3247H169.745V30.8993H168.122Z" fill="white"/>
<path d="M76.6771 28.6147H88.2729V8.59771H76.6771V28.6147Z" fill="#EBEBEB"/>
<path d="M44.3326 28.9321H53.4888V3.94356H44.3326V28.9321Z" fill="#EBEBEB"/>
<path d="M44.2271 5.74684C44.2271 5.67047 46.3219 5.60864 48.9031 5.60864C51.4844 5.60864 53.5792 5.67047 53.5792 5.74684C53.5792 5.82321 51.4844 5.88504 48.9031 5.88504C46.3219 5.88868 44.2271 5.82685 44.2271 5.74684Z" fill="#FAFAFA"/>
<path d="M44.7354 6.93239C44.7354 6.85602 46.714 6.79419 49.1573 6.79419C51.6006 6.79419 53.5793 6.85602 53.5793 6.93239C53.5793 7.00876 51.6006 7.07059 49.1573 7.07059C46.714 7.07422 44.7354 7.00876 44.7354 6.93239Z" fill="#FAFAFA"/>
<path d="M48.6489 24.0036C48.5727 24.0036 48.511 20.6941 48.511 16.61C48.511 12.5258 48.5727 9.21631 48.6489 9.21631C48.7252 9.21631 48.7869 12.5258 48.7869 16.61C48.7869 20.6941 48.7252 24.0036 48.6489 24.0036Z" fill="#FAFAFA"/>
<path d="M44.3323 26.2913C44.3323 26.2149 46.3399 26.1531 48.8159 26.1531C51.292 26.1531 53.2996 26.2149 53.2996 26.2913C53.2996 26.3676 51.292 26.4295 48.8159 26.4295C46.3399 26.4295 44.3323 26.3676 44.3323 26.2913Z" fill="#FAFAFA"/>
<path d="M44.3323 27.364C44.3323 27.2877 46.3908 27.2258 48.9285 27.2258C51.4662 27.2258 53.5247 27.2877 53.5247 27.364C53.5247 27.4404 51.4662 27.5022 48.9285 27.5022C46.3908 27.5022 44.3323 27.4404 44.3323 27.364Z" fill="#FAFAFA"/>
<path d="M53.4837 28.9321H60.8391V1.24141H53.4837V28.9321Z" fill="#E0E0E0"/>
<path d="M53.4377 13.9589C53.4631 13.9298 53.8915 14.2353 54.574 14.7481C55.3328 15.3227 56.2332 16.0101 57.2279 16.7666C58.2227 17.5267 59.1231 18.2104 59.8782 18.7886C60.5535 19.3123 60.9637 19.6433 60.942 19.676C60.9202 19.7051 60.47 19.4287 59.762 18.9487C59.0577 18.4686 58.0956 17.7776 57.0573 16.9884C56.019 16.1992 55.1005 15.4573 54.4506 14.9045C53.8008 14.3481 53.4123 13.988 53.4377 13.9589Z" fill="#FAFAFA"/>
<path d="M53.405 9.62387C53.4558 9.56568 55.1404 10.9295 57.1698 12.6715C59.1993 14.4136 60.804 15.8719 60.7531 15.9301C60.7023 15.9883 59.0177 14.6245 56.9883 12.8825C54.9588 11.1404 53.3542 9.68205 53.405 9.62387Z" fill="#FAFAFA"/>
<path d="M21.516 28.9521H25.0339L25.0339 2.57432H21.516L21.516 28.9521Z" fill="#EBEBEB"/>
<path d="M21.6636 6.1651C21.6636 6.25602 22.4006 6.33239 23.3118 6.33239C24.2231 6.33239 24.9601 6.25965 24.9601 6.1651C24.9601 6.07418 24.2231 5.9978 23.3118 5.9978C22.4006 6.00144 21.6636 6.07418 21.6636 6.1651Z" fill="#FAFAFA"/>
<path d="M21.5911 5.59063C21.5911 5.68155 22.3281 5.75793 23.2393 5.75793C24.1506 5.75793 24.8876 5.68519 24.8876 5.59063C24.8876 5.49971 24.1506 5.42334 23.2393 5.42334C22.3281 5.42698 21.5911 5.49971 21.5911 5.59063Z" fill="#FAFAFA"/>
<path d="M21.6636 26.9131C21.6636 27.0041 22.4006 27.0804 23.3118 27.0804C24.2231 27.0804 24.9601 27.0077 24.9601 26.9131C24.9601 26.8222 24.2231 26.7458 23.3118 26.7458C22.4006 26.7458 21.6636 26.8186 21.6636 26.9131Z" fill="#FAFAFA"/>
<path d="M21.5911 26.3387C21.5911 26.4296 22.3281 26.506 23.2393 26.506C24.1506 26.506 24.8876 26.4332 24.8876 26.3387C24.8876 26.2478 24.1506 26.1714 23.2393 26.1714C22.3281 26.1714 21.5911 26.2478 21.5911 26.3387Z" fill="#FAFAFA"/>
<path d="M23.3845 22.891C23.4753 22.891 23.5515 19.8688 23.5515 16.1447C23.5515 12.417 23.4789 9.39478 23.3845 9.39478C23.2938 9.39478 23.2175 12.417 23.2175 16.1447C23.2175 19.8724 23.2901 22.891 23.3845 22.891Z" fill="#FAFAFA"/>
<path d="M37.2827 28.7812H44.3186V2.40342H37.2827V28.7812Z" fill="#E0E0E0"/>
<path d="M42.3393 29.121C42.3429 29.1246 42.372 29.0737 42.4228 28.9791C42.4736 28.8809 42.539 28.7355 42.6225 28.5391C42.7822 28.1463 43.0073 27.5535 43.1344 26.7498C43.2469 25.9606 43.2796 24.8986 42.7241 23.8476C42.4482 23.3312 42.0307 22.8402 41.4752 22.4692C40.9234 22.1056 40.2009 21.8692 39.4494 21.9892C39.0755 22.051 38.7052 22.2074 38.4002 22.4729C38.0952 22.7311 37.8702 23.1457 37.8956 23.5857C37.9137 24.0258 38.1679 24.4258 38.4982 24.7022C38.8286 24.9823 39.2497 25.1714 39.6999 25.2114C40.593 25.3169 41.5188 24.9386 42.1941 24.3022C42.8948 23.673 43.3232 22.7384 43.4321 21.7673C43.5483 20.7927 43.3922 19.7816 43.069 18.8251C42.7387 17.8687 42.205 16.9231 41.3445 16.2539C40.9161 15.9266 40.3861 15.6902 39.827 15.6538C39.2679 15.6066 38.6652 15.7848 38.2477 16.2139C38.0408 16.4285 37.8992 16.7267 37.8847 17.0395C37.8702 17.3522 37.9718 17.6505 38.1279 17.9014C38.4438 18.4106 38.9811 18.7342 39.5475 18.8724C40.6983 19.1197 41.8964 18.6651 42.6479 17.8323C43.4067 16.9995 43.7407 15.9048 43.8532 14.861C43.9585 13.81 43.8786 12.7553 43.5519 11.7806C43.2288 10.8132 42.5934 9.94041 41.733 9.43853C40.8944 8.92937 39.8306 8.76208 38.9375 9.14394C38.4946 9.32579 38.1025 9.73311 38.0299 10.2204C37.9428 10.6969 38.0735 11.1842 38.3494 11.5479C38.9375 12.2934 39.9504 12.4171 40.7201 12.177C41.5116 11.9334 42.1178 11.3988 42.5898 10.846C43.541 9.71856 43.9513 8.38385 43.9912 7.22734C44.0311 6.05992 43.7116 5.07798 43.3413 4.36153C42.9674 3.6378 42.539 3.16138 42.234 2.8668C42.0779 2.72133 41.9545 2.61586 41.8673 2.5504C41.7802 2.48493 41.733 2.4522 41.7294 2.45584C41.6822 2.48857 42.4991 2.98318 43.2215 4.41608C43.5664 5.1289 43.8605 6.08902 43.8024 7.21643C43.7443 8.33294 43.3304 9.61673 42.4083 10.6896C41.9508 11.2169 41.3663 11.7115 40.6439 11.9261C39.9468 12.1407 39.0428 12.0025 38.5636 11.377C38.3349 11.0715 38.2259 10.6532 38.3022 10.2677C38.3675 9.87495 38.6652 9.56582 39.0501 9.4058C39.8306 9.07485 40.8 9.22032 41.5733 9.6931C42.3611 10.1586 42.9456 10.9587 43.2469 11.8752C43.5555 12.7917 43.6281 13.81 43.5265 14.8174C43.4176 15.8175 43.0908 16.8394 42.3974 17.5995C41.7258 18.3487 40.6221 18.7597 39.6164 18.5378C39.1227 18.4178 38.6616 18.1342 38.4038 17.7159C38.1316 17.305 38.1388 16.7667 38.4801 16.4285C38.8068 16.0866 39.3187 15.923 39.798 15.9666C40.2881 15.9957 40.7528 16.1994 41.1449 16.4976C41.9291 17.1013 42.4519 17.9996 42.7677 18.9124C43.0836 19.8325 43.2324 20.7999 43.1271 21.7164C43.0255 22.6329 42.6406 23.4912 41.9944 24.0731C41.37 24.6659 40.5277 25.0114 39.729 24.9241C38.9557 24.8586 38.2005 24.2695 38.1533 23.5566C38.1316 23.2039 38.3022 22.8693 38.5636 22.6402C38.825 22.4074 39.1554 22.2619 39.4894 22.2038C40.1683 22.0874 40.8363 22.291 41.3627 22.6293C41.8891 22.9711 42.2921 23.433 42.5608 23.9203C43.1017 24.9059 43.0981 25.9388 43.0073 26.717C42.9057 27.5099 42.7024 28.1027 42.5608 28.4991C42.4156 28.91 42.3248 29.1137 42.3393 29.121Z" fill="#FAFAFA"/>
<path d="M24.9813 28.7952H37.187V4.77035H24.9813L24.9813 28.7952Z" fill="#FAFAFA"/>
<path d="M25.3994 8.76178C25.3994 8.8527 28.0461 8.92907 31.3062 8.92907C34.5701 8.92907 37.2167 8.85633 37.2167 8.76178C37.2167 8.67086 34.5701 8.59448 31.3062 8.59448C28.0424 8.59448 25.3994 8.67086 25.3994 8.76178Z" fill="#E0E0E0"/>
<path d="M25.2468 10.5838C25.2468 10.6747 27.8572 10.7511 31.0774 10.7511C34.2977 10.7511 36.9116 10.6784 36.9116 10.5838C36.9116 10.4929 34.3013 10.4165 31.0774 10.4165C27.8572 10.4165 25.2468 10.4929 25.2468 10.5838Z" fill="#E0E0E0"/>
<path d="M24.8547 26.0767C24.8547 26.1676 27.6067 26.244 30.9976 26.244C34.3921 26.244 37.1404 26.1713 37.1404 26.0767C37.1404 25.9858 34.3921 25.9094 30.9976 25.9094C27.603 25.9131 24.8547 25.9858 24.8547 26.0767Z" fill="#E0E0E0"/>
<path d="M25.0181 23.9383C25.0181 24.0292 27.6974 24.1056 31.0011 24.1056C34.3049 24.1056 36.9842 24.0328 36.9842 23.9383C36.9842 23.8437 34.3049 23.771 31.0011 23.771C27.6974 23.771 25.0181 23.8474 25.0181 23.9383Z" fill="#E0E0E0"/>
<path d="M60.831 28.6138H67.8669V2.23594H60.831V28.6138Z" fill="#EBEBEB"/>
<path d="M65.8903 28.9535C65.894 28.9571 65.923 28.9062 65.9738 28.8117C66.0247 28.7135 66.09 28.568 66.1735 28.3716C66.3333 27.9788 66.5583 27.386 66.6854 26.5823C66.798 25.7931 66.8306 24.7312 66.2752 23.6801C65.9992 23.1637 65.5817 22.6727 65.0263 22.3018C64.4744 21.9381 63.752 21.7017 63.0005 21.8217C62.6265 21.8835 62.2562 22.0399 61.9512 22.3054C61.6463 22.5636 61.4212 22.9782 61.4466 23.4183C61.4648 23.862 61.7189 24.2584 62.0493 24.5348C62.3796 24.8148 62.8008 25.0039 63.251 25.0439C64.1441 25.1494 65.0698 24.7712 65.7451 24.1347C66.4458 23.5055 66.8742 22.5709 66.9831 21.5999C67.0993 20.6252 66.9432 19.6142 66.6201 18.6577C66.2897 17.7012 65.756 16.7556 64.8956 16.0864C64.4672 15.7591 63.9371 15.5227 63.378 15.4864C62.8189 15.4391 62.2163 15.6173 61.7988 16.0464C61.5918 16.261 61.4502 16.5592 61.4357 16.872C61.4212 17.1848 61.5228 17.483 61.679 17.7339C61.9948 18.2431 62.5321 18.5667 63.0985 18.7049C64.2493 18.9523 65.4474 18.4977 66.1989 17.6648C66.9577 16.832 67.2917 15.7373 67.4043 14.6935C67.5095 13.6425 67.4297 12.5878 67.1029 11.6132C66.7798 10.6458 66.1445 9.77293 65.284 9.27105C64.4454 8.76189 63.3817 8.5946 62.4886 8.97647C62.0456 9.15831 61.6535 9.56563 61.5809 10.053C61.4938 10.5294 61.6245 11.0167 61.9004 11.3804C62.4886 12.1259 63.5015 12.2496 64.2711 12.0096C65.0626 11.7659 65.6689 11.2313 66.1408 10.6785C67.092 9.55108 67.5023 8.21637 67.5422 7.05986C67.5822 5.89244 67.2627 4.9105 66.8924 4.19405C66.5184 3.47032 66.09 2.9939 65.7851 2.69932C65.6289 2.55385 65.5055 2.44838 65.4184 2.38292C65.3312 2.31745 65.284 2.28472 65.2804 2.28836C65.2332 2.32109 66.0501 2.8157 66.7726 4.2486C67.1174 4.96142 67.4115 5.92154 67.3534 7.04895C67.2953 8.16545 66.8815 9.44925 65.9593 10.5221C65.5019 11.0495 64.9174 11.5441 64.1949 11.7586C63.4978 11.9732 62.5938 11.835 62.1146 11.2095C61.8859 10.904 61.777 10.4857 61.8532 10.1002C61.9186 9.70747 62.2163 9.39834 62.6011 9.23832C63.3817 8.90737 64.351 9.05284 65.1243 9.52562C65.9121 9.99114 66.4966 10.7912 66.798 11.7077C67.1066 12.6242 67.1792 13.6425 67.0775 14.6499C66.9686 15.65 66.6419 16.672 65.9484 17.4321C65.2768 18.1812 64.1731 18.5922 63.1675 18.3704C62.6737 18.2503 62.2126 17.9667 61.9549 17.5484C61.6826 17.1375 61.6898 16.5992 62.0311 16.261C62.3579 15.9191 62.8698 15.7555 63.349 15.7991C63.8391 15.8282 64.3038 16.0319 64.6959 16.3301C65.4801 16.9338 66.0029 17.8321 66.3187 18.745C66.6346 19.6651 66.7834 20.6325 66.6782 21.5489C66.5765 22.4654 66.1917 23.3237 65.5454 23.9056C64.921 24.4984 64.0787 24.8439 63.28 24.7566C62.5067 24.6911 61.7516 24.102 61.7044 23.3892C61.6826 23.0364 61.8532 22.7018 62.1146 22.4727C62.376 22.2399 62.7064 22.0945 63.0404 22.0363C63.7193 21.9199 64.3873 22.1236 64.9137 22.4618C65.4402 22.8036 65.8431 23.2655 66.1118 23.7528C66.6527 24.7384 66.6491 25.7713 66.5583 26.5496C66.4567 27.3424 66.2534 27.9352 66.1118 28.3316C65.9666 28.7426 65.8758 28.9462 65.8903 28.9535Z" fill="#FAFAFA"/>
<path d="M11.7387 28.6135H21.5156L21.5156 0.904617H11.7387L11.7387 28.6135Z" fill="#E0E0E0"/>
<path d="M67.866 28.6135H77.0112V3.945H67.866V28.6135Z" fill="#E0E0E0"/>
<path d="M77.2428 16.2465C77.2864 16.2028 77.7075 16.7883 78.695 17.2829C79.1851 17.5266 79.8132 17.7339 80.5357 17.7957C81.2545 17.8503 82.0496 17.7412 82.8193 17.3993C83.5889 17.0684 84.2969 16.6465 85.0157 16.3956C85.7237 16.1373 86.4389 16.061 87.0089 16.2137C87.5789 16.3556 87.9673 16.6647 88.1634 16.9156C88.3667 17.1702 88.3994 17.352 88.3885 17.3557C88.3667 17.3666 88.2977 17.2029 88.0799 16.9884C87.8693 16.7738 87.4917 16.5119 86.9617 16.4065C86.4353 16.2901 85.7745 16.3774 85.0992 16.6392C84.4167 16.8902 83.7233 17.312 82.9246 17.6575C82.1295 18.0139 81.2618 18.1303 80.5103 18.0539C79.7515 17.9776 79.1016 17.7412 78.6006 17.4611C78.0996 17.1847 77.7511 16.8756 77.5333 16.6429C77.3227 16.4065 77.2319 16.2537 77.2428 16.2465Z" fill="#FAFAFA"/>
<path d="M77.036 18.6869C77.0796 18.6432 77.5007 19.2288 78.4919 19.7234C78.982 19.9707 79.6101 20.1743 80.3325 20.2362C81.0514 20.2907 81.8465 20.1816 82.6161 19.8398C83.3858 19.5088 84.0937 19.0869 84.8126 18.836C85.5205 18.5778 86.2394 18.5014 86.8057 18.6541C87.3721 18.796 87.7642 19.1015 87.9602 19.3561C88.1635 19.6106 88.1962 19.7925 88.1853 19.7961C88.1635 19.807 88.0945 19.6434 87.8767 19.4288C87.6661 19.2142 87.2886 18.9524 86.7585 18.8469C86.2321 18.7305 85.5714 18.8178 84.8961 19.0797C84.2135 19.3306 83.5201 19.7525 82.7214 20.098C81.9263 20.4544 81.0586 20.5708 80.3071 20.4944C79.5483 20.418 78.8985 20.1816 78.3975 19.9016C77.8965 19.6252 77.5479 19.316 77.3301 19.0833C77.1159 18.8469 77.0251 18.6978 77.036 18.6869Z" fill="#FAFAFA"/>
<path d="M77.1885 10.7876C77.1885 10.7112 79.7044 10.6494 82.8121 10.6494C85.9198 10.6494 88.4358 10.7112 88.4358 10.7876C88.4358 10.864 85.9198 10.9258 82.8121 10.9258C79.7044 10.9258 77.1885 10.864 77.1885 10.7876Z" fill="#FAFAFA"/>
<path d="M73.0459 7.91812C73.0242 7.96177 72.741 7.71083 72.2509 7.85266C72.0221 7.92176 71.7499 8.08542 71.6337 8.36545C71.5066 8.63821 71.6083 9.00917 71.866 9.26011C72.1274 9.51105 72.4977 9.59833 72.7664 9.46013C73.0423 9.33285 73.1984 9.05281 73.2565 8.82005C73.3763 8.32545 73.1149 8.04905 73.1585 8.02723C73.1694 8.01632 73.2493 8.05996 73.3328 8.19816C73.4199 8.33272 73.4889 8.56911 73.4489 8.86006C73.4054 9.14009 73.2493 9.4965 72.8789 9.69289C72.5086 9.90019 71.9931 9.78381 71.67 9.46377C71.3396 9.15464 71.2053 8.64185 71.3941 8.26362C71.5756 7.88903 71.9241 7.7181 72.2 7.66355C72.4868 7.61263 72.7265 7.67446 72.8644 7.75447C73.006 7.83084 73.0532 7.90721 73.0459 7.91812Z" fill="#FAFAFA"/>
<path d="M72.4544 26.1423C72.3781 26.1423 72.3164 22.6837 72.3164 18.4177C72.3164 14.1517 72.3781 10.6931 72.4544 10.6931C72.5306 10.6931 72.5923 14.1517 72.5923 18.4177C72.5923 22.6873 72.5306 26.1423 72.4544 26.1423Z" fill="#FAFAFA"/>
<path d="M97.8243 28.4734H3.18433V33.885H97.8243V28.4734Z" fill="#EBEBEB"/>
<path d="M97.8243 28.4734H89.5613V33.885H97.8243V28.4734Z" fill="#E0E0E0"/>
<path d="M102.584 28.0587L102.123 65.3034C102.043 71.6387 103.219 80.9562 113.221 80.6253C121.877 79.6797 124.175 71.4714 124.24 65.5616C124.273 62.7576 124.305 60.4191 124.327 60.1318C124.327 60.1318 133.803 59.3572 134.601 49.9815C134.986 45.45 135.026 36.0525 134.961 27.5532C134.892 18.4212 127.823 10.8784 118.733 10.2165L117.829 10.1511C108.044 10.0056 102.457 18.2539 102.584 28.0587Z" fill="#FFBE9D"/>
<path d="M124.331 60.1317C124.331 60.1317 118.402 60.0481 112.397 55.6257C112.397 55.6257 114.873 62.6993 124.283 62.5357L124.331 60.1317Z" fill="#EB996E"/>
<path d="M118.965 31.3938C118.78 31.5829 117.698 30.7137 116.129 30.6701C114.565 30.6046 113.392 31.3974 113.225 31.1974C113.145 31.1065 113.337 30.761 113.849 30.4009C114.354 30.0409 115.204 29.7063 116.18 29.739C117.157 29.7754 117.966 30.1682 118.431 30.5573C118.903 30.9537 119.056 31.3101 118.965 31.3938Z" fill="#263238"/>
<path d="M118.634 34.645C118.609 35.3178 118.021 35.8488 117.32 35.8342C116.623 35.8197 116.075 35.2669 116.1 34.5941C116.126 33.9213 116.714 33.3903 117.411 33.4048C118.112 33.4194 118.66 33.9722 118.634 34.645Z" fill="#263238"/>
<path d="M122.893 42.3224C122.893 42.2387 123.797 42.1514 125.264 42.0714C125.634 42.0605 125.986 42.0132 126.066 41.7659C126.171 41.5077 126.048 41.0968 125.899 40.6567C125.62 39.7402 125.326 38.7801 125.017 37.7727C123.797 33.6704 122.944 30.3063 123.111 30.259C123.278 30.2118 124.4 33.4995 125.616 37.6018C125.906 38.6128 126.186 39.5766 126.451 40.5003C126.56 40.9295 126.763 41.4204 126.534 41.9587C126.415 42.2278 126.131 42.406 125.892 42.4533C125.652 42.5078 125.445 42.4969 125.26 42.4933C123.797 42.4642 122.893 42.4024 122.893 42.3224Z" fill="#263238"/>
<path d="M118.297 25.4877C118.144 25.8368 116.888 25.5749 115.385 25.6513C113.882 25.6986 112.648 26.0623 112.473 25.724C112.397 25.564 112.63 25.244 113.141 24.9312C113.65 24.6221 114.441 24.3493 115.342 24.3093C116.242 24.273 117.051 24.4803 117.578 24.7494C118.108 25.0221 118.362 25.324 118.297 25.4877Z" fill="#263238"/>
<path d="M133.189 28.4009C133.026 28.6845 131.802 28.3681 130.317 28.3245C128.836 28.2517 127.605 28.47 127.446 28.1717C127.377 28.0299 127.62 27.7753 128.139 27.5498C128.651 27.3244 129.442 27.1534 130.332 27.1862C131.221 27.2225 132.005 27.4589 132.514 27.7244C133.026 27.9899 133.262 28.2627 133.189 28.4009Z" fill="#263238"/>
<path d="M102.845 35.0635C102.689 34.9834 96.5464 32.685 96.285 39.1149C96.0236 45.5448 102.522 44.4828 102.54 44.301C102.559 44.1191 102.845 35.0635 102.845 35.0635Z" fill="#FFBE9D"/>
<path d="M100.678 41.7842C100.649 41.7624 100.562 41.857 100.369 41.937C100.181 42.0134 99.861 42.0606 99.5343 41.9188C98.8663 41.6424 98.3399 40.5404 98.3544 39.3803C98.3616 38.7948 98.5069 38.242 98.732 37.791C98.9461 37.3291 99.2656 37.0127 99.6069 36.9655C99.9482 36.9 100.184 37.1146 100.253 37.3C100.333 37.4819 100.286 37.6092 100.318 37.6237C100.337 37.6419 100.46 37.5219 100.42 37.2528C100.398 37.1255 100.329 36.9691 100.184 36.8382C100.035 36.7072 99.8102 36.6345 99.5742 36.6491C99.0769 36.6636 98.6122 37.1 98.3653 37.5983C98.0894 38.0965 97.9115 38.7184 97.9042 39.373C97.8933 40.6714 98.5069 41.9115 99.4218 42.217C99.8683 42.3552 100.25 42.2316 100.453 42.0897C100.66 41.9406 100.7 41.7951 100.678 41.7842Z" fill="#EB996E"/>
<path d="M121.379 46.7739C121.448 46.6102 120.192 46.2356 119.306 45.0537C118.863 44.4718 118.609 43.839 118.417 43.3734C118.228 42.9079 118.086 42.6133 118.017 42.6352C117.952 42.657 117.966 42.9698 118.072 43.4789C118.181 43.9808 118.398 44.7009 118.899 45.3591C119.393 46.0283 120.054 46.4247 120.54 46.6175C121.03 46.8175 121.361 46.8284 121.379 46.7739Z" fill="#263238"/>
<path d="M147.395 19.1341C147.294 18.7559 147.018 18.4468 146.684 18.2467C145.95 17.8139 145.108 17.8721 144.291 17.8576C141.808 17.8176 139.343 17.0575 137.252 15.7155C136.271 14.3008 135.171 12.9733 133.977 11.7405C131.142 8.80919 128.807 6.81621 126.389 5.84154C123.267 4.5832 118.043 4.07041 114.786 4.9287C111.53 5.78335 108.603 8.43096 108.153 11.7732C106.327 10.2275 103.586 10.2385 101.361 11.1367L101.306 11.1113C98.83 11.995 97.4214 14.6172 96.6917 17.1484C95.9619 19.6796 95.6497 22.3854 94.3101 24.6548C94.0305 25.1276 93.6965 25.6986 93.9434 26.1895C94.1322 26.5714 94.615 26.7278 95.0362 26.666C95.4573 26.6041 95.8312 26.3714 96.1907 26.1423C95.9147 26.8042 95.6388 27.4661 95.3629 28.1316C96.2596 28.288 97.189 28.2152 98.0567 27.9498C98.5832 30.3173 99.2112 33.0195 99.8175 34.6233C100.852 34.6197 101.8 34.696 102.439 35.2707C103.306 36.0526 103.695 37.5219 105.136 36.9654C105.87 36.6818 106.541 35.1397 106.784 34.3906C108.415 29.4227 108.956 24.0984 108.367 18.9014C109.395 17.8067 110.633 16.912 111.994 16.2792L111.882 16.3774C114.499 15.4682 117.458 14.5735 119.938 15.8028C121.862 16.7556 122.995 18.7595 124.432 20.3561C127.159 23.3819 130.84 25.0258 134.906 25.204C135.044 27.8443 134.823 31.5757 134.961 34.216L137.179 29.9864L137.183 30.0082C137.364 29.6991 137.513 29.3863 137.658 29.0735L137.709 28.979V28.9681C137.941 28.4662 138.159 27.9643 138.45 27.4661C138.457 27.4733 138.468 27.4806 138.475 27.4879C139.902 28.7499 142.008 26.8187 140.882 25.2803C140.657 24.9748 140.392 24.7021 140.087 24.4802C140.741 25.0949 141.714 25.3894 142.57 25.1239C143.427 24.8621 144.092 23.9929 144.015 23.0982C143.964 22.4873 143.529 21.9417 142.981 21.7017C144.135 21.789 145.315 21.538 146.321 20.9634C146.974 20.5852 147.62 19.9669 147.395 19.1341Z" fill="#263238"/>
<path d="M111.097 12.8496C111.116 12.8751 110.705 13.0969 110.157 13.7115C109.616 14.3225 109.006 15.3808 108.719 16.8247C108.571 17.5411 108.48 18.3448 108.48 19.2068C108.476 20.0723 108.545 20.9961 108.611 21.9707C108.672 22.9454 108.745 23.9746 108.68 25.0475C108.647 25.5821 108.585 26.1276 108.469 26.6695C108.353 27.2041 108.211 27.7824 107.808 28.2443C107.489 28.6188 106.951 28.7861 106.487 28.6879C106.018 28.6043 105.601 28.357 105.3 28.0151C104.697 27.3096 104.548 26.4186 104.396 25.6294L104.592 25.6548C104.272 26.364 103.942 27.0623 103.452 27.6187C102.972 28.1788 102.308 28.5534 101.629 28.6116C101.291 28.6407 100.954 28.5861 100.663 28.4406C100.369 28.2952 100.155 28.0515 100.006 27.7933C99.8647 27.5314 99.7921 27.2405 99.8066 26.9605C99.8211 26.6804 99.93 26.4186 100.108 26.2295L100.206 26.3167C99.4835 27.1387 98.7211 27.5824 98.1946 27.8297C97.9296 27.9533 97.7154 28.026 97.5702 28.0733C97.425 28.117 97.3487 28.1352 97.3451 28.1279C97.3415 28.1206 97.4141 28.0915 97.5557 28.037C97.6936 27.9788 97.9006 27.8951 98.1583 27.7642C98.6702 27.5023 99.4072 27.0477 100.101 26.2295L100.199 26.3167C99.8828 26.6513 99.8647 27.2369 100.137 27.7096C100.275 27.9424 100.471 28.1606 100.729 28.2806C100.986 28.4079 101.295 28.4552 101.604 28.4225C102.224 28.3606 102.845 28.0115 103.295 27.4769C103.757 26.9423 104.076 26.2622 104.392 25.553L104.526 25.2512L104.588 25.5748C104.737 26.3604 104.897 27.2187 105.448 27.8551C105.721 28.1606 106.102 28.3861 106.512 28.4552C106.922 28.5352 107.354 28.4006 107.634 28.077C107.986 27.6806 108.131 27.1314 108.244 26.6041C108.356 26.0731 108.422 25.5421 108.454 25.0148C108.52 23.9601 108.454 22.9381 108.396 21.9635C108.335 20.9888 108.273 20.0614 108.284 19.1849C108.291 18.3121 108.393 17.4975 108.552 16.7701C108.865 15.3081 109.507 14.2352 110.077 13.6315C110.673 13.046 111.097 12.8496 111.097 12.8496Z" fill="#455A64"/>
<path d="M140.062 21.9744C140.065 21.9781 140.04 21.9999 139.985 22.0399C139.924 22.0872 139.844 22.1417 139.753 22.2108C139.651 22.2872 139.521 22.3781 139.357 22.4654C139.194 22.56 139.012 22.6727 138.787 22.7672C137.916 23.1818 136.522 23.5928 134.779 23.491C133.051 23.3928 130.978 22.7818 129.13 21.3998C127.261 20.0542 125.62 18.0685 124.276 15.7955C123.594 14.6608 123.042 13.497 122.428 12.4205C121.822 11.344 121.15 10.3512 120.337 9.56561C119.535 8.77642 118.602 8.19453 117.64 7.9254C117.16 7.78357 116.678 7.75083 116.217 7.76174C115.755 7.7872 115.316 7.87812 114.913 8.01268C114.107 8.28545 113.454 8.72914 112.96 9.19101C112.463 9.65289 112.132 10.1439 111.903 10.5657C111.479 11.4277 111.453 11.9805 111.421 11.9732C111.417 11.9732 111.421 11.9404 111.428 11.875C111.439 11.7986 111.453 11.7041 111.471 11.5877C111.519 11.3367 111.624 10.9731 111.827 10.5294C112.049 10.0966 112.375 9.58743 112.876 9.10737C113.374 8.62731 114.035 8.16179 114.862 7.87085C115.276 7.72901 115.726 7.62718 116.206 7.59809C116.681 7.5799 117.189 7.61263 117.687 7.75447C118.685 8.0236 119.651 8.62003 120.475 9.42377C121.31 10.2239 122 11.2349 122.613 12.3187C123.234 13.4024 123.79 14.5626 124.465 15.6864C125.797 17.9412 127.417 19.9051 129.25 21.2398C131.065 22.6072 133.091 23.2219 134.79 23.3382C136.504 23.4582 137.883 23.08 138.751 22.6945C139.63 22.2945 140.047 21.949 140.062 21.9744Z" fill="#455A64"/>
<path d="M140.915 17.8538C140.922 17.8684 140.802 17.9484 140.581 18.0866C140.359 18.2284 140.018 18.4066 139.586 18.5921C139.154 18.7812 138.62 18.9594 138.011 19.1085C137.401 19.2467 136.718 19.3486 135.999 19.3777C135.277 19.3959 134.591 19.3377 133.973 19.2395C133.36 19.1304 132.812 18.9849 132.369 18.8249C131.926 18.6649 131.574 18.5121 131.345 18.3848C131.113 18.2612 130.989 18.1848 130.996 18.1739C131.015 18.1375 131.53 18.403 132.42 18.6794C132.862 18.8212 133.403 18.9449 134.006 19.0431C134.612 19.1304 135.288 19.1813 135.996 19.1595C136.704 19.134 137.372 19.0394 137.971 18.9158C138.57 18.7812 139.1 18.6212 139.532 18.4503C140.396 18.1157 140.897 17.8175 140.915 17.8538Z" fill="#455A64"/>
<path d="M133.262 31.9866C133.076 32.1757 131.995 31.3028 130.426 31.2628C128.861 31.1974 127.689 31.9902 127.522 31.7902C127.442 31.6993 127.634 31.3538 128.146 30.9937C128.651 30.6337 129.5 30.2991 130.477 30.3318C131.454 30.3682 132.263 30.761 132.728 31.1501C133.196 31.5429 133.352 31.9029 133.262 31.9866Z" fill="#263238"/>
<path d="M131.661 35.0998C131.635 35.7726 131.047 36.3036 130.346 36.2891C129.649 36.2745 129.101 35.7217 129.127 35.0489C129.152 34.3797 129.74 33.8451 130.437 33.8597C131.138 33.8742 131.686 34.4306 131.661 35.0998Z" fill="#263238"/>
<path d="M190.152 69.3912C190.152 66.6673 187.552 66.6673 187.552 66.6673C186.561 65.3653 185.447 65.8381 185.447 65.8381L181.239 68.6821C180.622 69.7477 176.537 73.7772 176.537 73.7772C175.423 72.9481 175.423 71.2897 174.09 69.2749C172.754 67.2601 169.734 67.4965 169.734 67.4965C169.734 67.4965 172.086 72.828 172.333 76.1448C172.58 79.4616 170.525 88.7137 170.525 88.7137L182.423 92.0632C182.423 92.0632 183.174 86.9862 184.506 86.5788C186.111 86.0842 187.004 83.713 187.004 83.713C188.74 80.1926 192.261 75.0792 192.755 72.4716C193.245 69.864 190.152 69.3912 190.152 69.3912Z" fill="#FFBE9D"/>
<path d="M101.687 63.4995C109.264 68.271 116.899 70.064 124.636 66.9763L136.26 69.9512L147.7 146.503L80.6375 147.084L83.9412 129.304L92.2551 65.4198L101.687 63.4995Z" fill="#455A64"/>
<path d="M136.26 69.9475C136.26 69.9475 145.304 73.708 148.753 80.2979C152.206 86.8878 157.749 105.381 157.749 105.381L167.966 86.5859L186.928 91.4411C186.928 91.4411 172.812 130.442 169.269 133.992C165.388 137.88 154.816 141.8 149.643 138.774C144.465 135.748 143.413 124.267 143.413 124.267L136.26 69.9475Z" fill="#455A64"/>
<path d="M136.882 101.966C136.831 101.966 136.787 98.5657 136.787 94.3725C136.787 90.1792 136.831 86.7788 136.882 86.7788C136.933 86.7788 136.976 90.1792 136.976 94.3725C136.976 98.5694 136.936 101.966 136.882 101.966Z" fill="#263238"/>
<path d="M140.421 74.3226C140.446 74.3335 140.265 74.8063 139.978 75.5773C139.695 76.3447 139.314 77.4139 138.947 78.6068C138.577 79.8033 138.29 80.8943 138.09 81.6908C137.891 82.4872 137.774 82.9819 137.745 82.9746C137.731 82.9709 137.745 82.8437 137.782 82.6182C137.814 82.3891 137.876 82.0617 137.96 81.6617C138.127 80.858 138.395 79.7524 138.765 78.5522C139.136 77.3521 139.535 76.2865 139.855 75.53C140.014 75.1518 140.149 74.8463 140.247 74.639C140.348 74.4317 140.41 74.319 140.421 74.3226Z" fill="#263238"/>
<path d="M91.0244 94.0887L93.1229 65.2451C93.1229 65.2451 77.3374 66.7108 72.1131 77.8685C67.7093 87.2697 55.5616 115.553 54.2583 119.423C50.4426 130.777 56.4039 146.386 80.9824 145.484L83.7852 130.05L91.0244 94.0887Z" fill="#455A64"/>
<path d="M73.3511 133.265C73.3438 133.261 73.391 133.166 73.4781 132.988C73.5762 132.795 73.7105 132.537 73.8775 132.213C74.2405 131.526 74.7524 130.562 75.3842 129.377C75.5439 129.079 75.7109 128.766 75.8888 128.438C76.0667 128.115 76.2736 127.762 76.6113 127.507C76.9489 127.253 77.3918 127.151 77.8239 127.158C78.2595 127.162 78.6988 127.257 79.1308 127.369C80.0022 127.598 80.8953 127.926 81.7738 128.369C82.2131 128.591 82.6452 128.853 83.0409 129.18L83.1861 129.308C83.2442 129.359 83.2914 129.439 83.3095 129.504C83.3567 129.639 83.3785 129.77 83.3894 129.9C83.4148 130.162 83.4148 130.424 83.4076 130.682C83.3676 131.726 83.2406 132.73 83.1099 133.697C82.9755 134.665 82.8303 135.596 82.6815 136.483C82.3838 138.254 82.0861 139.844 81.8319 141.175C81.5742 142.491 81.3636 143.564 81.2147 144.328C81.1458 144.688 81.0877 144.971 81.0477 145.186C81.0078 145.382 80.9897 145.484 80.986 145.484C80.9788 145.484 80.986 145.379 81.0114 145.179C81.0369 144.979 81.0841 144.688 81.1458 144.313C81.2801 143.546 81.4689 142.469 81.7049 141.149C81.9408 139.814 82.2277 138.225 82.5145 136.454C82.6561 135.57 82.8013 134.639 82.932 133.672C83.059 132.704 83.1861 131.701 83.2224 130.675C83.2297 130.421 83.2297 130.162 83.2079 129.915C83.197 129.791 83.1752 129.671 83.1389 129.566C83.1171 129.511 83.099 129.479 83.0627 129.442L82.9247 129.322C82.5435 129.009 82.1224 128.755 81.694 128.533C80.8335 128.093 79.9513 127.769 79.0945 127.537C78.6661 127.424 78.2414 127.329 77.8275 127.322C77.4172 127.311 77.0143 127.406 76.7093 127.631C76.4007 127.857 76.201 128.188 76.0231 128.504C75.8452 128.828 75.6746 129.14 75.5112 129.435C74.8614 130.61 74.3313 131.566 73.9537 132.243C73.7722 132.559 73.6306 132.814 73.5217 133.003C73.4092 133.177 73.3547 133.268 73.3511 133.265Z" fill="#263238"/>
<path d="M61.9369 119.561C61.9369 119.554 62.0023 119.554 62.1221 119.554C62.2637 119.561 62.4416 119.565 62.6521 119.576C63.1132 119.597 63.7776 119.637 64.5981 119.714C65.4186 119.79 66.3952 119.906 67.4662 120.132C68.5335 120.354 69.6953 120.699 70.8389 121.252C71.9753 121.809 72.9845 122.481 73.805 123.212C74.6146 123.951 75.2427 124.74 75.6058 125.493C75.9724 126.242 76.1249 126.911 76.1503 127.373C76.183 127.602 76.1576 127.784 76.1612 127.907C76.1576 128.027 76.154 128.093 76.1467 128.093C76.1249 128.093 76.1322 127.835 76.0777 127.384C76.0305 126.929 75.8599 126.278 75.486 125.554C75.1156 124.827 74.4912 124.063 73.6889 123.343C72.8756 122.63 71.8772 121.972 70.7554 121.423C69.6336 120.881 68.4863 120.536 67.4299 120.303C66.3734 120.07 65.4004 119.939 64.5872 119.848C63.7703 119.754 63.1096 119.696 62.6485 119.652C62.4379 119.63 62.2637 119.612 62.1221 119.597C61.9986 119.579 61.9333 119.568 61.9369 119.561Z" fill="#263238"/>
<path d="M78.8259 118.106C78.8477 118.117 78.7061 118.55 78.4338 119.241C78.1651 119.932 77.7622 120.874 77.2975 121.903C76.8473 122.907 76.437 123.816 76.1139 124.54C75.8126 125.216 75.6238 125.634 75.5984 125.623C75.5766 125.613 75.7182 125.18 75.9905 124.489C76.2591 123.798 76.6621 122.856 77.1268 121.827C77.577 120.823 77.9873 119.914 78.3104 119.19C78.6117 118.513 78.8005 118.095 78.8259 118.106Z" fill="#263238"/>
<path d="M87.5613 95.4054C87.5103 95.4054 87.4666 93.576 87.4666 91.3212C87.4666 89.0664 87.5103 87.2371 87.5613 87.2371C87.6124 87.2371 87.6561 89.0664 87.6561 91.3212C87.6561 93.576 87.6124 95.4054 87.5613 95.4054Z" fill="#263238"/>
<g opacity="0.3">
<g opacity="0.3">
<path opacity="0.3" d="M76.143 128.089C71.9897 129.54 69.1833 133.315 68.0506 137.571C67.9308 138.018 67.8509 138.545 68.1522 138.898C68.4608 139.262 69.049 139.251 69.4556 139.003C69.8622 138.76 70.1272 138.342 70.3813 137.938C72.3781 134.734 74.3313 131.763 76.143 128.089Z" fill="black"/>
</g>
</g>
<g opacity="0.3">
<g opacity="0.3">
<path opacity="0.3" d="M70.9913 119.863C68.8203 118.655 66.3225 118.135 63.8429 117.986C62.8699 117.928 61.9042 118.041 60.953 118.241C59.6569 118.514 58.1648 119.168 57.8816 120.103C60.8622 119.168 65.2479 119.783 68.3011 120.452C71.3798 121.125 73.8812 122.874 75.5948 125.631C74.8615 123.3 73.1225 121.048 70.9913 119.863Z" fill="black"/>
</g>
</g>
<path d="M85.2373 83.12C85.2228 83.1236 85.172 82.9599 85.0921 82.6654C85.0159 82.3708 84.8888 81.9453 84.7182 81.4252C84.3769 80.3887 83.8069 78.9813 82.9646 77.5447C82.1187 76.1082 81.1712 74.9262 80.4306 74.1225C80.0602 73.7188 79.7517 73.4024 79.5302 73.1915C79.3124 72.9769 79.1962 72.8532 79.2034 72.8423C79.2107 72.8314 79.345 72.9369 79.581 73.1369C79.817 73.3333 80.1438 73.6388 80.5286 74.0316C81.2983 74.8171 82.2749 75.9991 83.128 77.4502C83.9776 78.9049 84.5367 80.3305 84.8489 81.3852C85.005 81.9125 85.1139 82.3453 85.1684 82.6472C85.2228 82.949 85.2519 83.12 85.2373 83.12Z" fill="#263238"/>
<path d="M91.0353 147.074L73.4455 104.563C72.6432 102.625 73.6489 101.05 75.6928 101.05H79.2326C80.6775 101.05 81.6614 100.253 81.7521 99.0096L81.8683 97.4458C81.9627 96.202 82.9466 95.4055 84.3952 95.4055H101.212C102.522 95.4055 104.004 96.0601 105.107 97.133L106.472 98.4568C107.572 99.526 109.054 100.184 110.364 100.184H131.781C133.824 100.184 136.115 101.755 136.896 103.697L154.333 147.077H91.0353V147.074Z" fill="#FF5252"/>
<g opacity="0.3">
<g opacity="0.3">
<path opacity="0.3" d="M91.0353 147.074L73.4455 104.563C72.6432 102.625 73.6489 101.05 75.6928 101.05H79.2326C80.6775 101.05 81.6614 100.253 81.7521 99.0096L81.8683 97.4458C81.9627 96.202 82.9466 95.4055 84.3952 95.4055H101.212C102.522 95.4055 104.004 96.0601 105.107 97.133L106.472 98.4568C107.572 99.526 109.054 100.184 110.364 100.184H131.781C133.824 100.184 136.115 101.755 136.896 103.697L154.333 147.077H91.0353V147.074Z" fill="black"/>
</g>
</g>
<path d="M88.1272 132.636L81.4943 106.942C81.0586 105.25 82.1623 103.552 83.7017 103.552H135.701C136.729 103.552 137.633 104.334 137.916 105.465L147.573 144.139C147.998 145.837 147.319 146.856 145.78 146.837L93.4605 146.852C92.4475 146.837 91.5581 146.07 91.2749 144.954L88.1272 132.636Z" fill="#E0E0E0"/>
<path d="M91.7215 145.91L88.897 105.447C88.7953 104.01 89.9317 102.792 91.3693 102.792H145.246V145.91H91.7215Z" fill="#EBEBEB"/>
<path d="M91.1189 146.837L97.5267 105.123C97.8208 103.763 99.0443 102.792 100.457 102.792H154.961C157.114 102.792 158.563 104.96 157.713 106.902L145.943 145.074L91.1189 146.837Z" fill="#FAFAFA"/>
<path d="M91.0354 147.056L104.254 107.989C104.806 106.36 106.276 105.272 107.932 105.272H164.117C165.929 105.272 167.203 107.127 166.626 108.924L154.333 147.077L91.0354 147.056Z" fill="#FF5252"/>
<g opacity="0.3">
<g opacity="0.3">
<path opacity="0.3" d="M118.202 140.513C118.202 140.513 116.082 140.611 115.102 140.677C110.444 140.997 105.713 140.153 101.451 138.251C100.13 137.662 98.732 136.829 98.3326 135.436C97.8861 133.876 98.8953 132.25 100.122 131.192C101.353 130.133 102.849 129.381 103.916 128.159C104.984 126.937 105.488 124.958 104.439 123.725L104.149 123.94C103.39 125.867 101.273 126.798 99.5198 127.904C96.2632 129.955 93.7836 133.203 92.6581 136.887C92.0409 138.909 91.8776 141.269 93.101 142.993C93.9687 144.215 95.3919 144.91 96.7969 145.434C101.048 147.012 105.59 147.07 110.124 147.077C111.559 147.077 115.951 147.019 115.951 147.019C117.335 146.641 117.788 145.921 118.62 144.753C119.382 143.677 119.215 141.353 118.202 140.513Z" fill="black"/>
</g>
</g>
<path d="M118.202 140.513L103.55 138.305L97.8606 135.025C97.1091 134.592 96.5972 133.821 96.5537 132.955C96.5537 132.941 96.5537 132.923 96.55 132.908C96.5065 131.828 97.1636 130.842 98.162 130.424C99.9663 129.664 102.827 128.649 104.047 126.507C105.801 123.431 104.047 122.794 104.047 122.794L91.8086 127.693L83.1462 133.599L81.4036 143.448L93.4895 147.401C93.4895 147.401 106.959 148.161 110.676 147.743C114.394 147.325 114.394 145.59 114.394 145.59C115.084 145.375 116.478 144.146 116.478 143.004C118.275 141.313 118.202 140.513 118.202 140.513Z" fill="#FFBE9D"/>
<path d="M99.4581 144.753C99.4617 144.735 99.6795 144.779 100.061 144.87C100.442 144.964 101.001 145.088 101.691 145.222C103.07 145.499 104.998 145.79 107.144 145.873C109.289 145.953 111.232 145.819 112.63 145.648C113.327 145.564 113.893 145.484 114.281 145.422C114.67 145.364 114.888 145.339 114.891 145.353C114.895 145.372 114.684 145.426 114.3 145.517C113.915 145.608 113.352 145.717 112.651 145.823C111.254 146.037 109.293 146.204 107.133 146.121C104.973 146.033 103.03 145.717 101.655 145.393C100.965 145.233 100.413 145.081 100.035 144.961C99.6614 144.844 99.4544 144.768 99.4581 144.753Z" fill="#EB996E"/>
<path d="M100.798 142.484C100.801 142.466 101.019 142.509 101.411 142.6C101.8 142.695 102.366 142.818 103.067 142.953C104.468 143.226 106.429 143.498 108.607 143.568C110.785 143.633 112.76 143.488 114.176 143.313C114.884 143.226 115.458 143.146 115.853 143.08C116.249 143.018 116.471 142.993 116.474 143.011C116.478 143.029 116.264 143.088 115.872 143.178C115.48 143.273 114.91 143.382 114.198 143.491C112.778 143.713 110.793 143.888 108.596 143.822C106.4 143.753 104.428 143.451 103.027 143.131C102.326 142.975 101.764 142.822 101.382 142.698C101.001 142.575 100.791 142.498 100.798 142.484Z" fill="#EB996E"/>
<path d="M187.225 88.1827L161.187 93.3361C159.387 93.6925 157.64 92.5178 157.285 90.7176L150.165 54.6149C149.809 52.811 150.982 51.0617 152.779 50.7053L169.291 47.4395L184.677 58.1099L189.836 84.2768C190.195 86.077 189.026 87.8299 187.225 88.1827Z" fill="#EBEBEB"/>
<path d="M169.298 47.4395L171.302 57.6007C171.632 59.2773 173.255 60.3683 174.929 60.0374L184.68 58.1099L169.298 47.4395Z" fill="#F5F5F5"/>
<path d="M171.611 58.4662C171.611 58.4662 171.966 60.9575 174.929 61.212C175.041 61.223 175.154 61.223 175.263 61.2193C176.581 61.1939 185.258 61.0302 185.221 60.8375C185.181 60.6302 184.684 58.1062 184.684 58.1062L174.933 60.0374C174.929 60.0374 172.478 60.4374 171.611 58.4662Z" fill="#E0E0E0"/>
<path d="M187.225 88.1828C187.225 88.1828 187.273 88.1683 187.367 88.1428C187.461 88.121 187.599 88.081 187.777 88.0082C188.126 87.87 188.649 87.5973 189.121 87.0263C189.578 86.4662 189.988 85.5607 189.836 84.4878C189.647 83.4295 189.386 82.2148 189.117 80.851C188.031 75.3885 186.478 67.5693 184.601 58.1209L184.633 58.1718C179.975 54.9459 174.784 51.3491 169.244 47.5123L169.313 47.5268C166.252 48.1342 163.064 48.7634 159.786 49.4143C158.145 49.738 156.482 50.069 154.801 50.3999C154.38 50.4836 153.959 50.5672 153.538 50.6509C153.117 50.7418 152.685 50.7963 152.293 50.9454C151.501 51.2364 150.837 51.8583 150.488 52.6366C150.245 53.1748 150.147 53.7822 150.227 54.3641C150.318 54.9496 150.456 55.5497 150.565 56.1388C150.797 57.3208 151.029 58.4955 151.258 59.6593C151.715 61.9905 152.169 64.2889 152.616 66.5438C153.505 71.057 154.362 75.4103 155.175 79.5599C155.582 81.6329 155.981 83.655 156.366 85.6225C156.559 86.6044 156.751 87.5718 156.936 88.5247C157.031 89.0011 157.121 89.4739 157.216 89.943C157.317 90.4122 157.372 90.885 157.546 91.3068C157.891 92.1615 158.613 92.8234 159.445 93.1216C159.859 93.2744 160.302 93.3362 160.737 93.3107C161.166 93.2816 161.601 93.1689 162.026 93.0925C163.736 92.7579 165.377 92.4342 166.942 92.1251C173.204 90.8995 178.273 89.9067 181.78 89.2193C183.53 88.8811 184.887 88.6192 185.817 88.4374C186.274 88.3501 186.626 88.2846 186.866 88.2374C187.106 88.201 187.225 88.1828 187.225 88.1828C187.225 88.1828 187.106 88.2119 186.87 88.2628C186.63 88.3137 186.282 88.3865 185.824 88.481C184.898 88.6665 183.54 88.9429 181.794 89.2957C178.291 89.9976 173.226 91.0086 166.967 92.2597C165.402 92.5724 163.761 92.8961 162.055 93.238C161.627 93.3144 161.202 93.4307 160.745 93.4635C160.291 93.4926 159.83 93.4271 159.394 93.2707C158.523 92.9616 157.768 92.267 157.404 91.3723C157.216 90.9213 157.161 90.4413 157.06 89.9794C156.965 89.5102 156.874 89.0375 156.78 88.561C156.591 87.6082 156.399 86.6408 156.206 85.6589C155.818 83.695 155.419 81.6729 155.008 79.5999C154.188 75.454 153.327 71.1007 152.438 66.5874C151.991 64.3289 151.538 62.0341 151.08 59.7029C150.851 58.5391 150.619 57.3644 150.387 56.1825C150.274 55.586 150.143 55.0078 150.045 54.3968C149.962 53.7785 150.064 53.1348 150.321 52.5675C150.692 51.7455 151.392 51.0873 152.231 50.7782C152.652 50.6181 153.088 50.5672 153.505 50.4763C153.926 50.3926 154.351 50.309 154.769 50.2254C156.45 49.8944 158.112 49.5635 159.753 49.2398C163.032 48.5924 166.219 47.9633 169.283 47.3559L169.32 47.3486L169.352 47.3705C174.889 51.2146 180.077 54.8187 184.731 58.0482L184.757 58.0663L184.764 58.0991C186.612 67.5512 188.144 75.3739 189.215 80.8401C189.476 82.2075 189.727 83.4186 189.912 84.4878C190.061 85.5825 189.632 86.499 189.164 87.0627C188.678 87.6373 188.148 87.9028 187.792 88.0373C187.614 88.1064 187.472 88.1428 187.374 88.161C187.276 88.1755 187.225 88.1828 187.225 88.1828Z" fill="#263238"/>
<path d="M184.681 58.1065C184.681 58.1137 184.597 58.1356 184.434 58.1756C184.252 58.2156 184.013 58.2701 183.718 58.3356C183.076 58.4701 182.179 58.6593 181.083 58.8884C179.961 59.1175 178.636 59.3866 177.169 59.6812C176.432 59.8267 175.655 59.9794 174.853 60.1394C174.025 60.2886 173.103 60.074 172.395 59.5248C172.039 59.2521 171.745 58.9102 171.538 58.5247C171.324 58.1465 171.219 57.71 171.15 57.3136C170.994 56.5099 170.841 55.7353 170.699 54.9933C170.416 53.5204 170.162 52.1894 169.944 51.0656C169.741 49.9636 169.574 49.0617 169.451 48.4143C169.4 48.1161 169.356 47.8761 169.327 47.6906C169.302 47.5233 169.291 47.436 169.298 47.436C169.305 47.436 169.327 47.5197 169.367 47.6833C169.407 47.8652 169.461 48.1016 169.527 48.3998C169.661 49.0435 169.85 49.9418 170.079 51.0401C170.307 52.1639 170.576 53.4913 170.874 54.9606C171.023 55.6989 171.175 56.4735 171.335 57.2773C171.407 57.6846 171.502 58.0737 171.705 58.4338C171.901 58.7938 172.177 59.1175 172.511 59.3721C173.179 59.8885 174.043 60.0885 174.824 59.954C175.626 59.7976 176.399 59.6485 177.136 59.5066C178.607 59.223 179.935 58.9684 181.057 58.7502C182.157 58.5465 183.058 58.3792 183.704 58.2592C184.002 58.2083 184.241 58.1646 184.426 58.1356C184.593 58.1137 184.681 58.1028 184.681 58.1065Z" fill="#263238"/>
<path d="M170.594 56.6043C170.605 56.6552 167.537 57.3062 163.743 58.0553C159.949 58.8045 156.867 59.3719 156.856 59.321C156.845 59.27 159.913 58.619 163.707 57.8699C167.501 57.1207 170.583 56.5533 170.594 56.6043Z" fill="#263238"/>
<path d="M178.109 60.383C178.12 60.4339 173.593 61.3722 168.002 62.4778C162.407 63.5834 157.866 64.4417 157.855 64.3872C157.844 64.3362 162.371 63.3979 167.966 62.2887C173.557 61.1868 178.098 60.3321 178.109 60.383Z" fill="#263238"/>
<path d="M179.111 65.4527C179.122 65.5036 174.595 66.4419 169.004 67.5475C163.409 68.6531 158.868 69.5113 158.857 69.4568C158.846 69.4059 163.373 68.4676 168.968 67.3583C174.555 66.2564 179.1 65.3981 179.111 65.4527Z" fill="#263238"/>
<path d="M159.855 74.5266C159.844 74.4757 164.372 73.5374 169.963 72.4318C175.557 71.3262 180.099 70.4679 180.11 70.5225C180.121 70.5734 175.593 71.5117 169.999 72.6209C164.408 73.7229 159.863 74.5775 159.855 74.5266Z" fill="#263238"/>
<path d="M181.108 75.5886C181.119 75.6395 176.592 76.5778 171.001 77.6834C165.406 78.789 160.864 79.6473 160.854 79.5927C160.843 79.5418 165.37 78.6035 170.964 77.4943C176.555 76.3923 181.097 75.5377 181.108 75.5886Z" fill="#263238"/>
<path d="M182.106 80.6582C182.117 80.7091 177.59 81.6474 171.999 82.753C166.404 83.8586 161.863 84.7169 161.852 84.6623C161.841 84.6114 166.368 83.6731 171.963 82.5639C177.554 81.4619 182.099 80.6073 182.106 80.6582Z" fill="#263238"/>
<path d="M171.317 84.0222L152.209 87.8045C151.378 87.9681 150.572 87.4263 150.409 86.5971L149.04 79.6544C148.876 78.8215 149.417 78.0142 150.245 77.8505L169.353 74.0682C170.184 73.9046 170.99 74.4465 171.153 75.2756L172.522 82.2183C172.689 83.0475 172.148 83.8549 171.317 84.0222Z" fill="#FF5252"/>
<path d="M154.802 80.3129L156.508 79.9747C157.735 79.7311 158.726 80.3057 158.948 81.444C159.173 82.5823 158.476 83.4915 157.248 83.7352L155.542 84.0734L154.802 80.3129ZM157.063 83.0297C157.808 82.8805 158.211 82.3387 158.065 81.6186C157.924 80.8985 157.347 80.5493 156.602 80.6985L155.807 80.8548L156.268 83.186L157.063 83.0297Z" fill="white"/>
<path d="M159.365 81.3601C159.144 80.2436 159.852 79.2435 161.035 79.0071C162.215 78.7743 163.253 79.4217 163.475 80.5455C163.696 81.6693 162.985 82.6621 161.805 82.8985C160.618 83.1349 159.587 82.4803 159.365 81.3601ZM162.596 80.7237C162.455 80.0109 161.856 79.6181 161.184 79.7527C160.512 79.8872 160.106 80.4727 160.247 81.1892C160.389 81.902 160.988 82.2948 161.66 82.1602C162.328 82.0257 162.734 81.4365 162.596 80.7237Z" fill="white"/>
<path d="M163.892 80.4656C163.667 79.3309 164.379 78.349 165.548 78.1162C166.198 77.9889 166.786 78.1162 167.225 78.4762L166.768 79.1018C166.459 78.8617 166.111 78.7745 165.737 78.8472C165.036 78.9854 164.633 79.5782 164.771 80.2874C164.912 80.9966 165.508 81.393 166.209 81.2548C166.582 81.1784 166.869 80.9675 167.065 80.622L167.726 81.0256C167.457 81.5312 166.964 81.873 166.307 82.004C165.145 82.2403 164.117 81.6003 163.892 80.4656Z" fill="white"/>
<path d="M183.13 61.3174C183.13 61.3174 185.054 58.8771 186.536 60.2409C188.017 61.6047 187.589 62.3066 186.18 64.4633C186.18 64.4633 189.324 64.2996 188.315 67.5327C188.315 67.5327 191.448 67.1872 191.146 69.8312C191.146 69.8312 193.51 72.1479 192.283 73.6426C191.052 75.1373 186.59 77.8358 185.465 77.3703C184.339 76.9048 184.328 75.3083 184.328 75.3083C184.328 75.3083 182.989 74.7045 182.618 73.9954C182.248 73.2898 182.883 72.297 182.883 72.297C182.883 72.297 181.754 71.1405 181.475 70.8168C181.195 70.4931 181.627 68.9947 181.627 68.9947L183.432 67.2418C183.432 67.2418 180.948 68.3219 180.429 67.911C179.91 67.5 179.329 67.1436 179.881 66.3908C180.436 65.638 182.404 63.9541 182.404 63.9541L183.13 61.3174Z" fill="#FFBE9D"/>
<path d="M184.579 75.4976C184.55 75.4648 184.884 75.1121 185.392 74.5084C185.904 73.9156 186.626 73.0391 187.687 72.4027C188.725 71.7662 189.68 71.2534 190.264 70.7406C190.863 70.2424 191.099 69.8096 191.143 69.8351C191.172 69.8423 190.994 70.3369 190.406 70.9006C189.832 71.4753 188.863 72.0317 187.846 72.6572C186.823 73.2682 186.107 74.0901 185.548 74.6538C185 75.2212 184.608 75.5267 184.579 75.4976Z" fill="#EB996E"/>
<path d="M182.84 72.7664C182.782 72.7082 183.936 71.4571 185.418 69.9769C186.162 69.2459 186.801 68.5367 187.349 68.104C187.89 67.6603 188.3 67.4966 188.315 67.533C188.337 67.573 187.977 67.7912 187.487 68.264C186.99 68.7222 186.38 69.4496 185.628 70.1878C184.147 71.6717 182.898 72.8245 182.84 72.7664Z" fill="#EB996E"/>
<path d="M183.432 67.2456C183.374 67.1692 184.085 66.6055 184.877 65.8491C185.683 65.0999 186.075 64.2961 186.151 64.3252C186.238 64.3434 185.93 65.2744 185.087 66.0636C184.263 66.8455 183.475 67.3001 183.432 67.2456Z" fill="#EB996E"/>
<path d="M183.134 61.3104C183.138 61.3141 183.127 61.3759 183.101 61.4923C183.069 61.6268 183.029 61.7978 182.978 62.0051C182.854 62.4778 182.687 63.1325 182.473 63.9653L182.47 63.9835L182.455 63.998C182.092 64.3181 181.685 64.6854 181.243 65.1C180.814 65.5182 180.299 65.9728 179.903 66.5365C179.816 66.6784 179.75 66.8384 179.765 66.9911C179.779 67.1439 179.877 67.2893 180.008 67.4166C180.135 67.5439 180.291 67.6603 180.451 67.784C180.582 67.8967 180.752 67.8931 180.952 67.8821C181.736 67.7912 182.56 67.4676 183.388 67.1257L183.969 66.8857L183.519 67.3257C182.952 67.8821 182.346 68.4713 181.722 69.0859L181.751 69.0459C181.522 69.606 181.377 70.3115 181.656 70.8752C181.969 71.4353 182.524 71.9081 183.08 72.3263L183.203 72.4173L183.105 72.5336C182.713 72.9992 182.433 73.7338 182.949 74.1848C183.406 74.6612 184.031 75.0249 184.652 75.3522L184.441 75.4685L184.445 75.4322C184.445 75.4322 184.445 75.4176 184.445 75.4213V75.4249C184.481 75.4686 184.361 75.3194 184.532 75.5522C184.938 75.3594 184.648 75.4722 184.739 75.4431V75.4467L184.735 75.5158V75.6613C184.739 75.7595 184.75 75.8577 184.764 75.9595C184.793 76.1559 184.844 76.3487 184.92 76.5305C184.996 76.7087 185.102 76.876 185.24 77.0106C185.378 77.1415 185.545 77.2615 185.704 77.2797C186.071 77.3197 186.499 77.1851 186.892 77.0433C187.291 76.8978 187.683 76.7123 188.071 76.5123C188.805 76.1304 189.506 75.7013 190.17 75.2394C190.831 74.7739 191.473 74.2902 192.007 73.7302C192.279 73.4538 192.457 73.1483 192.483 72.7846C192.515 72.4282 192.428 72.0645 192.29 71.7263C192.007 71.0462 191.546 70.4425 191.056 69.926L191.012 69.8788L191.016 69.8097C191.034 69.4533 191.049 69.0896 190.911 68.7768C190.787 68.4604 190.562 68.2022 190.279 68.0276C189.702 67.6785 188.979 67.6167 188.34 67.6567L188.159 67.6676L188.202 67.4894C188.249 67.293 188.307 67.1002 188.347 66.9038C188.358 66.7075 188.416 66.5147 188.391 66.3256C188.402 65.9437 188.278 65.58 188.068 65.3C187.625 64.7363 186.848 64.5654 186.198 64.5654H185.988L186.1 64.3944C186.474 63.8235 186.841 63.2816 187.113 62.7397C187.244 62.4669 187.345 62.1942 187.371 61.9214C187.396 61.6486 187.331 61.3868 187.211 61.1577C186.953 60.714 186.583 60.3248 186.224 60.0812C185.839 59.8484 185.399 59.8557 185.047 59.9612C184.332 60.1866 183.882 60.6194 183.584 60.8776C183.435 61.0122 183.33 61.1249 183.257 61.1977C183.174 61.2777 183.138 61.3141 183.134 61.3104C183.13 61.3068 183.159 61.2595 183.225 61.1795C183.29 61.0995 183.388 60.9795 183.533 60.834C183.675 60.6885 183.86 60.514 184.096 60.3358C184.332 60.1575 184.626 59.9648 185.004 59.8448C185.37 59.7248 185.861 59.6993 186.289 59.9539C186.387 60.0266 186.489 60.0994 186.59 60.1757C186.681 60.2594 186.772 60.3467 186.863 60.4376C187.037 60.6267 187.222 60.8231 187.356 61.0777C187.494 61.325 187.578 61.6305 187.549 61.9396C187.523 62.2487 187.418 62.5469 187.284 62.8306C187.008 63.3943 186.645 63.9435 186.278 64.5181L186.18 64.3472C186.547 64.3363 186.91 64.3872 187.276 64.5035C187.636 64.6199 187.999 64.8272 188.253 65.1509C188.507 65.4746 188.649 65.9001 188.638 66.3183C188.663 66.5293 188.605 66.7329 188.594 66.9475C188.554 67.1548 188.496 67.3584 188.445 67.5657L188.307 67.3985C189.005 67.3512 189.745 67.4057 190.417 67.7949C190.744 67.9913 191.019 68.304 191.165 68.675C191.328 69.0459 191.314 69.4533 191.292 69.8424L191.252 69.726C191.775 70.2715 192.247 70.8789 192.559 71.6172C192.708 71.9845 192.813 72.3918 192.777 72.8137C192.758 73.0282 192.69 73.2319 192.602 73.4283C192.486 73.6138 192.37 73.792 192.225 73.9338C191.662 74.523 191.016 75.0139 190.344 75.4867C189.669 75.9559 188.961 76.3923 188.213 76.7814C187.817 76.9851 187.414 77.1742 187.001 77.327C186.583 77.4724 186.158 77.6252 185.664 77.5743C185.142 77.4652 184.837 77.0578 184.652 76.6505C184.564 76.4396 184.506 76.225 184.477 76.0068C184.463 75.8977 184.452 75.7886 184.448 75.6795V75.5158L184.452 75.4285L184.456 75.4104V75.4067C184.543 75.374 184.256 75.4867 184.662 75.294C184.833 75.5231 184.713 75.3776 184.75 75.4213V75.4322V75.4613L184.746 75.5049L184.728 75.7231L184.535 75.6213C183.889 75.2758 183.265 74.9194 182.749 74.3848C182.626 74.2466 182.506 74.0902 182.444 73.8938C182.383 73.7011 182.383 73.4974 182.419 73.3119C182.499 72.9373 182.68 72.6282 182.909 72.3482L182.934 72.5555C182.353 72.1081 181.794 71.6463 181.431 70.9953C181.261 70.657 181.228 70.2752 181.264 69.926C181.301 69.5733 181.391 69.246 181.529 68.9296L181.537 68.9077L181.555 68.8895C182.186 68.2822 182.793 67.693 183.366 67.1439L183.501 67.3439C182.648 67.6858 181.834 68.0022 180.985 68.0967C180.781 68.1113 180.516 68.104 180.335 67.9476C180.182 67.824 180.023 67.7039 179.877 67.5585C179.736 67.4166 179.605 67.2312 179.583 67.0057C179.565 66.7838 179.656 66.5874 179.754 66.4274C180.197 65.8201 180.705 65.3982 181.148 64.9763C181.598 64.5654 182.012 64.2053 182.386 63.8926L182.364 63.9253C182.608 63.0961 182.796 62.4415 182.934 61.9723C182.996 61.7687 183.047 61.6014 183.09 61.4704C183.105 61.365 183.127 61.3068 183.134 61.3104Z" fill="#EB996E"/>
<path d="M50.911 80.9273H28.5108C26.9642 80.9273 25.708 79.669 25.708 78.1197V47.0613C25.708 45.512 26.9642 44.2537 28.5108 44.2537H42.7169L53.7137 55.6078V78.1197C53.7137 79.6726 52.4576 80.9273 50.911 80.9273Z" fill="#EBEBEB"/>
<path d="M42.717 44.2537V52.9966C42.717 54.4404 43.8824 55.6078 45.3237 55.6078H53.7138L42.717 44.2537Z" fill="#F5F5F5"/>
<path d="M42.8294 53.7603C42.8294 53.7603 42.7204 55.8805 45.1275 56.5788C45.2182 56.6042 45.309 56.6261 45.4034 56.6406C46.4998 56.837 53.71 58.1208 53.71 57.9571C53.71 57.7789 53.71 55.6078 53.71 55.6078H45.3199C45.3235 55.6078 43.2287 55.535 42.8294 53.7603Z" fill="#E0E0E0"/>
<path d="M50.911 80.9274C50.911 80.9128 51.078 80.931 51.3939 80.8692C51.7061 80.811 52.1817 80.6692 52.6646 80.2764C53.1329 79.8873 53.6194 79.2072 53.6666 78.2943C53.6811 77.3888 53.6629 76.3377 53.6666 75.163C53.6593 70.4606 53.6484 63.7325 53.6339 55.6042L53.6557 55.6588C50.3265 52.2256 46.6125 48.3997 42.6516 44.3119L42.717 44.341C40.0812 44.341 37.3402 44.3447 34.5193 44.3447C33.107 44.3447 31.6766 44.3447 30.2317 44.3447C29.8686 44.3447 29.5056 44.3447 29.1425 44.3447C28.7795 44.3483 28.4092 44.3265 28.0679 44.3847C27.3708 44.4974 26.721 44.9011 26.3071 45.483C26.0203 45.8867 25.8424 46.3704 25.8097 46.865C25.7916 47.3632 25.8025 47.8833 25.7988 48.3888C25.7988 49.4071 25.7988 50.4145 25.7988 51.4183C25.7988 53.4221 25.7988 55.4006 25.7988 57.3426C25.7952 61.2268 25.7952 64.9727 25.7916 68.5404C25.7916 70.3261 25.7879 72.0645 25.7879 73.7556C25.7879 74.5993 25.7879 75.4322 25.7843 76.2541C25.7843 76.665 25.7843 77.0724 25.7843 77.4724C25.7916 77.8761 25.7589 78.2798 25.8351 78.6544C25.9803 79.4145 26.4668 80.0764 27.1058 80.4619C27.4253 80.6546 27.7774 80.7783 28.1405 80.8292C28.4999 80.8728 28.8775 80.851 29.2442 80.8583C30.7145 80.8619 32.1268 80.8619 33.4737 80.8656C38.8577 80.8765 43.2144 80.8874 46.2349 80.8947C47.738 80.9019 48.907 80.9092 49.7057 80.9128C50.0978 80.9165 50.3991 80.9201 50.6097 80.9238C50.8057 80.9238 50.911 80.9274 50.911 80.9274C50.911 80.9274 50.8057 80.9347 50.6024 80.9383C50.3955 80.9419 50.0942 80.9419 49.6984 80.9492C48.8997 80.9529 47.7307 80.9601 46.2277 80.9674C43.2107 80.9747 38.8505 80.9856 33.4664 80.9965C32.1195 81.0001 30.7073 81.0001 29.2369 81.0038C28.8702 80.9965 28.4999 81.022 28.1151 80.9747C27.7339 80.9238 27.3599 80.7928 27.0223 80.5928C26.3507 80.1928 25.8351 79.4909 25.679 78.6871C25.5955 78.2834 25.6282 77.8761 25.6209 77.4761C25.6209 77.0724 25.6209 76.665 25.6209 76.2577C25.6209 75.4394 25.6209 74.6066 25.6173 73.7592C25.6173 72.0681 25.6137 70.3297 25.6137 68.544C25.6137 64.9763 25.61 61.2304 25.6064 57.3463C25.6064 55.4042 25.6064 53.4294 25.6064 51.4219C25.6064 50.4181 25.6064 49.4107 25.6064 48.3924C25.61 47.8796 25.5955 47.3814 25.6173 46.8541C25.65 46.3267 25.8388 45.8067 26.1473 45.3775C26.5903 44.7556 27.2837 44.3228 28.028 44.2028C28.4055 44.141 28.7722 44.1665 29.1353 44.1592C29.4983 44.1592 29.8614 44.1592 30.2244 44.1592C31.673 44.1592 33.1034 44.1592 34.512 44.1592C37.3329 44.1592 40.0776 44.1628 42.7097 44.1628H42.7497L42.7751 44.1919C46.7323 48.2833 50.4391 52.1165 53.7646 55.5533L53.7864 55.5751V55.6079C53.7719 63.7362 53.761 70.4643 53.7537 75.1667C53.7465 76.3414 53.7573 77.3851 53.7356 78.3016C53.6811 79.2363 53.1765 79.9236 52.6936 80.3164C52.1962 80.7128 51.7134 80.8474 51.3975 80.8983C51.2378 80.9238 51.1143 80.931 51.0345 80.931C50.951 80.931 50.911 80.9274 50.911 80.9274Z" fill="#263238"/>
<path d="M53.7139 55.6078C53.7139 55.6151 53.6413 55.6223 53.4997 55.626C53.3363 55.6296 53.133 55.6369 52.8825 55.6441C52.3198 55.6514 51.5501 55.6623 50.6098 55.6732C49.6441 55.6805 48.5005 55.6841 47.2371 55.6914C46.6017 55.6914 45.9337 55.6914 45.2439 55.6914C44.5287 55.6769 43.7953 55.3496 43.298 54.7749C43.0474 54.4913 42.8587 54.1567 42.7497 53.8039C42.6336 53.4548 42.619 53.0729 42.6263 52.7311C42.6299 52.0401 42.6299 51.3745 42.6336 50.7381C42.6408 49.4725 42.6481 48.3305 42.6554 47.3595C42.6662 46.4175 42.6771 45.6465 42.6844 45.0828C42.6917 44.8319 42.6989 44.6246 42.7025 44.4646C42.7098 44.3227 42.7134 44.25 42.7207 44.25C42.728 44.25 42.7352 44.3227 42.7389 44.4646C42.7425 44.6282 42.7497 44.8319 42.757 45.0828C42.7643 45.6465 42.7752 46.4175 42.786 47.3595C42.7933 48.3269 42.7969 49.4725 42.8078 50.7381C42.8078 51.3745 42.8115 52.0401 42.8151 52.7311C42.8078 53.0802 42.8224 53.4148 42.9313 53.7457C43.0366 54.073 43.2108 54.3858 43.4432 54.6513C43.9079 55.1859 44.5868 55.4914 45.2548 55.5059C45.9446 55.5096 46.609 55.5132 47.2443 55.5169C48.5077 55.5241 49.6477 55.5314 50.6171 55.5387C51.5574 55.5496 52.327 55.5605 52.8897 55.5678C53.1403 55.575 53.3472 55.5823 53.5069 55.586C53.6413 55.5932 53.7139 55.6005 53.7139 55.6078Z" fill="#263238"/>
<path d="M42.2921 52.0548C42.2921 52.1057 39.6455 52.1493 36.3817 52.1493C33.1178 52.1493 30.4712 52.1057 30.4712 52.0548C30.4712 52.0038 33.1178 51.9602 36.3817 51.9602C39.6455 51.9602 42.2921 52.0002 42.2921 52.0548Z" fill="#263238"/>
<path d="M47.9013 56.4154C47.9013 56.4663 43.9985 56.5099 39.1881 56.5099C34.374 56.5099 30.4749 56.4663 30.4749 56.4154C30.4749 56.3644 34.374 56.3208 39.1881 56.3208C43.9985 56.3208 47.9013 56.3608 47.9013 56.4154Z" fill="#263238"/>
<path d="M47.9013 60.7757C47.9013 60.8266 43.9985 60.8703 39.1881 60.8703C34.374 60.8703 30.4749 60.8266 30.4749 60.7757C30.4749 60.7248 34.374 60.6812 39.1881 60.6812C43.9985 60.6812 47.9013 60.7212 47.9013 60.7757Z" fill="#263238"/>
<path d="M47.9013 65.1363C47.9013 65.1872 43.9985 65.2309 39.1881 65.2309C34.374 65.2309 30.4749 65.1872 30.4749 65.1363C30.4749 65.0854 34.374 65.0417 39.1881 65.0417C43.9985 65.0417 47.9013 65.0818 47.9013 65.1363Z" fill="#263238"/>
<path d="M47.9013 69.4969C47.9013 69.5478 43.9985 69.5915 39.1881 69.5915C34.374 69.5915 30.4749 69.5478 30.4749 69.4969C30.4749 69.446 34.374 69.4023 39.1881 69.4023C43.9985 69.4023 47.9013 69.446 47.9013 69.4969Z" fill="#263238"/>
<path d="M47.9013 73.8575C47.9013 73.9084 43.9985 73.9521 39.1881 73.9521C34.374 73.9521 30.4749 73.9084 30.4749 73.8575C30.4749 73.8066 34.374 73.7629 39.1881 73.7629C43.9985 73.7629 47.9013 73.8066 47.9013 73.8575Z" fill="#263238"/>
<path d="M38.1788 74.8757H22.2154C21.3695 74.8757 20.6833 74.1884 20.6833 73.341V67.8458C20.6833 66.9984 21.3695 66.311 22.2154 66.311H38.1788C39.0247 66.311 39.7108 66.9984 39.7108 67.8458V73.341C39.7108 74.1884 39.0247 74.8757 38.1788 74.8757Z" fill="#FF5252"/>
<path d="M28.1331 70.2716C28.1331 70.9917 27.5921 71.4427 26.7317 71.4427H26.0782V72.3337H25.3303V69.0969H26.7281C27.5921 69.1006 28.1331 69.5479 28.1331 70.2716ZM27.3743 70.2716C27.3743 69.9152 27.1419 69.7079 26.6881 69.7079H26.0782V70.8317H26.6881C27.1456 70.8317 27.3743 70.6244 27.3743 70.2716Z" fill="white"/>
<path d="M28.6631 69.1006H30.1298C31.1863 69.1006 31.9124 69.737 31.9124 70.719C31.9124 71.6973 31.1863 72.3374 30.1298 72.3374H28.6631V69.1006ZM30.0935 71.7191C30.7361 71.7191 31.1536 71.3372 31.1536 70.7153C31.1536 70.0971 30.7325 69.7116 30.0935 69.7116H29.411V71.7191H30.0935Z" fill="white"/>
<path d="M33.223 69.7006V70.5553H34.7188V71.1554H33.223V72.3337H32.4751V69.0969H34.9148V69.697H33.223V69.7006Z" fill="white"/>
<path d="M36.6428 132.108H14.4822C12.9501 132.108 11.7085 130.865 11.7085 129.33V98.6025C11.7085 97.0678 12.9501 95.824 14.4822 95.824H28.5359L39.4165 107.058V129.33C39.4165 130.865 38.1749 132.108 36.6428 132.108Z" fill="#EBEBEB"/>
<path d="M28.5359 95.824V104.472C28.5359 105.898 29.6904 107.054 31.1135 107.054H39.4165L28.5359 95.824Z" fill="#F5F5F5"/>
<path d="M28.6485 105.232C28.6485 105.232 28.5396 107.331 30.9212 108.018C31.0119 108.044 31.1027 108.062 31.1935 108.08C32.279 108.273 39.4129 109.546 39.4129 109.382C39.4129 109.204 39.4129 107.058 39.4129 107.058H31.1136C31.1136 107.058 29.0406 106.989 28.6485 105.232Z" fill="#E0E0E0"/>
<path d="M36.6429 132.108C36.6429 132.094 36.8099 132.112 37.1221 132.05C37.4307 131.992 37.899 131.854 38.3783 131.465C38.843 131.079 39.3258 130.406 39.3694 129.504C39.3839 128.61 39.3658 127.57 39.3694 126.409C39.3621 121.758 39.3512 115.099 39.3367 107.058L39.3585 107.113C36.0656 103.716 32.3916 99.9298 28.4706 95.8857L28.536 95.9148C25.9293 95.9148 23.2173 95.9184 20.4254 95.9184C19.0313 95.9184 17.6154 95.9184 16.1814 95.9184C15.8219 95.9184 15.4662 95.9184 15.1031 95.9184C14.7437 95.922 14.3806 95.9002 14.0394 95.9584C13.3496 96.0675 12.707 96.4676 12.3004 97.0458C12.0172 97.4459 11.8393 97.9223 11.8102 98.4133C11.7921 98.9042 11.803 99.4207 11.7993 99.9189C11.7993 100.926 11.7993 101.923 11.7993 102.916C11.7993 104.901 11.7993 106.854 11.7993 108.775C11.7957 112.615 11.7957 116.321 11.7921 119.852C11.7921 121.616 11.7884 123.34 11.7884 125.009C11.7884 125.846 11.7884 126.668 11.7848 127.482C11.7848 127.89 11.7848 128.29 11.7848 128.69C11.7921 129.09 11.7594 129.486 11.8356 129.857C11.9809 130.61 12.4601 131.265 13.0918 131.643C13.4077 131.832 13.7562 131.956 14.1156 132.003C14.4714 132.047 14.8453 132.025 15.2048 132.032C16.6606 132.036 18.0547 132.036 19.3871 132.039C24.713 132.05 29.0261 132.061 32.0104 132.068C33.4989 132.076 34.6534 132.083 35.4412 132.087C35.8297 132.09 36.1274 132.094 36.3343 132.097C36.5376 132.105 36.6429 132.108 36.6429 132.108C36.6429 132.108 36.5412 132.116 36.3379 132.119C36.131 132.123 35.8333 132.123 35.4448 132.13C34.6534 132.134 33.4989 132.141 32.014 132.148C29.0297 132.156 24.7167 132.167 19.3907 132.177C18.0583 132.181 16.6606 132.181 15.2084 132.185C14.8453 132.177 14.4787 132.203 14.0975 132.156C13.7199 132.105 13.3496 131.977 13.0156 131.777C12.3475 131.381 11.8393 130.686 11.6832 129.894C11.5997 129.493 11.636 129.09 11.6251 128.693C11.6251 128.293 11.6251 127.893 11.6251 127.486C11.6251 126.675 11.6251 125.849 11.6214 125.013C11.6214 123.34 11.6178 121.62 11.6178 119.856C11.6178 116.325 11.6142 112.619 11.6106 108.778C11.6106 106.858 11.6106 104.901 11.6106 102.919C11.6106 101.926 11.6106 100.926 11.6106 99.9225C11.6142 99.417 11.5997 98.9224 11.6214 98.4024C11.6541 97.8787 11.8429 97.3659 12.1479 96.9404C12.5835 96.3221 13.2697 95.8966 14.0103 95.7766C14.3843 95.7147 14.7473 95.7402 15.1067 95.7366C15.4662 95.7366 15.8256 95.7366 16.185 95.7366C17.6154 95.7366 19.0313 95.7366 20.4291 95.7366C23.2209 95.7366 25.9329 95.7402 28.5396 95.7402H28.5795L28.6049 95.7693C32.5186 99.8171 36.1891 103.61 39.4747 107.011L39.4965 107.033V107.065C39.4819 115.106 39.4711 121.765 39.4638 126.417C39.4565 127.581 39.4674 128.613 39.4456 129.519C39.3912 130.443 38.8902 131.126 38.4146 131.512C37.9208 131.901 37.4452 132.036 37.1294 132.087C36.9696 132.112 36.8498 132.119 36.77 132.119C36.6828 132.112 36.6429 132.108 36.6429 132.108Z" fill="#263238"/>
<path d="M39.4165 107.058C39.4165 107.065 39.3439 107.073 39.2023 107.076C39.0426 107.08 38.8393 107.087 38.5924 107.094C38.0369 107.102 37.2745 107.113 36.3451 107.124C35.3866 107.131 34.2576 107.134 33.0087 107.142C32.3806 107.142 31.7198 107.142 31.0373 107.142C30.3294 107.127 29.6069 106.803 29.1095 106.236C28.8626 105.956 28.6738 105.622 28.5649 105.272C28.4488 104.927 28.4342 104.549 28.4415 104.21C28.4451 103.527 28.4451 102.868 28.4488 102.236C28.456 100.985 28.4633 99.8535 28.4705 98.8934C28.4814 97.9624 28.4923 97.1986 28.4996 96.6422C28.5068 96.3949 28.5141 96.1912 28.5177 96.0312C28.525 95.893 28.5286 95.8167 28.5359 95.8167C28.5431 95.8167 28.5504 95.8894 28.554 96.0312C28.5577 96.1912 28.5649 96.3949 28.5722 96.6422C28.5795 97.1986 28.5903 97.9624 28.6012 98.8934C28.6085 99.8535 28.6121 100.985 28.623 102.236C28.623 102.865 28.6266 103.527 28.6303 104.21C28.623 104.556 28.6375 104.887 28.7465 105.214C28.8481 105.538 29.0224 105.847 29.2511 106.109C29.7122 106.636 30.3838 106.938 31.0409 106.956C31.7235 106.96 32.3806 106.963 33.0087 106.967C34.2576 106.974 35.3866 106.982 36.3451 106.989C37.2745 107 38.0369 107.011 38.5924 107.018C38.8393 107.025 39.0426 107.033 39.2023 107.036C39.3403 107.047 39.4165 107.051 39.4165 107.058Z" fill="#263238"/>
<path d="M28.115 103.541C28.115 103.592 25.4974 103.636 22.2699 103.636C19.0388 103.636 16.4248 103.592 16.4248 103.541C16.4248 103.49 19.0424 103.447 22.2699 103.447C25.4974 103.447 28.115 103.49 28.115 103.541Z" fill="#263238"/>
<path d="M33.6659 107.858C33.6659 107.909 29.8066 107.953 25.047 107.953C20.2838 107.953 16.4282 107.909 16.4282 107.858C16.4282 107.807 20.2874 107.763 25.047 107.763C29.803 107.763 33.6659 107.803 33.6659 107.858Z" fill="#263238"/>
<path d="M33.6661 112.171C33.6661 112.222 29.8068 112.266 25.0473 112.266C20.284 112.266 16.4248 112.222 16.4248 112.171C16.4248 112.121 20.284 112.077 25.0473 112.077C29.8032 112.077 33.6661 112.117 33.6661 112.171Z" fill="#263238"/>
<path d="M33.6661 116.485C33.6661 116.536 29.8068 116.579 25.0473 116.579C20.284 116.579 16.4248 116.536 16.4248 116.485C16.4248 116.434 20.284 116.39 25.0473 116.39C29.8032 116.39 33.6661 116.434 33.6661 116.485Z" fill="#263238"/>
<path d="M33.6661 120.798C33.6661 120.849 29.8068 120.892 25.0473 120.892C20.284 120.892 16.4248 120.849 16.4248 120.798C16.4248 120.747 20.284 120.703 25.0473 120.703C29.8032 120.703 33.6661 120.747 33.6661 120.798Z" fill="#263238"/>
<path d="M33.6661 125.115C33.6661 125.166 29.8068 125.209 25.0473 125.209C20.284 125.209 16.4248 125.166 16.4248 125.115C16.4248 125.064 20.284 125.02 25.0473 125.02C29.8032 125.02 33.6661 125.06 33.6661 125.115Z" fill="#263238"/>
<path d="M24.027 126.119H8.2706C7.42469 126.119 6.73853 125.431 6.73853 124.584V119.183C6.73853 118.336 7.42469 117.648 8.2706 117.648H24.0306C24.8765 117.648 25.5627 118.336 25.5627 119.183V124.584C25.5627 125.431 24.8765 126.119 24.027 126.119Z" fill="#FF5252"/>
<path d="M14.1048 121.569C14.1048 122.282 13.5711 122.725 12.7179 122.725H12.0753V123.609H11.3347V120.409H12.7179C13.5711 120.409 14.1048 120.852 14.1048 121.569ZM13.3569 121.569C13.3569 121.216 13.1282 121.012 12.678 121.012H12.0753V122.125H12.678C13.1282 122.122 13.3569 121.918 13.3569 121.569Z" fill="white"/>
<path d="M17.4012 121.569C17.4012 122.282 16.8675 122.725 16.0143 122.725H15.3717V123.609H14.6311V120.409H16.0143C16.8675 120.409 17.4012 120.852 17.4012 121.569ZM16.6533 121.569C16.6533 121.216 16.4246 121.012 15.9744 121.012H15.3717V122.125H15.9744C16.4246 122.122 16.6533 121.918 16.6533 121.569Z" fill="white"/>
<path d="M18.5013 121.012H17.4775V120.409H20.2621V121.012H19.2383V123.609H18.4977V121.012H18.5013Z" fill="white"/>
<path d="M80.2201 44.3301H58.1974C56.6763 44.3301 55.4419 43.0936 55.4419 41.5697V11.0387C55.4419 9.51484 56.6763 8.27832 58.1974 8.27832H72.164L82.9756 19.4397V41.5697C82.9756 43.0936 81.7413 44.3301 80.2201 44.3301Z" fill="#EBEBEB"/>
<path d="M72.1641 8.27466V16.8685C72.1641 18.2868 73.3113 19.436 74.7272 19.436H82.9757L72.1641 8.27466Z" fill="#F5F5F5"/>
<path d="M72.2767 17.6213C72.2767 17.6213 72.1677 19.7052 74.5385 20.389C74.6256 20.4144 74.72 20.4326 74.8107 20.4508C75.889 20.6435 82.9757 21.9055 82.9757 21.7455C82.9757 21.5673 82.9757 19.4361 82.9757 19.4361H74.7272C74.7272 19.4361 72.6687 19.367 72.2767 17.6213Z" fill="#E0E0E0"/>
<path d="M80.22 44.3302C80.22 44.3156 80.387 44.3338 80.6956 44.2756C81.0042 44.2174 81.4689 44.0792 81.9445 43.6937C82.4056 43.3119 82.8848 42.6427 82.932 41.748C82.9465 40.857 82.9284 39.8241 82.932 38.6713C82.9248 34.0489 82.9139 27.4335 82.8993 19.4434L82.9211 19.498C79.6464 16.123 75.9977 12.3589 72.1022 8.34386L72.1676 8.37295C69.579 8.37295 66.8815 8.37659 64.1078 8.37659C62.721 8.37659 61.316 8.37659 59.8928 8.37659C59.537 8.37659 59.1812 8.37659 58.8218 8.37659C58.4624 8.38022 58.103 8.3584 57.7653 8.41659C57.0792 8.5257 56.4438 8.92211 56.0372 9.49673C55.754 9.89314 55.5798 10.3696 55.5507 10.8533C55.5326 11.3406 55.5471 11.8534 55.5399 12.3516C55.5399 13.3518 55.5399 14.3446 55.5399 15.3302C55.5399 17.3013 55.5399 19.2434 55.5399 21.1527C55.5362 24.9714 55.5362 28.6518 55.5326 32.1614C55.5326 33.9143 55.529 35.6273 55.529 37.2856C55.529 38.1148 55.529 38.9368 55.5253 39.7405C55.5253 40.1442 55.5253 40.5442 55.5253 40.9406C55.5326 41.3371 55.4999 41.7335 55.5762 42.1008C55.7177 42.8463 56.197 43.501 56.8214 43.8756C57.1336 44.0647 57.4822 44.1883 57.838 44.2356C58.1901 44.2792 58.5604 44.2574 58.9199 44.2647C60.3648 44.2683 61.7516 44.2683 63.0768 44.272C68.3701 44.2829 72.6541 44.2938 75.6202 44.3011C77.0978 44.3083 78.245 44.3156 79.0292 44.3192C79.4141 44.3229 79.7118 44.3265 79.9151 44.3302C80.1184 44.3229 80.22 44.3302 80.22 44.3302C80.22 44.3302 80.1184 44.3374 79.9187 44.3411C79.7118 44.3447 79.4177 44.3447 79.0328 44.352C78.2487 44.3556 77.1014 44.3629 75.6238 44.3702C72.6577 44.3774 68.3737 44.3883 63.0804 44.3993C61.7553 44.4029 60.3684 44.4029 58.9235 44.4065C58.5604 44.3993 58.201 44.4247 57.8198 44.3774C57.4459 44.3265 57.0756 44.1992 56.7452 43.9992C56.0844 43.6028 55.5762 42.9154 55.4237 42.1262C55.3402 41.7262 55.3765 41.3261 55.3692 40.9334C55.3692 40.537 55.3692 40.1369 55.3692 39.7332C55.3692 38.9258 55.3692 38.1076 55.3656 37.2784C55.3656 35.6163 55.362 33.907 55.362 32.1541C55.362 28.6446 55.3583 24.9641 55.3547 21.1454C55.3547 19.2361 55.3547 17.2941 55.3547 15.3229C55.3547 14.3373 55.3547 13.3445 55.3547 12.3444C55.3583 11.8425 55.3438 11.3479 55.3656 10.8351C55.3983 10.315 55.5834 9.80586 55.8884 9.38035C56.324 8.76573 57.0066 8.34022 57.7399 8.22384C58.1102 8.16201 58.4733 8.18747 58.8291 8.18384C59.1849 8.18384 59.5443 8.18384 59.9001 8.18384C61.3232 8.18384 62.7283 8.18384 64.1151 8.18384C66.8888 8.18384 69.5863 8.18747 72.1748 8.18747H72.2148L72.2402 8.21657C76.1284 12.2389 79.7735 16.0066 83.0409 19.3852L83.0627 19.4071V19.4398C83.0482 27.4299 83.0373 34.0452 83.03 38.6676C83.0228 39.8241 83.0337 40.8497 83.0119 41.748C82.9574 42.6645 82.46 43.3446 81.9844 43.7264C81.4943 44.1156 81.0187 44.2465 80.7101 44.2974C80.554 44.3229 80.4342 44.3302 80.3507 44.3302C80.26 44.3302 80.22 44.3302 80.22 44.3302Z" fill="#263238"/>
<path d="M82.9757 19.4363C82.9757 19.4435 82.9031 19.4508 82.7651 19.4545C82.6054 19.4581 82.4057 19.4654 82.1588 19.4726C81.607 19.4799 80.8482 19.4908 79.9261 19.5017C78.9749 19.509 77.8531 19.5126 76.6114 19.5199C75.987 19.5199 75.3299 19.5199 74.6509 19.5199C73.9466 19.5054 73.2278 19.1853 72.734 18.618C72.4872 18.3379 72.302 18.0106 72.1931 17.6615C72.0769 17.3196 72.0624 16.9414 72.0733 16.6068C72.0769 15.9267 72.0769 15.2721 72.0806 14.6466C72.0878 13.4028 72.0951 12.279 72.1023 11.3262C72.1132 10.3988 72.1241 9.64232 72.1314 9.08952C72.1386 8.84222 72.1459 8.6422 72.1495 8.48218C72.1568 8.34398 72.1604 8.27124 72.1677 8.27124C72.1749 8.27124 72.1822 8.34398 72.1858 8.48218C72.1895 8.6422 72.1967 8.84222 72.204 9.08952C72.2112 9.64232 72.2221 10.4024 72.233 11.3262C72.2403 12.279 72.2439 13.4028 72.2548 14.6466C72.2548 15.2721 72.2584 15.9267 72.2621 16.6068C72.2548 16.9523 72.2693 17.276 72.3783 17.6033C72.4799 17.927 72.6505 18.2325 72.8829 18.4907C73.3403 19.0144 74.0084 19.3163 74.6618 19.3308C75.3371 19.3344 75.9906 19.3381 76.6151 19.3417C77.8567 19.349 78.9785 19.3563 79.9297 19.3635C80.8555 19.3744 81.6106 19.3854 82.1625 19.3926C82.4093 19.3999 82.609 19.4072 82.7688 19.4108C82.9031 19.4254 82.9757 19.4326 82.9757 19.4363Z" fill="#263238"/>
<path d="M71.7465 15.9449C71.7465 15.9958 69.1471 16.0395 65.9377 16.0395C62.7283 16.0395 60.1289 15.9958 60.1289 15.9449C60.1289 15.894 62.7283 15.8503 65.9377 15.8503C69.1471 15.8503 71.7465 15.8903 71.7465 15.9449Z" fill="#263238"/>
<path d="M77.2613 20.2291C77.2613 20.28 73.4275 20.3236 68.6969 20.3236C63.9664 20.3236 60.1326 20.28 60.1326 20.2291C60.1326 20.1782 63.9664 20.1345 68.6969 20.1345C73.4238 20.1345 77.2613 20.1782 77.2613 20.2291Z" fill="#263238"/>
<path d="M77.2613 24.5167C77.2613 24.5676 73.4275 24.6112 68.6969 24.6112C63.9664 24.6112 60.1326 24.5676 60.1326 24.5167C60.1326 24.4658 63.9664 24.4221 68.6969 24.4221C73.4238 24.4221 77.2613 24.4658 77.2613 24.5167Z" fill="#263238"/>
<path d="M77.2613 28.8045C77.2613 28.8554 73.4275 28.8991 68.6969 28.8991C63.9664 28.8991 60.1326 28.8554 60.1326 28.8045C60.1326 28.7536 63.9664 28.71 68.6969 28.71C73.4238 28.71 77.2613 28.75 77.2613 28.8045Z" fill="#263238"/>
<path d="M77.2613 33.0887C77.2613 33.1396 73.4275 33.1833 68.6969 33.1833C63.9664 33.1833 60.1326 33.1396 60.1326 33.0887C60.1326 33.0378 63.9664 32.9941 68.6969 32.9941C73.4238 32.9941 77.2613 33.0378 77.2613 33.0887Z" fill="#263238"/>
<path d="M77.2613 37.3765C77.2613 37.4275 73.4275 37.4711 68.6969 37.4711C63.9664 37.4711 60.1326 37.4275 60.1326 37.3765C60.1326 37.3256 63.9664 37.282 68.6969 37.282C73.4238 37.282 77.2613 37.3256 77.2613 37.3765Z" fill="#263238"/>
<path d="M67.6767 38.3767H52.0365C51.1906 38.3767 50.5044 37.6894 50.5044 36.842V31.4923C50.5044 30.6449 51.1906 29.9575 52.0365 29.9575H67.6767C68.5226 29.9575 69.2088 30.6449 69.2088 31.4923V36.842C69.2088 37.6894 68.5226 38.3767 67.6767 38.3767Z" fill="#FF5252"/>
<path d="M57.0793 35.878L56.3133 34.7724L55.5618 35.878H54.7195L55.8958 34.2596L54.7812 32.6958H55.6162L56.346 33.7287L57.0612 32.6958H57.8562L56.7489 34.2305L57.9325 35.8744H57.0793V35.878Z" fill="white"/>
<path d="M58.2156 32.696H58.9489V35.2782H60.5427V35.8783H58.2156V32.696Z" fill="white"/>
<path d="M60.688 35.5654L60.9385 35.0126C61.2072 35.209 61.6065 35.3435 61.9877 35.3435C62.4234 35.3435 62.6013 35.1981 62.6013 35.0017C62.6013 34.4052 60.7533 34.8162 60.7533 33.6342C60.7533 33.0923 61.189 32.645 62.093 32.645C62.4924 32.645 62.899 32.7396 63.1967 32.9251L62.9643 33.4815C62.6702 33.3142 62.3653 33.2305 62.0857 33.2305C61.6501 33.2305 61.4831 33.3942 61.4831 33.5942C61.4831 34.1798 63.331 33.7761 63.331 34.9435C63.331 35.4745 62.8917 35.9291 61.9841 35.9291C61.4758 35.9327 60.9675 35.7836 60.688 35.5654Z" fill="white"/>
<path d="M216.429 136.422H194.058C192.512 136.422 191.259 135.167 191.259 133.618V102.599C191.259 101.05 192.512 99.7952 194.058 99.7952H208.246L219.228 111.135V133.618C219.228 135.163 217.976 136.422 216.429 136.422Z" fill="#EBEBEB"/>
<path d="M208.246 99.7915V108.52C208.246 109.96 209.412 111.127 210.849 111.127H219.228L208.246 99.7915Z" fill="#F5F5F5"/>
<path d="M208.359 109.287C208.359 109.287 208.25 111.404 210.653 112.102C210.744 112.127 210.835 112.149 210.929 112.164C212.022 112.36 219.225 113.644 219.225 113.477C219.225 113.299 219.225 111.131 219.225 111.131H210.846C210.849 111.131 208.754 111.062 208.359 109.287Z" fill="#E0E0E0"/>
<path d="M216.429 136.422C216.429 136.407 216.596 136.425 216.912 136.363C217.225 136.305 217.696 136.163 218.183 135.771C218.651 135.381 219.138 134.701 219.185 133.792C219.2 132.887 219.181 131.839 219.185 130.668C219.178 125.973 219.167 119.252 219.152 111.135L219.174 111.189C215.849 107.76 212.142 103.938 208.185 99.857L208.25 99.8861C205.618 99.8861 202.88 99.8898 200.063 99.8898C198.654 99.8898 197.224 99.8898 195.779 99.8898C195.42 99.8898 195.057 99.8898 194.694 99.8898C194.331 99.8934 193.964 99.8716 193.619 99.9298C192.922 100.043 192.276 100.446 191.862 101.028C191.575 101.432 191.397 101.915 191.368 102.406C191.35 102.905 191.361 103.425 191.357 103.927C191.357 104.941 191.357 105.952 191.357 106.952C191.357 108.956 191.357 110.928 191.357 112.87C191.354 116.746 191.354 120.489 191.35 124.053C191.35 125.835 191.346 127.573 191.346 129.261C191.346 130.104 191.346 130.937 191.343 131.756C191.343 132.167 191.343 132.57 191.343 132.974C191.35 133.378 191.317 133.778 191.393 134.152C191.539 134.912 192.025 135.574 192.661 135.956C192.976 136.149 193.332 136.272 193.692 136.32C194.051 136.363 194.429 136.342 194.792 136.349C196.258 136.353 197.671 136.353 199.014 136.356C204.391 136.367 208.744 136.378 211.757 136.385C213.256 136.393 214.425 136.4 215.22 136.403C215.613 136.407 215.914 136.411 216.121 136.414C216.324 136.414 216.429 136.422 216.429 136.422C216.429 136.422 216.324 136.429 216.121 136.433C215.914 136.436 215.613 136.436 215.22 136.443C214.422 136.447 213.256 136.454 211.757 136.462C208.744 136.469 204.391 136.48 199.014 136.491C197.667 136.494 196.258 136.494 194.792 136.498C194.425 136.491 194.058 136.516 193.67 136.469C193.289 136.418 192.915 136.287 192.581 136.087C191.909 135.687 191.393 134.989 191.237 134.185C191.154 133.781 191.187 133.374 191.179 132.974C191.179 132.57 191.179 132.167 191.179 131.756C191.179 130.937 191.179 130.104 191.176 129.261C191.176 127.573 191.172 125.835 191.172 124.053C191.172 120.489 191.168 116.746 191.165 112.87C191.165 110.931 191.165 108.956 191.165 106.952C191.165 105.952 191.165 104.941 191.165 103.927C191.168 103.417 191.154 102.916 191.176 102.392C191.208 101.865 191.397 101.348 191.706 100.915C192.149 100.293 192.838 99.8607 193.586 99.7407C193.964 99.6788 194.331 99.7043 194.69 99.697C195.053 99.697 195.416 99.697 195.775 99.697C197.22 99.697 198.651 99.697 200.059 99.697C202.877 99.697 205.618 99.7007 208.246 99.7007H208.286L208.312 99.7298C212.262 103.818 215.965 107.643 219.287 111.077L219.308 111.098V111.131C219.294 119.249 219.283 125.969 219.276 130.665C219.268 131.839 219.279 132.883 219.258 133.796C219.203 134.727 218.699 135.418 218.216 135.807C217.718 136.203 217.235 136.334 216.92 136.385C216.76 136.411 216.636 136.418 216.557 136.418C216.469 136.422 216.429 136.422 216.429 136.422Z" fill="#263238"/>
<path d="M219.229 111.131C219.229 111.138 219.156 111.146 219.014 111.149C218.851 111.153 218.648 111.16 218.397 111.167C217.835 111.175 217.069 111.186 216.128 111.197C215.162 111.204 214.023 111.207 212.763 111.215C212.127 111.215 211.463 111.215 210.773 111.215C210.058 111.2 209.328 110.873 208.827 110.302C208.577 110.018 208.388 109.684 208.279 109.331C208.163 108.982 208.148 108.6 208.156 108.262C208.159 107.571 208.159 106.905 208.163 106.269C208.17 105.007 208.177 103.865 208.185 102.897C208.196 101.955 208.206 101.184 208.214 100.624C208.221 100.373 208.228 100.17 208.232 100.006C208.239 99.8642 208.243 99.7915 208.25 99.7915C208.257 99.7915 208.265 99.8642 208.268 100.006C208.272 100.17 208.279 100.373 208.286 100.624C208.294 101.188 208.304 101.955 208.315 102.897C208.323 103.865 208.326 105.007 208.337 106.269C208.337 106.905 208.341 107.571 208.344 108.262C208.337 108.611 208.352 108.942 208.461 109.276C208.566 109.604 208.74 109.913 208.972 110.178C209.437 110.713 210.116 111.018 210.78 111.033C211.467 111.037 212.131 111.04 212.766 111.044C214.026 111.051 215.166 111.058 216.132 111.066C217.072 111.077 217.842 111.087 218.401 111.095C218.651 111.102 218.855 111.109 219.018 111.113C219.152 111.12 219.229 111.127 219.229 111.131Z" fill="#263238"/>
<path d="M207.822 107.582C207.822 107.633 205.179 107.676 201.918 107.676C198.658 107.676 196.015 107.633 196.015 107.582C196.015 107.531 198.658 107.487 201.918 107.487C205.179 107.487 207.822 107.531 207.822 107.582Z" fill="#263238"/>
<path d="M213.423 111.939C213.423 111.989 209.528 112.033 204.721 112.033C199.914 112.033 196.019 111.989 196.019 111.939C196.019 111.888 199.914 111.844 204.721 111.844C209.528 111.844 213.423 111.884 213.423 111.939Z" fill="#263238"/>
<path d="M213.423 116.292C213.423 116.343 209.528 116.386 204.721 116.386C199.914 116.386 196.019 116.343 196.019 116.292C196.019 116.241 199.914 116.197 204.721 116.197C209.528 116.197 213.423 116.241 213.423 116.292Z" fill="#263238"/>
<path d="M213.423 120.649C213.423 120.7 209.528 120.743 204.721 120.743C199.914 120.743 196.019 120.7 196.019 120.649C196.019 120.598 199.914 120.554 204.721 120.554C209.528 120.554 213.423 120.594 213.423 120.649Z" fill="#263238"/>
<path d="M213.423 125.002C213.423 125.053 209.528 125.097 204.721 125.097C199.914 125.097 196.019 125.053 196.019 125.002C196.019 124.951 199.914 124.907 204.721 124.907C209.528 124.907 213.423 124.951 213.423 125.002Z" fill="#263238"/>
<path d="M213.423 130.374C213.423 130.425 209.528 130.468 204.721 130.468C199.914 130.468 196.019 130.425 196.019 130.374C196.019 130.323 199.914 130.279 204.721 130.279C209.528 130.279 213.423 130.323 213.423 130.374Z" fill="#263238"/>
<path d="M203.712 130.374H187.774C186.928 130.374 186.242 129.686 186.242 128.839V123.358C186.242 122.511 186.928 121.823 187.774 121.823H203.712C204.558 121.823 205.244 122.511 205.244 123.358V128.839C205.244 129.686 204.558 130.374 203.712 130.374Z" fill="#FF5252"/>
<path d="M188.442 124.609H189.909C190.965 124.609 191.688 125.246 191.688 126.224C191.688 127.202 190.965 127.839 189.909 127.839H188.442V124.609ZM189.872 127.228C190.511 127.228 190.932 126.846 190.932 126.228C190.932 125.609 190.511 125.227 189.872 125.227H189.19V127.231H189.872V127.228Z" fill="white"/>
<path d="M192.047 126.228C192.047 125.268 192.795 124.555 193.811 124.555C194.824 124.555 195.576 125.26 195.576 126.228C195.576 127.195 194.824 127.901 193.811 127.901C192.791 127.897 192.047 127.188 192.047 126.228ZM194.821 126.228C194.821 125.613 194.389 125.195 193.811 125.195C193.234 125.195 192.802 125.617 192.802 126.228C192.802 126.839 193.234 127.26 193.811 127.26C194.389 127.26 194.821 126.839 194.821 126.228Z" fill="white"/>
<path d="M195.935 126.228C195.935 125.253 196.683 124.555 197.685 124.555C198.244 124.555 198.709 124.758 199.014 125.126L198.534 125.569C198.317 125.318 198.044 125.191 197.725 125.191C197.122 125.191 196.694 125.617 196.694 126.224C196.694 126.831 197.122 127.257 197.725 127.257C198.048 127.257 198.32 127.126 198.534 126.875L199.014 127.319C198.709 127.693 198.244 127.897 197.681 127.897C196.679 127.897 195.935 127.199 195.935 126.228Z" fill="white"/>
<path d="M201.483 127.842L200.702 126.722L199.936 127.842H199.079L200.274 126.198L199.141 124.609H199.991L200.731 125.657L201.461 124.609H202.267L201.141 126.169L202.343 127.842H201.483Z" fill="white"/>
</g>
<defs>
<clipPath id="clip0_11415_169148">
<rect width="244.569" height="146.971" fill="white" transform="translate(0.882568 0.902832)"/>
</clipPath>
</defs>
</svg>
