<svg width="35" height="34" viewBox="0 0 35 34" fill="none" xmlns="http://www.w3.org/2000/svg">
<g clip-path="url(#clip0_11415_168848)">
<path d="M34.1595 32.7401C34.1595 33.0479 34.1522 33.3558 34.1628 33.6629C34.1667 33.7776 34.1423 33.8171 34.027 33.7967C33.9736 33.7868 33.9176 33.7954 33.8622 33.7954C22.7888 33.7954 11.7153 33.7947 0.641903 33.8013C0.394728 33.8013 0.338702 33.746 0.339361 33.4988C0.346612 22.4471 0.346612 11.3961 0.339361 0.3444C0.34002 0.0965659 0.395388 0.0411987 0.642562 0.0411987C11.716 0.0484492 22.7894 0.0484492 33.8629 0.0411987C34.11 0.0411987 34.1661 0.0965659 34.1661 0.343741C34.1582 5.91341 34.1595 11.4831 34.1595 17.0528C34.0283 16.9598 33.911 16.8616 33.7258 16.8616C31.1578 16.8675 28.5905 16.8662 26.0225 16.8649C25.7245 16.8649 25.5776 16.9961 25.5822 17.3032C25.5894 17.7857 25.5888 18.2689 25.5815 18.7513C25.5789 18.9181 25.6309 19.0499 25.7489 19.162C25.6277 19.2971 25.5762 19.4494 25.5809 19.6359C25.5921 20.0828 25.5934 20.5297 25.5802 20.9766C25.5743 21.1783 25.627 21.3371 25.7799 21.465C25.629 21.5474 25.5815 21.6772 25.5828 21.844C25.5874 22.343 25.5868 22.8426 25.5835 23.3415C25.5822 23.5063 25.6217 23.6415 25.7878 23.7107C25.7891 23.7324 25.7898 23.7548 25.7911 23.7766C25.6151 23.857 25.5815 24.0053 25.5835 24.1813C25.5881 24.6282 25.596 25.0751 25.5802 25.5213C25.5723 25.7434 25.6237 25.9247 25.7812 26.0776C25.6079 26.1448 25.5842 26.2879 25.5848 26.4494C25.5868 26.9384 25.5894 27.4275 25.5835 27.9159C25.5815 28.0939 25.625 28.2369 25.7924 28.322C25.7957 28.3437 25.7938 28.3655 25.7845 28.3859C25.631 28.4472 25.5848 28.5704 25.5848 28.724C25.5861 29.2349 25.5881 29.7463 25.5835 30.2572C25.5822 30.4252 25.6356 30.5531 25.7911 30.6289C25.7898 30.6507 25.7878 30.6724 25.7865 30.6942C25.598 30.77 25.5828 30.9288 25.5835 31.1015C25.5868 31.5735 25.5815 32.0461 25.5855 32.518C25.5888 32.8726 25.6738 32.9596 26.0429 32.9603C28.5905 32.9629 31.1373 32.9603 33.6849 32.9636C33.8853 32.9649 34.0527 32.9247 34.1595 32.7401ZM6.45743 30.6428C6.45875 30.6566 6.45875 30.6704 6.45809 30.6843C6.24849 30.7489 6.21883 30.9163 6.21883 31.1015C6.21883 31.4963 6.21883 31.8912 6.21883 32.286C6.21883 32.9306 6.24981 32.9622 6.87862 32.9622C8.20545 32.9622 9.53229 32.9622 10.8591 32.9622C12.0212 32.9622 13.1839 32.9649 14.3459 32.9603C14.7104 32.959 14.7915 32.8739 14.7948 32.5107C14.7994 32.0395 14.7948 31.5675 14.7968 31.0962C14.7974 30.9242 14.7803 30.7647 14.5892 30.6922C14.5812 30.6724 14.5799 30.6526 14.5852 30.6322C14.7434 30.5584 14.7974 30.4285 14.7961 30.2605C14.7928 29.7477 14.7948 29.2342 14.7948 28.7214C14.7948 28.5685 14.75 28.4419 14.5911 28.3846C14.5845 28.3655 14.5826 28.3457 14.5852 28.3259C14.7553 28.2415 14.7994 28.0965 14.7974 27.9186C14.7928 27.4479 14.7988 26.978 14.7955 26.5074C14.7928 26.1251 14.694 26.0295 14.3044 26.0255C13.6044 26.0196 12.9051 26.0163 12.2051 26.0117C12.4272 25.781 12.6151 25.5305 12.71 25.2168C13.3019 23.2565 13.903 21.2982 14.4876 19.336C14.6992 18.6268 14.4132 17.9044 13.8008 17.5385C12.8504 16.971 11.8953 16.4114 10.9422 15.8485C10.9296 15.5321 11.1004 15.254 11.1313 14.9468C11.1946 14.962 11.2592 14.9739 11.3205 14.9936C12.5913 15.4003 13.8575 15.8215 15.1343 16.2104C15.7901 16.4101 16.4776 16.0364 16.6714 15.4287C16.8882 14.7458 16.5481 14.0629 15.8652 13.823C15.5245 13.7037 15.1797 13.5963 14.837 13.4829C13.8094 13.1448 12.7818 12.806 11.7542 12.4678C11.95 11.6927 12.1504 10.9189 12.3402 10.1424C12.6506 8.87094 12.1154 7.94618 10.8578 7.6153C9.77814 7.33121 8.69321 7.0636 7.60564 6.81115C6.97551 6.66483 6.41459 6.84345 5.93013 7.27189C5.71129 7.46567 5.58013 7.71944 5.42128 7.95541C5.04491 8.03846 4.66525 8.10767 4.308 8.26125C3.76553 8.34166 3.23823 8.49128 2.71883 8.66002C2.32269 8.78855 2.04586 9.0878 1.94039 9.49251C1.43089 11.4501 0.929285 13.4091 0.440209 15.372C0.321565 15.8472 0.483052 16.2664 0.856781 16.5802C1.25292 16.913 1.70706 16.9539 2.18296 16.7667C2.69642 16.5643 2.85461 16.1109 2.97589 15.6323C3.33776 14.2014 3.71544 12.7743 4.05292 11.3381C4.14519 10.9446 4.33305 10.7541 4.71996 10.733C4.4161 11.984 4.1129 13.2344 3.80904 14.4854C3.57504 15.4491 3.34237 16.4134 3.10904 17.3777C3.02862 17.5076 3.04247 17.6539 3.0484 17.7943C3.06356 18.1667 3.08795 18.5391 3.11036 18.9109C3.19341 20.2792 3.24811 21.6502 3.37005 23.0153C3.45772 23.9941 3.35819 24.8978 2.937 25.814C2.19614 27.4255 1.56469 29.0865 0.885782 30.7265C0.632016 31.3381 0.686724 31.9136 1.11648 32.4211C1.88371 33.3281 3.29887 33.1073 3.76487 31.9973C4.68107 29.8156 5.57485 27.6246 6.47852 25.4376C6.55894 25.2431 6.60508 25.0414 6.61892 24.8318C6.6611 24.8253 6.7112 24.82 6.7112 24.7659C6.7112 24.7119 6.6611 24.7066 6.61892 24.7C6.49237 22.5908 6.36581 20.4816 6.23926 18.3723C6.26233 18.3684 6.2854 18.3651 6.30847 18.3611C7.08097 18.4099 7.84688 18.3967 8.58314 18.112C9.31741 18.6077 10.0471 19.1119 10.7899 19.595C10.9975 19.7302 11.0569 19.8429 10.9771 20.0953C10.5592 21.4208 10.1835 22.7602 9.75771 24.0837C9.51845 24.8272 9.62061 25.4613 10.1796 26.0124C9.01948 26.017 7.85941 26.0196 6.69933 26.0269C6.34011 26.0288 6.22278 26.1442 6.21949 26.4948C6.21487 26.9549 6.22344 27.4143 6.21619 27.8744C6.21289 28.0781 6.26628 28.2402 6.45611 28.3378C6.4548 28.351 6.4548 28.3641 6.4548 28.3767C6.26299 28.4333 6.21949 28.5843 6.21883 28.757C6.21685 29.2559 6.21949 29.7556 6.21817 30.2545C6.21817 30.4345 6.29133 30.5663 6.45743 30.6428ZM16.1019 30.6981C15.9166 30.7772 15.8995 30.9354 15.9008 31.1081C15.9041 31.5583 15.9008 32.0091 15.9021 32.4593C15.9035 32.8792 15.9826 32.9609 16.4037 32.9616C17.3153 32.9642 18.2276 32.9622 19.1392 32.9622C20.7099 32.9622 22.2806 32.9622 23.852 32.9622C24.4491 32.9622 24.4775 32.9332 24.4775 32.3222C24.4775 31.905 24.4755 31.4871 24.4781 31.0699C24.4794 30.9051 24.4465 30.764 24.2751 30.6955C24.2738 30.6737 24.2725 30.6513 24.2705 30.6296C24.4261 30.5538 24.4794 30.4252 24.4781 30.2578C24.4742 29.747 24.4762 29.2362 24.4775 28.7253C24.4781 28.5718 24.4313 28.4485 24.2778 28.3872C24.2692 28.3668 24.2665 28.345 24.2698 28.3226C24.4208 28.2435 24.4794 28.1183 24.4781 27.9489C24.4742 27.4381 24.4761 26.9279 24.4768 26.4171C24.4768 26.2648 24.4366 26.1389 24.2797 26.0789C24.4379 25.9247 24.49 25.7421 24.4814 25.5187C24.4649 25.0803 24.4689 24.6414 24.4788 24.2024C24.4854 23.9025 24.3687 23.7542 24.0563 23.7548C21.4784 23.7581 18.9012 23.7581 16.3233 23.7548C16.0116 23.7542 15.8936 23.9058 15.8989 24.2037C15.9068 24.6315 15.9101 25.0592 15.8969 25.487C15.8896 25.7164 15.9232 25.9188 16.0973 26.0809C15.9239 26.1501 15.8995 26.2945 15.9002 26.4573C15.9021 26.9404 15.9048 27.4229 15.8989 27.906C15.8969 28.0853 15.943 28.2297 16.1065 28.3206C16.1038 28.3437 16.1005 28.3668 16.0979 28.3892C15.9457 28.4544 15.9002 28.5797 15.9008 28.7339C15.9021 29.2388 15.9035 29.743 15.9002 30.2479C15.8989 30.416 15.9522 30.5472 16.1065 30.6276C16.1052 30.6507 16.1032 30.6744 16.1019 30.6981ZM13.5286 3.69082C13.5339 2.13263 12.269 0.846 10.7253 0.83875C9.16581 0.831499 7.86995 2.09572 7.86336 3.63215C7.85611 5.20221 9.13153 6.5007 10.6851 6.504C12.2367 6.50729 13.5233 5.23385 13.5286 3.69082ZM22.6345 11.0303C22.6293 11.0158 22.6266 10.9578 22.5983 10.9386C22.3676 10.7857 22.1975 10.5768 22.0215 10.3678C21.9372 10.2676 21.8205 10.3243 21.7526 10.4351C21.6425 10.615 21.4916 10.7541 21.3189 10.8727C21.1449 10.9927 21.1508 11.1127 21.3294 11.224C21.4988 11.3302 21.6333 11.4692 21.7414 11.6373C21.8502 11.8067 21.9721 11.8324 22.0927 11.6485C22.2021 11.4824 22.3353 11.3414 22.5047 11.2353C22.5699 11.1944 22.6299 11.1469 22.6345 11.0303ZM23.0794 9.13723C23.1968 9.13064 23.6232 8.67254 23.618 8.62443C23.6127 8.57829 23.179 8.15447 23.1368 8.15447C23.0979 8.15447 22.6214 8.62179 22.6398 8.64354C22.7927 8.82151 22.9516 8.9942 23.0794 9.13723ZM20.7382 8.88874C20.551 8.79382 20.4877 8.54995 20.317 8.57433C20.1845 8.59345 19.9908 8.7668 20.0072 8.9039C20.0237 9.04693 20.1964 9.2539 20.344 9.2394C20.4772 9.22622 20.5912 9.02848 20.7382 8.88874Z" fill="#FEFEFD"/>
<path d="M25.78 21.4657C25.6277 21.3378 25.5743 21.1789 25.5803 20.9772C25.5935 20.531 25.5921 20.0835 25.5809 19.6366C25.5763 19.45 25.6277 19.2971 25.749 19.1626C28.3374 19.1626 30.9258 19.1646 33.5149 19.1587C33.7305 19.158 33.9453 19.2437 34.1602 19.162C34.1602 19.9088 34.1602 20.6562 34.1602 21.403C34.0218 21.4314 33.888 21.4723 33.7417 21.4716C31.0873 21.467 28.4337 21.467 25.78 21.4657Z" fill="#FEC205"/>
<path d="M34.1595 19.162C33.9446 19.2437 33.7291 19.158 33.5142 19.1587C30.9258 19.1646 28.3374 19.1626 25.7483 19.1626C25.6303 19.0512 25.5783 18.9194 25.5809 18.7527C25.5888 18.2702 25.5888 17.787 25.5816 17.3045C25.577 16.9974 25.7239 16.8662 26.0219 16.8662C28.5898 16.8675 31.1572 16.8689 33.7252 16.8629C33.9104 16.8623 34.0277 16.9611 34.1589 17.0541C34.1595 17.756 34.1595 18.4593 34.1595 19.162Z" fill="#FEA50C"/>
<path d="M25.7911 30.6302C25.6349 30.5544 25.5822 30.4266 25.5835 30.2585C25.5875 29.7476 25.5862 29.2362 25.5848 28.7253C25.5842 28.5711 25.631 28.4485 25.7846 28.3872C28.3967 28.3885 31.0088 28.3898 33.6216 28.3892C33.7159 28.3892 33.8227 28.4215 33.8965 28.3252C33.9848 28.2811 34.0732 28.2369 34.1608 28.1927C34.1608 29.0938 34.1608 29.9942 34.1608 30.8952C34.0619 30.8187 34.1239 30.5808 33.8972 30.6322C31.1941 30.6309 28.4929 30.6309 25.7911 30.6302Z" fill="#FEC205"/>
<path d="M25.7799 21.4656C28.4336 21.467 31.0879 21.467 33.7416 21.4722C33.8879 21.4722 34.0217 21.432 34.1601 21.4037C34.1601 22.1729 34.1601 22.9414 34.1601 23.7107C34.0718 23.712 33.9841 23.7739 33.8958 23.7113C31.1934 23.7113 28.4903 23.7113 25.7878 23.7113C25.6217 23.6428 25.5828 23.507 25.5835 23.3422C25.5868 22.8432 25.5874 22.3436 25.5828 21.8446C25.5808 21.6779 25.629 21.548 25.7799 21.4656Z" fill="#FEA40A"/>
<path d="M33.8958 23.7113C33.9842 23.7732 34.0718 23.712 34.1602 23.7106C34.1602 24.4139 34.1602 25.1166 34.1602 25.8199C34.0448 25.8805 33.9611 25.9734 33.8925 26.0815C33.8497 26.0815 33.8075 26.0822 33.7647 26.0822C33.6671 25.9761 33.5386 26.0196 33.4232 26.0189C31.0359 26.0163 28.6485 26.0163 26.2611 26.0189C26.1458 26.0189 26.0172 25.9761 25.9197 26.0822C25.8729 26.0809 25.8267 26.0796 25.7799 26.0782C25.6224 25.9253 25.571 25.7434 25.5789 25.5219C25.5947 25.0757 25.5868 24.6288 25.5822 24.1819C25.5802 24.0059 25.6138 23.8576 25.7898 23.7772C28.367 23.7772 30.9449 23.7772 33.5221 23.7739C33.6473 23.7732 33.7877 23.828 33.8958 23.7113Z" fill="#FEC205"/>
<path d="M33.7648 26.0822C33.8077 26.0822 33.8498 26.0816 33.8927 26.0816C33.9817 26.0822 34.0707 26.0829 34.1596 26.0835C34.1596 26.7868 34.1596 27.4895 34.1596 28.1928C34.0713 28.2369 33.983 28.2811 33.8953 28.3252C31.1942 28.3246 28.4931 28.3239 25.7913 28.3233C25.6239 28.2376 25.5804 28.0952 25.5823 27.9172C25.5876 27.4282 25.5856 26.9397 25.5837 26.4507C25.583 26.2898 25.6074 26.1462 25.7801 26.0789C25.8269 26.0802 25.873 26.0816 25.9198 26.0829C28.5353 26.0822 31.15 26.0822 33.7648 26.0822Z" fill="#FEA40A"/>
<path d="M33.8958 30.6315C34.1226 30.5801 34.0606 30.8181 34.1595 30.8945C34.1595 31.5095 34.1595 32.1251 34.1595 32.7401C34.0527 32.9247 33.8846 32.9642 33.6842 32.9642C31.1367 32.9609 28.5898 32.9635 26.0422 32.9609C25.6738 32.9603 25.5881 32.8732 25.5848 32.5186C25.5809 32.0467 25.5855 31.5741 25.5828 31.1022C25.5815 30.9295 25.5973 30.7706 25.7858 30.6948C28.3868 30.6955 30.9877 30.6968 33.5887 30.6948C33.6928 30.6948 33.8114 30.737 33.8958 30.6315Z" fill="#FEA40A"/>
<path d="M34.1595 26.0829C34.0705 26.0822 33.9816 26.0815 33.8926 26.0809C33.9611 25.9728 34.0448 25.8799 34.1595 25.8192C34.1595 25.9075 34.1595 25.9952 34.1595 26.0829Z" fill="#FEBE18"/>
<path d="M11.132 14.9468C11.101 15.254 10.9296 15.5321 10.9428 15.8485C10.8901 15.867 10.8479 15.8933 10.8222 15.9494C10.3569 16.9611 9.58765 17.6578 8.58313 18.1113C7.84688 18.3961 7.08097 18.4092 6.30847 18.3605C6.28078 18.3446 6.2531 18.3288 6.22607 18.313C5.18728 18.0012 4.14915 17.6888 3.11035 17.377C3.34368 16.4127 3.57636 15.4491 3.81035 14.4848C4.11355 13.2337 4.41741 11.9827 4.72061 10.7323C4.8063 10.499 4.89397 10.267 4.88012 10.0119C5.13587 9.34616 5.25847 8.6455 5.42061 7.95539C5.5788 7.71942 5.71063 7.46565 5.92946 7.27187C6.41459 6.84277 6.97551 6.66481 7.60498 6.81114C8.69255 7.06358 9.77748 7.33119 10.8571 7.61528C12.1148 7.94616 12.65 8.87093 12.3395 10.1424C12.1497 10.9189 11.9493 11.6927 11.7536 12.4678C11.567 12.4487 11.5248 12.2859 11.4477 12.1587C11.0812 11.5569 10.7985 10.905 10.37 10.3401C9.98511 9.49315 9.49669 8.70219 9.02277 7.90596C8.67277 7.31801 7.89895 7.144 7.33539 7.49795C6.6644 7.92046 6.57805 8.59277 6.89641 9.24597C7.0546 9.56961 7.23586 9.88401 7.42965 10.1872C7.7111 10.6269 7.88709 11.1318 8.25291 11.518C8.23313 11.6136 8.28455 11.6854 8.32871 11.7625C8.62202 12.2767 8.91929 12.7882 9.2047 13.3069C10.0141 14.7735 9.91854 14.5217 11.132 14.9468Z" fill="#64AEFE"/>
<path d="M3.1103 17.3771C4.14909 17.6888 5.18723 18.0013 6.22602 18.313C6.22338 18.3341 6.228 18.3539 6.23986 18.3717C6.36641 20.4809 6.49297 22.5902 6.61952 24.6994C6.61952 24.7435 6.61952 24.787 6.62018 24.8312C6.60634 25.0408 6.56086 25.2418 6.47979 25.437C5.57611 27.624 4.68233 29.8149 3.76614 31.9966C3.30013 33.1066 1.88563 33.3274 1.11774 32.4205C0.687985 31.9129 0.633936 31.3375 0.887043 30.7258C1.56661 29.0866 2.19806 27.4249 2.93826 25.8133C3.35945 24.8978 3.45832 23.9941 3.37131 23.0146C3.24938 21.6496 3.19467 20.2786 3.11162 18.9102C3.08921 18.5378 3.06482 18.1661 3.04966 17.7936C3.04373 17.6533 3.02922 17.5069 3.1103 17.3771Z" fill="#606E9B"/>
<path d="M8.58325 18.1113C9.58777 17.6578 10.357 16.9611 10.8223 15.9494C10.848 15.894 10.8902 15.8676 10.9429 15.8485C11.8961 16.4114 12.8511 16.9704 13.8016 17.5379C14.4139 17.9037 14.7 18.6261 14.4884 19.3353C13.9038 21.2976 13.3026 23.2558 12.7107 25.2161C12.6158 25.5305 12.428 25.7803 12.2058 26.011C11.5309 26.011 10.8553 26.011 10.1803 26.011C9.62139 25.4593 9.51922 24.8259 9.75849 24.0824C10.1843 22.7589 10.56 21.4202 10.9779 20.094C11.0576 19.8415 10.9983 19.7288 10.7907 19.5937C10.0472 19.1112 9.31753 18.607 8.58325 18.1113Z" fill="#424C82"/>
<path d="M13.5286 3.69084C13.5233 5.23453 12.2367 6.50732 10.6851 6.50468C9.13148 6.50073 7.85606 5.20224 7.86331 3.63218C7.87056 2.09574 9.16576 0.831526 10.7253 0.838776C12.269 0.846027 13.5338 2.13265 13.5286 3.69084Z" fill="#FEB69E"/>
<path d="M11.1321 14.9468C9.91932 14.5217 10.0142 14.7735 9.20614 13.3062C8.92073 12.7882 8.62347 12.276 8.33015 11.7619C8.28665 11.6854 8.23524 11.6129 8.25435 11.5173C8.96028 11.1245 9.66555 10.7323 10.3715 10.3395C10.7993 10.905 11.0827 11.5562 11.4492 12.158C11.5263 12.2846 11.5685 12.448 11.755 12.4672C12.7826 12.806 13.8102 13.1441 14.8378 13.4822C15.1805 13.5949 15.5252 13.7024 15.866 13.8223C16.5495 14.0623 16.8897 14.7451 16.6721 15.428C16.479 16.0364 15.7909 16.4101 15.135 16.2097C13.859 15.8208 12.5921 15.3996 11.3213 14.993C11.2593 14.9738 11.1947 14.9626 11.1321 14.9468Z" fill="#FDB69E"/>
<path d="M4.88021 10.0112C4.89405 10.2663 4.80572 10.499 4.7207 10.7316C4.33444 10.7527 4.14659 10.9432 4.05365 11.3367C3.71552 12.773 3.33849 14.2 2.97663 15.631C2.85535 16.1095 2.69716 16.5637 2.18369 16.7654C1.7078 16.9525 1.25366 16.9117 0.857518 16.5788C0.483789 16.2651 0.322302 15.8459 0.440946 15.3706C0.930022 13.4084 1.43228 11.4488 1.94113 9.49116C2.04659 9.08645 2.32343 8.78721 2.71957 8.65868C3.23831 8.48994 3.76561 8.34031 4.30874 8.26056C4.49923 8.84455 4.68972 9.42788 4.88021 10.0112Z" fill="#FEB69E"/>
<path d="M10.1802 26.0117C10.8552 26.0117 11.5308 26.0117 12.2057 26.0117C12.9057 26.0163 13.6051 26.019 14.3051 26.0256C14.6946 26.0289 14.7935 26.1251 14.7961 26.5074C14.7994 26.978 14.7935 27.448 14.7981 27.9186C14.8001 28.0966 14.7559 28.2422 14.5859 28.3259C13.5438 28.3253 12.501 28.3233 11.4589 28.3253C9.79134 28.3279 8.12374 28.3332 6.45613 28.3371C6.2663 28.2396 6.21291 28.0781 6.21621 27.8738C6.22346 27.4144 6.21489 26.9543 6.2195 26.4942C6.2228 26.1435 6.34012 26.0282 6.69935 26.0262C7.85942 26.019 9.02016 26.0163 10.1802 26.0117Z" fill="#FEA50C"/>
<path d="M16.0985 26.0809C15.9245 25.9188 15.8909 25.7164 15.8981 25.487C15.9113 25.0599 15.908 24.6315 15.9001 24.2037C15.8948 23.9064 16.0128 23.7548 16.3246 23.7548C18.9024 23.7581 21.4797 23.7581 24.0575 23.7548C24.37 23.7542 24.4866 23.9025 24.48 24.2024C24.4701 24.6407 24.4662 25.0803 24.4827 25.5187C24.4912 25.7421 24.4392 25.9247 24.281 26.0789C24.2348 26.0802 24.1894 26.0816 24.1432 26.0829C24.0457 25.9768 23.9171 26.0196 23.8018 26.0196C21.4137 26.017 19.0264 26.017 16.6383 26.0196C16.523 26.0196 16.3944 25.9768 16.2969 26.0829C16.2303 26.0822 16.1644 26.0816 16.0985 26.0809Z" fill="#FEA40A"/>
<path d="M16.0987 26.0809C16.1646 26.0816 16.2305 26.0822 16.2964 26.0829C18.9119 26.0829 21.5273 26.0829 24.1427 26.0829C24.1889 26.0816 24.2344 26.0802 24.2805 26.0789C24.4374 26.1389 24.4776 26.2648 24.4776 26.4171C24.4769 26.9279 24.4743 27.4381 24.4789 27.9489C24.4802 28.1176 24.4215 28.2435 24.2706 28.3226C21.5497 28.3219 18.8295 28.3213 16.1086 28.3206C15.9451 28.2297 15.899 28.086 15.9009 27.906C15.9069 27.4235 15.9042 26.9404 15.9023 26.4573C15.9003 26.2945 15.9253 26.1501 16.0987 26.0809Z" fill="#FEC205"/>
<path d="M16.1065 30.6276C15.9529 30.5472 15.8995 30.416 15.9002 30.2479C15.9034 29.7437 15.9021 29.2388 15.9008 28.7339C15.9002 28.5797 15.9456 28.4544 16.0979 28.3892C18.8241 28.3885 21.5502 28.3879 24.2764 28.3872C24.43 28.4485 24.4761 28.5718 24.4761 28.7253C24.4748 29.2362 24.4735 29.747 24.4768 30.2578C24.4781 30.4259 24.4247 30.5538 24.2692 30.6296C21.5489 30.6289 18.828 30.6283 16.1065 30.6276Z" fill="#FEA40A"/>
<path d="M24.2745 30.6955C24.4459 30.764 24.4788 30.9044 24.4775 31.0699C24.4749 31.4871 24.4768 31.905 24.4768 32.3222C24.4768 32.9333 24.4485 32.9623 23.8513 32.9623C22.2806 32.9623 20.7099 32.9623 19.1385 32.9623C18.227 32.9623 17.3147 32.9642 16.4031 32.9616C15.9819 32.9603 15.9035 32.8792 15.9015 32.4593C15.8996 32.0091 15.9035 31.5583 15.9002 31.1081C15.8989 30.9354 15.916 30.7772 16.1012 30.6981C18.8261 30.6975 21.5503 30.6962 24.2745 30.6955Z" fill="#FEC205"/>
<path d="M14.5898 30.6928C14.781 30.7654 14.7981 30.9249 14.7974 31.0969C14.7955 31.5682 14.8001 32.0401 14.7955 32.5114C14.7922 32.8746 14.7111 32.9596 14.3466 32.9609C13.1845 32.9649 12.0218 32.9622 10.8598 32.9629C9.53294 32.9629 8.20611 32.9629 6.87927 32.9629C6.25046 32.9629 6.21948 32.9306 6.21948 32.2866C6.21948 31.8918 6.21948 31.497 6.21948 31.1022C6.21948 30.917 6.24914 30.7495 6.45875 30.6849C9.16844 30.6876 11.8795 30.6902 14.5898 30.6928Z" fill="#FEA40A"/>
<path d="M14.5919 28.3845C14.7507 28.4419 14.7956 28.5684 14.7956 28.7214C14.7956 29.2342 14.7936 29.7476 14.7969 30.2604C14.7982 30.4285 14.7441 30.5584 14.586 30.6322C13.7634 30.6315 12.9408 30.6302 12.1175 30.6315C10.2311 30.6348 8.34397 30.6388 6.45753 30.6427C6.29143 30.5663 6.21826 30.4344 6.21826 30.2538C6.21958 29.7549 6.2176 29.2553 6.21892 28.7563C6.21958 28.5829 6.26308 28.4327 6.45489 28.376C9.16788 28.3786 11.8802 28.3812 14.5919 28.3845Z" fill="#FEC205"/>
<path d="M4.88023 10.0113C4.68974 9.42793 4.49859 8.8446 4.30811 8.26061C4.6647 8.10703 5.04502 8.03782 5.42138 7.95477C5.25857 8.64554 5.13598 9.34554 4.88023 10.0113Z" fill="#4699F1"/>
<path d="M22.6346 11.0302C22.6306 11.1469 22.57 11.1944 22.5047 11.2352C22.3353 11.3413 22.2022 11.4824 22.0928 11.6485C21.9715 11.8324 21.8502 11.8067 21.7414 11.6373C21.6333 11.4692 21.4989 11.3301 21.3295 11.224C21.1515 11.1126 21.1449 10.9927 21.3189 10.8727C21.4916 10.7541 21.6419 10.615 21.7526 10.435C21.8205 10.3243 21.9365 10.2676 22.0216 10.3678C22.1976 10.5768 22.3676 10.7857 22.5983 10.9386C22.6267 10.9577 22.6286 11.0157 22.6346 11.0302Z" fill="#FED241"/>
<path d="M23.0796 9.13725C22.9517 8.99487 22.7929 8.82152 22.64 8.64356C22.6208 8.62181 23.0981 8.15448 23.1369 8.15448C23.1785 8.15448 23.6128 8.5783 23.6181 8.62444C23.6234 8.67256 23.1976 9.13066 23.0796 9.13725Z" fill="#FED241"/>
<path d="M24.2772 28.3865C21.551 28.3872 18.8248 28.3878 16.0986 28.3885C16.1013 28.3654 16.1046 28.3424 16.1072 28.3199C18.8281 28.3206 21.5483 28.3213 24.2692 28.3219C24.2659 28.3443 24.2686 28.3661 24.2772 28.3865Z" fill="#FEC544"/>
<path d="M24.2744 30.6955C21.5502 30.6962 18.826 30.6968 16.1018 30.6975C16.1038 30.6738 16.1051 30.6507 16.1071 30.627C18.828 30.6276 21.5495 30.6283 24.2704 30.6296C24.2718 30.652 24.2731 30.6738 24.2744 30.6955Z" fill="#FEC544"/>
<path d="M33.8958 23.7113C33.7883 23.828 33.6473 23.7739 33.5227 23.7739C30.9455 23.7779 28.3676 23.7772 25.7904 23.7772C25.7891 23.7555 25.7884 23.7331 25.7871 23.7113C28.4902 23.7113 31.1927 23.7113 33.8958 23.7113Z" fill="#FEC544"/>
<path d="M14.5919 28.3846C11.8795 28.3819 9.1672 28.3787 6.45486 28.376C6.4542 28.3628 6.45486 28.3496 6.45552 28.3371C8.12313 28.3332 9.79073 28.3279 11.4583 28.3253C12.5004 28.3233 13.5432 28.3259 14.5853 28.3259C14.5833 28.3457 14.5853 28.3655 14.5919 28.3846Z" fill="#FEC544"/>
<path d="M25.7911 28.3226C28.4922 28.3233 31.194 28.324 33.8952 28.3246C33.8213 28.4208 33.7145 28.3885 33.6203 28.3885C31.0081 28.3892 28.396 28.3872 25.7832 28.3866C25.7924 28.3661 25.7951 28.345 25.7911 28.3226Z" fill="#FEC544"/>
<path d="M6.45752 30.6428C8.34396 30.6388 10.2311 30.6342 12.1175 30.6316C12.9401 30.6302 13.7627 30.6322 14.5859 30.6322C14.5807 30.6526 14.582 30.6731 14.5899 30.6922C11.8795 30.6896 9.16919 30.6869 6.45884 30.6843C6.4595 30.6711 6.45884 30.6566 6.45752 30.6428Z" fill="#FEC544"/>
<path d="M33.8959 30.6316C33.8115 30.737 33.6928 30.6948 33.5887 30.6948C30.9878 30.6968 28.3868 30.6955 25.7859 30.6948C25.7872 30.6731 25.7892 30.6513 25.7905 30.6296C28.4929 30.6309 31.1941 30.6309 33.8959 30.6316Z" fill="#FEC544"/>
<path d="M20.7382 8.88874C20.5919 9.02782 20.4772 9.22622 20.3441 9.2394C20.1964 9.2539 20.0237 9.04693 20.0073 8.9039C19.9914 8.7668 20.1852 8.59279 20.317 8.57434C20.4878 8.54995 20.551 8.79383 20.7382 8.88874Z" fill="#FED241"/>
<path d="M6.61956 24.8318C6.61956 24.7872 6.61956 24.7433 6.6189 24.6987C6.66149 24.7054 6.71207 24.7107 6.71207 24.7653C6.71273 24.8199 6.66215 24.8252 6.61956 24.8318Z" fill="#FDFDFD"/>
<path d="M6.23951 18.3714C6.22757 18.3535 6.22292 18.3343 6.22558 18.3124C6.25345 18.3283 6.28066 18.3442 6.30853 18.3602C6.28596 18.3641 6.26274 18.3681 6.23951 18.3714Z" fill="#FDFDFD"/>
<path d="M33.7648 26.0822C31.15 26.0822 28.5352 26.0822 25.9204 26.0822C26.018 25.9761 26.1465 26.0189 26.2618 26.0189C28.6492 26.0163 31.0366 26.0163 33.424 26.0189C33.5387 26.0189 33.6672 25.9761 33.7648 26.0822Z" fill="#FEBE18"/>
<path d="M10.3707 10.3395C9.6648 10.7323 8.95953 11.1245 8.2536 11.5174C7.88778 11.1305 7.71179 10.6262 7.43034 10.1866C7.23589 9.88339 7.05463 9.56898 6.8971 9.24534C6.57874 8.59214 6.66508 7.91983 7.33608 7.49732C7.89898 7.14271 8.67346 7.31738 9.02346 7.90533C9.49738 8.70222 9.98646 9.49252 10.3707 10.3395Z" fill="#4699F1"/>
<path d="M24.142 26.0829C21.5265 26.0829 18.9111 26.0829 16.2957 26.0829C16.3932 25.9768 16.5217 26.0196 16.6371 26.0196C19.0251 26.017 21.4125 26.017 23.8005 26.0196C23.9159 26.0196 24.0444 25.9768 24.142 26.0829Z" fill="#FEBE18"/>
</g>
<defs>
<clipPath id="clip0_11415_168848">
<rect width="33.826" height="33.7608" fill="white" transform="translate(0.340088 0.0411987)"/>
</clipPath>
</defs>
</svg>
