<svg width="36" height="36" viewBox="0 0 36 36" fill="none" xmlns="http://www.w3.org/2000/svg">
<path d="M11.0727 17.9912C10.2101 17.3398 9.39151 16.7325 8.58173 16.1251C8.07122 15.7467 7.5607 15.3682 7.05899 14.9809C6.91816 14.8753 6.77733 14.8313 6.61009 14.8313C5.82672 14.8401 5.05215 14.8401 4.26877 14.8313C3.0453 14.8225 2.12109 13.9071 2.12109 12.6924C2.12109 9.90216 2.12109 7.12075 2.12109 4.33053C2.12109 3.10705 3.0453 2.19165 4.26877 2.19165C7.74554 2.19165 11.2311 2.19165 14.7079 2.19165C15.949 2.19165 16.8644 3.10705 16.8732 4.35693C16.8732 7.12955 16.8732 9.91097 16.8732 12.6836C16.8732 13.9071 15.949 14.8313 14.7343 14.8313C13.6252 14.8313 12.5162 14.8401 11.4072 14.8225C11.1607 14.8225 11.0639 14.8753 11.0727 15.1393C11.0903 15.9579 11.0815 16.7853 11.0815 17.6127C11.0727 17.7271 11.0727 17.8327 11.0727 17.9912Z" fill="#FEA50C"/>
<path d="M16.3452 20.0949C16.8733 20.1213 16.8733 20.1213 16.8733 20.6494C16.8733 21.512 16.8733 22.3834 16.8733 23.246C16.8821 24.443 17.8063 25.3672 19.0034 25.3672C19.7163 25.3672 20.4293 25.3584 21.1423 25.3584C21.2743 25.3672 21.3623 25.4465 21.4591 25.5169C21.9256 25.8601 22.3833 26.2122 22.8498 26.5555C23.1843 26.802 23.1931 26.802 23.4924 26.5027C23.9765 26.0274 24.4518 25.5433 24.9271 25.068C25.0239 24.98 25.1031 24.8743 25.2264 24.8127C25.2704 24.7951 25.3232 24.7951 25.3672 24.8127C25.9657 25.3232 26.4939 25.913 27.0572 26.4587C27.4181 26.8108 27.4181 26.8196 27.8318 26.5027C28.2718 26.177 28.7031 25.8425 29.1432 25.5169C29.2401 25.4465 29.3281 25.3584 29.4601 25.3584C29.9706 25.3672 30.4899 25.3672 31.0005 25.3672C32.5408 25.376 33.7203 26.5555 33.7291 28.1046C33.7291 29.9002 33.7291 31.6958 33.7379 33.4914C33.7379 33.7379 33.6762 33.8083 33.4298 33.8083C32.6552 33.7907 31.8718 33.7995 31.0973 33.7907C30.9652 33.6411 31.0005 33.4562 31.0005 33.289C31.0005 32.2592 31.0005 31.2293 31.0005 30.1995C31.0005 29.7154 30.8244 29.5922 30.3491 29.7066C30.1291 29.7594 30.1643 29.9267 30.1555 30.0675C30.1467 31.0445 30.1555 32.0215 30.1555 32.9985C30.1555 33.1482 30.1555 33.3066 30.1555 33.4562C30.1467 33.5795 30.1467 33.7027 30.0586 33.7907C28.3599 33.7907 26.6611 33.7995 24.9623 33.7995C23.0875 33.7995 21.2127 33.7907 19.3379 33.8083C19.0738 33.8083 18.9858 33.7555 18.9858 33.465C19.0034 32.0919 18.9858 30.7276 18.9946 29.3545C18.9946 29.1345 18.9506 29.0641 18.7129 29.0465C16.2044 28.9232 14.1095 26.9956 13.7838 24.5222C13.643 23.3956 13.7574 22.2689 13.7222 21.1423C13.7134 20.9751 13.7222 20.8166 13.7222 20.6494C13.7222 20.1213 13.7222 20.1213 14.2503 20.0949C14.3295 20.0333 14.4264 20.0068 14.5232 20.0068C15.0425 19.998 15.5618 19.998 16.0899 20.0068C16.1692 20.0068 16.266 20.0244 16.3452 20.0949Z" fill="#789FD3"/>
<path d="M7.38468 22.2161C7.69274 22.8323 7.96561 23.378 8.23847 23.9237C8.44091 24.3286 8.65216 24.7247 8.837 25.1296C8.92502 25.3144 9.03064 25.3848 9.23309 25.376C9.99005 25.3672 10.747 25.3672 11.504 25.3672C12.2169 25.3672 12.6482 25.7985 12.6482 26.5203C12.6482 28.5623 12.6482 30.6044 12.6482 32.6464C12.6482 33.3682 12.2258 33.7995 11.504 33.7995C8.74898 33.7995 5.99397 33.7995 3.23896 33.7995C2.5436 33.7995 2.1123 33.3594 2.1123 32.664C2.1123 30.6132 2.1123 28.5623 2.1123 26.5027C2.1123 25.7897 2.5436 25.3672 3.26536 25.3672C4.01353 25.3672 4.76169 25.3584 5.50106 25.376C5.72111 25.376 5.83553 25.3144 5.93235 25.1208C6.39886 24.1702 6.87416 23.2372 7.38468 22.2161Z" fill="#FEA50C"/>
<path d="M25.3672 24.8391C25.3232 24.8391 25.2791 24.8391 25.2439 24.8391C25.0415 24.8391 24.9095 24.6895 24.7598 24.5926C24.487 24.4166 24.2141 24.2317 23.95 24.0469C23.862 23.9853 23.7212 23.9501 23.73 23.7917C23.73 23.2635 23.7124 22.7442 23.7388 22.2161C23.7476 21.9784 23.6596 21.864 23.4571 21.7672C22.2425 21.1687 21.5031 20.1917 21.1862 18.889C21.1158 18.5721 21.0806 18.2464 21.0278 17.9295C21.0102 17.3398 20.9134 16.7501 21.1334 16.178C21.4591 15.3066 22.2513 14.7608 23.1755 14.7432C23.8004 14.7344 24.4253 14.7608 25.0503 14.708C26.1417 14.6024 27.1011 14.1799 27.9549 13.5198C28.4919 13.1061 28.4919 13.1149 28.8791 13.6694C29.3985 14.4088 29.6801 15.2097 29.6185 16.1339C29.5833 16.7325 29.6361 17.3398 29.5833 17.9384C29.4689 18.4137 29.4689 18.9066 29.2928 19.3731C28.8967 20.4293 28.2366 21.2567 27.2156 21.7496C26.9603 21.8728 26.8635 22.0137 26.8811 22.2953C26.9075 22.797 26.8899 23.2987 26.8899 23.8093C26.8987 23.8357 26.8987 23.8621 26.8899 23.8709C26.4058 24.2317 25.9305 24.6102 25.3672 24.8391Z" fill="#FAE0C9"/>
<path d="M29.5745 17.9296C29.4601 17.8503 29.5129 17.7271 29.5129 17.6303C29.5041 16.9965 29.4953 16.354 29.5129 15.7203C29.5305 14.7785 29.0288 14.0655 28.5271 13.3437C28.4039 13.1765 28.3335 13.3349 28.2718 13.3877C27.7261 13.7926 27.1804 14.1975 26.5379 14.444C25.8337 14.7168 25.1031 14.8137 24.355 14.8401C23.774 14.8577 23.1931 14.752 22.621 14.9017C21.688 15.1481 21.0806 15.9667 21.0718 16.9349C21.063 17.2694 21.1511 17.6039 21.0102 17.9296C20.5965 17.3222 20.1036 16.7765 19.8308 16.0811C18.8713 13.6518 19.9804 11.0288 22.4978 10.043C24.443 9.28603 26.4674 9.28603 28.3863 10.1662C31.0885 11.4161 31.907 14.6464 30.1907 17.0846C29.997 17.3662 29.7858 17.6479 29.5745 17.9296Z" fill="#966947"/>
<path d="M23.7213 23.8005C24.223 24.1526 24.7335 24.4958 25.2352 24.8479C24.6015 25.4993 23.959 26.1418 23.3252 26.7931C23.2108 26.9164 23.1052 26.8724 23.0083 26.7931C22.3834 26.3178 21.7585 25.8425 21.1423 25.3672C21.9961 24.8391 22.8587 24.3198 23.7213 23.8005Z" fill="#5E86C9"/>
<path d="M25.3672 24.8391C25.8689 24.487 26.3794 24.1438 26.8811 23.7917C27.7437 24.311 28.5975 24.8303 29.4601 25.3496C28.8352 25.8249 28.219 26.309 27.5941 26.7755C27.4973 26.8548 27.3916 26.89 27.2772 26.7755C26.6435 26.133 26.0009 25.4905 25.3672 24.8391Z" fill="#5E86C9"/>
<path d="M16.3451 20.0948C15.641 20.0948 14.9368 20.0948 14.2327 20.0948C14.2327 19.4171 14.2327 18.7393 14.2327 18.0616C14.2327 17.4014 14.6816 16.9437 15.3065 16.9437C15.905 16.9525 16.3451 17.4102 16.3451 18.0616C16.3451 18.7393 16.3451 19.4171 16.3451 20.0948Z" fill="#FAE0C9"/>
<path d="M30.041 33.7907C30.041 32.4968 30.0498 31.2029 30.0322 29.909C30.0322 29.6449 30.1114 29.5745 30.3667 29.5745C31.0885 29.5833 31.0885 29.5745 31.0885 30.2963C31.0885 31.4581 31.0885 32.62 31.0885 33.7819C30.7452 33.7907 30.3931 33.7907 30.041 33.7907Z" fill="#5E86C9"/>
<path d="M9.47961 11.6714C8.95149 11.6714 8.94269 11.6714 8.96909 11.152C9.0219 9.73493 9.58523 8.54666 10.571 7.54324C11.4865 6.61023 11.0904 5.18432 9.83169 4.85864C8.9867 4.6474 8.12411 5.21952 7.93926 6.14373C7.89525 6.35498 7.82484 6.42539 7.6312 6.39899C7.58719 6.39018 7.54318 6.39899 7.49917 6.39899C6.751 6.39899 6.751 6.39899 6.97105 5.65082C7.27912 4.61219 8.20332 3.85522 9.27716 3.7672C10.3774 3.67918 11.4072 4.27771 11.8825 5.29874C12.3402 6.25815 12.1642 7.42881 11.3984 8.19458C10.7735 8.82832 10.307 9.54128 10.1133 10.4127C10.0517 10.7031 9.98132 10.9936 10.0165 11.2929C10.0517 11.6009 9.93731 11.7154 9.63804 11.6626C9.59403 11.6626 9.54122 11.6714 9.47961 11.6714Z" fill="#F5F5F5"/>
<path d="M9.50606 12.1995C10.0782 12.2083 10.5447 12.6748 10.5535 13.2469C10.5535 13.8278 10.0694 14.3119 9.48846 14.3031C8.91633 14.2943 8.44983 13.8278 8.44983 13.2557C8.44103 12.6748 8.91633 12.1995 9.50606 12.1995Z" fill="#F5F5F5"/>
<path d="M7.36706 30.1115C6.24921 30.1115 5.13136 30.1027 4.01351 30.1203C3.77586 30.1203 3.68784 30.0587 3.69664 29.8122C3.69664 29.064 3.68784 29.064 4.436 29.064C6.53087 29.064 8.62574 29.0728 10.7206 29.0552C11.0023 29.0552 11.0991 29.1168 11.0903 29.4161C11.0727 30.1115 11.0903 30.1115 10.4037 30.1115C9.3827 30.1115 8.37928 30.1115 7.36706 30.1115Z" fill="#FEC205"/>
<path d="M7.36721 32.224C6.24936 32.224 5.13151 32.2152 4.01367 32.2328C3.77601 32.2328 3.68799 32.1799 3.68799 31.9247C3.68799 31.1765 3.67919 31.1765 4.41856 31.1765C6.51342 31.1765 8.60829 31.1853 10.7032 31.1677C10.9848 31.1677 11.0816 31.2293 11.0728 31.5286C11.0552 32.224 11.0728 32.224 10.3863 32.224C9.38286 32.224 8.37944 32.224 7.36721 32.224Z" fill="#FEC205"/>
<path d="M7.89527 28.0078C6.96226 28.0078 6.02926 27.999 5.09625 28.0166C4.83219 28.0166 4.72657 27.9638 4.73537 27.6733C4.75297 26.9515 4.73537 26.9515 5.46593 26.9515C7.20872 26.9515 8.95151 26.9604 10.6943 26.9427C10.9672 26.9427 11.0816 26.9956 11.0728 27.2948C11.0552 27.999 11.0728 27.999 10.3598 27.999C9.54124 28.0078 8.72265 28.0078 7.89527 28.0078Z" fill="#FEC205"/>
</svg>
