<svg width="34" height="34" viewBox="0 0 34 34" fill="none" xmlns="http://www.w3.org/2000/svg">
<g clip-path="url(#clip0_11415_168916)">
<path d="M8.95776 33.7557C6.05517 33.7557 3.15169 33.7539 0.249092 33.7601C0.0614882 33.7609 0.00976562 33.732 0.00976562 33.5277C0.0159022 22.4425 0.0159022 11.3563 0.00976562 0.270154C0.00976562 0.0588807 0.0649948 0.0211846 0.263995 0.0211846C11.3388 0.0264446 22.4144 0.0273212 33.4892 0.0185547C33.7302 0.0185547 33.7495 0.088687 33.7495 0.296454C33.7434 8.35903 33.7443 16.4216 33.7443 24.4842C33.6426 24.2975 33.5698 24.0958 33.4129 23.9389C31.8779 22.4118 30.3455 20.8811 28.8122 19.3514C28.8525 19.2514 28.8876 19.1489 28.9332 19.0507C30.1526 16.4365 30.5243 13.6987 29.9659 10.8777C29.2049 7.03353 27.1194 4.06343 23.7828 2.00505C21.685 0.711987 19.3891 0.0615107 16.9116 0.102713C15.9762 0.0737838 15.0523 0.183365 14.1432 0.384996C10.9907 1.08456 8.38619 2.68972 6.42336 5.25393C3.92665 8.51683 3.12364 12.19 3.94331 16.2182C4.1651 17.307 4.57538 18.3301 5.02773 19.3382C3.53303 20.8294 2.03746 22.3206 0.542771 23.8127C-0.206768 24.5613 -0.0103974 25.3617 0.995124 25.6729C2.71687 26.2051 4.43599 26.7433 6.16036 27.2667C6.39706 27.3386 6.51453 27.4604 6.58642 27.6945C7.10452 29.397 7.64629 31.0933 8.1565 32.7984C8.29151 33.249 8.50892 33.5874 8.95776 33.7557Z" fill="#FEFEFE"/>
<path d="M8.95772 33.7555C8.50975 33.5872 8.29146 33.2488 8.15646 32.7974C7.64624 31.0923 7.10447 29.3968 6.58637 27.6935C6.51536 27.4585 6.39789 27.3376 6.16032 27.2657C4.43594 26.7423 2.71682 26.204 0.995076 25.6719C-0.0104451 25.3607 -0.206815 24.5603 0.542723 23.8117C2.03742 22.3196 3.53211 20.8284 5.02768 19.3372C5.09957 19.4591 5.17496 19.5792 5.24334 19.7037C6.67842 22.2959 8.73768 24.2175 11.4272 25.4615C13.0876 26.2295 14.8409 26.595 16.6626 26.6634C16.5899 26.7441 16.5206 26.8282 16.4435 26.9045C14.3483 29.0006 12.2513 31.094 10.1596 33.1927C9.93694 33.4163 9.70901 33.6249 9.41884 33.7555C9.26455 33.7555 9.11113 33.7555 8.95772 33.7555Z" fill="#FE3A80"/>
<path d="M28.8122 19.353C30.3455 20.8828 31.8779 22.4125 33.4129 23.9406C33.5698 24.0975 33.6426 24.2991 33.7443 24.4858C33.7443 24.6173 33.7443 24.7488 33.7443 24.8803C33.5523 25.3739 33.1569 25.5887 32.6704 25.7342C30.996 26.2356 29.3321 26.7695 27.6585 27.2745C27.4148 27.3481 27.3079 27.47 27.2377 27.7023C26.7214 29.3951 26.1822 31.0809 25.6755 32.7763C25.5388 33.2331 25.3266 33.5855 24.8681 33.7573C24.6928 33.7573 24.5175 33.7573 24.3422 33.7573C23.9915 33.5496 23.725 33.248 23.441 32.9639C21.4369 30.9608 19.4338 28.9576 17.4306 26.9536C17.3386 26.8616 17.2544 26.7616 17.1667 26.6652C18.0741 26.6503 18.9683 26.5363 19.8537 26.3338C22.8843 25.6395 25.3486 24.0501 27.3079 21.6507C27.8917 20.9363 28.3493 20.1429 28.8122 19.353Z" fill="#CB0199"/>
<path d="M17.1676 26.6643C17.2552 26.7607 17.3394 26.8607 17.4315 26.9527C19.4337 28.9568 21.4378 30.9599 23.4418 32.9631C23.7249 33.2462 23.9923 33.5487 24.343 33.7564C19.368 33.7564 14.393 33.7564 9.41797 33.7564C9.70814 33.6258 9.93607 33.4172 10.1587 33.1936C12.2513 31.0949 14.3483 29.0015 16.4426 26.9054C16.5197 26.8282 16.589 26.745 16.6618 26.6643C16.745 26.6582 16.8283 26.6512 16.9116 26.645C16.9966 26.6512 17.0825 26.6573 17.1676 26.6643Z" fill="#FEFDFE"/>
<path d="M24.8689 33.7555C25.3274 33.5837 25.5395 33.2322 25.6763 32.7746C26.1839 31.0791 26.7221 29.3933 27.2385 27.7005C27.3095 27.4691 27.4165 27.3463 27.6593 27.2727C29.3328 26.7686 30.9967 26.2338 32.6711 25.7324C33.1577 25.5869 33.553 25.3721 33.745 24.8785C33.745 27.761 33.7424 30.6425 33.7503 33.5241C33.7511 33.7205 33.7108 33.7599 33.5144 33.7599C30.6329 33.7529 27.7505 33.7555 24.8689 33.7555Z" fill="#FEFDFE"/>
<path d="M17.1676 26.6643C17.0826 26.6573 16.9967 26.6512 16.9116 26.6442C16.9116 25.9902 16.9125 25.3371 16.9125 24.6831C23.1359 24.6585 28.2318 19.6003 28.2187 13.3655C28.2055 7.19298 23.2516 2.09875 16.9125 2.06368C16.9125 1.4097 16.9116 0.756594 16.9116 0.102611C19.389 0.0614084 21.685 0.711885 23.7837 2.0067C27.1202 4.06508 29.2058 7.03518 29.9667 10.8793C30.5252 13.7013 30.1543 16.439 28.934 19.0523C28.8885 19.1497 28.8534 19.2522 28.8131 19.353C28.3493 20.1429 27.8926 20.9363 27.3096 21.6499C25.3503 24.0493 22.886 25.6386 19.8554 26.3329C18.9691 26.5355 18.0749 26.6494 17.1676 26.6643Z" fill="#FE8856"/>
<path d="M16.9117 0.102607C16.9117 0.756591 16.9125 1.4097 16.9125 2.06368L16.9143 2.06719C10.7137 2.07332 5.61686 7.08427 5.60897 13.3567C5.6002 19.6555 10.7146 24.6726 16.9143 24.6805L16.9125 24.684C16.9125 25.3379 16.9117 25.991 16.9117 26.645C16.8284 26.6512 16.7451 26.6582 16.6618 26.6643C14.8401 26.5959 13.0868 26.2304 11.4264 25.4624C8.73687 24.2185 6.67761 22.2968 5.24253 19.7046C5.17415 19.581 5.09876 19.4609 5.02687 19.3381C4.57452 18.3291 4.16425 17.3069 3.94245 16.2181C3.12278 12.1908 3.9258 8.51672 6.42251 5.2547C8.38533 2.69049 10.9899 1.08534 14.1423 0.385766C15.0523 0.18326 15.9763 0.0736779 16.9117 0.102607Z" fill="#FCBE01"/>
<path d="M16.9124 2.06366C23.2515 2.0996 28.2054 7.19296 28.2186 13.3655C28.2317 19.6002 23.1366 24.6594 16.9124 24.6831L16.9142 24.6796C16.9133 24.0668 16.9115 23.4531 16.9106 22.8403C22.1074 22.8412 26.3759 18.6175 26.3803 13.3804C26.3838 8.15026 22.1381 3.90463 16.9106 3.90638C16.9115 3.2936 16.9133 2.67995 16.9142 2.06717L16.9124 2.06366Z" fill="#FED901"/>
<path d="M16.9142 2.06714C16.9133 2.67992 16.9116 3.29358 16.9107 3.90636L16.916 3.9046C11.6613 3.94756 7.44899 8.15199 7.44549 13.3567C7.44198 18.5868 11.6447 22.7956 16.916 22.8421L16.9107 22.8403C16.9116 23.4531 16.9133 24.0668 16.9142 24.6795C10.7136 24.6716 5.60013 19.6554 5.6089 13.3558C5.61679 7.08423 10.7136 2.07328 16.9142 2.06714Z" fill="#FEF16B"/>
<path d="M16.9106 3.90642C22.1381 3.90466 26.3838 8.15029 26.3803 13.3804C26.3767 18.6167 22.1074 22.8412 16.9106 22.8404L16.9159 22.8421C16.915 21.0441 16.9133 19.2461 16.9124 17.4472C17.0711 17.4463 17.2078 17.52 17.3507 17.5726C18.0275 17.8233 18.6981 18.0907 19.3811 18.3203C20.0754 18.5527 20.7188 18.0959 20.7144 17.3657C20.7101 16.7117 20.6469 16.0577 20.6128 15.4037C20.5952 15.0697 20.5488 14.7489 20.8091 14.449C21.2825 13.9055 21.7094 13.3217 22.1644 12.7615C22.686 12.1198 22.4423 11.3159 21.6402 11.0853C20.917 10.8767 20.1902 10.6777 19.4626 10.4839C19.2732 10.4331 19.1365 10.3454 19.0269 10.1754C18.6114 9.5319 18.18 8.89896 17.7601 8.259C17.5585 7.95129 17.2815 7.78999 16.9133 7.78385C16.9142 6.49079 16.915 5.19773 16.9159 3.90466L16.9106 3.90642Z" fill="#FE8855"/>
<path d="M16.9159 3.90466C16.915 5.19773 16.9141 6.49079 16.9133 7.78385L16.915 7.78736C16.5459 7.78999 16.2707 7.95392 16.0699 8.26075C15.6439 8.90948 15.2108 9.55294 14.7839 10.2017C14.6831 10.3551 14.5621 10.4445 14.3754 10.4936C13.6363 10.6856 12.9 10.8881 12.1697 11.1108C11.3693 11.3553 11.1501 12.0952 11.6674 12.7589C11.9356 13.1034 12.1951 13.4576 12.4888 13.7793C13.0209 14.364 13.4014 14.9636 13.1901 15.8263C13.0727 16.3049 13.1612 16.8248 13.12 17.328C13.056 18.1029 13.8003 18.5719 14.5752 18.2853C15.3519 17.9977 16.1155 17.6707 16.9141 17.4454L16.9133 17.4481C16.9141 19.2461 16.9159 21.0441 16.9168 22.843C11.6455 22.7974 7.44366 18.5886 7.44629 13.3576C7.44892 8.15205 11.6612 3.94762 16.9159 3.90466Z" fill="#FCBE00"/>
<path d="M16.9125 7.78381C17.2798 7.78995 17.5568 7.95125 17.7593 8.25896C18.1793 8.89892 18.6115 9.53186 19.0261 10.1753C19.1357 10.3445 19.2724 10.4331 19.4618 10.4839C20.1894 10.6776 20.9162 10.8766 21.6394 11.0853C22.4415 11.3167 22.6853 12.1197 22.1637 12.7615C21.7087 13.3216 21.2817 13.9055 20.8083 14.449C20.5471 14.7488 20.5944 15.0697 20.612 15.4037C20.6462 16.0577 20.7093 16.7116 20.7137 17.3656C20.718 18.0959 20.0746 18.5535 19.3803 18.3203C18.6965 18.0915 18.0258 17.8232 17.3499 17.5725C17.2071 17.5199 17.0703 17.4454 16.9116 17.4472L16.9125 17.4445C16.9125 14.2255 16.9134 11.0055 16.9134 7.78644L16.9125 7.78381Z" fill="#FEDA00"/>
<path d="M16.9143 7.78735C16.9143 11.0064 16.9134 14.2264 16.9134 17.4454C16.1139 17.6707 15.3512 17.9977 14.5745 18.2853C13.7996 18.5719 13.0562 18.1029 13.1193 17.328C13.1605 16.8248 13.0719 16.3049 13.1894 15.8263C13.4007 14.9636 13.0211 14.364 12.4881 13.7793C12.1944 13.4567 11.9358 13.1025 11.6667 12.7589C11.1486 12.0952 11.3677 11.3553 12.169 11.1107C12.8992 10.8881 13.6356 10.6856 14.3747 10.4936C14.5614 10.4454 14.6824 10.3551 14.7832 10.2017C15.2092 9.55293 15.6423 8.90947 16.0692 8.26075C16.27 7.95392 16.5452 7.78911 16.9143 7.78735Z" fill="#FEF16B"/>
</g>
<defs>
<clipPath id="clip0_11415_168916">
<rect width="33.7503" height="33.7608" fill="white"/>
</clipPath>
</defs>
</svg>
