<svg width="72" height="72" viewBox="0 0 72 72" fill="none" xmlns="http://www.w3.org/2000/svg">
<path d="M22.1454 35.9824C20.4202 34.6797 18.783 33.465 17.1635 32.2504C16.1424 31.4934 15.1214 30.7364 14.118 29.9618C13.8363 29.7506 13.5547 29.6626 13.2202 29.6626C11.6534 29.6802 10.1043 29.6802 8.53754 29.6626C6.0906 29.645 4.24219 27.8142 4.24219 25.3848C4.24219 19.8044 4.24219 14.2416 4.24219 8.66111C4.24219 6.21417 6.0906 4.38336 8.53754 4.38336C15.4911 4.38336 22.4622 4.38336 29.4158 4.38336C31.8979 4.38336 33.7287 6.21417 33.7463 8.71392C33.7463 14.2592 33.7463 19.822 33.7463 25.3672C33.7463 27.8142 31.8979 29.6626 29.4686 29.6626C27.2505 29.6626 25.0324 29.6802 22.8143 29.645C22.3214 29.645 22.1278 29.7506 22.1454 30.2787C22.1806 31.9159 22.163 33.5707 22.163 35.2254C22.1454 35.4543 22.1454 35.6655 22.1454 35.9824Z" fill="#FEA50C"/>
<path d="M32.6904 40.1897C33.7466 40.2425 33.7466 40.2425 33.7466 41.2988C33.7466 43.024 33.7466 44.7667 33.7466 46.4919C33.7642 48.8861 35.6126 50.7345 38.0068 50.7345C39.4327 50.7345 40.8586 50.7169 42.2845 50.7169C42.5486 50.7345 42.7246 50.8929 42.9183 51.0337C43.8513 51.7203 44.7667 52.4244 45.6997 53.111C46.3686 53.6039 46.3862 53.6039 46.9848 53.0054C47.953 52.0548 48.9036 51.0865 49.8542 50.1359C50.0479 49.9599 50.2063 49.7487 50.4527 49.6254C50.5408 49.5902 50.6464 49.5902 50.7344 49.6254C51.9315 50.6465 52.9877 51.8259 54.1144 52.9174C54.8361 53.6215 54.8361 53.6391 55.6635 53.0054C56.5437 52.354 57.4063 51.6851 58.2865 51.0337C58.4801 50.8929 58.6562 50.7169 58.9202 50.7169C59.9413 50.7345 60.9799 50.7345 62.0009 50.7345C65.0816 50.7521 67.4405 53.111 67.4581 56.2093C67.4581 59.8005 67.4581 63.3917 67.4757 66.9829C67.4757 67.4758 67.3525 67.6166 66.8596 67.6166C65.3104 67.5814 63.7437 67.599 62.1945 67.5814C61.9305 67.2821 62.0009 66.9125 62.0009 66.578C62.0009 64.5183 62.0009 62.4587 62.0009 60.399C62.0009 59.4308 61.6488 59.1843 60.6982 59.4132C60.2581 59.5188 60.3285 59.8533 60.3109 60.135C60.2933 62.089 60.3109 64.043 60.3109 65.9971C60.3109 66.2963 60.3109 66.6132 60.3109 66.9125C60.2933 67.1589 60.2933 67.4054 60.1173 67.5814C56.7197 67.5814 53.3222 67.599 49.9246 67.599C46.175 67.599 42.4254 67.5814 38.6757 67.6166C38.1476 67.6166 37.9716 67.511 37.9716 66.9301C38.0068 64.1839 37.9716 61.4552 37.9892 58.709C37.9892 58.2689 37.9012 58.1281 37.4258 58.0929C32.4087 57.8464 28.219 53.9912 27.5677 49.0445C27.286 46.7912 27.5148 44.5379 27.4444 42.2846C27.4268 41.9501 27.4444 41.6332 27.4444 41.2988C27.4444 40.2425 27.4444 40.2425 28.5007 40.1897C28.6591 40.0665 28.8527 40.0137 29.0464 40.0137C30.085 39.9961 31.1236 39.9961 32.1799 40.0137C32.3383 40.0137 32.532 40.0489 32.6904 40.1897Z" fill="#789FD3"/>
<path d="M14.7694 44.4323C15.3855 45.6646 15.9312 46.756 16.4769 47.8475C16.8818 48.6572 17.3043 49.4494 17.674 50.2592C17.85 50.6289 18.0613 50.7697 18.4662 50.7521C19.9801 50.7345 21.494 50.7345 23.008 50.7345C24.4339 50.7345 25.2965 51.5971 25.2965 53.0406C25.2965 57.1247 25.2965 61.2088 25.2965 65.2929C25.2965 66.7365 24.4515 67.5991 23.008 67.5991C17.498 67.5991 11.9879 67.5991 6.47791 67.5991C5.0872 67.5991 4.22461 66.7189 4.22461 65.3282C4.22461 61.2264 4.22461 57.1247 4.22461 53.0054C4.22461 51.5795 5.0872 50.7345 6.53072 50.7345C8.02706 50.7345 9.52339 50.7169 11.0021 50.7521C11.4422 50.7521 11.6711 50.6289 11.8647 50.2416C12.7977 48.3404 13.7483 46.4744 14.7694 44.4323Z" fill="#FEA50C"/>
<path d="M50.7343 49.6782C50.6463 49.6782 50.5583 49.6782 50.4879 49.6782C50.083 49.6782 49.8189 49.379 49.5196 49.1853C48.9739 48.8332 48.4282 48.4636 47.9001 48.0939C47.724 47.9706 47.4424 47.9002 47.46 47.5834C47.46 46.5271 47.4248 45.4885 47.4776 44.4323C47.4952 43.957 47.3192 43.7281 46.9143 43.5345C44.4849 42.3374 43.0062 40.3834 42.3725 37.778C42.2316 37.1442 42.1612 36.4929 42.0556 35.8592C42.0204 34.6797 41.8267 33.5002 42.2668 32.356C42.9182 30.6132 44.5025 29.5217 46.3509 29.4865C47.6008 29.4689 48.8507 29.5217 50.1006 29.4161C52.2835 29.2049 54.2023 28.3599 55.9099 27.0396C56.9837 26.2122 56.9837 26.2298 57.7583 27.3389C58.7969 28.8176 59.3602 30.4195 59.237 32.268C59.1666 33.465 59.2722 34.6797 59.1666 35.8768C58.9377 36.8274 58.9377 37.8132 58.5857 38.7462C57.7935 40.8587 56.4732 42.5134 54.4311 43.4993C53.9206 43.7457 53.727 44.0274 53.7622 44.5907C53.815 45.5941 53.7798 46.5975 53.7798 47.6186C53.7974 47.6714 53.7974 47.7242 53.7798 47.7418C52.8116 48.4636 51.861 49.2205 50.7343 49.6782Z" fill="#FAE0C9"/>
<path d="M59.1491 35.8592C58.9202 35.7007 59.0258 35.4543 59.0258 35.2606C59.0082 33.9932 58.9906 32.7081 59.0258 31.4406C59.061 29.557 58.0576 28.1311 57.0542 26.6875C56.8077 26.3531 56.6669 26.6699 56.5437 26.7755C55.4522 27.5853 54.3608 28.3951 53.0757 28.888C51.6674 29.4337 50.2063 29.6274 48.7099 29.6802C47.5481 29.7154 46.3862 29.5042 45.242 29.8034C43.376 30.2963 42.1613 31.9335 42.1437 33.8699C42.1261 34.5389 42.3021 35.2078 42.0205 35.8592C41.1931 34.6445 40.2072 33.5531 39.6615 32.1623C37.7427 27.3037 39.9608 22.0577 44.9955 20.0861C48.886 18.5721 52.9349 18.5721 56.7725 20.3325C62.1769 22.8323 63.8141 29.2929 60.3813 34.1692C59.994 34.7325 59.5716 35.2958 59.1491 35.8592Z" fill="#966947"/>
<path d="M47.4426 47.601C48.446 48.3052 49.4671 48.9917 50.4705 49.6959C49.203 50.9986 47.9179 52.2837 46.6504 53.5863C46.4216 53.8328 46.2103 53.7448 46.0167 53.5863C44.7668 52.6357 43.5169 51.6851 42.2847 50.7345C43.9922 49.6783 45.7174 48.6396 47.4426 47.601Z" fill="#5E86C9"/>
<path d="M50.7344 49.6782C51.7378 48.9741 52.7588 48.2875 53.7622 47.5834C55.4874 48.622 57.195 49.6606 58.9202 50.6993C57.6703 51.6499 56.438 52.6181 55.1882 53.5511C54.9945 53.7095 54.7833 53.78 54.5544 53.5511C53.2869 52.266 52.0019 50.9809 50.7344 49.6782Z" fill="#5E86C9"/>
<path d="M32.6903 40.1898C31.282 40.1898 29.8736 40.1898 28.4653 40.1898C28.4653 38.8343 28.4653 37.4788 28.4653 36.1233C28.4653 34.803 29.3631 33.8876 30.613 33.8876C31.8101 33.9052 32.6903 34.8206 32.6903 36.1233C32.6903 37.4788 32.6903 38.8343 32.6903 40.1898Z" fill="#FAE0C9"/>
<path d="M60.0821 67.5814C60.0821 64.9937 60.0997 62.4059 60.0645 59.8181C60.0645 59.29 60.2229 59.1492 60.7334 59.1492C62.1769 59.1668 62.1769 59.1492 62.1769 60.5927C62.1769 62.9164 62.1769 65.2401 62.1769 67.5638C61.4904 67.5814 60.7862 67.5814 60.0821 67.5814Z" fill="#5E86C9"/>
<path d="M18.9592 23.3428C17.903 23.3428 17.8854 23.3428 17.9382 22.3042C18.0438 19.47 19.1705 17.0934 21.1421 15.0866C22.9729 13.2206 22.1807 10.3688 19.6634 9.71741C17.9734 9.29491 16.2482 10.4392 15.8785 12.2876C15.7905 12.7101 15.6497 12.8509 15.2624 12.7981C15.1744 12.7805 15.0864 12.7981 14.9983 12.7981C13.502 12.7981 13.502 12.7981 13.9421 11.3018C14.5582 9.2245 16.4066 7.71056 18.5543 7.53452C20.7548 7.35849 22.8145 8.55555 23.7651 10.5976C24.6805 12.5164 24.3284 14.8577 22.7969 16.3893C21.547 17.6568 20.614 19.0827 20.2267 20.8255C20.1035 21.4064 19.9626 21.9873 20.0331 22.5859C20.1035 23.202 19.8746 23.4309 19.2761 23.3252C19.1881 23.3252 19.0824 23.3428 18.9592 23.3428Z" fill="#F5F5F5"/>
<path d="M19.0121 24.399C20.1564 24.4167 21.0894 25.3497 21.107 26.4939C21.107 27.6558 20.1388 28.624 18.9769 28.6064C17.8327 28.5888 16.8997 27.6558 16.8997 26.5115C16.8821 25.3497 17.8327 24.399 19.0121 24.399Z" fill="#F5F5F5"/>
<path d="M14.7341 60.223C12.4984 60.223 10.2627 60.2054 8.02702 60.2406C7.55172 60.2406 7.37568 60.1174 7.39328 59.6245C7.39328 58.1281 7.37568 58.1281 8.87201 58.1281C13.0617 58.1281 17.2515 58.1457 21.4412 58.1105C22.0045 58.1105 22.1982 58.2338 22.1806 58.8323C22.1454 60.223 22.1806 60.223 20.8075 60.223C18.7654 60.223 16.7586 60.223 14.7341 60.223Z" fill="#FEC205"/>
<path d="M14.7344 64.4479C12.4987 64.4479 10.263 64.4303 8.02733 64.4655C7.55203 64.4655 7.37599 64.3599 7.37599 63.8494C7.37599 62.353 7.35838 62.353 8.83711 62.353C13.0268 62.353 17.2166 62.3707 21.4063 62.3354C21.9696 62.3354 22.1633 62.4587 22.1457 63.0572C22.1105 64.4479 22.1457 64.4479 20.7726 64.4479C18.7657 64.4479 16.7589 64.4479 14.7344 64.4479Z" fill="#FEC205"/>
<path d="M15.7905 56.0157C13.9245 56.0157 12.0585 55.9981 10.1925 56.0333C9.66438 56.0333 9.45313 55.9277 9.47074 55.3467C9.50595 53.9032 9.47074 53.9032 10.9319 53.9032C14.4174 53.9032 17.903 53.9208 21.3886 53.8856C21.9343 53.8856 22.1632 53.9912 22.1456 54.5898C22.1103 55.9981 22.1456 55.9981 20.7196 55.9981C19.0825 56.0157 17.4453 56.0157 15.7905 56.0157Z" fill="#FEC205"/>
</svg>
