<svg width="72" height="72" viewBox="0 0 72 72" fill="none" xmlns="http://www.w3.org/2000/svg">
<g clip-path="url(#clip0_11456_174585)">
<path d="M56.5595 8.76829C57.6143 8.51414 58.6729 8.27868 59.7202 7.99649C60.1616 7.87689 60.5095 7.93295 60.8835 8.20019C61.8242 8.87294 62.7893 9.50833 63.7449 10.1568C63.6514 10.2783 63.5149 10.2932 63.3765 10.3287C59.2957 11.3547 55.2148 12.3862 51.134 13.4141C42.8788 15.4921 34.6255 17.5739 26.3685 19.6445C23.954 20.25 21.5339 20.8237 19.1157 21.4124C18.1357 21.4217 17.1707 21.319 16.2131 21.104C11.0999 19.9566 7.15001 17.3385 5.0778 12.3395C5.02543 12.2143 4.94689 12.1564 4.82345 12.1377C4.66822 11.5957 4.86647 11.3864 5.43127 11.2463C17.382 8.29176 29.3253 5.31107 41.2723 2.33598C44.072 1.63893 46.8699 0.938144 49.6696 0.239223C49.7818 0.211192 49.9015 0.207454 49.967 0.0897217C50.154 0.0897217 50.341 0.0897217 50.5281 0.0897217C51.1303 0.726973 51.942 1.06896 52.6265 1.59034C52.8247 1.74172 53.0192 1.89495 53.2156 2.04819C52.129 2.33225 51.0424 2.61817 49.9558 2.90222C36.4078 6.1408 22.858 9.38125 9.22596 12.6423C9.44852 12.9599 9.59627 13.1935 9.76459 13.4122C11.6068 15.7837 14.1241 17.0881 16.9425 17.8804C17.8028 18.1215 18.6519 18.4597 19.6057 18.2149C29.445 15.7033 39.288 13.2141 49.1291 10.7099C51.6109 10.0783 54.0834 9.41676 56.5595 8.76829Z" fill="#F5C71B"/>
<path d="M19.1157 21.4124C21.5339 20.8237 23.9559 20.25 26.3685 19.6445C34.6255 17.574 42.8788 15.4921 51.134 13.4141C55.2148 12.3862 59.2957 11.3547 63.3765 10.3287C63.5149 10.2932 63.6514 10.2783 63.7449 10.1568C63.975 10.9099 63.8366 11.6817 63.8029 12.4367C63.773 13.0889 63.7393 13.7411 63.7281 14.3933C63.6664 17.4749 63.6159 20.5565 63.5467 23.6362C63.4607 27.4635 63.3616 31.2889 63.268 35.1161C63.1745 38.9433 63.0829 42.7687 62.9875 46.596C62.9015 50.0027 62.7837 53.4076 62.7425 56.8144C62.7332 57.603 62.174 57.5283 61.7457 57.7189C61.5231 57.5955 61.295 57.4778 61.078 57.347C55.8526 54.2056 50.298 51.7575 44.6219 49.5673C44.5452 49.2776 44.6724 49.0197 44.7416 48.7506C46.0152 43.8264 45.5963 39.0742 43.2117 34.5536C39.6246 27.7569 32.1175 24.3912 24.9527 26.3142C22.8281 26.8842 20.9224 27.897 19.1176 29.123C19.1157 26.5534 19.1157 23.982 19.1157 21.4124Z" fill="#FEE162"/>
<path d="M19.1156 21.4124C19.1156 23.9819 19.1156 26.5534 19.1156 29.1229C18.1207 30.0031 17.1182 30.8684 16.2336 31.8719C10.6286 38.2276 9.9852 48.2386 14.7543 55.2409C18.4985 60.7388 24.9096 63.3999 31.2198 62.0413C35.8878 61.0359 39.4413 58.3879 42.1063 54.4934C42.4187 54.0374 42.5963 53.9496 43.0209 54.3719C45.5046 56.8461 48.1678 59.1186 50.9132 61.2957C50.2998 61.3854 49.7612 61.7554 49.1272 61.7647C49.0094 61.6227 48.9084 61.4583 48.7681 61.3424C46.8455 59.7614 44.9846 58.1132 43.2229 56.3528C42.5589 55.6894 42.5702 55.7006 42.0091 56.4911C40.2623 58.9597 38.1172 60.9892 35.4035 62.3702C32.8132 63.6896 30.0864 64.31 27.1539 64.1624C24.7039 64.039 22.4484 63.3812 20.3238 62.1964C20.1461 62.0974 19.9778 61.875 19.7721 61.9909C19.5626 62.1086 19.6692 62.374 19.6692 62.5721C19.6618 65.5116 19.6618 68.4493 19.6599 71.3889C15.4631 72.3588 11.5094 71.9346 7.93356 69.352C7.81948 69.2697 7.71662 69.1744 7.59692 69.1034C6.18116 68.2606 5.77719 66.9973 5.7828 65.3958C5.79776 61.3349 5.68929 57.2741 5.61635 53.2151C5.53406 48.6665 5.43307 44.1161 5.33956 39.5675C5.24418 34.9255 5.15067 30.2834 5.05528 25.6395C4.96925 21.3937 4.88135 17.1478 4.79532 12.902C4.78971 12.646 4.81215 12.39 4.82151 12.1358C4.94494 12.1564 5.02349 12.2143 5.07586 12.3376C7.14807 17.3385 11.098 19.9547 16.2112 21.1022C17.1725 21.3189 18.1357 21.4217 19.1156 21.4124Z" fill="#F5D04F"/>
<path d="M50.9155 61.2975C48.17 59.1186 45.5068 56.848 43.0231 54.3737C42.5986 53.9514 42.4209 54.0392 42.1086 54.4952C39.4435 58.3897 35.8901 61.0378 31.222 62.0432C24.9118 63.4018 18.5007 60.7406 14.7565 55.2427C9.98556 48.2386 10.6308 38.2294 16.2359 31.8737C17.1205 30.8702 18.1229 30.005 19.1179 29.1248C20.9226 27.8989 22.8265 26.886 24.953 26.316C32.1178 24.3931 39.6249 27.7568 43.212 34.5554C45.5965 39.076 46.0155 43.8283 44.7419 48.7525C44.6727 49.0216 44.5455 49.2795 44.6222 49.5691C44.1808 49.9728 44.2219 50.5914 43.9526 51.0716C43.7375 51.4547 43.7843 51.6622 44.25 51.8509C48.4056 53.5291 52.4827 55.3791 56.4046 57.5544C58.8957 58.9354 61.3008 60.4323 63.2964 62.5141C64.5345 63.8036 65.1909 65.1584 64.2895 66.9001C62.7054 67.3598 61.2073 66.9207 59.7355 66.4142C56.7581 65.392 54.1753 63.6559 51.6523 61.8245C51.4073 61.6451 51.1605 61.4732 50.9155 61.2975ZM16.7408 41.4362C16.4304 42.5014 16.5968 43.5741 16.7539 44.6281C17.8667 52.1742 25.63 57.1414 32.9594 54.9792C35.7947 54.142 38.1418 52.576 39.7596 50.0382C41.6597 47.3229 42.3648 44.2917 41.7738 41.0681C40.8424 36.0037 37.8688 32.5091 32.9426 30.9842C27.8986 29.4219 23.4288 30.6777 19.7949 34.533C17.9845 36.4504 16.9671 38.7845 16.7408 41.4362Z" fill="#51518D"/>
<path d="M56.5597 8.76827C54.0835 9.41673 51.6092 10.0783 49.1292 10.7099C39.2881 13.2141 29.4451 15.7033 19.6058 18.2149C18.652 18.4578 17.8029 18.1215 16.9426 17.8804C14.1242 17.088 11.605 15.7836 9.7647 13.4122C9.59638 13.1954 9.44863 12.9599 9.22607 12.6422C22.8582 9.38123 36.4079 6.14078 49.9559 2.90033C50.7937 4.72051 52.0019 6.21553 53.7543 7.23588C54.3958 7.80585 55.1981 8.06001 55.9705 8.37396C56.1875 8.46179 56.5148 8.41507 56.5597 8.76827Z" fill="#FBF3F4"/>
<path d="M19.6618 71.3889C19.6637 68.4493 19.6637 65.5116 19.6712 62.572C19.6712 62.3739 19.5646 62.1086 19.774 61.9908C19.9798 61.8768 20.1481 62.0974 20.3257 62.1964C22.4485 63.3812 24.7058 64.0371 27.1558 64.1623C30.0883 64.31 32.8151 63.6896 35.4054 62.3702C38.1191 60.9892 40.2642 58.9597 42.011 56.491C42.5702 55.7006 42.5609 55.6893 43.2248 56.3528C44.9847 58.1131 46.8474 59.7614 48.77 61.3424C48.9103 61.4582 49.0094 61.6227 49.1291 61.7647C47.1635 62.5552 45.1193 63.114 43.1107 63.7718C35.2988 66.3264 27.4794 68.853 19.6618 71.3889Z" fill="#FEE162"/>
<path d="M64.2876 66.8982C65.189 65.1566 64.5326 63.8017 63.2945 62.5122C61.2971 60.4304 58.892 58.9317 56.4027 57.5525C52.4808 55.3773 48.4037 53.5272 44.2481 51.849C43.7805 51.6603 43.7338 51.4529 43.9507 51.0698C44.2219 50.5895 44.1789 49.9709 44.6203 49.5673C50.2964 51.7575 55.851 54.2056 61.0764 57.347C61.2952 57.4778 61.5215 57.5955 61.7441 57.7188C63.042 58.6644 64.3979 59.5372 65.5425 60.6808C66.0736 61.2116 66.5711 61.7647 66.9396 62.4225C67.7269 63.8335 67.4726 65.0743 66.1877 66.0573C65.6229 66.4871 64.9945 66.7824 64.2876 66.8982Z" fill="#3F3F7A"/>
<path d="M53.754 7.2359C52.0016 6.21555 50.7934 4.72054 49.9556 2.90035C51.0422 2.6163 52.1288 2.33038 53.2154 2.04633C53.5445 2.9695 53.4286 3.94873 53.5745 4.8962C53.6923 5.668 53.6979 6.45663 53.754 7.2359Z" fill="#F5D151"/>
<path d="M39.7592 50.0382C38.1414 52.5779 35.7943 54.1439 32.959 54.9793C25.6315 57.1414 17.8663 52.1742 16.7535 44.6281C16.5983 43.5741 16.4318 42.5015 16.7404 41.4363C17.5016 40.5542 18.2684 39.6647 19.1904 38.9601C22.252 36.6167 25.6894 35.7328 29.4991 36.527C34.1522 37.4969 37.3092 40.2552 39.0316 44.6487C39.7068 46.3736 39.9331 48.1844 39.7592 50.0382Z" fill="#A0ECFE"/>
<path d="M39.7595 50.0382C39.9334 48.1863 39.709 46.3754 39.032 44.6506C37.3095 40.2552 34.1525 37.4988 29.4994 36.5289C25.6898 35.7347 22.2523 36.6167 19.1907 38.962C18.2687 39.6684 17.5019 40.558 16.7407 41.4381C16.967 38.7864 17.9844 36.4523 19.7929 34.533C23.4268 30.6778 27.8966 29.4238 32.9406 30.9842C37.8668 32.5092 40.8405 36.0038 41.7718 41.0681C42.3647 44.2899 41.6578 47.3229 39.7595 50.0382Z" fill="#6FDFFD"/>
</g>
<defs>
<clipPath id="clip0_11456_174585">
<rect width="72" height="72" fill="white"/>
</clipPath>
</defs>
</svg>
