<svg width="72" height="72" viewBox="0 0 72 72" fill="none" xmlns="http://www.w3.org/2000/svg">
<g clip-path="url(#clip0_11453_174561)">
<path d="M0.0131011 31.9234C0.342338 31.3592 0.828711 31.1905 1.47596 31.1961C4.83942 31.2224 8.20287 31.2074 11.5682 31.2092C11.7309 31.2092 11.8974 31.2017 12.0583 31.2186C12.6457 31.2861 13.0853 31.749 13.0404 32.2963C12.9936 32.883 12.6588 33.2504 12.0695 33.316C11.6767 33.3591 11.2764 33.331 10.8798 33.331C7.75017 33.331 4.61868 33.316 1.48906 33.3422C0.841805 33.3478 0.355433 33.1698 0.0112305 32.6243C0.0131011 32.3919 0.0131011 32.1576 0.0131011 31.9234Z" fill="#78C1A4"/>
<path d="M0.0131836 39.3738C0.357386 38.8265 0.843759 38.6503 1.48914 38.6559C4.85259 38.6821 8.21605 38.6671 11.5776 38.669C11.7404 38.669 11.9069 38.6596 12.0677 38.6784C12.6495 38.7496 13.0873 39.2238 13.0405 39.7692C12.99 40.354 12.6533 40.7345 12.0621 40.7757C11.4336 40.8189 10.8013 40.7926 10.1709 40.7926C7.2751 40.7926 4.37931 40.7776 1.48353 40.8039C0.836276 40.8095 0.349903 40.6333 0.0131836 40.0766C0.0131836 39.8423 0.0131836 39.608 0.0131836 39.3738Z" fill="#78C1A4"/>
<path d="M44.357 62.3847C42.4396 62.2723 40.5502 61.978 38.6908 61.4925C38.2437 61.3763 37.791 61.2789 37.342 61.1739C35.7501 60.4692 34.1582 59.7644 32.5662 59.0616C31.4008 58.2106 30.1437 57.4946 29.0213 56.5762C24.0828 52.5277 20.9064 47.3883 19.6849 41.1206C18.5026 35.0478 19.3182 29.2093 22.2084 23.7082C24.4794 19.3842 27.7268 15.971 31.8816 13.4182C32.1173 13.2739 32.3362 13.1033 32.5625 12.944C34.1544 12.2393 35.7482 11.5327 37.3402 10.8279C39.5345 10.26 41.7512 9.81578 44.011 9.59648C44.17 9.58149 44.3327 9.60585 44.4955 9.61148C44.5198 9.78016 44.6264 9.83827 44.7854 9.85139C46.1809 9.9676 47.5278 10.2975 48.8747 10.6705C52.8424 11.7669 56.3068 13.7781 59.3242 16.5296C62.076 19.0393 64.1936 22.0326 65.6882 25.4719C67.1024 28.7239 67.8189 32.1276 67.8881 35.6476C67.9405 38.2585 67.5439 40.8338 66.8181 43.3642C65.6508 47.4427 63.5856 51.0001 60.7197 54.0853C58.1962 56.8011 55.2032 58.8854 51.778 60.3155C49.84 61.1252 47.8383 61.71 45.7563 62.0417C45.3017 62.1148 44.7293 61.9068 44.357 62.3847ZM44.9033 15.7817C43.7566 15.7649 42.6304 15.926 41.508 16.1491C31.2306 18.1958 24.0847 27.8748 25.4465 38.5472C26.2191 44.5956 29.2178 49.3845 34.2611 52.822C37.4599 55.0018 41.0142 56.1545 44.9014 56.2164C46.4223 56.3419 47.9356 56.2332 49.4172 55.9183C53.9592 54.9512 57.8165 52.7882 60.8413 49.2139C64.9119 44.4044 66.472 38.8452 65.4768 32.6599C64.635 27.4231 62.0329 23.1272 57.8015 19.8977C54.0041 16.9963 49.7184 15.5399 44.9033 15.7817Z" fill="#95D5A4"/>
<path d="M44.3574 62.3847C44.7297 61.9068 45.3021 62.1148 45.7604 62.0417C47.8425 61.71 49.8441 61.1233 51.7821 60.3155C55.2073 58.8854 58.2003 56.8012 60.7239 54.0853C63.5897 51.0001 65.6549 47.4446 66.8222 43.3642C67.5462 40.8338 67.9446 38.2585 67.8922 35.6476C67.8212 32.1276 67.1047 28.7239 65.6924 25.4719C64.1977 22.0344 62.0782 19.0393 59.3283 16.5296C56.311 13.7781 52.8465 11.7669 48.8788 10.6705C47.5301 10.2975 46.1832 9.9676 44.7895 9.85139C44.6305 9.83827 44.5239 9.78017 44.4996 9.61148C51.0581 9.4128 56.9376 11.3171 62.0408 15.4481C67.2244 19.6466 70.4588 25.0765 71.5064 31.6722C72.7391 39.4412 70.9078 46.4999 65.9542 52.6402C61.9454 57.609 56.7468 60.696 50.4857 61.9349C48.4654 62.3341 46.4189 62.5141 44.3574 62.3847Z" fill="#78C2A4"/>
<path d="M37.3421 10.8261C35.7502 11.5308 34.1564 12.2374 32.5645 12.9422C27.1695 12.9384 21.7726 12.9366 16.3776 12.9328C16.1681 12.9328 15.9548 12.9497 15.7472 12.9216C15.1897 12.8485 14.752 12.3405 14.767 11.812C14.7838 11.2722 15.229 10.8261 15.8295 10.8167C17.0679 10.798 18.3063 10.8073 19.5428 10.8073C25.4765 10.8148 31.4103 10.8205 37.3421 10.8261Z" fill="#78C1A3"/>
<path d="M32.5665 59.0597C34.1585 59.7644 35.7504 60.4692 37.3423 61.172C30.2189 61.1777 23.0935 61.1852 15.97 61.1852C15.2666 61.1852 14.7859 60.7653 14.769 60.1843C14.7503 59.5489 15.2723 59.0709 16.028 59.0672C18.6918 59.0597 21.3538 59.0653 24.0176 59.0634C26.8666 59.0653 29.7175 59.0634 32.5665 59.0597Z" fill="#78C1A3"/>
<path d="M11.1699 20.7937C9.39652 20.7937 7.62126 20.7974 5.84787 20.7918C4.97053 20.7899 4.50848 20.4151 4.49538 19.7216C4.48229 18.9925 4.95183 18.597 5.86471 18.5951C9.41336 18.5913 12.9601 18.5913 16.5088 18.5951C17.3431 18.597 17.8706 19.0187 17.8875 19.6672C17.9062 20.342 17.3599 20.7899 16.492 20.7918C14.7186 20.7974 12.9433 20.7937 11.1699 20.7937Z" fill="#7EC4A8"/>
<path d="M11.1659 51.2063C12.9393 51.2063 14.7127 51.2026 16.4861 51.2082C17.3578 51.21 17.9022 51.6524 17.8872 52.3271C17.8723 52.9775 17.3447 53.4049 16.5142 53.4049C12.9674 53.4086 9.41873 53.4086 5.87195 53.4049C4.96468 53.403 4.4914 53.0075 4.49514 52.2803C4.49888 51.5962 4.97216 51.21 5.84389 51.2082C7.61915 51.2026 9.39254 51.2063 11.1659 51.2063Z" fill="#7EC4A8"/>
<path d="M14.189 28.0866C13.5361 28.0866 12.8833 28.0997 12.2304 28.0847C11.3587 28.0641 10.921 27.6724 10.9359 26.9583C10.9509 26.2798 11.3924 25.903 12.2192 25.8974C13.5474 25.888 14.8774 25.888 16.2056 25.8974C16.9576 25.903 17.5019 26.3716 17.5094 26.9826C17.5169 27.588 16.9875 28.0566 16.2149 28.081C15.5415 28.1054 14.8662 28.0866 14.189 28.0866Z" fill="#7AC3A5"/>
<path d="M14.1798 46.1044C13.5045 46.1044 12.8273 46.1157 12.152 46.1007C11.385 46.0838 10.9529 45.694 10.9379 45.0398C10.9229 44.3726 11.3251 43.9396 12.0921 43.9227C13.4895 43.8927 14.8887 43.8946 16.288 43.9227C17.0119 43.9377 17.5189 44.4344 17.5114 45.0155C17.5039 45.6246 16.9577 46.0894 16.2076 46.1026C15.5304 46.1138 14.8551 46.1044 14.1798 46.1044Z" fill="#7AC3A5"/>
<path d="M44.9034 56.2183C41.0162 56.1545 37.4619 55.0037 34.2631 52.8239C29.2179 49.3864 26.2211 44.5975 25.4485 38.5491C24.0848 27.8767 31.2307 18.1959 41.51 16.151C42.6324 15.9279 43.7586 15.7668 44.9053 15.7836C44.939 15.986 45.083 16.0123 45.2589 16.0442C49.8962 16.8445 53.7779 19.0018 56.9281 22.5162C58.9409 24.7616 60.3907 27.3125 61.2325 30.2009C61.7282 31.9009 62.136 33.6234 61.9751 35.4227C61.4139 34.9091 59.5395 34.7011 58.8867 35.0778C58.1833 35.4846 58.1814 36.5154 58.8848 36.924C59.5376 37.3045 61.4102 37.0965 61.9732 36.581C61.992 36.8378 62.0368 37.0946 62.0238 37.3495C61.8872 39.9436 61.2399 42.4139 60.1082 44.7418C58.9465 47.1297 57.407 49.2308 55.4128 51.0226C52.6536 53.4986 49.4959 55.1087 45.8818 55.8752C45.5656 55.939 45.0868 55.7253 44.9034 56.2183ZM44.4451 31.4529C44.4451 32.8811 44.4376 34.3094 44.447 35.7376C44.4526 36.6972 44.8118 37.0702 45.7508 37.0777C47.1538 37.0909 48.555 37.0909 49.958 37.0777C50.7792 37.0702 51.2338 36.671 51.2356 36C51.2375 35.3271 50.7867 34.9298 49.9636 34.9185C49.0526 34.9054 48.1397 34.8829 47.2305 34.9279C46.703 34.9541 46.5665 34.7967 46.5739 34.27C46.6039 31.929 46.5908 29.5861 46.5852 27.2451C46.5833 26.4054 46.1437 25.8862 45.4833 25.9087C44.8436 25.9312 44.4545 26.4129 44.4507 27.2357C44.4395 28.6433 44.447 30.0472 44.4451 31.4529ZM30.6939 37.1021C31.0755 37.0852 31.429 37.104 31.7695 37.044C32.3494 36.9428 32.6786 36.5529 32.6674 35.9719C32.6562 35.4246 32.3363 35.0385 31.7863 34.9579C31.1204 34.8604 30.4395 34.8529 29.7754 34.9616C29.231 35.0497 28.9242 35.4283 28.9186 35.9906C28.9149 36.5529 29.2179 36.9165 29.7585 37.0327C30.0728 37.1002 30.4039 37.0834 30.6939 37.1021ZM34.4296 23.9182C34.1022 23.9519 33.7636 24.13 33.5691 24.5236C33.3596 24.9472 33.4232 25.3558 33.7318 25.6969C34.1097 26.113 34.5044 26.5141 34.9178 26.8927C35.4023 27.335 36.0084 27.32 36.4275 26.8964C36.8558 26.4635 36.8689 25.8881 36.42 25.3857C36.0608 24.9846 35.668 24.6154 35.2807 24.2424C35.075 24.0419 34.8243 23.92 34.4296 23.9182ZM34.5923 48.0837C34.6728 48.0612 34.8018 48.0575 34.8935 47.9975C35.6081 47.5383 36.2217 46.961 36.6519 46.23C36.912 45.7877 36.7193 45.351 36.3489 45.0398C35.9467 44.7006 35.4641 44.6593 35.0619 45.0005C34.5643 45.4222 34.1078 45.8983 33.6738 46.3875C33.3858 46.7117 33.3745 47.1203 33.584 47.5046C33.7898 47.885 34.1265 48.0706 34.5923 48.0837ZM55.3511 44.783C54.9021 44.8187 54.5617 44.9986 54.384 45.4016C54.2119 45.7933 54.2324 46.1982 54.5224 46.5205C54.9283 46.9704 55.353 47.409 55.8094 47.8082C56.2752 48.2149 56.8645 48.1718 57.2536 47.7426C57.6539 47.3021 57.6894 46.7942 57.3116 46.3444C56.9056 45.8645 56.4342 45.4409 55.9796 45.0023C55.8038 44.8337 55.5625 44.8055 55.3511 44.783ZM55.3829 27.217C55.4615 27.2001 55.5905 27.202 55.6859 27.1439C56.4342 26.6903 57.0702 26.0961 57.4837 25.3333C57.7081 24.9172 57.5379 24.4542 57.1395 24.1487C56.7148 23.8244 56.249 23.8151 55.8524 24.1581C55.3754 24.5685 54.9321 25.0221 54.513 25.4926C54.2268 25.8131 54.2137 26.2217 54.3933 26.6134C54.5766 27.0145 54.9208 27.1851 55.3829 27.217ZM46.5739 50.7865C46.5739 50.4604 46.6076 50.1286 46.5665 49.8081C46.4916 49.2289 45.9978 48.8222 45.4459 48.8803C44.8623 48.9403 44.4956 49.2645 44.4694 49.8718C44.4451 50.4547 44.4414 51.0395 44.4694 51.6206C44.4975 52.2185 44.8417 52.5615 45.4384 52.6102C46.0127 52.6571 46.4841 52.2822 46.5646 51.6955C46.6057 51.3975 46.5721 51.0901 46.5739 50.7865ZM44.462 21.2079C44.462 21.5115 44.447 21.8152 44.4657 22.1169C44.5012 22.7223 44.8473 23.056 45.4328 23.1178C45.9922 23.1778 46.5103 22.7823 46.559 22.2032C46.6113 21.5771 46.6113 20.9417 46.5608 20.3157C46.5141 19.7253 46.024 19.3486 45.4497 19.3898C44.8511 19.4329 44.5162 19.7703 44.4676 20.3682C44.4451 20.6456 44.4638 20.9267 44.462 21.2079Z" fill="#F3FAFE"/>
<path d="M61.9731 35.4209C62.134 33.6215 61.7262 31.899 61.2305 30.199C60.3887 27.3088 58.9389 24.7597 56.9261 22.5143C53.7778 19 49.8961 16.8426 45.2569 16.0423C45.0792 16.0123 44.937 15.9861 44.9033 15.7818C49.7165 15.54 54.0041 16.9963 57.8053 19.8978C62.0367 23.1291 64.6388 27.425 65.4806 32.66C66.474 38.8452 64.9157 44.4063 60.8451 49.214C57.8203 52.7883 53.9629 54.9512 49.421 55.9184C47.9375 56.2333 46.4242 56.342 44.9052 56.2164C45.0885 55.7234 45.5674 55.9371 45.8798 55.8715C49.4958 55.1049 52.6535 53.4949 55.4108 51.0189C57.405 49.229 58.9464 47.126 60.1062 44.7381C61.238 42.4121 61.8852 39.9398 62.0218 37.3458C62.0349 37.0909 61.99 36.8341 61.9713 36.5773C62.1508 36.1931 62.1508 35.807 61.9731 35.4209Z" fill="#D9F0F3"/>
<path d="M44.4451 31.4529C44.4451 30.0472 44.4394 28.6433 44.4469 27.2376C44.4525 26.4166 44.8398 25.933 45.4795 25.9106C46.1417 25.8881 46.5795 26.4072 46.5813 27.2469C46.587 29.588 46.6001 31.9309 46.5701 34.2719C46.5626 34.7986 46.6992 34.956 47.2267 34.9298C48.1359 34.8848 49.0488 34.9073 49.9598 34.9204C50.7829 34.9316 51.2337 35.329 51.2318 36.0019C51.2299 36.671 50.7773 37.0721 49.9542 37.0796C48.5512 37.0927 47.15 37.0927 45.747 37.0796C44.808 37.0702 44.4507 36.6991 44.4432 35.7395C44.4394 34.3094 44.4451 32.8811 44.4451 31.4529Z" fill="#2F5169"/>
<path d="M30.6938 37.1021C30.402 37.0834 30.0709 37.1002 29.7585 37.0328C29.2178 36.9166 28.9129 36.5529 28.9185 35.9906C28.9223 35.4283 29.2309 35.0516 29.7753 34.9616C30.4394 34.8529 31.1203 34.8604 31.7863 34.9579C32.3362 35.0385 32.658 35.4246 32.6673 35.9719C32.6786 36.5529 32.3493 36.9428 31.7694 37.044C31.429 37.1059 31.0754 37.0852 30.6938 37.1021Z" fill="#3E6482"/>
<path d="M61.9734 35.4208C62.1511 35.8069 62.1511 36.193 61.9715 36.5791C61.4084 37.0946 59.5359 37.3008 58.883 36.9221C58.1797 36.5135 58.1815 35.4827 58.8849 35.0759C59.5378 34.6992 61.4122 34.9073 61.9734 35.4208Z" fill="#3E6482"/>
<path d="M34.4296 23.9182C34.8243 23.92 35.075 24.0419 35.2826 24.2405C35.6698 24.6135 36.0627 24.9846 36.4218 25.3839C36.8708 25.8862 36.8577 26.4616 36.4293 26.8946C36.0103 27.3182 35.4042 27.3332 34.9197 26.8908C34.5044 26.5141 34.1097 26.1111 33.7337 25.695C33.4232 25.3539 33.3614 24.9453 33.5709 24.5217C33.7636 24.1318 34.1022 23.9538 34.4296 23.9182Z" fill="#3C6280"/>
<path d="M34.5923 48.0838C34.1246 48.0688 33.7898 47.8832 33.5821 47.5027C33.3726 47.1166 33.3838 46.7099 33.6719 46.3856C34.1059 45.8983 34.5623 45.4203 35.0599 44.9986C35.4621 44.6594 35.9448 44.7006 36.347 45.038C36.7173 45.3491 36.9081 45.7858 36.65 46.2282C36.2216 46.9592 35.6062 47.5365 34.8916 47.9957C34.8018 48.0575 34.6727 48.0631 34.5923 48.0838Z" fill="#3C6280"/>
<path d="M55.3513 44.783C55.5645 44.8055 55.804 44.8336 55.9798 45.0023C56.4325 45.4409 56.9058 45.8645 57.3117 46.3443C57.6915 46.7942 57.6541 47.3002 57.2537 47.7426C56.8628 48.1718 56.2754 48.2149 55.8096 47.8082C55.3531 47.4108 54.9285 46.9722 54.5226 46.5205C54.2326 46.1981 54.212 45.7933 54.3841 45.4015C54.56 44.9986 54.9023 44.8186 55.3513 44.783Z" fill="#3B6280"/>
<path d="M55.3828 27.217C54.9207 27.1832 54.5747 27.0127 54.3913 26.6116C54.2118 26.2198 54.2249 25.8131 54.5111 25.4907C54.9301 25.0203 55.3734 24.5686 55.8505 24.1562C56.247 23.8132 56.7128 23.8226 57.1375 24.1468C57.5378 24.4524 57.708 24.9153 57.4817 25.3314C57.0683 26.0961 56.4341 26.6903 55.684 27.142C55.5923 27.202 55.4614 27.2001 55.3828 27.217Z" fill="#3A6180"/>
<path d="M46.572 50.7865C46.572 51.0901 46.6057 51.3975 46.5645 51.6956C46.4841 52.2822 46.0127 52.6571 45.4384 52.6102C44.8398 52.5615 44.4974 52.2166 44.4694 51.6206C44.4413 51.0395 44.4451 50.4529 44.4694 49.8718C44.4956 49.2646 44.8622 48.9403 45.4459 48.8803C45.9977 48.8241 46.4916 49.229 46.5664 49.8081C46.6075 50.1286 46.5739 50.4604 46.572 50.7865Z" fill="#39607E"/>
<path d="M44.4638 21.2079C44.4638 20.9286 44.4451 20.6456 44.4676 20.3682C44.5162 19.7703 44.8529 19.4329 45.4497 19.3898C46.024 19.3486 46.5141 19.7253 46.5609 20.3157C46.6114 20.9417 46.6132 21.5771 46.559 22.2031C46.5104 22.7823 45.9903 23.1778 45.4329 23.1178C44.8473 23.056 44.5013 22.7223 44.4657 22.1169C44.4489 21.8152 44.462 21.5096 44.4638 21.2079Z" fill="#39607E"/>
</g>
<defs>
<clipPath id="clip0_11453_174561">
<rect width="72" height="72" fill="white"/>
</clipPath>
</defs>
</svg>
