<svg width="19" height="18" viewBox="0 0 19 18" fill="none" xmlns="http://www.w3.org/2000/svg">
<path d="M6.64787 0H1.50801C0.756414 0 0.14502 0.611397 0.14502 1.363V6.50288C0.14502 7.25449 0.756414 7.86589 1.50801 7.86589H6.64787C7.39947 7.86589 8.01086 7.25449 8.01086 6.50288V1.363C8.01074 0.611397 7.39947 0 6.64787 0Z" fill="#777777"/>
<path d="M16.745 0H11.6052C10.8536 0 10.2422 0.611397 10.2422 1.363V6.50288C10.2422 7.25449 10.8536 7.86589 11.6052 7.86589H16.745C17.4966 7.86589 18.108 7.25449 18.108 6.50288V1.363C18.108 0.611397 17.4966 0 16.745 0Z" fill="#777777"/>
<path d="M6.64787 10.0957H1.50801C0.756414 10.0957 0.14502 10.707 0.14502 11.4586V16.5985C0.14502 17.3501 0.756414 17.9615 1.50801 17.9615H6.64787C7.39947 17.9615 8.01086 17.3501 8.01086 16.5985V11.4586C8.01074 10.707 7.39947 10.0957 6.64787 10.0957Z" fill="#777777"/>
<path d="M16.745 10.0957H11.6052C10.8536 10.0957 10.2422 10.7071 10.2422 11.4587V16.5986C10.2422 17.3502 10.8536 17.9616 11.6052 17.9616H16.745C17.4966 17.9615 18.108 17.3501 18.108 16.5985V11.4586C18.108 10.707 17.4966 10.0957 16.745 10.0957Z" fill="#777777"/>
</svg>
