<svg width="16" height="14" viewBox="0 0 16 14" fill="none" xmlns="http://www.w3.org/2000/svg">
<path d="M10.0007 3.22826C9.63265 3.22826 9.33398 2.92107 9.33398 2.54256V1.51399H6.66732V2.54256C6.66732 2.92107 6.36865 3.22826 6.00065 3.22826C5.63265 3.22826 5.33398 2.92107 5.33398 2.54256V1.51399C5.33398 0.757658 5.93198 0.142578 6.66732 0.142578H9.33398C10.0693 0.142578 10.6673 0.757658 10.6673 1.51399V2.54256C10.6673 2.92107 10.3687 3.22826 10.0007 3.22826Z" fill="#777777"/>
<path d="M8.47333 9.3185C8.35333 9.3665 8.18 9.40078 8 9.40078C7.82 9.40078 7.64667 9.36649 7.48667 9.30478L0 6.74023V11.9722C0 13.0145 0.82 13.8579 1.83333 13.8579H14.1667C15.18 13.8579 16 13.0145 16 11.9722V6.74023L8.47333 9.3185Z" fill="#777777"/>
<path d="M16 4.08296V5.65323L8.16 8.34121C8.10667 8.36178 8.05333 8.36864 8 8.36864C7.94667 8.36864 7.89333 8.36178 7.84 8.34121L0 5.65323V4.08296C0 3.04069 0.82 2.19727 1.83333 2.19727H14.1667C15.18 2.19727 16 3.04069 16 4.08296Z" fill="#777777"/>
</svg>
