<svg width="16" height="16" viewBox="0 0 16 16" fill="none" xmlns="http://www.w3.org/2000/svg">
<path d="M8.32432 15.0995C8.04993 15.0995 7.77557 15.0995 7.50118 15.0995C7.46589 15.0917 7.43088 15.0793 7.39526 15.0769C6.53322 15.0201 5.70644 14.8139 4.93326 14.4318C2.77889 13.3673 1.46038 11.6515 0.999422 9.28399C0.947267 9.01607 0.924852 8.74235 0.888672 8.47132C0.888672 8.19632 0.888672 7.92127 0.888672 7.64626C0.896659 7.60674 0.909173 7.56756 0.911933 7.52767C0.980319 6.54512 1.23428 5.61124 1.71497 4.75437C3.00863 2.44833 4.98125 1.18967 7.61767 1.03023C9.00188 0.946502 10.3094 1.27904 11.4916 2.01023C13.6231 3.32856 14.7762 5.25657 14.9259 7.7629C15.0018 9.03296 14.7249 10.2439 14.1123 11.3605C13.0229 13.3463 11.3606 14.5599 9.13663 14.9884C8.86871 15.04 8.59524 15.0631 8.32432 15.0995ZM5.90733 8.05315C5.90733 8.70811 5.90571 9.36306 5.90788 10.018C5.90936 10.469 6.27664 10.7 6.67846 10.4994C7.98132 9.84899 9.28263 9.19547 10.5841 8.54236C10.7853 8.4414 10.9248 8.29022 10.9208 8.05186C10.917 7.82161 10.7848 7.67652 10.5843 7.57649C9.28554 6.92835 7.98868 6.27638 6.69027 5.62759C6.27204 5.41863 5.90847 5.64656 5.90763 6.11573C5.90645 6.76153 5.90733 7.40734 5.90733 8.05315Z" fill="#333333"/>
</svg>
