<svg width="16" height="15" viewBox="0 0 16 15" fill="none" xmlns="http://www.w3.org/2000/svg">
<path d="M12.3326 6.29238C12.3033 6.32543 12.2592 6.36791 12.22 6.40568C9.61075 8.92649 7.00147 11.4379 4.39708 13.954C4.2649 14.0814 4.12293 14.157 3.9418 14.1994C2.81584 14.4496 1.69478 14.7045 0.56882 14.9595C0.157601 15.0539 -0.0724865 14.8414 0.0205274 14.4496C0.289778 13.3356 0.559029 12.2262 0.838071 11.1121C0.867444 10.9988 0.93598 10.8808 1.0241 10.7959C3.65297 8.25144 6.29163 5.71175 8.92539 3.17205C8.95966 3.139 8.99393 3.11068 9.0184 3.0918C10.1248 4.16338 11.2263 5.22552 12.3326 6.29238Z" fill="#4086FF"/>
<path d="M13.4675 5.16867C12.3709 4.11125 11.2743 3.04911 10.1875 2.00113C10.7407 1.45354 11.289 0.877622 11.8813 0.353632C12.4247 -0.132593 13.35 -0.10899 13.9032 0.372514C14.3389 0.759606 14.7599 1.16558 15.1613 1.58572C15.6949 2.14747 15.6998 3.00663 15.1564 3.56838C14.6081 4.1207 14.0304 4.63524 13.4675 5.16867Z" fill="#4086FF"/>
</svg>
