<svg width="16" height="16" viewBox="0 0 16 16" fill="none" xmlns="http://www.w3.org/2000/svg">
<g clip-path="url(#clip0_9416_90582)">
<path d="M0.00292969 8.65595C0.00292969 8.21862 0.00292969 7.78128 0.00292969 7.34394C0.0447891 7.33113 0.0322938 7.2949 0.0351052 7.26647C0.0688427 6.94065 0.118824 6.61765 0.186299 6.29683C0.861986 3.09365 3.57941 0.551163 6.81759 0.0897723C6.99315 0.0647816 7.17589 0.0754027 7.34395 0.00292969C7.76036 0.00292969 8.17708 0.00292969 8.59349 0.00292969C8.60255 0.0369795 8.63098 0.0310442 8.65565 0.0326061C8.89994 0.0469758 9.14141 0.0822751 9.38226 0.12351C12.7501 0.700794 15.4185 3.44508 15.9114 6.83351C15.9376 7.01438 15.9276 7.2015 15.997 7.37549C15.997 7.80252 15.997 8.22924 15.997 8.65626C15.9548 8.66876 15.9676 8.70531 15.9645 8.73342C15.9351 9.00207 15.8983 9.26916 15.847 9.535C15.2113 12.8391 12.4964 15.4294 9.16671 15.9117C8.97554 15.9395 8.77905 15.9329 8.59349 15.9973C8.17708 15.9973 7.76036 15.9973 7.34395 15.9973C7.32677 15.9482 7.28335 15.9676 7.25118 15.9645C5.69863 15.8061 4.29821 15.2619 3.07523 14.2895C1.4174 12.9712 0.4184 11.2634 0.0882105 9.16701C0.0613455 8.99645 0.0744656 8.8187 0.00292969 8.65595ZM5.84045 8.66251C5.84045 8.66282 5.84045 8.66345 5.84045 8.66376C6.28278 8.66376 6.72543 8.6697 7.16746 8.66033C7.30397 8.65751 7.34114 8.69 7.33989 8.83057C7.3324 9.70494 7.33802 10.5793 7.33489 11.4537C7.33427 11.6689 7.3955 11.8544 7.5595 11.9963C7.76723 12.1759 8.00839 12.2159 8.2583 12.1097C8.52102 11.9981 8.6619 11.7876 8.66253 11.4983C8.66471 10.6137 8.66815 9.72868 8.65971 8.84401C8.65815 8.68719 8.70532 8.65939 8.85058 8.66064C9.71963 8.66751 10.5887 8.66501 11.458 8.66345C11.7795 8.66282 12.0178 8.50726 12.1209 8.23923C12.2915 7.79565 11.9716 7.34051 11.4787 7.33801C10.599 7.33363 9.71963 7.33332 8.83996 7.34019C8.69751 7.34144 8.6594 7.30521 8.66065 7.16151C8.66784 6.28715 8.66284 5.41279 8.66471 4.53843C8.66534 4.23729 8.5382 4.01518 8.26361 3.89179C7.82378 3.69437 7.34177 4.01425 7.33833 4.51C7.3324 5.39467 7.3324 6.27965 7.3402 7.16432C7.34145 7.31427 7.29397 7.34051 7.15746 7.33957C6.29872 7.33363 5.43997 7.33644 4.58123 7.33676C4.49314 7.33676 4.40442 7.33426 4.3182 7.35956C3.9927 7.45578 3.79871 7.76066 3.84463 8.10616C3.88555 8.41386 4.15451 8.65595 4.4822 8.66095C4.93485 8.66782 5.38749 8.66251 5.84045 8.66251Z" fill="#888888"/>
</g>
<defs>
<clipPath id="clip0_9416_90582">
<rect width="16.0003" height="16" fill="white"/>
</clipPath>
</defs>
</svg>
