<svg width="20" height="20" viewBox="0 0 20 20" fill="none" xmlns="http://www.w3.org/2000/svg">
<g clip-path="url(#clip0_8995_94351)">
<path d="M0.00439453 16.138C0.0662304 16.1136 0.0511612 16.0497 0.0657108 16.005C0.278239 15.3643 0.808781 14.9699 1.48638 14.9699C7.14878 14.9684 12.8117 14.9684 18.4741 14.9699C19.3206 14.9704 19.9509 15.6013 19.9566 16.4446C19.9582 16.6712 19.9743 16.8983 19.9275 17.1238C19.7924 17.7811 19.2416 18.2576 18.5744 18.2867C18.4902 18.2904 18.4055 18.2904 18.3213 18.2904C12.7691 18.2904 7.21685 18.2904 1.66461 18.2904C0.773965 18.2904 0.371772 18.016 0.044406 17.1851C0.0386901 17.1706 0.0179049 17.1617 0.00439453 17.1503C0.00439453 16.8136 0.00439453 16.4758 0.00439453 16.138Z" fill="#A9A9A9"/>
<path d="M7.90556 4.97418C7.90556 4.2467 7.90452 3.51974 7.90607 2.79226C7.90763 2.08556 8.32386 1.6709 9.03315 1.66934C9.66969 1.66778 10.3057 1.66726 10.9423 1.66934C11.6344 1.67142 12.0548 2.0918 12.0553 2.78654C12.0574 4.28671 12.0584 5.78636 12.0522 7.28653C12.0517 7.44605 12.086 7.49282 12.2512 7.49022C12.92 7.47983 13.5887 7.49074 14.2575 7.48399C14.5599 7.48087 14.7943 7.58376 14.9169 7.86799C15.0364 8.14547 14.9496 8.38191 14.7465 8.59391C13.3237 10.0811 11.9041 11.5714 10.4819 13.0591C10.1613 13.3942 9.8022 13.3948 9.48418 13.0622C8.05781 11.5698 6.63299 10.0754 5.20609 8.583C5.00811 8.37567 4.92861 8.14236 5.04292 7.87267C5.15932 7.59727 5.38276 7.48243 5.67947 7.48451C6.35499 7.48918 7.02998 7.48087 7.7055 7.4897C7.86243 7.49178 7.91283 7.4606 7.91075 7.29224C7.89984 6.51956 7.90556 5.74687 7.90556 4.97418Z" fill="#A9A9A9"/>
</g>
<defs>
<clipPath id="clip0_8995_94351">
<rect width="20.0005" height="20" fill="white"/>
</clipPath>
</defs>
</svg>
