<svg width="114" height="18" viewBox="0 0 114 18" fill="none" xmlns="http://www.w3.org/2000/svg">
<path d="M8.03385 0.62718L5.83722 5.28421L0.923222 6.03393C0.72077 6.07308 0.532728 6.16648 0.379142 6.30418C0.225557 6.44188 0.112187 6.61871 0.0511175 6.81582C-0.0099518 7.01294 -0.0164306 7.22294 0.0323719 7.42345C0.0811745 7.62396 0.183429 7.80746 0.328233 7.95438L3.88355 11.5769L3.04224 16.6943C3.00112 16.8952 3.01758 17.1036 3.08972 17.2955C3.16186 17.4874 3.28674 17.655 3.44995 17.7789C3.61316 17.9028 3.80805 17.978 4.01214 17.9959C4.21622 18.0137 4.42118 17.9734 4.60338 17.8797L9 15.4628L13.3966 17.8797C13.5789 17.973 13.7837 18.0129 13.9876 17.9948C14.1914 17.9768 14.3861 17.9015 14.5492 17.7777C14.7122 17.6539 14.8371 17.4866 14.9093 17.2949C14.9816 17.1033 14.9984 16.8951 14.9578 16.6943L14.1165 11.5769L17.6718 7.95438C17.8166 7.80746 17.9188 7.62396 17.9676 7.42345C18.0164 7.22294 18.01 7.01294 17.9489 6.81582C17.8878 6.61871 17.7744 6.44188 17.6209 6.30418C17.4673 6.16648 17.2792 6.07308 17.0768 6.03393L12.1628 5.28421L9.96503 0.62718C9.88183 0.440448 9.74635 0.281841 9.57499 0.170537C9.40363 0.0592333 9.20372 0 8.99944 0C8.79515 0 8.59524 0.0592333 8.42388 0.170537C8.25252 0.281841 8.11705 0.440448 8.03385 0.62718Z" fill="#EEEEEE"/>
<path d="M32.0338 0.62718L29.8372 5.28421L24.9232 6.03393C24.7208 6.07308 24.5327 6.16648 24.3791 6.30418C24.2256 6.44188 24.1122 6.61871 24.0511 6.81582C23.99 7.01294 23.9836 7.22294 24.0324 7.42345C24.0812 7.62396 24.1834 7.80746 24.3282 7.95438L27.8835 11.5769L27.0422 16.6943C27.0011 16.8952 27.0176 17.1036 27.0897 17.2955C27.1619 17.4874 27.2867 17.655 27.45 17.7789C27.6132 17.9028 27.8081 17.978 28.0121 17.9959C28.2162 18.0137 28.4212 17.9734 28.6034 17.8797L33 15.4628L37.3966 17.8797C37.5789 17.973 37.7837 18.0129 37.9876 17.9948C38.1914 17.9768 38.3861 17.9015 38.5492 17.7777C38.7122 17.6539 38.8371 17.4866 38.9093 17.2949C38.9816 17.1033 38.9984 16.8951 38.9578 16.6943L38.1165 11.5769L41.6718 7.95438C41.8166 7.80746 41.9188 7.62396 41.9676 7.42345C42.0164 7.22294 42.01 7.01294 41.9489 6.81582C41.8878 6.61871 41.7744 6.44188 41.6209 6.30418C41.4673 6.16648 41.2792 6.07308 41.0768 6.03393L36.1628 5.28421L33.965 0.62718C33.8818 0.440448 33.7464 0.281841 33.575 0.170537C33.4036 0.0592333 33.2037 0 32.9994 0C32.7952 0 32.5952 0.0592333 32.4239 0.170537C32.2525 0.281841 32.117 0.440448 32.0338 0.62718Z" fill="#EEEEEE"/>
<path d="M56.0338 0.62718L53.8372 5.28421L48.9232 6.03393C48.7208 6.07308 48.5327 6.16648 48.3791 6.30418C48.2256 6.44188 48.1122 6.61871 48.0511 6.81582C47.99 7.01294 47.9836 7.22294 48.0324 7.42345C48.0812 7.62396 48.1834 7.80746 48.3282 7.95438L51.8835 11.5769L51.0422 16.6943C51.0011 16.8952 51.0176 17.1036 51.0897 17.2955C51.1619 17.4874 51.2867 17.655 51.45 17.7789C51.6132 17.9028 51.8081 17.978 52.0121 17.9959C52.2162 18.0137 52.4212 17.9734 52.6034 17.8797L57 15.4628L61.3966 17.8797C61.5789 17.973 61.7837 18.0129 61.9876 17.9948C62.1914 17.9768 62.3861 17.9015 62.5492 17.7777C62.7122 17.6539 62.8371 17.4866 62.9093 17.2949C62.9816 17.1033 62.9984 16.8951 62.9578 16.6943L62.1165 11.5769L65.6718 7.95438C65.8166 7.80746 65.9188 7.62396 65.9676 7.42345C66.0164 7.22294 66.01 7.01294 65.9489 6.81582C65.8878 6.61871 65.7744 6.44188 65.6209 6.30418C65.4673 6.16648 65.2792 6.07308 65.0768 6.03393L60.1628 5.28421L57.965 0.62718C57.8818 0.440448 57.7464 0.281841 57.575 0.170537C57.4036 0.0592333 57.2037 0 56.9994 0C56.7952 0 56.5952 0.0592333 56.4239 0.170537C56.2525 0.281841 56.117 0.440448 56.0338 0.62718Z" fill="#EEEEEE"/>
<path d="M80.0338 0.62718L77.8372 5.28421L72.9232 6.03393C72.7208 6.07308 72.5327 6.16648 72.3791 6.30418C72.2256 6.44188 72.1122 6.61871 72.0511 6.81582C71.99 7.01294 71.9836 7.22294 72.0324 7.42345C72.0812 7.62396 72.1834 7.80746 72.3282 7.95438L75.8835 11.5769L75.0422 16.6943C75.0011 16.8952 75.0176 17.1036 75.0897 17.2955C75.1619 17.4874 75.2867 17.655 75.45 17.7789C75.6132 17.9028 75.8081 17.978 76.0121 17.9959C76.2162 18.0137 76.4212 17.9734 76.6034 17.8797L81 15.4628L85.3966 17.8797C85.5789 17.973 85.7837 18.0129 85.9876 17.9948C86.1914 17.9768 86.3861 17.9015 86.5492 17.7777C86.7122 17.6539 86.8371 17.4866 86.9093 17.2949C86.9816 17.1033 86.9984 16.8951 86.9578 16.6943L86.1165 11.5769L89.6718 7.95438C89.8166 7.80746 89.9188 7.62396 89.9676 7.42345C90.0164 7.22294 90.01 7.01294 89.9489 6.81582C89.8878 6.61871 89.7744 6.44188 89.6209 6.30418C89.4673 6.16648 89.2792 6.07308 89.0768 6.03393L84.1628 5.28421L81.965 0.62718C81.8818 0.440448 81.7464 0.281841 81.575 0.170537C81.4036 0.0592333 81.2037 0 80.9994 0C80.7952 0 80.5952 0.0592333 80.4239 0.170537C80.2525 0.281841 80.117 0.440448 80.0338 0.62718Z" fill="#EEEEEE"/>
<path d="M104.034 0.62718L101.837 5.28421L96.9232 6.03393C96.7208 6.07308 96.5327 6.16648 96.3791 6.30418C96.2256 6.44188 96.1122 6.61871 96.0511 6.81582C95.99 7.01294 95.9836 7.22294 96.0324 7.42345C96.0812 7.62396 96.1834 7.80746 96.3282 7.95438L99.8835 11.5769L99.0422 16.6943C99.0011 16.8952 99.0176 17.1036 99.0897 17.2955C99.1619 17.4874 99.2867 17.655 99.45 17.7789C99.6132 17.9028 99.8081 17.978 100.012 17.9959C100.216 18.0137 100.421 17.9734 100.603 17.8797L105 15.4628L109.397 17.8797C109.579 17.973 109.784 18.0129 109.988 17.9948C110.191 17.9768 110.386 17.9015 110.549 17.7777C110.712 17.6539 110.837 17.4866 110.909 17.2949C110.982 17.1033 110.998 16.8951 110.958 16.6943L110.116 11.5769L113.672 7.95438C113.817 7.80746 113.919 7.62396 113.968 7.42345C114.016 7.22294 114.01 7.01294 113.949 6.81582C113.888 6.61871 113.774 6.44188 113.621 6.30418C113.467 6.16648 113.279 6.07308 113.077 6.03393L108.163 5.28421L105.965 0.62718C105.882 0.440448 105.746 0.281841 105.575 0.170537C105.404 0.0592333 105.204 0 104.999 0C104.795 0 104.595 0.0592333 104.424 0.170537C104.253 0.281841 104.117 0.440448 104.034 0.62718Z" fill="#EEEEEE"/>
</svg>
