<svg width="32" height="32" viewBox="0 0 32 32" fill="none" xmlns="http://www.w3.org/2000/svg">
<g clip-path="url(#clip0_9070_100219)">
<path d="M0.00473766 5.49317C0.0978552 5.46324 0.072913 5.37261 0.0920354 5.31026C0.46118 4.10222 1.40233 3.34398 2.66108 3.334C5.19604 3.31322 7.73183 3.31571 10.2668 3.334C11.311 3.34149 12.1699 3.78712 12.8317 4.5994C13.2258 5.08245 13.6257 5.55968 14.0081 6.05187C14.3407 6.48005 14.7647 6.66628 15.3026 6.66545C18.5858 6.65963 21.8699 6.66046 25.1531 6.66379C26.4942 6.66545 27.5135 7.4187 27.8477 8.63339C27.9566 9.0308 27.935 9.43569 27.9408 9.84059C27.9425 9.94618 27.9117 9.99523 27.8003 9.98442C27.728 9.97777 27.6548 9.98359 27.5825 9.98359C22.1376 9.98359 16.6927 9.98359 11.2479 9.98359C9.04878 9.98359 7.4716 11.1725 6.85969 13.276C5.64084 17.4629 4.41618 21.6482 3.19069 25.8335C2.9396 26.6915 2.26783 27.2319 1.43642 27.266C0.807877 27.2918 0.330649 26.99 0.0870469 26.4138C0.0637675 26.3598 0.07707 26.285 0.00390625 26.2575C0.00473766 19.3361 0.00473766 12.4146 0.00473766 5.49317Z" fill="#FEB257"/>
<path d="M2.12891 28.5095C3.35856 28.1595 4.13842 27.3621 4.49592 26.1383C5.71892 21.9414 6.94441 17.7453 8.16991 13.5492C8.58311 12.1358 9.66644 11.3102 11.1339 11.3093C17.3578 11.306 23.5825 11.3052 29.8064 11.3102C31.3212 11.311 32.2333 12.5282 31.8101 13.9906C30.6295 18.0703 29.4414 22.1476 28.2467 26.2231C27.8135 27.6997 26.5806 28.6034 25.0159 28.6117C23.7172 28.6184 22.4177 28.6134 21.1191 28.6134C14.9159 28.6134 8.71198 28.6134 2.50886 28.6134C2.38415 28.6134 2.25944 28.6101 2.13473 28.6084C2.13223 28.5743 2.13057 28.5419 2.12891 28.5095Z" fill="#FECD71"/>
<path d="M2.12858 28.5088C2.13024 28.5412 2.13274 28.5736 2.1344 28.6069C2.00886 28.6144 1.88332 28.621 1.75777 28.6285C1.75611 28.6127 1.75362 28.5969 1.75195 28.582C1.8775 28.557 2.00304 28.5329 2.12858 28.5088Z" fill="#565656"/>
</g>
<defs>
<clipPath id="clip0_9070_100219">
<rect width="31.9975" height="32" fill="white"/>
</clipPath>
</defs>
</svg>
