<svg width="31" height="20" viewBox="0 0 31 20" fill="none" xmlns="http://www.w3.org/2000/svg">
<path d="M0 2.95238C0 1.32183 1.32183 0 2.95238 0H28.0476C29.6782 0 31 1.32183 31 2.95238V12.5476C31 14.1782 29.6782 15.5 28.0476 15.5H0V2.95238Z" fill="url(#paint0_linear_8995_93951)"/>
<path d="M2.21429 19.1905L0 15.5H2.21429V19.1905Z" fill="#8F1100"/>
<path d="M5.70603 4.39323V11.2148H4.30048V4.39323H5.70603ZM8.42343 7.30741V8.40374H5.32185V7.30741H8.42343ZM8.7514 4.39323V5.49424H5.32185V4.39323H8.7514ZM9.56662 4.39323H12.1107C12.6323 4.39323 13.0805 4.47131 13.4553 4.62749C13.8332 4.78366 14.1237 5.0148 14.3268 5.32089C14.5298 5.62699 14.6313 6.00337 14.6313 6.45002C14.6313 6.81546 14.5688 7.12937 14.4439 7.39174C14.3221 7.65099 14.1487 7.86807 13.9238 8.04298C13.7021 8.21477 13.4413 8.3522 13.1414 8.45528L12.6963 8.68953H10.4849L10.4755 7.5932H12.12C12.3668 7.5932 12.5714 7.54948 12.7338 7.46202C12.8962 7.37456 13.018 7.25275 13.0992 7.09657C13.1836 6.9404 13.2257 6.75924 13.2257 6.55309C13.2257 6.33445 13.1851 6.14548 13.1039 5.98619C13.0227 5.82689 12.8993 5.70508 12.7338 5.62074C12.5683 5.53641 12.3605 5.49424 12.1107 5.49424H10.9722V11.2148H9.56662V4.39323ZM13.3803 11.2148L11.8249 8.17417L13.3101 8.16479L14.8843 11.1493V11.2148H13.3803ZM20.291 10.1185V11.2148H16.66V10.1185H20.291ZM17.1191 4.39323V11.2148H15.7136V4.39323H17.1191ZM19.8178 7.17154V8.23976H16.66V7.17154H19.8178ZM20.2863 4.39323V5.49424H16.66V4.39323H20.2863ZM25.6883 10.1185V11.2148H22.0573V10.1185H25.6883ZM22.5164 4.39323V11.2148H21.1109V4.39323H22.5164ZM25.2151 7.17154V8.23976H22.0573V7.17154H25.2151ZM25.6836 4.39323V5.49424H22.0573V4.39323H25.6836Z" fill="white"/>
<defs>
<linearGradient id="paint0_linear_8995_93951" x1="29.5" y1="15" x2="23.1191" y2="-6.48812" gradientUnits="userSpaceOnUse">
<stop offset="0.0694371" stop-color="#FF2103"/>
<stop offset="1" stop-color="#FF2103"/>
</linearGradient>
</defs>
</svg>
