<svg width="17" height="21" viewBox="0 0 17 21" fill="none" xmlns="http://www.w3.org/2000/svg">
<g clip-path="url(#clip0_8995_93926)">
<path d="M13.9486 21C10.0647 21 6.18078 21 2.29688 21C2.2691 20.9311 2.19936 20.9563 2.15003 20.9442C0.827241 20.6254 0.00113398 19.6109 0.000566992 18.2984C0 15.715 -0.000566992 13.131 0.00113398 10.5476C0.00170098 9.60312 0.417873 8.8643 1.22073 8.33055C1.32846 8.25891 1.36305 8.19 1.36475 8.06805C1.37325 7.35766 1.333 6.64672 1.39537 5.93687C1.6335 3.22438 3.76709 0.830703 6.5051 0.196875C6.82998 0.121953 7.16791 0.109375 7.48486 0C7.92428 0 8.3637 0 8.80311 0C8.80992 0.0328125 8.83487 0.0382813 8.86492 0.0404688C9.25444 0.0683594 9.63376 0.147656 10.0097 0.246094C12.6711 0.943906 14.7095 3.30203 14.9351 5.93687C14.9958 6.64727 14.9572 7.35766 14.9657 8.06805C14.9669 8.19055 15.0032 8.25945 15.1098 8.33055C15.8916 8.84953 16.3226 9.56812 16.326 10.4869C16.3367 13.125 16.3339 15.7631 16.3277 18.4013C16.3248 19.553 15.5316 20.5559 14.3846 20.8884C14.2406 20.9289 14.0943 20.9628 13.9486 21ZM8.16752 7.875C9.47046 7.875 10.7734 7.87281 12.0769 7.87828C12.2147 7.87883 12.255 7.84656 12.251 7.71148C12.2408 7.34289 12.2487 6.97375 12.2476 6.60516C12.2414 4.5582 10.7462 2.92141 8.63925 2.65563C6.57314 2.39477 4.55805 3.80352 4.16399 5.77555C4.04208 6.38641 4.10786 7.00109 4.07837 7.61359C4.06873 7.81813 4.11409 7.88375 4.34372 7.88102C5.61832 7.86844 6.89292 7.875 8.16752 7.875ZM8.1471 17.0625C8.55761 17.0625 8.96868 17.0576 9.37918 17.0652C9.50221 17.0674 9.53056 17.0297 9.52886 16.9165C9.52263 16.4177 9.52943 15.9195 9.52376 15.4208C9.52206 15.2972 9.55551 15.2091 9.64793 15.1167C9.98359 14.7815 10.1707 14.3735 10.2007 13.9076C10.2591 12.9981 9.67231 12.1756 8.7793 11.9011C7.90783 11.6331 6.93885 11.9755 6.44443 12.7252C5.9364 13.4958 6.0379 14.4632 6.70241 15.1348C6.77612 15.2097 6.80844 15.2813 6.8073 15.3847C6.80163 15.8834 6.81297 16.3822 6.79993 16.8804C6.79596 17.0417 6.84869 17.0691 7.00008 17.0652C7.38167 17.0554 7.76439 17.0625 8.1471 17.0625Z" fill="#B8B8B8"/>
</g>
<defs>
<clipPath id="clip0_8995_93926">
<rect width="16.3333" height="21" fill="white"/>
</clipPath>
</defs>
</svg>
