<svg width="28" height="28" viewBox="0 0 28 28" fill="none" xmlns="http://www.w3.org/2000/svg">
<g clip-path="url(#clip0_8945_82889)">
<path d="M0.00585938 21.7752C0.134154 21.631 0.111379 21.4412 0.152373 21.2727C0.793084 18.6256 3.2284 16.8613 5.94307 17.0891C6.15031 17.1065 6.35452 17.1506 6.59593 17.1878C5.36081 18.9938 4.72465 20.9379 4.91216 23.1371C4.48325 23.1371 4.01258 23.1371 3.54192 23.1371C2.66891 23.1371 1.7959 23.1227 0.923656 23.144C0.544087 23.1531 0.228286 23.087 0.00661851 22.7576C0.00585937 22.4296 0.00585938 22.1024 0.00585938 21.7752Z" fill="white"/>
<path d="M13.9756 23.1365C11.6026 23.1365 9.23026 23.1365 6.8572 23.1365C6.28253 23.1365 6.06162 22.9103 6.07908 22.3425C6.19219 18.6804 8.68216 15.6591 12.2812 14.8179C16.5438 13.822 20.9764 16.7552 21.7287 21.0656C21.8054 21.5059 21.8525 21.947 21.8669 22.3918C21.8828 22.8891 21.6429 23.135 21.148 23.1358C18.7574 23.1373 16.3669 23.1365 13.9756 23.1365Z" fill="white"/>
<path d="M18.2261 9.1788C18.2216 11.5169 16.3085 13.4239 13.9696 13.4224C11.6216 13.4209 9.71163 11.498 9.72074 9.14388C9.72985 6.80725 11.6444 4.91169 13.9909 4.917C16.329 4.92308 18.2307 6.8361 18.2261 9.1788Z" fill="white"/>
<path d="M8.58885 12.8102C8.59037 14.4894 7.24746 15.8361 5.56522 15.843C3.89512 15.8498 2.52715 14.4947 2.51956 12.8262C2.51197 11.15 3.88677 9.77138 5.56218 9.77442C7.23304 9.77746 8.58809 11.1363 8.58885 12.8102Z" fill="white"/>
<path d="M25.5092 12.8011C25.5191 14.4735 24.1747 15.83 22.4932 15.8422C20.8238 15.8543 19.4536 14.5061 19.4376 12.8353C19.4217 11.1636 20.7973 9.77593 22.4727 9.77442C24.1428 9.7729 25.4994 11.1249 25.5092 12.8011Z" fill="white"/>
<path d="M23.0343 23.1352C23.2233 20.9489 22.5917 19.0108 21.3672 17.2132C21.5646 17.1191 21.7718 17.1122 21.9699 17.0925C24.882 16.7972 27.5648 18.9546 27.8928 21.8523C27.9186 22.0777 27.9398 22.3047 27.9368 22.5309C27.9322 22.8703 27.6931 23.1291 27.3568 23.1314C25.9031 23.1405 24.4493 23.1352 23.0343 23.1352Z" fill="white"/>
</g>
<defs>
<clipPath id="clip0_8945_82889">
<rect width="28" height="28" fill="white"/>
</clipPath>
</defs>
</svg>
