<svg width="17" height="18" viewBox="0 0 17 18" fill="none" xmlns="http://www.w3.org/2000/svg">
<g clip-path="url(#clip0_9134_88769)">
<path d="M7.39326 17.4113C7.21118 17.3295 7.0133 17.3389 6.82373 17.2983C5.02993 16.9113 3.70255 15.8286 2.78673 14.1498C2.19226 13.0595 1.90542 11.8709 1.90625 10.6063C1.9075 8.81048 3.25607 7.33724 4.92558 7.32741C6.8944 7.31579 8.86322 7.3149 10.832 7.32741C12.6188 7.33858 14.0547 8.90476 14.0651 10.8257C14.0821 14.0059 11.9038 16.792 8.99334 17.3179C8.82373 17.3487 8.64788 17.3416 8.48409 17.4109C8.45291 17.4109 8.42174 17.4109 8.39056 17.4109C8.37185 17.389 8.34691 17.3948 8.32363 17.3934C8.30575 17.3934 8.28788 17.3934 8.27 17.3934C8.24672 17.3948 8.22219 17.389 8.20349 17.4109C8.0372 17.4109 7.87091 17.4109 7.70463 17.4109C7.67719 17.3818 7.64269 17.3979 7.61109 17.3934C7.5795 17.3979 7.545 17.3818 7.51756 17.4109C7.4764 17.4113 7.43483 17.4113 7.39326 17.4113Z" fill="#777777"/>
<path d="M7.51758 17.4108C7.53587 17.3558 7.57619 17.3849 7.60862 17.3827C7.62026 17.3876 7.62483 17.3934 7.62151 17.4001C7.61818 17.4072 7.61486 17.4108 7.61112 17.4108C7.57994 17.4108 7.54876 17.4108 7.51758 17.4108Z" fill="#747474"/>
<path d="M7.60992 17.4109C7.6095 17.4015 7.60867 17.3921 7.60742 17.3827C7.64359 17.3765 7.67976 17.3693 7.70345 17.4109C7.67227 17.4109 7.64109 17.4109 7.60992 17.4109Z" fill="#494949"/>
<path d="M8.20312 17.4099C8.21684 17.3804 8.24095 17.3787 8.26755 17.3822C8.27628 17.3891 8.27877 17.3956 8.27503 17.4012C8.27171 17.4069 8.26838 17.4099 8.26547 17.4099C8.24469 17.4099 8.22391 17.4099 8.20312 17.4099Z" fill="#323232"/>
<path d="M8.26562 17.4096C8.26604 17.4005 8.26687 17.3909 8.2677 17.3818C8.28849 17.3818 8.30928 17.3818 8.32965 17.3818C8.33838 17.3888 8.34129 17.3948 8.33755 17.4009C8.33422 17.4066 8.3309 17.4096 8.32757 17.4096C8.3072 17.4096 8.28641 17.4096 8.26562 17.4096Z" fill="#4B4B4B"/>
<path d="M8.32812 17.4102C8.32812 17.4011 8.32896 17.3915 8.32979 17.3824C8.35515 17.379 8.38175 17.3733 8.39048 17.4102C8.3697 17.4102 8.34891 17.4102 8.32812 17.4102Z" fill="#6B6B6B"/>
<path d="M3.76758 6.51625C3.81705 5.57431 3.68984 4.62879 3.89562 3.69489C4.29761 1.87088 5.79709 0.458864 7.53602 0.280127C9.74721 0.053131 11.6715 1.57865 12.1151 3.91429C12.1534 4.11582 12.1833 4.32315 12.1862 4.52825C12.1949 5.20924 12.1895 5.89068 12.1895 6.5882C11.9339 6.50776 11.6836 6.42599 11.4254 6.37773C11.1008 6.31696 10.774 6.3116 10.4473 6.32054C10.3429 6.32322 10.3196 6.28926 10.3209 6.18202C10.3263 5.71864 10.3246 5.25482 10.323 4.79144C10.3176 3.467 9.41214 2.39905 8.18703 2.26991C7.0168 2.14659 5.93262 3.02418 5.68859 4.29277C5.62998 4.59662 5.64785 4.90449 5.6466 5.21103C5.64536 5.53499 5.64203 5.85895 5.64868 6.18291C5.65076 6.29149 5.62499 6.32277 5.52189 6.32054C5.02303 6.30892 4.52418 6.3049 4.03738 6.4528C3.95382 6.47872 3.87442 6.52519 3.76758 6.51625Z" fill="#777777"/>
<path d="M7.51674 13.6263C7.51674 13.213 7.51342 12.7996 7.51882 12.3867C7.52007 12.288 7.49014 12.246 7.40616 12.2053C6.78384 11.905 6.45709 11.1763 6.62296 10.4756C6.79007 9.76825 7.40741 9.2879 8.08585 9.3375C8.6982 9.38173 9.23696 9.88577 9.35544 10.5252C9.48473 11.2205 9.18209 11.8912 8.58887 12.1892C8.4733 12.2473 8.44877 12.3139 8.4496 12.4377C8.45418 13.2474 8.45376 14.057 8.45127 14.8667C8.45002 15.2559 8.11703 15.5084 7.80275 15.3591C7.61485 15.2698 7.51799 15.1053 7.51757 14.8828C7.51591 14.4637 7.51716 14.045 7.51674 13.6263Z" fill="#FEFEFE"/>
<path d="M8.45232 10.8355C8.45606 11.1072 8.24862 11.3386 7.99586 11.3449C7.74352 11.3511 7.52569 11.1295 7.51779 10.8587C7.50989 10.5808 7.72315 10.3426 7.98173 10.3408C8.23448 10.339 8.44858 10.5638 8.45232 10.8355Z" fill="#777777"/>
<ellipse cx="7.66732" cy="12.3974" rx="2.33333" ry="3.58293" fill="#777777"/>
</g>
<defs>
<clipPath id="clip0_9134_88769">
<rect width="16.0012" height="17.1981" fill="white" transform="translate(0 0.21582)"/>
</clipPath>
</defs>
</svg>
