<svg width="42" height="26" viewBox="0 0 42 26" fill="none" xmlns="http://www.w3.org/2000/svg">
<path d="M0 4C0 1.79086 1.79086 0 4 0H38C40.2091 0 42 1.79086 42 4V17C42 19.2091 40.2091 21 38 21H0V4Z" fill="url(#paint0_linear_9114_106968)"/>
<path d="M3 26L0 21H3V26Z" fill="#FF8A1E"/>
<path d="M15.103 9.52197V11.0073H10.2788V9.52197H15.103ZM10.8438 5.75781V15H8.93945V5.75781H10.8438ZM16.4614 5.75781V15H14.5635V5.75781H16.4614ZM25.71 10.1631V10.6011C25.71 11.3035 25.6147 11.9341 25.4243 12.4927C25.2339 13.0513 24.9652 13.5273 24.6182 13.9209C24.2712 14.3102 23.8564 14.6086 23.374 14.8159C22.8958 15.0233 22.3647 15.127 21.7808 15.127C21.201 15.127 20.6699 15.0233 20.1875 14.8159C19.7093 14.6086 19.2946 14.3102 18.9434 13.9209C18.5921 13.5273 18.3192 13.0513 18.1245 12.4927C17.9341 11.9341 17.8389 11.3035 17.8389 10.6011V10.1631C17.8389 9.45638 17.9341 8.82585 18.1245 8.27148C18.3149 7.71289 18.5837 7.23682 18.9307 6.84326C19.2819 6.44971 19.6966 6.14925 20.1748 5.94189C20.6572 5.73454 21.1883 5.63086 21.7681 5.63086C22.3521 5.63086 22.8831 5.73454 23.3613 5.94189C23.8438 6.14925 24.2585 6.44971 24.6055 6.84326C24.9567 7.23682 25.2275 7.71289 25.418 8.27148C25.6126 8.82585 25.71 9.45638 25.71 10.1631ZM23.7866 10.6011V10.1504C23.7866 9.65951 23.7422 9.22786 23.6533 8.85547C23.5645 8.48307 23.4333 8.16992 23.2598 7.91602C23.0863 7.66211 22.8747 7.47168 22.625 7.34473C22.3753 7.21354 22.0897 7.14795 21.7681 7.14795C21.4465 7.14795 21.1608 7.21354 20.9111 7.34473C20.6657 7.47168 20.4562 7.66211 20.2827 7.91602C20.1134 8.16992 19.9844 8.48307 19.8955 8.85547C19.8066 9.22786 19.7622 9.65951 19.7622 10.1504V10.6011C19.7622 11.0877 19.8066 11.5194 19.8955 11.896C19.9844 12.2684 20.1156 12.5837 20.2891 12.8418C20.4626 13.0957 20.6742 13.2882 20.9238 13.4194C21.1735 13.5506 21.4591 13.6162 21.7808 13.6162C22.1024 13.6162 22.388 13.5506 22.6377 13.4194C22.8874 13.2882 23.0968 13.0957 23.2661 12.8418C23.4354 12.5837 23.5645 12.2684 23.6533 11.896C23.7422 11.5194 23.7866 11.0877 23.7866 10.6011ZM30.7817 5.75781V15H28.8838V5.75781H30.7817ZM33.6255 5.75781V7.24951H26.0845V5.75781H33.6255Z" fill="white"/>
<defs>
<linearGradient id="paint0_linear_9114_106968" x1="39.9677" y1="20.3226" x2="34.1247" y2="-16.1824" gradientUnits="userSpaceOnUse">
<stop offset="0.0694371" stop-color="#FF2103"/>
<stop offset="1" stop-color="#FF9900"/>
</linearGradient>
</defs>
</svg>
