<svg width="33" height="32" viewBox="0 0 33 32" fill="none" xmlns="http://www.w3.org/2000/svg">
<path d="M29.0671 29.4249C28.9532 29.4299 28.8393 29.4382 28.7254 29.4382C20.07 29.439 11.4155 29.439 2.76006 29.439C1.39066 29.439 0.568359 28.6192 0.568359 27.254C0.568359 21.0613 0.568359 14.8687 0.568359 8.67608C0.568359 7.30917 1.389 6.49103 2.7584 6.49103C4.58676 6.49103 6.41595 6.50766 8.2443 6.48521C9.43743 6.47107 10.3861 6.89179 11.0638 7.88703C11.092 7.9286 11.1361 7.95937 11.1727 7.99512C11.181 8.01424 11.1868 8.03503 11.1993 8.05166C11.9484 9.0918 12.6859 10.1403 13.4533 11.1671C13.8915 11.7541 14.5076 12.0094 15.2451 11.9811C15.67 11.9653 16.0965 11.9778 16.5214 11.9769C16.5247 13.067 16.5247 14.157 16.5355 15.2479C16.5372 15.4258 16.484 15.4765 16.3077 15.474C15.591 15.4649 14.8743 15.4748 14.1584 15.4682C13.8973 15.4657 13.6836 15.5297 13.5772 15.7891C13.475 16.0394 13.5872 16.2265 13.7601 16.4002C15.369 18.0074 16.9762 19.6163 18.5859 21.2235C18.9068 21.5436 19.1454 21.5444 19.4664 21.2243C21.0761 19.6179 22.6833 18.0083 24.2921 16.4011C24.4651 16.2281 24.5773 16.0394 24.475 15.79C24.3686 15.5297 24.1558 15.4657 23.8939 15.4682C23.1771 15.4748 22.4604 15.4649 21.7446 15.474C21.5683 15.4765 21.5151 15.4258 21.5167 15.2479C21.5275 14.1578 21.5275 13.0678 21.5309 11.9769C23.3892 11.9769 25.2474 11.9778 27.1057 11.9778C27.5065 11.9778 27.5073 11.9778 27.5073 12.3827C27.5073 17.3971 27.5082 22.4108 27.5057 27.4253C27.5057 27.6672 27.5489 27.8959 27.6279 28.1228C27.8707 28.8204 28.4095 29.1871 29.0671 29.4249Z" fill="#FECD71"/>
<path d="M29.0682 29.4252C28.4105 29.1874 27.8717 28.8207 27.6281 28.1239C27.5491 27.897 27.5059 27.6683 27.5059 27.4264C27.5084 22.4119 27.5076 17.3982 27.5076 12.3838C27.5076 11.9797 27.5076 11.9789 27.106 11.9789C25.2477 11.978 23.3894 11.978 21.5311 11.978C21.4654 10.5804 21.7365 9.24921 22.3301 7.98291C24.0138 7.98457 25.6967 7.98707 27.3803 7.9879C29.7591 7.98956 31.4969 9.71981 31.4977 12.0919C31.4993 17.1114 31.4727 22.1309 31.5151 27.1495C31.5276 28.4856 30.6213 29.6147 29.0682 29.4252Z" fill="#FEB257"/>
<path d="M17.1669 7.99365C16.6764 9.27658 16.5001 10.6111 16.5225 11.978C16.0968 11.978 15.6711 11.9655 15.2463 11.9821C14.5088 12.0104 13.8927 11.7543 13.4545 11.1681C12.6871 10.1413 11.9504 9.09283 11.2004 8.05269C11.1888 8.03606 11.183 8.01527 11.1738 7.99615C13.1718 7.99532 15.1689 7.99448 17.1669 7.99365Z" fill="#FEB257"/>
</svg>
