<svg width="21" height="19" viewBox="0 0 21 19" fill="none" xmlns="http://www.w3.org/2000/svg">
<path d="M14.396 7.56494H14.0009V5.98161C14.0009 4.23519 12.583 2.81494 10.8396 2.81494C9.09614 2.81494 7.6783 4.23519 7.6783 5.98161V7.56494H7.28314C6.62981 7.56494 6.09766 8.09747 6.09766 8.75244V14.2941C6.09766 14.9491 6.62981 15.4816 7.28314 15.4816H14.396C15.0494 15.4816 15.5815 14.9491 15.5815 14.2941V8.75244C15.5815 8.09747 15.0494 7.56494 14.396 7.56494ZM8.73207 5.98161C8.73207 4.81733 9.67729 3.8705 10.8396 3.8705C12.0019 3.8705 12.9471 4.81733 12.9471 5.98161V7.56494H8.73207V5.98161ZM11.3665 11.6404V12.8427C11.3665 13.1341 11.131 13.3705 10.8396 13.3705C10.5482 13.3705 10.3127 13.1341 10.3127 12.8427V11.6404C9.99922 11.4573 9.78583 11.1206 9.78583 10.7316C9.78583 10.1495 10.2584 9.67605 10.8396 9.67605C11.4207 9.67605 11.8934 10.1495 11.8934 10.7316C11.8934 11.1206 11.68 11.4573 11.3665 11.6404Z" fill="#8C8C8C"/>
</svg>
