<svg width="24" height="24" viewBox="0 0 24 24" fill="none" xmlns="http://www.w3.org/2000/svg">
<path d="M22.8242 6.15493C22.7738 6.31397 22.7338 6.4773 22.6711 6.63132C22.3521 7.41502 21.641 7.86458 20.7144 7.86599C18.9984 7.86858 17.2824 7.86678 15.5663 7.86678C13.2947 7.86678 11.0231 7.86824 8.75148 7.86604C7.81877 7.86514 7.09742 7.40149 6.78543 6.61283C6.2804 5.33616 7.15904 3.97859 8.54914 3.88895C8.64025 3.88309 8.73186 3.88399 8.82331 3.88399C12.7617 3.88376 16.7001 3.88376 20.6386 3.88382C21.8166 3.88382 22.5163 4.43096 22.8004 5.57272C22.8035 5.58512 22.8161 5.59516 22.8243 5.60632C22.8242 5.78921 22.8242 5.9721 22.8242 6.15493Z" fill="#CBCBCB"/>
<path d="M22.8244 18.3515C22.7694 18.524 22.732 18.7047 22.6564 18.8676C22.2882 19.6605 21.6535 20.0575 20.7858 20.0716C20.0757 20.0831 19.3652 20.074 18.6549 20.0741C15.3495 20.0741 12.0441 20.075 8.73861 20.0735C7.69466 20.073 6.89687 19.4524 6.68421 18.4832C6.43457 17.3456 7.27595 16.2038 8.43637 16.107C8.54839 16.0976 8.66103 16.0917 8.77334 16.0917C12.7469 16.0909 16.7204 16.0904 20.694 16.0914C21.6844 16.0917 22.4259 16.5898 22.7163 17.4445C22.7564 17.5625 22.7885 17.6833 22.8244 17.8028C22.8244 17.9858 22.8244 18.1686 22.8244 18.3515Z" fill="#CBCBCB"/>
<path d="M22.8245 12.2324C22.789 12.3598 22.7594 12.4892 22.717 12.6143C22.4342 13.4505 21.6923 13.9649 20.7597 13.9652C17.2647 13.9668 13.7697 13.966 10.2748 13.9658C9.70517 13.9657 9.1348 13.9827 8.56618 13.9592C7.74791 13.9254 7.14462 13.5218 6.81746 12.7751C6.49058 12.029 6.60069 11.3126 7.12861 10.6857C7.54371 10.1926 8.09238 9.9895 8.73491 9.99024C12.7291 9.9948 16.7234 9.99255 20.7177 9.99255C20.7247 9.99255 20.7317 9.99255 20.7388 9.99255C21.8104 9.99559 22.5449 10.5821 22.7896 11.6292C22.7973 11.6623 22.8127 11.6937 22.8245 11.726C22.8245 11.8948 22.8245 12.0636 22.8245 12.2324Z" fill="#CBCBCB"/>
<path d="M5.19047 11.9837C5.18833 13.0813 4.30422 13.964 3.20644 13.9648C2.10431 13.9654 1.21135 13.0666 1.21806 11.9632C1.22471 10.8721 2.12072 9.98873 3.21636 9.99318C4.3133 9.99763 5.19267 10.8843 5.19047 11.9837Z" fill="#CBCBCB"/>
<path d="M5.19119 18.0763C5.19367 19.1726 4.31458 20.0621 3.21786 20.0731C2.12769 20.0841 1.21652 19.1747 1.21826 18.0774C1.22001 16.9865 2.11472 16.0941 3.20602 16.0947C4.30358 16.0953 5.18871 16.9789 5.19119 18.0763Z" fill="#CBCBCB"/>
<path d="M5.19109 5.86882C5.1947 6.97518 4.30056 7.87039 3.19837 7.86402C2.10459 7.85771 1.21693 6.9652 1.21851 5.87328C1.22003 4.78446 2.11745 3.88642 3.20463 3.88574C4.29751 3.88501 5.18754 4.77358 5.19109 5.86882Z" fill="#CBCBCB"/>
</svg>
