<svg width="32" height="32" viewBox="0 0 32 32" fill="none" xmlns="http://www.w3.org/2000/svg">
<path d="M2.87458 31.9928C2.68877 31.9124 2.49734 31.8432 2.31839 31.7503C1.5346 31.3412 1.08004 30.6884 1.07567 29.8079C1.05759 26.0667 1.05946 22.3255 1.07318 18.5849C1.07754 17.3665 2.09017 16.4075 3.33725 16.405C6.57965 16.3987 9.82205 16.4025 13.0638 16.4025C18.2492 16.4025 23.4351 16.4012 28.6205 16.4031C29.7578 16.4037 30.6314 17.0591 30.9014 18.1047C30.9588 18.3273 30.9775 18.5549 30.9775 18.7838C30.9781 22.3897 30.98 25.9956 30.9768 29.6015C30.9756 30.7208 30.3751 31.5719 29.3974 31.8899C29.2871 31.9261 29.148 31.875 29.0638 31.9922C20.3337 31.9928 11.6041 31.9928 2.87458 31.9928ZM21.8015 24.1992C21.8015 25.4775 21.7977 26.7557 21.8027 28.0333C21.8052 28.7149 22.1887 29.1008 22.8634 29.1027C24.204 29.1071 25.5446 29.1071 26.8846 29.1027C27.5168 29.1008 27.9477 28.6949 27.9415 28.125C27.9352 27.5657 27.5118 27.1822 26.8908 27.181C25.9349 27.1785 24.9784 27.1704 24.0231 27.1872C23.7662 27.1916 23.7132 27.1093 23.7195 26.8723C23.7351 26.2388 23.7351 25.6047 23.7195 24.9711C23.7132 24.7311 23.7712 24.6506 24.0256 24.6563C24.815 24.6737 25.6051 24.6669 26.3945 24.6606C26.8858 24.6569 27.2462 24.4056 27.3778 23.9959C27.5767 23.3774 27.1452 22.7632 26.4668 22.7451C25.6568 22.7239 24.8456 22.7302 24.0356 22.742C23.8024 22.7451 23.6964 22.7021 23.7182 22.439C23.7438 22.1291 23.7382 21.8154 23.7195 21.5043C23.7058 21.2773 23.765 21.2031 24.0076 21.2062C25.0258 21.2212 26.044 21.2087 27.0623 21.2143C27.4383 21.2162 27.7307 21.0722 27.9265 20.7573C28.1148 20.4536 28.1304 20.1312 27.9577 19.8107C27.76 19.4441 27.4414 19.2876 27.0355 19.2876C25.6743 19.287 24.3131 19.287 22.9519 19.2876C22.1725 19.2876 21.8033 19.6517 21.8021 20.4262C21.8002 21.6845 21.8015 22.9415 21.8015 24.1992ZM17.2565 24.728C17.1742 24.6675 17.168 24.5814 17.1443 24.5029C16.6972 23.0257 16.252 21.5485 15.7999 20.0733C15.6122 19.4609 15.1165 19.171 14.5666 19.3375C14.0303 19.4996 13.7821 20.0333 13.9673 20.6463C14.7349 23.1947 15.505 25.7425 16.2757 28.2896C16.4334 28.8109 16.7464 29.0622 17.2303 29.0665C17.7173 29.0709 18.0322 28.8265 18.1912 28.3008C18.9656 25.7437 19.7376 23.186 20.5083 20.6276C20.5588 20.4592 20.6012 20.2884 20.565 20.1069C20.474 19.6499 20.1167 19.3219 19.6665 19.2901C19.2182 19.2583 18.8129 19.5626 18.6626 20.0589C18.1918 21.6134 17.7254 23.1691 17.2565 24.728ZM5.88814 23.5763C5.88814 22.4957 5.89189 21.4151 5.8869 20.3345C5.88378 19.7234 5.47848 19.2895 4.92914 19.2888C4.38105 19.2888 3.96765 19.7234 3.9664 20.3339C3.96141 22.911 3.96141 25.4881 3.9664 28.0645C3.96765 28.7055 4.36048 29.099 4.99586 29.1027C6.13881 29.1102 7.28175 29.1108 8.4247 29.1021C9.02953 29.0977 9.44543 28.6787 9.43483 28.1132C9.42486 27.5626 9.01145 27.1835 8.40786 27.181C7.67022 27.1779 6.93195 27.1704 6.19493 27.1853C5.95486 27.1903 5.87817 27.1336 5.88191 26.8798C5.89687 25.7793 5.88814 24.6775 5.88814 23.5763ZM12.4228 24.1911C12.4228 22.9234 12.4235 21.6564 12.4222 20.3888C12.4222 20.2441 12.4291 20.1001 12.3786 19.9579C12.2214 19.5139 11.7756 19.2302 11.3348 19.3013C10.8235 19.3836 10.4973 19.7764 10.4961 20.3364C10.493 22.9022 10.493 25.4681 10.4955 28.034C10.4961 28.6606 10.9076 29.1052 11.4682 29.1021C12.0294 29.0996 12.421 28.6594 12.4222 28.0234C12.4241 26.747 12.4228 25.4694 12.4228 24.1911Z" fill="url(#paint0_linear_8995_93905)"/>
<path d="M6.03154 7.38729C6.06334 4.69423 7.00489 2.37217 8.87737 0.431722C9.30699 -0.0134844 9.87878 -0.0533909 10.2872 0.326968C10.71 0.72042 10.7081 1.30218 10.2672 1.76235C8.54565 3.56001 7.77994 5.70312 7.99631 8.17607C8.15843 10.0267 8.91541 11.6255 10.2018 12.9667C10.4587 13.2348 10.6476 13.5217 10.5859 13.9045C10.5254 14.2793 10.3196 14.553 9.94674 14.6746C9.55454 14.8024 9.21034 14.7132 8.92164 14.4208C7.98509 13.4724 7.2543 12.3856 6.75485 11.1497C6.26786 9.94505 6.02156 8.69049 6.03154 7.38729Z" fill="url(#paint1_linear_8995_93905)"/>
<path d="M26.0093 7.86208C25.9725 10.1056 25.0347 12.4426 23.1453 14.388C22.7269 14.8189 22.1265 14.8457 21.7312 14.4597C21.3458 14.0831 21.3427 13.4895 21.7505 13.0668C22.9202 11.8534 23.6947 10.436 23.9597 8.76434C24.3768 6.1355 23.6785 3.83589 21.8752 1.87611C21.6763 1.66037 21.4774 1.45273 21.4524 1.13784C21.4181 0.71321 21.6195 0.340958 21.9856 0.166367C22.369 -0.0163301 22.7843 0.0516356 23.1004 0.368393C24.3114 1.58305 25.1588 3.01407 25.6308 4.66333C25.8858 5.55748 26.0118 6.47034 26.0093 7.86208Z" fill="url(#paint2_linear_8995_93905)"/>
<path d="M9.38087 7.39465C9.40706 5.80026 9.95327 4.41601 11.0613 3.26246C11.4809 2.82536 12.0789 2.79106 12.4761 3.16893C12.8827 3.55615 12.877 4.12855 12.4611 4.58623C10.921 6.28163 10.916 8.51078 12.4487 10.2043C12.8795 10.6807 12.8864 11.2568 12.4649 11.6428C12.0515 12.0213 11.4872 11.9764 11.0526 11.5306C9.98383 10.435 9.37837 8.93666 9.38087 7.39465Z" fill="url(#paint3_linear_8995_93905)"/>
<path d="M22.6491 7.86996C22.636 9.02724 22.0642 10.4215 20.9356 11.5838C20.5821 11.9479 20.0789 11.9972 19.6879 11.7315C19.3057 11.4721 19.1586 10.9708 19.3425 10.5468C19.4055 10.4021 19.5102 10.2868 19.6175 10.1727C21.1021 8.58952 21.0996 6.20885 19.6137 4.62194C19.166 4.14431 19.1498 3.55507 19.5726 3.16286C19.9829 2.78251 20.5734 2.83613 21.0086 3.29256C22.0767 4.41306 22.6497 5.85032 22.6491 7.86996Z" fill="url(#paint4_linear_8995_93905)"/>
<path d="M18.044 7.39152C18.049 8.51202 17.1561 9.41678 16.0405 9.42177C14.9119 9.42738 13.986 8.51078 13.9922 7.39464C13.9985 6.28724 14.9138 5.37625 16.0212 5.375C17.1355 5.37438 18.039 6.27477 18.044 7.39152Z" fill="url(#paint5_linear_8995_93905)"/>
<path d="M21.8002 24.1999C21.8002 22.9428 21.7989 21.6852 21.8008 20.4281C21.802 19.6537 22.1712 19.2902 22.9506 19.2895C24.3118 19.2889 25.673 19.2889 27.0341 19.2895C27.4401 19.2895 27.7587 19.446 27.9564 19.8127C28.1291 20.1338 28.1135 20.4555 27.9252 20.7592C27.73 21.0741 27.437 21.2188 27.061 21.2163C26.0427 21.2107 25.0239 21.2231 24.0063 21.2082C23.7637 21.2044 23.7045 21.2792 23.7182 21.5062C23.7369 21.8167 23.7425 22.131 23.7169 22.4409C23.6951 22.704 23.8011 22.7471 24.0343 22.7439C24.8449 22.7321 25.6555 22.7258 26.4655 22.747C27.1439 22.7651 27.5754 23.3793 27.3765 23.9979C27.2449 24.4075 26.8845 24.6588 26.3932 24.6626C25.6038 24.6688 24.8137 24.6757 24.0243 24.6582C23.7699 24.6526 23.7119 24.733 23.7182 24.9731C23.7344 25.6066 23.7338 26.2407 23.7182 26.8743C23.7126 27.1112 23.7649 27.1935 24.0218 27.1891C24.9777 27.1723 25.9336 27.1804 26.8895 27.1829C27.5105 27.1848 27.9339 27.5676 27.9401 28.1269C27.9464 28.6969 27.5149 29.1028 26.8833 29.1047C25.5426 29.109 24.202 29.109 22.8621 29.1047C22.1874 29.1022 21.8045 28.7168 21.8014 28.0353C21.7964 26.7558 21.8002 25.4775 21.8002 24.1999Z" fill="#EEEEEE"/>
<path d="M17.2559 24.7279C17.7248 23.169 18.1913 21.6133 18.662 20.0582C18.8123 19.5619 19.2176 19.2576 19.6659 19.2894C20.1161 19.3212 20.4728 19.6492 20.5644 20.1062C20.6006 20.2877 20.5588 20.4585 20.5077 20.6269C19.737 23.1853 18.9651 25.743 18.1906 28.3001C18.0316 28.8258 17.7167 29.0702 17.2298 29.0658C16.7459 29.0615 16.4329 28.8102 16.2751 28.2889C15.5044 25.7411 14.735 23.194 13.9668 20.6456C13.7822 20.0326 14.0304 19.4989 14.566 19.3368C15.116 19.1703 15.6117 19.4602 15.7994 20.0725C16.2508 21.5478 16.6966 23.025 17.1437 24.5022C17.1674 24.582 17.1736 24.6674 17.2559 24.7279Z" fill="#EEEEEE"/>
<path d="M5.88666 23.5769C5.88666 24.678 5.89539 25.7798 5.88043 26.881C5.87668 27.1342 5.954 27.1915 6.19344 27.1865C6.93109 27.1716 7.66873 27.1784 8.40638 27.1822C9.00934 27.1847 9.42337 27.5644 9.43335 28.1144C9.44333 28.6793 9.02805 29.0983 8.42322 29.1033C7.28027 29.1114 6.13732 29.1114 4.99438 29.1039C4.35899 29.0996 3.96679 28.7067 3.96492 28.0657C3.9593 25.4886 3.95993 22.9116 3.96492 20.3351C3.96616 19.7246 4.37895 19.29 4.92766 19.29C5.47762 19.29 5.88292 19.7246 5.88541 20.3357C5.8904 21.4151 5.88666 22.4957 5.88666 23.5769Z" fill="#EEEEEE"/>
<path d="M12.4216 24.1914C12.4216 25.4691 12.4228 26.7467 12.4209 28.0249C12.4197 28.6609 12.0281 29.1005 11.4669 29.1037C10.9064 29.1062 10.4948 28.6622 10.4942 28.0355C10.4917 25.4697 10.4911 22.9038 10.4948 20.338C10.4955 19.778 10.8222 19.3852 11.3335 19.3029C11.7743 19.2318 12.2208 19.5155 12.3773 19.9595C12.4278 20.1016 12.4209 20.2457 12.4209 20.3903C12.4222 21.6567 12.4216 22.9244 12.4216 24.1914Z" fill="#EEEEEE"/>
<defs>
<linearGradient id="paint0_linear_8995_93905" x1="16.0205" y1="16.4014" x2="16.0205" y2="31.9928" gradientUnits="userSpaceOnUse">
<stop stop-color="#FF4142"/>
<stop offset="1" stop-color="#DF2328"/>
</linearGradient>
<linearGradient id="paint1_linear_8995_93905" x1="8.31618" y1="0.0673828" x2="8.31618" y2="14.7314" gradientUnits="userSpaceOnUse">
<stop stop-color="#FF4142"/>
<stop offset="1" stop-color="#DF2328"/>
</linearGradient>
<linearGradient id="paint2_linear_8995_93905" x1="23.7263" y1="0.0664062" x2="23.7263" y2="14.7313" gradientUnits="userSpaceOnUse">
<stop stop-color="#FF4142"/>
<stop offset="1" stop-color="#DF2328"/>
</linearGradient>
<linearGradient id="paint3_linear_8995_93905" x1="11.079" y1="2.9082" x2="11.079" y2="11.8986" gradientUnits="userSpaceOnUse">
<stop stop-color="#FF4142"/>
<stop offset="1" stop-color="#DF2328"/>
</linearGradient>
<linearGradient id="paint4_linear_8995_93905" x1="20.9564" y1="2.91016" x2="20.9564" y2="11.8996" gradientUnits="userSpaceOnUse">
<stop stop-color="#FF4142"/>
<stop offset="1" stop-color="#DF2328"/>
</linearGradient>
<linearGradient id="paint5_linear_8995_93905" x1="16.0181" y1="5.375" x2="16.0181" y2="9.42179" gradientUnits="userSpaceOnUse">
<stop stop-color="#FF4142"/>
<stop offset="1" stop-color="#DF2328"/>
</linearGradient>
</defs>
</svg>
