<svg width="14" height="16" viewBox="0 0 14 16" fill="none" xmlns="http://www.w3.org/2000/svg">
<path d="M6.66667 0.00452878C4.96858 -0.0573763 3.31365 0.517412 2.06417 1.60312C0.814696 2.68883 0.0724762 4.19701 0 5.79741C0 9.76216 5.96606 15.5813 6.21939 15.827C6.3383 15.9379 6.4988 16 6.66606 16C6.83331 16 6.99381 15.9379 7.11272 15.827C7.36727 15.5813 13.3333 9.76101 13.3333 5.79741C13.2609 4.19701 12.5186 2.68883 11.2692 1.60312C10.0197 0.517412 8.36475 -0.0573763 6.66667 0.00452878ZM6.66667 8.71209C6.06595 8.66591 5.49252 8.45576 5.01646 8.10732C4.5404 7.75889 4.18234 7.28733 3.98606 6.75016C3.78977 6.213 3.76376 5.63354 3.91121 5.08267C4.05865 4.5318 4.37316 4.03334 4.81628 3.64824C5.25941 3.26314 5.81196 3.0081 6.4064 2.91425C7.00083 2.82041 7.61139 2.89179 8.16345 3.11977C8.71551 3.34775 9.18516 3.72246 9.51497 4.19798C9.84479 4.6735 10.0205 5.22928 10.0206 5.79741C9.98342 6.60235 9.60982 7.3607 8.9814 7.90683C8.35297 8.45296 7.5208 8.74243 6.66667 8.71209Z" fill="#777777"/>
</svg>
