<svg width="30" height="18" viewBox="0 0 30 18" fill="none" xmlns="http://www.w3.org/2000/svg">
<g filter="url(#filter0_b_8945_82833)">
<path d="M0.261719 0H26.0878C28.2489 0 30.0008 1.75193 30.0008 3.91304V18H4.17476C2.01365 18 0.261719 16.2481 0.261719 14.087V0Z" fill="black" fill-opacity="0.55"/>
<path d="M18.0646 7.7283H17.7385V6.45656C17.7385 5.05384 16.5685 3.91309 15.1298 3.91309C13.6911 3.91309 12.5211 5.05384 12.5211 6.45656V7.7283H12.1951C11.6559 7.7283 11.2168 8.15603 11.2168 8.68211V13.1332C11.2168 13.6593 11.6559 14.087 12.1951 14.087H18.0646C18.6038 14.087 19.0429 13.6593 19.0429 13.1332V8.68211C19.0429 8.15603 18.6038 7.7283 18.0646 7.7283ZM13.3907 6.45656C13.3907 5.52141 14.1707 4.76091 15.1298 4.76091C16.089 4.76091 16.869 5.52141 16.869 6.45656V7.7283H13.3907V6.45656ZM15.5646 11.0018V11.9674C15.5646 12.2014 15.3703 12.3913 15.1298 12.3913C14.8894 12.3913 14.6951 12.2014 14.6951 11.9674V11.0018C14.4364 10.8547 14.2603 10.5842 14.2603 10.2718C14.2603 9.80421 14.6503 9.42396 15.1298 9.42396C15.6094 9.42396 15.9994 9.80421 15.9994 10.2718C15.9994 10.5842 15.8233 10.8547 15.5646 11.0018Z" fill="white"/>
</g>
<defs>
<filter id="filter0_b_8945_82833" x="-4.43393" y="-4.69565" width="39.1306" height="27.3913" filterUnits="userSpaceOnUse" color-interpolation-filters="sRGB">
<feFlood flood-opacity="0" result="BackgroundImageFix"/>
<feGaussianBlur in="BackgroundImage" stdDeviation="2.34783"/>
<feComposite in2="SourceAlpha" operator="in" result="effect1_backgroundBlur_8945_82833"/>
<feBlend mode="normal" in="SourceGraphic" in2="effect1_backgroundBlur_8945_82833" result="shape"/>
</filter>
</defs>
</svg>
