<svg width="14" height="17" viewBox="0 0 14 17" fill="none" xmlns="http://www.w3.org/2000/svg">
<path d="M11.7053 0H1.91876C1.12172 0 0.421875 0.656111 0.421875 1.43273V15.9192C0.421875 16.1792 0.494182 16.3959 0.610716 16.5632C0.75008 16.7634 0.974478 16.878 1.2151 16.878C1.4426 16.878 1.68482 16.7766 1.9085 16.5855L6.28701 12.8655C6.42224 12.75 6.61649 12.6837 6.81845 12.6837C7.02034 12.6837 7.21419 12.75 7.34982 12.8658L11.7137 16.5849C11.9382 16.7766 12.1637 16.8781 12.3908 16.8781C12.7748 16.8781 13.1492 16.5816 13.1492 15.9193V1.43273C13.1492 0.656111 12.5024 0 11.7053 0Z" fill="#888888"/>
</svg>
