<svg width="35" height="40" viewBox="0 0 35 40" fill="none" xmlns="http://www.w3.org/2000/svg">
<rect width="34.2857" height="40" rx="5" fill="#7BBF6A"/>
<g clip-path="url(#clip0_9070_101998)">
<path d="M29.6455 37.7081C21.0656 37.7081 12.4867 37.7081 3.90674 37.7081C3.69394 37.4709 3.36712 37.5035 3.10749 37.3691C1.66172 36.6228 0.974475 35.4285 0.974475 33.8178C0.974475 25.6329 0.974475 17.447 0.974475 9.26212C0.974475 7.72777 0.959203 6.19445 0.978547 4.6601C0.997892 3.09826 1.70245 1.93758 3.10953 1.23709C3.84972 0.868524 4.65609 0.878706 5.45941 0.888887C5.99088 0.896014 5.99088 0.889905 5.91147 1.39287C5.54493 3.71832 7.17295 5.74748 9.52487 5.76479C14.4109 5.80144 19.2981 5.79024 24.1852 5.76784C25.918 5.7597 27.2202 4.7161 27.711 3.04939C27.8902 2.43952 27.882 1.82049 27.7833 1.19535C27.769 1.1027 27.6285 0.896014 27.8841 0.893978C28.8177 0.885833 29.7656 0.808454 30.6371 1.25135C32.0737 1.98238 32.7417 3.18277 32.7417 4.77515C32.7427 12.512 32.7417 20.25 32.7417 27.9868C32.7417 29.9549 32.7447 31.923 32.7406 33.8911C32.7386 35.179 32.2438 36.2277 31.2083 37.0137C30.739 37.3721 30.1739 37.4963 29.6455 37.7081ZM25.411 26.481C25.3805 26.0564 25.1656 25.6685 24.7064 25.4517C24.2126 25.2185 23.7453 25.302 23.3533 25.6675C22.8677 26.1206 22.4014 26.595 21.9401 27.0736C21.7925 27.2263 21.706 27.2375 21.5543 27.0776C21.1328 26.6358 20.697 26.2081 20.2612 25.7815C19.6849 25.2175 18.9672 25.1778 18.454 25.6757C17.9297 26.1837 17.9612 26.9229 18.5375 27.5114C18.9458 27.9278 19.349 28.3503 19.7786 28.7454C19.9975 28.947 19.967 29.064 19.7674 29.2504C19.3418 29.6485 18.9346 30.0679 18.5273 30.4854C17.9663 31.0596 17.9337 31.7825 18.4357 32.2926C18.9376 32.8027 19.6707 32.7782 20.2429 32.2234C20.6807 31.7978 21.1165 31.3691 21.537 30.9283C21.6937 30.7633 21.7884 30.7521 21.9513 30.9242C22.3708 31.3671 22.8076 31.7947 23.2454 32.2203C23.8176 32.7772 24.5476 32.8047 25.0526 32.2977C25.5576 31.7906 25.5271 31.0637 24.9691 30.4905C24.5527 30.0628 24.1393 29.6312 23.7005 29.228C23.4898 29.0345 23.5284 28.9266 23.7117 28.7525C24.1444 28.3422 24.5578 27.9105 24.9803 27.489C25.2389 27.2293 25.4029 26.929 25.411 26.481ZM21.7538 15.5532C22.0267 15.5482 22.2965 15.4789 22.494 15.2834C23.786 14.0057 25.074 12.7238 26.3477 11.4277C26.6277 11.1426 26.6959 10.7608 26.588 10.3658C26.3294 9.41484 25.2338 9.13994 24.4967 9.85672C23.6506 10.6794 22.8219 11.5194 21.9921 12.3583C21.8292 12.5232 21.7243 12.6128 21.5176 12.3858C21.0981 11.9256 20.6481 11.4908 20.1971 11.0602C19.6585 10.546 18.9427 10.5358 18.4489 11.0174C17.947 11.5082 17.95 12.2473 18.4835 12.7941C19.2604 13.5892 20.0535 14.3702 20.8405 15.1552C21.091 15.4046 21.3883 15.5482 21.7538 15.5532ZM26.6328 17.9693C26.6124 17.4887 26.3752 17.0957 25.9007 16.884C25.3886 16.6549 24.9141 16.774 24.5201 17.1619C23.6985 17.9713 22.8789 18.7818 22.0766 19.6095C21.8363 19.858 21.6856 19.9252 21.425 19.6258C21.0513 19.1972 20.6318 18.8093 20.2215 18.4132C19.6666 17.8787 18.9437 17.8583 18.4438 18.3521C17.9439 18.8459 17.951 19.58 18.4876 20.1288C19.2655 20.924 20.0505 21.712 20.8477 22.4878C21.4066 23.0325 22.0918 23.0295 22.6528 22.4766C23.8502 21.2956 25.0343 20.1003 26.2235 18.9111C26.4729 18.6627 26.6226 18.3684 26.6328 17.9693ZM10.7528 13.1097C11.5255 13.1097 12.2973 13.1138 13.0701 13.1087C13.8601 13.1036 14.4079 12.6037 14.412 11.894C14.416 11.1834 13.8673 10.6692 13.0833 10.6672C11.5245 10.6621 9.96674 10.6621 8.40796 10.6672C7.62704 10.6702 7.07826 11.1905 7.08641 11.9012C7.09455 12.5965 7.63519 13.1016 8.39472 13.1077C9.18073 13.1148 9.96674 13.1097 10.7528 13.1097ZM10.7446 21.6621C11.5306 21.6621 12.3166 21.6672 13.1026 21.6611C13.8622 21.655 14.4038 21.15 14.412 20.4556C14.4201 19.745 13.8723 19.2237 13.0914 19.2206C11.5326 19.2155 9.97489 19.2155 8.41611 19.2206C7.63111 19.2226 7.08335 19.7368 7.08641 20.4465C7.08946 21.1561 7.63722 21.657 8.42731 21.6611C9.20008 21.6662 9.97183 21.6621 10.7446 21.6621ZM10.7059 30.2146C11.5052 30.2146 12.3054 30.2196 13.1047 30.2125C13.8632 30.2064 14.4048 29.6994 14.412 29.004C14.4191 28.2933 13.8703 27.7741 13.0884 27.771C11.5296 27.7659 9.97183 27.7659 8.41305 27.771C7.62908 27.7741 7.0803 28.2892 7.08539 28.9999C7.09048 29.7096 7.63824 30.2074 8.42934 30.2125C9.18888 30.2186 9.9474 30.2146 10.7059 30.2146Z" fill="#7BBF6A"/>
<path d="M25.4121 26.4822C25.404 26.9302 25.2401 27.2305 24.9805 27.4891C24.5569 27.9096 24.1446 28.3413 23.7118 28.7527C23.5286 28.9268 23.4889 29.0337 23.7006 29.2281C24.1395 29.6313 24.5528 30.064 24.9693 30.4906C25.5282 31.0638 25.5577 31.7908 25.0527 32.2978C24.5477 32.8049 23.8177 32.7774 23.2455 32.2205C22.8077 31.7949 22.372 31.3673 21.9515 30.9244C21.7886 30.7523 21.6939 30.7645 21.5371 30.9284C21.1156 31.3703 20.6808 31.7979 20.243 32.2235C19.6718 32.7784 18.9388 32.8028 18.4358 32.2927C17.9339 31.7827 17.9675 31.0598 18.5275 30.4855C18.9347 30.0681 19.342 29.6486 19.7676 29.2505C19.9671 29.0642 19.9977 28.9471 19.7788 28.7455C19.3491 28.3515 18.9459 27.929 18.5376 27.5115C17.9614 26.9231 17.9298 26.1839 18.4541 25.6758C18.9673 25.179 19.6851 25.2177 20.2614 25.7817C20.6971 26.2083 21.1339 26.637 21.5544 27.0778C21.7061 27.2377 21.7937 27.2265 21.9403 27.0737C22.4015 26.5952 22.8678 26.1208 23.3535 25.6677C23.7454 25.3022 24.2128 25.2187 24.7066 25.4518C25.1678 25.6697 25.3816 26.0576 25.4121 26.4822Z" fill="#FBFBFB"/>
<path d="M21.7551 15.5536C21.3896 15.5485 21.0923 15.4049 20.8428 15.1555C20.0558 14.3695 19.2627 13.5896 18.4858 12.7944C17.9523 12.2477 17.9492 11.5085 18.4512 11.0177C18.944 10.5362 19.6607 10.5463 20.1993 11.0605C20.6504 11.4912 21.1004 11.9259 21.5199 12.3861C21.7266 12.6132 21.8314 12.5236 21.9943 12.3586C22.8241 11.5197 23.6529 10.6797 24.499 9.85706C25.2361 9.14029 26.3316 9.41519 26.5902 10.3661C26.6982 10.7612 26.63 11.143 26.35 11.4281C25.0763 12.7242 23.7873 14.005 22.4963 15.2838C22.2977 15.4793 22.0279 15.5485 21.7551 15.5536Z" fill="#FAFAFA"/>
<path d="M26.6337 17.9699C26.6235 18.369 26.4728 18.6623 26.2244 18.9117C25.0352 20.1009 23.8511 21.2962 22.6538 22.4772C22.0938 23.0301 21.4076 23.0332 20.8486 22.4884C20.0524 21.7126 19.2664 20.9246 18.4886 20.1294C17.953 19.5816 17.9449 18.8465 18.4448 18.3527C18.9447 17.859 19.6665 17.8793 20.2225 18.4138C20.6328 18.8089 21.0533 19.1978 21.4259 19.6264C21.6865 19.9258 21.8372 19.8586 22.0775 19.6102C22.8788 18.7824 23.6994 17.972 24.5211 17.1625C24.9151 16.7746 25.3885 16.6555 25.9017 16.8846C26.3761 17.0964 26.6133 17.4894 26.6337 17.9699Z" fill="#FAFAFA"/>
<path d="M10.7543 13.1104C9.96832 13.1104 9.18231 13.1155 8.3963 13.1094C7.63676 13.1032 7.09613 12.5982 7.08798 11.9029C7.07983 11.1922 7.62862 10.6719 8.40954 10.6689C9.96832 10.6638 11.5261 10.6638 13.0849 10.6689C13.8688 10.6709 14.4176 11.1851 14.4136 11.8957C14.4095 12.6054 13.8617 13.1053 13.0716 13.1104C12.2989 13.1144 11.5271 13.1104 10.7543 13.1104Z" fill="#FDFDFD"/>
<path d="M10.7461 21.6631C9.97333 21.6631 9.20158 21.6672 8.4288 21.6621C7.63872 21.657 7.09096 21.1571 7.0879 20.4474C7.08485 19.7368 7.63261 19.2236 8.4176 19.2216C9.97638 19.2165 11.5341 19.2165 13.0929 19.2216C13.8738 19.2246 14.4226 19.7459 14.4135 20.4566C14.4053 21.152 13.8637 21.656 13.1041 21.6621C12.3181 21.6682 11.5321 21.6631 10.7461 21.6631Z" fill="#FDFDFD"/>
<path d="M10.7065 30.2149C9.94797 30.2149 9.18844 30.219 8.42992 30.2139C7.63882 30.2088 7.09106 29.7109 7.08597 29.0013C7.08088 28.2906 7.62966 27.7754 8.41363 27.7724C9.97241 27.7673 11.5302 27.7673 13.0889 27.7724C13.8709 27.7754 14.4197 28.2947 14.4125 29.0053C14.4054 29.7007 13.8648 30.2068 13.1052 30.2139C12.306 30.221 11.5068 30.2149 10.7065 30.2149Z" fill="#FDFDFD"/>
<rect x="5.32227" y="0.898438" width="24.0327" height="7.55918" fill="#7BBF6A"/>
</g>
<defs>
<clipPath id="clip0_9070_101998">
<rect width="31.3469" height="36.5714" fill="white" transform="translate(1.14258 1.14355)"/>
</clipPath>
</defs>
</svg>
