<svg width="35" height="41" viewBox="0 0 35 41" fill="none" xmlns="http://www.w3.org/2000/svg">
<path d="M18.3037 0.145508C19.3448 1.24854 20.3798 2.35559 21.4269 3.45259C23.9212 6.06588 26.4215 8.67414 28.9188 11.2844C28.97 11.3387 29.0141 11.399 29.0622 11.4563C25.6051 11.4563 22.148 11.4513 18.6909 11.4654C18.3248 11.4664 18.2275 11.3538 18.2285 10.9948C18.2386 7.37805 18.2315 3.76128 18.2295 0.145508C18.2536 0.145508 18.2787 0.145508 18.3037 0.145508Z" fill="#E2E2E2"/>
<path fill-rule="evenodd" clip-rule="evenodd" d="M18.2285 0.145508H4.61362C4.50295 0.239822 4.36937 0.261435 4.23659 0.282921C4.17685 0.292588 4.11727 0.302229 4.06 0.318453C1.98994 0.887565 0.511612 2.71355 0.385242 4.86531C0.374209 5.04027 0.371202 5.21623 0.371202 5.3922C0.370889 8.32064 0.371065 11.2492 0.371241 14.1778C0.371629 20.6219 0.372016 27.0661 0.367188 33.5099C0.366187 35.4465 1.13243 36.9548 2.75919 38.0105C3.24762 38.3283 3.7872 38.5233 4.35186 38.6561C4.3765 38.6619 4.40351 38.6631 4.43082 38.6644C4.50244 38.6676 4.57614 38.671 4.61463 38.7576H24.8489C25.0307 38.6818 25.221 38.6349 25.4116 38.5879C25.6151 38.5377 25.819 38.4874 26.0133 38.4017C27.9138 37.5611 28.9699 36.1142 29.1515 34.0348C29.1666 33.8581 29.1666 33.6788 29.1665 33.501L29.1665 33.4697L29.1666 29.8901V29.89V29.8899V29.8899V29.8898C29.1667 23.9082 29.1668 17.9271 29.1635 11.946C29.1635 11.9088 29.1673 11.8701 29.1711 11.8311L29.1711 11.831C29.1842 11.6973 29.1978 11.5591 29.0612 11.4564C28.197 11.4566 27.3328 11.4565 26.4687 11.4564C23.8757 11.456 21.2828 11.4556 18.6898 11.4654C18.3228 11.4664 18.2265 11.3528 18.2275 10.9948C18.2352 8.20079 18.2328 5.40615 18.2304 2.61137V2.61127V2.61118V2.61108V2.61098C18.2297 1.78916 18.2289 0.967336 18.2285 0.145508ZM12.1123 26.2152L12.1126 25.4056C12.1126 25.1301 12.113 24.8547 12.1134 24.5793V24.5792C12.1146 23.7993 12.1157 23.0198 12.1076 22.2403C12.1056 21.991 12.1557 21.8793 12.4345 21.8914L12.4351 21.8914C12.1563 21.8804 12.1051 21.991 12.1081 22.2403C12.1169 23.011 12.1156 23.7822 12.1142 24.5531V24.5532V24.5533V24.5535V24.5536V24.5537V24.5538V24.5539V24.554C12.1137 24.8379 12.1132 25.1218 12.1132 25.4057L12.1129 26.2152C12.1125 27.0256 12.1122 27.8363 12.1152 28.6464C12.1152 28.6689 12.1133 28.6928 12.1114 28.7169C12.1027 28.8298 12.0936 28.9478 12.2727 28.955C12.093 28.948 12.1021 28.8299 12.1109 28.7169C12.1127 28.6927 12.1146 28.6689 12.1146 28.6463C12.1116 27.8363 12.1119 27.0256 12.1123 26.2152ZM13.5098 21.8939C13.2729 21.8981 13.036 21.9024 12.7993 21.9003C13.035 21.9023 13.2709 21.8981 13.5068 21.8939L13.5085 21.8939L13.5093 21.8939H13.5093H13.5093H13.5094H13.5094C13.7727 21.8892 14.0359 21.8845 14.2987 21.8884C14.0367 21.8846 13.7741 21.8892 13.5116 21.8939H13.5116H13.5115L13.5103 21.8939L13.5098 21.8939ZM17.1355 22.7223C16.7666 22.4228 16.3146 22.1989 15.787 22.0617C16.3145 22.1991 16.7666 22.4229 17.1355 22.7223ZM5.94333 26.272C5.94292 25.9902 5.94251 25.7085 5.94251 25.4267C5.94251 25.1388 5.9428 24.8509 5.94308 24.563V24.5629V24.5629V24.5627C5.94387 23.7708 5.94465 22.9787 5.9395 22.186C5.9385 21.994 5.96458 21.8864 6.19926 21.8914C6.58174 21.8989 6.9645 21.8989 7.34717 21.8988C7.99203 21.8987 8.63664 21.8987 9.27928 21.9346C9.98371 21.9745 10.5501 22.2713 10.9148 22.7392C10.5501 22.2719 9.984 21.9755 9.2801 21.9357C8.63746 21.8997 7.99284 21.8998 7.34799 21.8999C6.96532 21.8999 6.58256 21.9 6.20009 21.8925C5.9654 21.8874 5.93932 21.995 5.94033 22.1871C5.94484 22.997 5.94428 23.8069 5.94371 24.6169L5.94371 24.6189C5.94352 24.8882 5.94334 25.1575 5.94334 25.4268C5.94334 25.7175 5.94384 26.0083 5.94435 26.299V26.2991V26.2991V26.2992C5.94573 27.0884 5.94712 27.8777 5.93832 28.6675C5.93737 28.7404 5.943 28.7976 5.95846 28.8414C5.9427 28.7975 5.93686 28.7399 5.9375 28.6665C5.94565 27.8683 5.94449 27.0701 5.94333 26.272ZM19.1959 26.2268L19.1959 26.2219V26.2218C19.1956 25.9534 19.1953 25.685 19.1953 25.4167C19.1953 25.1498 19.1957 24.8829 19.1961 24.616V24.616V24.6159V24.6159V24.6158C19.1972 23.8151 19.1983 23.0143 19.1893 22.2112C19.1873 21.9708 19.2475 21.8864 19.5002 21.8884C20.9665 21.8995 22.4318 21.8984 23.8981 21.8894C24.0447 21.8881 24.1276 21.9168 24.1665 21.9939C24.127 21.9184 24.0441 21.8902 23.8994 21.8915C22.4331 21.9005 20.9678 21.9015 19.5015 21.8904C19.2478 21.8884 19.1876 21.9719 19.1906 22.2132C19.1994 22.9935 19.198 23.7739 19.1967 24.5542C19.1962 24.8417 19.1956 25.1292 19.1956 25.4167C19.1956 25.7013 19.196 25.9857 19.1963 26.2701V26.2702V26.2702C19.1973 27.0664 19.1983 27.8624 19.1916 28.6595C19.1907 28.759 19.1987 28.833 19.2307 28.8829C19.1976 28.8329 19.1894 28.7583 19.1903 28.6574C19.1978 27.8475 19.1969 27.037 19.1959 26.2268ZM23.5342 24.6517C23.4985 24.586 23.426 24.5615 23.3043 24.564C22.943 24.5718 22.5817 24.5701 22.2201 24.5685L22.2191 24.5684C22.0671 24.5677 21.915 24.567 21.7628 24.567C21.3805 24.567 21.1894 24.567 21.0929 24.4715C21.0824 24.4611 21.0731 24.4496 21.0647 24.4368C21.0734 24.4504 21.0832 24.4626 21.0942 24.4735C21.1907 24.5691 21.3818 24.5691 21.7642 24.5691C21.9139 24.5691 22.0637 24.5697 22.2135 24.5703H22.2136H22.2137H22.2139C22.5778 24.5717 22.942 24.5732 23.3057 24.5661C23.4263 24.5636 23.4982 24.5873 23.5342 24.6517ZM16.489 25.3956C16.4853 25.0556 16.4282 24.7555 16.3203 24.4989C16.4279 24.7554 16.4848 25.0552 16.4885 25.3946C16.5005 26.5489 15.9288 27.2347 14.8296 27.3845C14.2567 27.4623 14.0247 27.4938 13.9307 27.3076C13.9451 27.3363 13.9627 27.3599 13.9844 27.379C14.1036 27.4841 14.3443 27.4514 14.8301 27.3855C15.9293 27.2357 16.502 26.5499 16.489 25.3956ZM8.39984 23.4429C8.42087 23.4429 8.44258 23.4429 8.46498 23.4429C8.49841 23.4429 8.53188 23.4426 8.56537 23.4424C8.58026 23.4422 8.59516 23.4421 8.61005 23.442C8.59541 23.4421 8.58075 23.4422 8.5661 23.4423C8.53262 23.4426 8.49915 23.4429 8.46572 23.4429C8.44306 23.4429 8.4211 23.4429 8.39984 23.4429ZM8.69789 23.4418C8.77076 23.4423 8.84338 23.4447 8.9153 23.452C9.31347 23.4932 9.5652 23.7617 9.57423 24.1398C9.57914 24.3483 9.51272 24.5312 9.38694 24.6613C9.5132 24.5311 9.57989 24.3482 9.57497 24.1397C9.56594 23.7607 9.3142 23.4932 8.91604 23.452C8.84388 23.4447 8.77101 23.4423 8.69789 23.4418ZM8.99515 24.8554C8.98145 24.8575 8.96754 24.8592 8.95341 24.8607C8.86679 24.8697 8.7798 24.875 8.69258 24.878C8.78005 24.875 8.86729 24.8698 8.95415 24.8607C8.96802 24.8592 8.98169 24.8574 8.99515 24.8554ZM7.96652 24.8797C7.94545 24.88 7.92439 24.8803 7.90334 24.8808C7.90236 24.8808 7.9014 24.8808 7.90044 24.8809C7.90164 24.8808 7.90285 24.8808 7.90408 24.8808C7.92488 24.8803 7.94569 24.88 7.96652 24.8797Z" fill="#EEEEEE"/>
<path d="M10.8455 14.7053C10.9814 14.5375 11.1212 14.373 11.2533 14.202C11.633 13.7108 11.9235 13.6954 12.3692 13.8773C12.7276 14.0232 12.9258 14.5652 12.8251 14.9998C12.7667 15.2518 12.6135 15.4446 12.4583 15.6394C12.3288 15.8014 12.2075 15.9705 12.0831 16.1364C11.7125 16.5761 11.3572 17.0287 11.0173 17.4928C10.6973 17.8933 10.3825 18.2977 10.0573 18.6937C9.57956 19.2749 9.16978 19.9126 8.62918 20.441C8.23671 20.8242 7.84553 20.8171 7.47166 20.4057C7.02917 19.919 6.60336 19.4176 6.1737 18.92C5.97362 18.6892 5.89538 18.4134 5.9313 18.1138C5.97747 17.7288 6.15767 17.4253 6.53474 17.2858C6.90861 17.1476 7.20489 17.2942 7.4505 17.5803C7.57042 17.7204 7.69226 17.8593 7.81475 17.9968C8.04369 18.254 8.05523 18.2623 8.26685 17.9962C8.81131 17.3128 9.34485 16.6211 9.88289 15.9326C10.2202 15.5359 10.5402 15.1264 10.8455 14.7053Z" fill="#B8B8B8"/>
<path d="M12.0846 16.1356C11.7139 16.5754 11.3586 17.0279 11.0188 17.4921C11.113 17.7524 11.1515 18.025 11.1829 18.2982C11.2105 19.0941 10.9873 19.8135 10.5243 20.4589C9.99848 21.0819 9.35399 21.5075 8.5402 21.645C8.37603 21.6727 8.20865 21.681 8.04256 21.6978C7.38268 21.7042 6.77666 21.5171 6.20849 21.188C6.12832 21.1417 6.0937 21.024 5.97634 21.0388C5.7878 20.835 5.57618 20.6486 5.41522 20.4255C4.89577 19.7042 4.71878 18.8884 4.81369 18.009C4.92335 17.4432 5.14588 16.927 5.49345 16.4667C5.96736 15.9486 6.51438 15.548 7.21081 15.3854C7.32753 15.3584 7.44424 15.332 7.56096 15.305C7.55005 15.2536 7.52953 15.2157 7.50324 15.188C7.52953 15.2163 7.54941 15.2536 7.56096 15.305C8.25034 15.2626 8.91727 15.3346 9.52842 15.6901C9.65218 15.7621 9.78237 15.8251 9.88305 15.9318C10.2204 15.5358 10.541 15.1263 10.8463 14.7052C9.84778 13.9576 8.7204 13.6561 7.48785 13.7737C6.7664 13.8425 6.08664 14.0649 5.48127 14.4815C4.86756 14.8415 4.37762 15.3263 4.00952 15.9357C3.66515 16.4326 3.45545 16.9836 3.34579 17.5757C3.14058 18.5863 3.25986 19.5576 3.6908 20.493C4.00567 21.1732 4.45842 21.744 5.04327 22.2108C6.58684 23.4425 8.68641 23.5537 10.3012 22.6235C11.0098 22.2358 11.5767 21.7003 11.9884 21.0022C12.4463 20.3149 12.6733 19.5544 12.7021 18.7322C12.765 17.8026 12.5578 16.9373 12.0846 16.1356ZM7.46091 15.152C7.44488 15.1424 7.42821 15.134 7.41025 15.1276C7.42821 15.1347 7.44488 15.1424 7.46091 15.152Z" fill="#B8B8B8"/>
<path d="M12.7013 29.591C12.6762 28.997 12.5255 28.4358 12.2633 27.9035C12.2447 27.8591 12.2306 27.8128 12.2075 27.7717C11.2924 26.1009 9.88217 25.2259 7.98397 25.1809C7.183 25.1623 6.41731 25.3558 5.72023 25.773C5.27775 25.9941 4.89041 26.2873 4.5672 26.664C4.17409 27.0459 3.8759 27.4908 3.67389 28.0006C3.27822 28.8209 3.17305 29.6894 3.29746 30.5804C3.75534 33.8565 7.32729 35.6719 10.2323 34.1027C11.2391 33.5588 11.9728 32.7552 12.3761 31.6681C12.6737 31.0053 12.7513 30.3085 12.7013 29.591ZM11.4969 29.2233C11.4642 29.2137 11.4322 29.2034 11.3994 29.1937C11.4322 29.2034 11.4649 29.2137 11.4969 29.2233ZM11.3513 29.1809C11.2866 29.1642 11.2212 29.1526 11.1532 29.1558C11.2212 29.1526 11.2866 29.1642 11.3513 29.1809ZM9.9463 27.186C9.92513 27.1835 9.90397 27.1822 9.88217 27.1809C9.90397 27.1815 9.92513 27.1835 9.9463 27.186ZM7.98397 26.5804C7.96537 26.5682 7.94421 26.5599 7.92176 26.5522C7.94421 26.5592 7.96537 26.5682 7.98397 26.5804ZM6.07743 27.3223C6.03703 27.2838 5.99342 27.251 5.94661 27.224C5.99342 27.251 6.03639 27.2838 6.07743 27.3223ZM8.85483 33.0072C6.49554 33.6758 4.31389 31.5537 4.8763 29.1513C4.93145 28.916 5.04817 28.7096 5.11486 28.4827C5.36881 28.0391 5.68881 27.6521 6.08641 27.33C6.67767 26.9282 7.3305 26.7225 8.04425 26.7058C8.04489 26.6923 8.04296 26.6807 8.04104 26.6698C8.04296 26.6807 8.04425 26.6923 8.04425 26.7058C8.62846 26.7495 9.18124 26.8967 9.68722 27.2002C9.75327 27.1835 9.81804 27.1777 9.88217 27.1802C9.81804 27.1777 9.75327 27.1835 9.68722 27.2002C10.401 27.6778 10.8717 28.3323 11.1012 29.1609C11.107 29.1603 11.1122 29.1597 11.1179 29.159C11.1122 29.1597 11.107 29.1597 11.1012 29.1609C11.2391 29.8501 11.1955 30.5245 10.9377 31.1815C10.5068 32.0924 9.83151 32.7308 8.85483 33.0072Z" fill="#B8B8B8"/>
<path d="M9.93097 30.8134C9.72897 30.5517 9.49298 30.3165 9.22813 30.1139C9.03446 29.9802 9.11077 29.8722 9.24737 29.7469C9.45258 29.5585 9.6456 29.3573 9.83927 29.1574C9.99382 28.9973 10.0939 28.8121 10.0605 28.5775C10.0631 28.2091 9.85659 27.9764 9.5353 27.869C9.22364 27.7649 8.93891 27.8588 8.70805 28.1082C8.52336 28.3081 8.32071 28.492 8.1341 28.6906C8.03854 28.7922 7.9866 28.8179 7.85129 28.7118C7.6185 28.5286 7.45113 28.2882 7.23694 28.0895C6.90604 27.7835 6.46163 27.7366 6.14483 28.0291C5.82291 28.3268 5.79726 28.7954 6.10187 29.1207C6.33145 29.3663 6.58026 29.5939 6.82075 29.8292C6.90475 29.9166 6.85473 29.9751 6.78548 30.0426C6.56936 30.2534 6.35966 30.4701 6.14611 30.6829C5.96591 30.8622 5.87742 31.0718 5.9191 31.329C5.92487 31.6504 6.10571 31.8542 6.38531 31.9616C6.67325 32.0715 6.95542 32.0316 7.1882 31.8131C7.40944 31.6048 7.63005 31.3939 7.83205 31.167C7.95838 31.0255 8.03406 31.0461 8.15077 31.1734C8.35662 31.3971 8.57274 31.6118 8.79654 31.8176C9.08512 32.0831 9.53659 32.0766 9.82452 31.8176C10.1022 31.5675 10.1644 31.1168 9.93097 30.8134Z" fill="#B8B8B8"/>
<rect x="14.7725" y="15.5508" width="11.5247" height="1.92569" rx="0.962847" fill="#CBCBCB"/>
<rect x="14.7725" y="26.1426" width="11.5247" height="1.9257" rx="0.962849" fill="#CBCBCB"/>
<rect x="14.7725" y="18.4395" width="3.84158" height="1.92569" rx="0.962847" fill="#CBCBCB"/>
<rect x="14.7725" y="29.0312" width="3.84158" height="1.92569" rx="0.962845" fill="#CBCBCB"/>
<rect x="0.0966797" y="0.243164" width="34.5062" height="40.442" rx="5" fill="#EEEEEE"/>
<g clip-path="url(#clip0_10428_6903)">
<path d="M29.9334 38.3679C21.2983 38.3679 12.6642 38.3679 4.02915 38.3679C3.81498 38.1281 3.48606 38.161 3.22476 38.0251C1.7697 37.2706 1.07803 36.0631 1.07803 34.4346C1.07803 26.1593 1.07803 17.8829 1.07803 9.60763C1.07803 8.05633 1.06266 6.50606 1.08213 4.95476C1.1016 3.37566 1.81068 2.20215 3.22681 1.49393C3.97176 1.12129 4.78332 1.13158 5.5918 1.14187C6.12669 1.14908 6.12669 1.1429 6.04677 1.65142C5.67788 4.00257 7.31636 6.05415 9.6834 6.07165C14.6009 6.10871 19.5194 6.09739 24.438 6.07474C26.182 6.0665 27.4926 5.01137 27.9865 3.32625C28.1668 2.70964 28.1586 2.08377 28.0592 1.45172C28.0449 1.35805 27.9035 1.14908 28.1607 1.14702C29.1003 1.13878 30.0543 1.06055 30.9315 1.50834C32.3773 2.24744 33.0495 3.4611 33.0495 5.07108C33.0505 12.8935 33.0495 20.7169 33.0495 28.5393C33.0495 30.5291 33.0526 32.5189 33.0485 34.5087C33.0464 35.8109 32.5484 36.8712 31.5063 37.6659C31.0339 38.0282 30.4652 38.1538 29.9334 38.3679ZM25.6717 27.0168C25.641 26.5875 25.4248 26.1953 24.9626 25.9761C24.4656 25.7403 23.9953 25.8247 23.6008 26.1943C23.112 26.6524 22.6427 27.1321 22.1785 27.6159C22.0299 27.7703 21.9428 27.7816 21.7902 27.62C21.3659 27.1732 20.9274 26.7409 20.4888 26.3096C19.9088 25.7393 19.1864 25.6992 18.67 26.2025C18.1423 26.7162 18.174 27.4635 18.754 28.0585C19.1649 28.4795 19.5707 28.9068 20.0031 29.3062C20.2234 29.51 20.1927 29.6284 19.9918 29.8167C19.5635 30.2192 19.1536 30.6433 18.7437 31.0654C18.1791 31.646 18.1464 32.3768 18.6515 32.8926C19.1567 33.4083 19.8945 33.3836 20.4704 32.8226C20.911 32.3923 21.3495 31.9589 21.7727 31.5132C21.9305 31.3464 22.0258 31.3351 22.1898 31.5091C22.612 31.9569 23.0516 32.3892 23.4922 32.8195C24.0681 33.3826 24.8028 33.4104 25.311 32.8977C25.8193 32.3851 25.7885 31.6501 25.227 31.0705C24.8079 30.6382 24.3919 30.2017 23.9502 29.7941C23.7381 29.5985 23.777 29.4894 23.9615 29.3134C24.397 28.8985 24.813 28.462 25.2383 28.0359C25.4985 27.7734 25.6635 27.4697 25.6717 27.0168ZM21.991 15.9683C22.2656 15.9631 22.5372 15.8931 22.736 15.6955C24.0363 14.4036 25.3325 13.1076 26.6144 11.7972C26.8962 11.5089 26.9649 11.1229 26.8562 10.7235C26.596 9.76204 25.4934 9.4841 24.7515 10.2088C23.9 11.0405 23.0659 11.8898 22.2308 12.738C22.0668 12.9048 21.9613 12.9954 21.7533 12.7658C21.3311 12.3005 20.8782 11.861 20.4242 11.4255C19.8822 10.9057 19.1618 10.8954 18.6648 11.3823C18.1597 11.8785 18.1627 12.6258 18.6997 13.1786C19.4815 13.9826 20.2798 14.7721 21.0718 15.5658C21.3239 15.818 21.6231 15.9631 21.991 15.9683ZM26.9013 18.411C26.8808 17.9251 26.6421 17.5278 26.1646 17.3137C25.6492 17.0821 25.1716 17.2025 24.7751 17.5947C23.9482 18.4131 23.1233 19.2325 22.3158 20.0694C22.074 20.3206 21.9223 20.3885 21.66 20.0859C21.284 19.6525 20.8618 19.2603 20.4488 18.8598C19.8904 18.3194 19.1628 18.2988 18.6597 18.7981C18.1566 19.2973 18.1638 20.0395 18.7038 20.5944C19.4866 21.3983 20.2767 22.1951 21.079 22.9795C21.6416 23.5302 22.3312 23.5271 22.8958 22.9682C24.1008 21.7741 25.2926 20.5656 26.4894 19.3632C26.7405 19.112 26.8911 18.8145 26.9013 18.411ZM10.9192 13.4977C11.6969 13.4977 12.4736 13.5018 13.2514 13.4967C14.0466 13.4915 14.5978 12.9861 14.6019 12.2686C14.606 11.5501 14.0537 11.0303 13.2647 11.0282C11.6959 11.023 10.1281 11.023 8.55932 11.0282C7.77338 11.0313 7.22107 11.5573 7.22926 12.2758C7.23746 12.9789 7.78157 13.4895 8.546 13.4957C9.33706 13.5029 10.1281 13.4977 10.9192 13.4977ZM10.911 22.1446C11.7021 22.1446 12.4931 22.1498 13.2842 22.1436C14.0486 22.1374 14.5937 21.6269 14.6019 20.9248C14.6101 20.2063 14.0588 19.6792 13.2729 19.6762C11.7041 19.671 10.1363 19.671 8.56751 19.6762C7.77748 19.6782 7.22619 20.1981 7.22926 20.9155C7.23234 21.633 7.78362 22.1395 8.57879 22.1436C9.35653 22.1488 10.1332 22.1446 10.911 22.1446ZM10.8721 30.7916C11.6764 30.7916 12.4818 30.7967 13.2862 30.7895C14.0496 30.7833 14.5948 30.2707 14.6019 29.5676C14.6091 28.8491 14.0568 28.3241 13.2698 28.321C11.701 28.3159 10.1332 28.3159 8.56444 28.321C7.77543 28.3241 7.22312 28.845 7.22824 29.5635C7.23336 30.281 7.78465 30.7844 8.58083 30.7895C9.34526 30.7957 10.1087 30.7916 10.8721 30.7916Z" fill="#EEEEEE"/>
<path d="M25.6732 27.0185C25.665 27.4714 25.5 27.7751 25.2387 28.0365C24.8124 28.4617 24.3974 28.8981 23.9619 29.314C23.7775 29.49 23.7375 29.5981 23.9506 29.7947C24.3923 30.2024 24.8083 30.6399 25.2274 31.0712C25.79 31.6507 25.8197 32.3857 25.3114 32.8984C24.8032 33.411 24.0685 33.3832 23.4926 32.8201C23.052 32.3898 22.6134 31.9575 22.1902 31.5097C22.0263 31.3357 21.931 31.3481 21.7732 31.5138C21.349 31.9606 20.9114 32.3929 20.4708 32.8232C19.8959 33.3842 19.1582 33.4089 18.652 32.8932C18.1468 32.3775 18.1806 31.6466 18.7442 31.066C19.1541 30.644 19.5639 30.2199 19.9923 29.8174C20.1931 29.629 20.2238 29.5106 20.0035 29.3068C19.5711 28.9084 19.1653 28.4812 18.7544 28.0592C18.1745 27.4642 18.1427 26.7168 18.6704 26.2032C19.1869 25.7008 19.9093 25.7399 20.4892 26.3102C20.9278 26.7416 21.3674 27.1749 21.7906 27.6207C21.9433 27.7823 22.0314 27.7709 22.179 27.6165C22.6431 27.1327 23.1124 26.653 23.6012 26.1949C23.9957 25.8254 24.4661 25.741 24.963 25.9767C25.4272 26.197 25.6424 26.5892 25.6732 27.0185Z" fill="#B8B8B8"/>
<path d="M21.9926 15.9687C21.6247 15.9635 21.3255 15.8184 21.0745 15.5662C20.2824 14.7715 19.4841 13.983 18.7023 13.179C18.1653 12.6262 18.1623 11.8789 18.6674 11.3827C19.1634 10.8958 19.8848 10.9061 20.4268 11.4259C20.8808 11.8614 21.3337 12.3009 21.7559 12.7662C21.9639 12.9958 22.0694 12.9052 22.2334 12.7384C23.0685 11.8902 23.9026 11.0409 24.7541 10.2092C25.496 9.4845 26.5986 9.76243 26.8588 10.7239C26.9675 11.1233 26.8988 11.5093 26.617 11.7976C25.3351 13.108 24.0379 14.403 22.7386 15.6959C22.5387 15.8935 22.2672 15.9635 21.9926 15.9687Z" fill="#B8B8B8"/>
<path d="M26.9026 18.4119C26.8923 18.8154 26.7407 19.1119 26.4907 19.3641C25.2938 20.5664 24.1021 21.7749 22.8971 22.969C22.3335 23.528 21.6429 23.5311 21.0803 22.9804C20.279 22.196 19.4879 21.3992 18.7051 20.5953C18.1661 20.0414 18.1579 19.2982 18.661 18.799C19.1641 18.2997 19.8906 18.3203 20.4501 18.8607C20.8631 19.2601 21.2863 19.6534 21.6613 20.0867C21.9236 20.3894 22.0753 20.3214 22.3171 20.0703C23.1235 19.2334 23.9494 18.414 24.7764 17.5956C25.1729 17.2034 25.6494 17.083 26.1658 17.3146C26.6433 17.5287 26.8821 17.926 26.9026 18.4119Z" fill="#B8B8B8"/>
<path d="M10.9215 13.4987C10.1304 13.4987 9.33934 13.5039 8.54827 13.4977C7.78385 13.4915 7.23973 12.9809 7.23154 12.2779C7.22334 11.5593 7.77565 11.0333 8.56159 11.0302C10.1304 11.0251 11.6982 11.0251 13.267 11.0302C14.056 11.0323 14.6083 11.5521 14.6042 12.2707C14.6001 12.9881 14.0488 13.4936 13.2537 13.4987C12.4759 13.5028 11.6992 13.4987 10.9215 13.4987Z" fill="#B8B8B8"/>
<path d="M10.9132 22.1462C10.1354 22.1462 9.35872 22.1503 8.58098 22.1452C7.78582 22.14 7.23453 21.6346 7.23146 20.9171C7.22838 20.1986 7.77967 19.6797 8.56971 19.6777C10.1385 19.6725 11.7063 19.6725 13.2751 19.6777C14.061 19.6808 14.6133 20.2078 14.6041 20.9263C14.5959 21.6294 14.0508 22.139 13.2864 22.1452C12.4953 22.1513 11.7042 22.1462 10.9132 22.1462Z" fill="#B8B8B8"/>
<path d="M10.8733 30.7917C10.1099 30.7917 9.34552 30.7958 8.58212 30.7907C7.78593 30.7856 7.23465 30.2822 7.22953 29.5647C7.2244 28.8462 7.77671 28.3253 8.56573 28.3222C10.1345 28.3171 11.7023 28.3171 13.2711 28.3222C14.0581 28.3253 14.6104 28.8503 14.6032 29.5688C14.596 30.2719 14.0519 30.7835 13.2875 30.7907C12.4831 30.7979 11.6787 30.7917 10.8733 30.7917Z" fill="#B8B8B8"/>
<rect x="5.4541" y="1.15137" width="24.1872" height="7.64271" fill="#EEEEEE"/>
</g>
<defs>
<clipPath id="clip0_10428_6903">
<rect width="31.5485" height="36.9755" fill="white" transform="translate(1.24707 1.39941)"/>
</clipPath>
</defs>
</svg>
