<svg width="25" height="24" viewBox="0 0 25 24" fill="none" xmlns="http://www.w3.org/2000/svg">
<path d="M11.1592 0.835278L8.10753 7.04355L1.27987 8.0425C1.00369 8.0829 0.744277 8.20003 0.530985 8.38065C0.317692 8.56127 0.159026 8.79817 0.0729328 9.06455C-0.0131608 9.33094 -0.023247 9.61618 0.0438149 9.88801C0.110877 10.1599 0.252411 10.4074 0.45241 10.6028L5.39652 15.4318L4.22834 22.2542C4.18285 22.5291 4.21462 22.8113 4.32009 23.0691C4.42557 23.3269 4.60057 23.5501 4.82545 23.7136C5.05034 23.8772 5.31621 23.9746 5.59321 23.9949C5.87021 24.0153 6.14738 23.9578 6.39361 23.8288L12.5015 20.607L18.6079 23.8288C18.8547 23.9585 19.1328 24.0164 19.4106 23.996C19.6885 23.9756 19.9552 23.8777 20.1806 23.7134C20.4061 23.5491 20.5812 23.3249 20.6864 23.066C20.7917 22.8071 20.8227 22.5239 20.7761 22.2483L19.6079 15.4258L24.5476 10.5968C24.7476 10.4015 24.8891 10.1539 24.9562 9.88209C25.0232 9.61026 25.0132 9.32502 24.9271 9.05863C24.841 8.79225 24.6823 8.55535 24.469 8.37473C24.2557 8.19411 23.9963 8.07698 23.7201 8.03658L16.8925 7.03763L13.8422 0.835278C13.7184 0.584474 13.5272 0.373375 13.2901 0.225789C13.0531 0.0782028 12.7797 0 12.5007 0C12.2218 0 11.9484 0.0782028 11.7113 0.225789C11.4743 0.373375 11.2831 0.584474 11.1592 0.835278Z" fill="#E2E1E1"/>
</svg>
