<svg width="18" height="18" viewBox="0 0 18 18" fill="none" xmlns="http://www.w3.org/2000/svg">
<path d="M8.03385 0.62718L5.83722 5.28421L0.923222 6.03393C0.72077 6.07308 0.532728 6.16648 0.379142 6.30418C0.225557 6.44188 0.112187 6.61871 0.0511175 6.81582C-0.0099518 7.01294 -0.0164306 7.22294 0.0323719 7.42345C0.0811745 7.62396 0.183429 7.80746 0.328233 7.95438L3.88355 11.5769L3.04224 16.6943C3.00112 16.8952 3.01758 17.1036 3.08972 17.2955C3.16186 17.4874 3.28674 17.655 3.44995 17.7789C3.61316 17.9028 3.80805 17.978 4.01214 17.9959C4.21622 18.0137 4.42118 17.9734 4.60338 17.8797L9 15.4628L13.3966 17.8797C13.5789 17.973 13.7837 18.0129 13.9876 17.9948C14.1914 17.9768 14.3861 17.9015 14.5492 17.7777C14.7122 17.6539 14.8371 17.4866 14.9093 17.2949C14.9816 17.1033 14.9984 16.8951 14.9578 16.6943L14.1165 11.5769L17.6718 7.95438C17.8166 7.80746 17.9188 7.62396 17.9676 7.42345C18.0164 7.22294 18.01 7.01294 17.9489 6.81582C17.8878 6.61871 17.7744 6.44188 17.6209 6.30418C17.4673 6.16648 17.2792 6.07308 17.0768 6.03393L12.1628 5.28421L9.96503 0.62718C9.88183 0.440448 9.74635 0.281841 9.57499 0.170537C9.40363 0.0592333 9.20372 0 8.99944 0C8.79515 0 8.59524 0.0592333 8.42388 0.170537C8.25252 0.281841 8.11705 0.440448 8.03385 0.62718Z" fill="#C4C4C4"/>
</svg>
