<svg width="30" height="30" viewBox="0 0 30 30" fill="none" xmlns="http://www.w3.org/2000/svg">
<path d="M25.9781 4.02181C25.8515 3.89588 25.6917 3.80869 25.5173 3.77049C25.3429 3.7323 25.1613 3.74468 24.9937 3.80619L4.36869 11.3062C4.19082 11.3737 4.03768 11.4936 3.92961 11.6502C3.82155 11.8068 3.76367 11.9925 3.76367 12.1827C3.76367 12.373 3.82155 12.5587 3.92961 12.7153C4.03768 12.8719 4.19082 12.9918 4.36869 13.0593L12.4218 16.2749L18.3656 10.3124L19.6874 11.6343L13.7156 17.6062L16.9406 25.6593C17.01 25.8337 17.1303 25.9833 17.2857 26.0886C17.4412 26.1939 17.6247 26.2501 17.8124 26.2499C18.0019 26.246 18.1857 26.1848 18.3397 26.0744C18.4937 25.9639 18.6106 25.8094 18.6749 25.6312L26.1749 5.00619C26.2388 4.84032 26.2542 4.65971 26.2194 4.48543C26.1845 4.31114 26.1008 4.15035 25.9781 4.02181Z" fill="#B6B6B6"/>
</svg>
