<svg width="23" height="30" viewBox="0 0 23 30" fill="none" xmlns="http://www.w3.org/2000/svg">
<path d="M3.30773 0C6.84279 0 10.3779 0 13.9129 0C13.9145 2.81008 13.92 5.62017 13.9121 8.42947C13.9114 8.70759 13.9864 8.79587 14.2723 8.79508C16.9652 8.78493 19.6581 8.78883 22.351 8.78805C22.4885 8.89117 22.4307 9.04039 22.4307 9.16851C22.4338 14.7426 22.433 20.3167 22.433 25.8915C22.433 26.0376 22.4338 26.1853 22.4213 26.3306C22.2799 27.9461 21.4573 29.0703 19.9768 29.7234C19.6839 29.8523 19.3628 29.8781 19.0698 30C13.8161 30 8.56228 30 3.30851 30C3.2671 29.907 3.17336 29.9375 3.10383 29.9211C2.66399 29.818 2.24369 29.6664 1.86323 29.4195C0.59608 28.5993 -0.000780464 27.4274 7.6589e-07 25.9228C0.00546937 18.6409 0.00234512 11.3583 0.00312635 4.07646C0.00312635 3.93974 0.0054688 3.80303 0.0140623 3.66709C0.112497 1.99526 1.26403 0.576548 2.87649 0.134372C3.02024 0.0937476 3.18273 0.106247 3.30773 0ZM9.14898 19.6261C9.14898 20.4651 9.14742 21.3049 9.15054 22.144C9.15054 22.2486 9.09898 22.3908 9.30132 22.3838C10.0904 22.3564 10.8833 22.4463 11.6692 22.3307C13.095 22.1205 13.9231 21.1635 13.9598 19.7065C13.9957 18.2706 13.2153 17.2652 11.8231 16.9847C11.0224 16.823 10.2075 16.93 9.39976 16.8957C9.18257 16.8863 9.14351 16.973 9.14507 17.1667C9.15367 17.9862 9.14898 18.8058 9.14898 19.6261ZM4.34286 19.6425C4.34286 20.4815 4.34754 21.3205 4.33895 22.1596C4.33739 22.3393 4.38582 22.3963 4.56785 22.3869C4.87956 22.3713 5.19284 22.3697 5.50376 22.3869C5.70298 22.3979 5.75141 22.3268 5.74751 22.14C5.73657 21.6619 5.75298 21.1838 5.7397 20.7057C5.73345 20.4877 5.77954 20.387 6.02563 20.4042C6.31624 20.4245 6.61076 20.412 6.90294 20.3956C7.89276 20.3393 8.55994 19.6479 8.57087 18.6769C8.58181 17.7019 7.93964 16.9855 6.94201 16.9292C6.14437 16.8847 5.34283 16.9113 4.54285 16.8957C4.36004 16.8917 4.33973 16.9753 4.34051 17.1246C4.34598 17.9644 4.34286 18.8034 4.34286 19.6425ZM14.666 19.6346C14.666 20.4737 14.6699 21.3135 14.6621 22.1525C14.6606 22.3229 14.6926 22.3971 14.884 22.3869C15.1957 22.3705 15.509 22.3682 15.8207 22.3869C16.0371 22.4002 16.0777 22.3158 16.0738 22.1197C16.0621 21.5346 16.0754 20.9487 16.066 20.3628C16.0636 20.1948 16.1176 20.1487 16.2808 20.1518C16.8074 20.1612 17.3347 20.151 17.862 20.1581C18.0081 20.1596 18.0737 20.1253 18.0667 19.9643C18.055 19.701 18.0558 19.437 18.0667 19.1737C18.073 19.0206 18.0198 18.969 17.8667 18.9722C17.4667 18.9808 17.0667 18.9745 16.666 18.9745C16.0621 18.9745 16.0707 18.9745 16.0644 18.3558C16.0621 18.1542 16.1121 18.0902 16.3214 18.0941C16.9949 18.1073 17.6683 18.0941 18.3417 18.1027C18.5058 18.105 18.5675 18.0597 18.5589 17.8902C18.5464 17.637 18.5456 17.3824 18.5589 17.1292C18.5683 16.9511 18.5128 16.8925 18.3292 16.8941C17.1871 16.9011 16.0457 16.9019 14.9035 16.8933C14.7067 16.8917 14.6598 16.9574 14.6613 17.1441C14.6707 17.9761 14.666 18.805 14.666 19.6346Z" fill="#B8B8B8"/>
<path d="M13.9712 0C14.7821 0.857009 15.5883 1.71714 16.4039 2.56946C18.3469 4.59988 20.2945 6.62639 22.2397 8.65446C22.2796 8.69665 22.3139 8.74352 22.3514 8.78805C19.6585 8.78805 16.9656 8.78415 14.2727 8.79508C13.9876 8.79587 13.9118 8.70837 13.9126 8.42947C13.9204 5.61938 13.9149 2.8093 13.9134 0C13.9321 0 13.9517 0 13.9712 0Z" fill="#A9A9A9"/>
<path d="M9.14787 19.6264C9.14787 18.8069 9.15334 17.9866 9.14396 17.1671C9.14162 16.9734 9.18146 16.8874 9.39864 16.896C10.2064 16.9304 11.0213 16.8234 11.822 16.9851C13.2142 17.2663 13.9946 18.271 13.9587 19.7069C13.922 21.1639 13.0946 22.1209 11.6681 22.331C10.8822 22.4467 10.0892 22.3568 9.30021 22.3842C9.09787 22.3912 9.14943 22.249 9.14943 22.1443C9.14631 21.3053 9.14787 20.4655 9.14787 19.6264ZM10.5142 19.6272C10.5142 19.9288 10.5142 20.2311 10.5142 20.5326C10.5142 21.2662 10.5142 21.2662 11.2642 21.1647C12.1204 21.0483 12.5665 20.5155 12.5564 19.6186C12.547 18.7468 12.0837 18.2124 11.2439 18.1147C11.0705 18.0944 10.8931 18.114 10.7189 18.0983C10.5471 18.0827 10.5064 18.1522 10.5103 18.314C10.5205 18.7514 10.5142 19.1897 10.5142 19.6272Z" fill="white"/>
<path d="M4.34334 19.6426C4.34334 18.8036 4.34568 17.9646 4.341 17.1255C4.34021 16.9763 4.36053 16.8927 4.54333 16.8966C5.34331 16.9122 6.14485 16.8857 6.94249 16.9302C7.94012 16.9865 8.58229 17.7028 8.57136 18.6778C8.56042 19.6489 7.89325 20.3403 6.90343 20.3965C6.61125 20.4129 6.31673 20.4254 6.02611 20.4051C5.78002 20.3879 5.73393 20.4887 5.74018 20.7067C5.75346 21.184 5.73705 21.6629 5.74799 22.141C5.75268 22.3277 5.70424 22.3988 5.50425 22.3879C5.19332 22.3707 4.87926 22.3723 4.56833 22.3879C4.38631 22.3973 4.33709 22.3402 4.33943 22.1605C4.34881 21.3207 4.34334 20.4817 4.34334 19.6426ZM5.74487 18.6606C5.74487 18.7973 5.74643 18.9341 5.74409 19.07C5.74252 19.1583 5.76127 19.2208 5.87065 19.2184C6.14329 19.2122 6.41828 19.2309 6.68859 19.2028C6.99874 19.17 7.1792 18.9395 7.17217 18.6427C7.16514 18.3481 6.96905 18.1403 6.6589 18.1083C6.54328 18.0966 6.42532 18.1013 6.30813 18.1013C5.74408 18.1005 5.74409 18.1005 5.74487 18.6606Z" fill="white"/>
<path d="M14.6646 19.6343C14.6646 18.8047 14.6701 17.975 14.6607 17.1453C14.6584 16.9578 14.7053 16.893 14.9029 16.8946C16.0451 16.9032 17.1864 16.9024 18.3286 16.8953C18.5114 16.8938 18.5677 16.9524 18.5583 17.1305C18.545 17.3836 18.5458 17.6383 18.5583 17.8914C18.5669 18.0609 18.5044 18.1062 18.3411 18.1039C17.6677 18.0961 16.9943 18.1094 16.3208 18.0953C16.1123 18.0914 16.0623 18.1555 16.0638 18.357C16.0701 18.9758 16.0615 18.9758 16.6654 18.9758C17.0654 18.9758 17.4661 18.9812 17.8661 18.9734C18.0192 18.9703 18.0716 19.0211 18.0661 19.175C18.056 19.4382 18.0544 19.7023 18.0661 19.9656C18.0731 20.1265 18.0075 20.1617 17.8614 20.1593C17.3341 20.1523 16.8075 20.1624 16.2802 20.1531C16.1169 20.1499 16.063 20.1968 16.0654 20.364C16.0748 20.9491 16.0615 21.5351 16.0732 22.121C16.0771 22.3171 16.0373 22.4007 15.8201 22.3882C15.5091 22.3694 15.1951 22.371 14.8834 22.3882C14.692 22.3983 14.6599 22.3241 14.6615 22.1538C14.6685 21.3132 14.6646 20.4742 14.6646 19.6343Z" fill="white"/>
<path d="M10.5146 19.6265C10.5146 19.1882 10.5209 18.75 10.5115 18.3125C10.5076 18.1515 10.5482 18.0812 10.7201 18.0969C10.8943 18.1133 11.0716 18.0937 11.2451 18.1133C12.0849 18.2101 12.5481 18.7453 12.5575 19.6171C12.5669 20.514 12.1216 21.0468 11.2654 21.1632C10.5154 21.2647 10.5154 21.2647 10.5154 20.5312C10.5146 20.2304 10.5146 19.9288 10.5146 19.6265Z" fill="#B8B8B8"/>
<path d="M5.74514 18.6609C5.74514 18.1007 5.74514 18.1007 6.30919 18.1015C6.42637 18.1015 6.54434 18.0968 6.65996 18.1085C6.97011 18.1406 7.1662 18.3492 7.17323 18.6429C7.18026 18.9406 6.99979 19.171 6.68964 19.203C6.41934 19.2312 6.14435 19.2124 5.8717 19.2187C5.76233 19.221 5.74436 19.1585 5.74514 19.0702C5.7467 18.9335 5.74514 18.7976 5.74514 18.6609Z" fill="#B8B8B8"/>
</svg>
