<svg width="15" height="15" viewBox="0 0 15 15" fill="none" xmlns="http://www.w3.org/2000/svg">
<path d="M8.32236 14.1009C8.04797 14.1009 7.77362 14.1009 7.49923 14.1009C7.46393 14.0932 7.42893 14.0807 7.3933 14.0784C6.53127 14.0216 5.70449 13.8153 4.9313 13.4333C2.77693 12.3688 1.45843 10.653 0.997468 8.28545C0.945314 8.01753 0.922899 7.74381 0.886719 7.47279C0.886719 7.19778 0.886719 6.92274 0.886719 6.64773C0.894706 6.60821 0.90722 6.56902 0.90998 6.52913C0.978366 5.54659 1.23233 4.61271 1.71302 3.75584C3.00668 1.44979 4.9793 0.191132 7.61572 0.0316908C8.99993 -0.0520332 10.3075 0.280501 11.4896 1.01169C13.6212 2.33002 14.7743 4.25803 14.924 6.76436C14.9999 8.03443 14.7229 9.24538 14.1104 10.3619C13.0209 12.3478 11.3586 13.5613 9.13467 13.9899C8.86676 14.0414 8.59329 14.0646 8.32236 14.1009ZM5.90538 7.05461C5.90538 7.70957 5.90376 8.36453 5.90593 9.01949C5.9074 9.47047 6.27469 9.70145 6.6765 9.50087C7.97937 8.85045 9.28068 8.19693 10.5822 7.54382C10.7834 7.44286 10.9229 7.29169 10.9189 7.05332C10.9151 6.82307 10.7828 6.67798 10.5823 6.57795C9.28359 5.92982 7.98673 5.27785 6.68832 4.62905C6.27009 4.42009 5.90652 4.64802 5.90567 5.11719C5.9045 5.763 5.90538 6.40881 5.90538 7.05461Z" fill="#777777"/>
</svg>
