<svg width="32" height="32" viewBox="0 0 32 32" fill="none" xmlns="http://www.w3.org/2000/svg">
<path d="M0.00683594 24.886C0.153458 24.7211 0.12743 24.5042 0.17428 24.3116C0.906522 21.2864 3.68973 19.2701 6.79222 19.5304C7.02907 19.5503 7.26245 19.6006 7.53834 19.6432C6.12678 21.7071 5.39974 23.929 5.61404 26.4424C5.12385 26.4424 4.58595 26.4424 4.04805 26.4424C3.05032 26.4424 2.0526 26.4259 1.05575 26.4502C0.621954 26.4606 0.261038 26.3852 0.00770352 26.0086C0.00683594 25.6338 0.00683594 25.2599 0.00683594 24.886Z" fill="#333333"/>
<path d="M15.9725 26.4426C13.2604 26.4426 10.5492 26.4426 7.83714 26.4426C7.18038 26.4426 6.92791 26.1841 6.94787 25.5351C7.07714 21.3499 9.92282 17.8969 14.036 16.9356C18.9075 15.7974 23.9734 19.1497 24.8332 24.0758C24.9208 24.579 24.9746 25.0831 24.9911 25.5915C25.0093 26.1598 24.7351 26.4409 24.1695 26.4417C21.4374 26.4435 18.7054 26.4426 15.9725 26.4426Z" fill="#333333"/>
<path d="M20.8298 10.4898C20.8246 13.1619 18.6383 15.3413 15.9653 15.3396C13.2818 15.3378 11.099 13.1402 11.1094 10.4499C11.1198 7.77944 13.3079 5.61308 15.9896 5.61915C18.6617 5.62609 20.835 7.81241 20.8298 10.4898Z" fill="#333333"/>
<path d="M9.81576 14.6404C9.8175 16.5595 8.28274 18.0986 6.36018 18.1064C4.45149 18.1142 2.88811 16.5656 2.87943 14.6586C2.87075 12.743 4.44195 11.1674 6.35671 11.1709C8.26626 11.1744 9.81489 12.7274 9.81576 14.6404Z" fill="#333333"/>
<path d="M29.1535 14.63C29.1648 16.5412 27.6283 18.0916 25.7066 18.1055C23.7987 18.1194 22.2327 16.5785 22.2145 14.669C22.1963 12.7586 23.7684 11.1726 25.6831 11.1709C27.5918 11.1692 29.1422 12.7143 29.1535 14.63Z" fill="#333333"/>
<path d="M26.3247 26.4408C26.5407 23.9421 25.8189 21.7272 24.4194 19.6728C24.645 19.5652 24.8819 19.5574 25.1083 19.5348C28.4364 19.1973 31.5024 21.663 31.8772 24.9746C31.9067 25.2322 31.931 25.4917 31.9276 25.7502C31.9223 26.138 31.6491 26.4338 31.2647 26.4365C29.6033 26.4469 27.9418 26.4408 26.3247 26.4408Z" fill="#333333"/>
</svg>
