<svg width="41" height="40" viewBox="0 0 41 40" fill="none" xmlns="http://www.w3.org/2000/svg">
<path d="M19.9626 39.9927C13.4172 39.9927 6.87071 39.9906 0.325296 39.999C0.0685928 39.999 0.00103929 39.9615 0.00103929 39.6851C0.00935357 26.5683 0.0103929 13.4504 0 0.332571C0 0.0384536 0.0769071 0 0.345043 0C13.4494 0.007275 26.5537 0.007275 39.6591 0C39.9273 0 40.0042 0.0384536 40.0042 0.332571C39.9938 13.4369 39.9948 26.5423 40.0042 39.6466C40.0042 39.9501 39.9241 40 39.6404 39.999C33.0804 39.9906 26.5215 39.9927 19.9626 39.9927ZM19.9886 8.32779C15.079 8.32779 10.1694 8.32779 5.25982 8.32883C5.01455 8.32883 4.7672 8.3174 4.52609 8.39119C3.72688 8.6375 3.25712 9.37123 3.35689 10.2266C3.44731 10.9967 4.11557 11.615 4.92725 11.6317C5.90106 11.6525 6.87591 11.6587 7.84868 11.6306C8.23737 11.6192 8.34026 11.7127 8.33922 12.1139C8.32467 18.5689 8.32571 25.0239 8.33091 31.4799C8.33299 34.417 10.4802 36.5745 13.4099 36.5808C17.7739 36.5901 22.1378 36.5818 26.5018 36.5849C27.038 36.5849 27.5629 36.5288 28.0763 36.3708C30.2162 35.7119 31.5932 33.7975 31.5943 31.454C31.5974 25.0374 31.5953 18.6219 31.5953 12.2054C31.5953 11.641 31.5953 11.6421 32.1399 11.641C33.1012 11.64 34.0626 11.6535 35.0229 11.6306C35.7951 11.6119 36.4477 11.0154 36.562 10.2775C36.6899 9.45126 36.2492 8.69985 35.4833 8.41925C35.2193 8.32259 34.948 8.32883 34.6757 8.32883C29.7818 8.32675 24.8846 8.32779 19.9886 8.32779ZM19.9439 6.64623C19.9439 6.64727 19.9439 6.64935 19.9439 6.65038C21.0081 6.65038 22.0734 6.65142 23.1376 6.64935C23.3444 6.64935 23.5512 6.65038 23.7539 6.58803C24.5365 6.34899 25.0385 5.59655 24.9428 4.79838C24.8441 3.98046 24.1738 3.34962 23.3309 3.34442C21.085 3.33091 18.8391 3.33818 16.5932 3.34338C16.4405 3.34338 16.2825 3.37144 16.1359 3.41717C15.3689 3.65828 14.8898 4.40137 14.9823 5.18811C15.0769 5.98836 15.7389 6.6244 16.5548 6.63999C17.6845 6.66286 18.8142 6.64623 19.9439 6.64623Z" fill="#FDFDFD"/>
<path d="M19.9878 8.3279C24.8849 8.3279 29.781 8.3279 34.6781 8.32894C34.9504 8.32894 35.2206 8.3227 35.4856 8.41935C36.2516 8.69996 36.6922 9.45136 36.5644 10.2776C36.4501 11.0155 35.7964 11.612 35.0252 11.6307C34.0649 11.6536 33.1036 11.6391 32.1422 11.6411C31.5976 11.6422 31.5976 11.6411 31.5976 12.2055C31.5976 18.622 31.5997 25.0375 31.5966 31.4541C31.5956 33.7976 30.2185 35.712 28.0786 36.3709C27.5652 36.5289 27.0393 36.585 26.5041 36.585C22.1402 36.5829 17.7762 36.5902 13.4122 36.5809C10.4825 36.5746 8.33637 34.416 8.33325 31.48C8.32805 25.025 8.32701 18.57 8.34156 12.114C8.3426 11.7128 8.23971 11.6193 7.85102 11.6307C6.87825 11.6598 5.90236 11.6526 4.92959 11.6318C4.11791 11.6141 3.44965 10.9968 3.35923 10.2267C3.25842 9.37134 3.72818 8.6376 4.52843 8.39129C4.76954 8.3175 5.01689 8.32894 5.26216 8.32894C10.1676 8.32686 15.0782 8.3279 19.9878 8.3279ZM24.9514 22.4497C24.9514 21.1132 24.9535 19.7767 24.9514 18.4412C24.9493 17.3863 24.2468 16.6255 23.2834 16.6297C22.3366 16.6349 21.6226 17.3884 21.6205 18.4121C21.6153 21.1101 21.6143 23.8091 21.6205 26.5071C21.6226 27.5266 22.349 28.2842 23.2938 28.2801C24.2447 28.2759 24.9483 27.5224 24.9504 26.4967C24.9535 25.1477 24.9514 23.7987 24.9514 22.4497ZM14.9732 22.4549C14.9732 23.8039 14.9712 25.1529 14.9743 26.5029C14.9764 27.5266 15.6872 28.2832 16.6361 28.2811C17.5673 28.279 18.299 27.536 18.3021 26.5414C18.3125 23.8174 18.3125 21.0924 18.3021 18.3684C18.2979 17.3728 17.5683 16.6307 16.6351 16.6297C15.6841 16.6287 14.9753 17.3842 14.9732 18.4069C14.9712 19.7559 14.9732 21.1059 14.9732 22.4549Z" fill="#EF3131"/>
<path d="M19.9448 6.64606C18.8151 6.64606 17.6854 6.66165 16.5567 6.64087C15.7409 6.62528 15.0788 5.99028 14.9843 5.18899C14.8907 4.40121 15.3698 3.65812 16.1379 3.41804C16.2844 3.37231 16.4424 3.34425 16.5952 3.34425C18.8411 3.3401 21.087 3.33178 23.3329 3.34529C24.1757 3.35049 24.846 3.98134 24.9448 4.79925C25.0414 5.59743 24.5384 6.34987 23.7558 6.5889C23.5532 6.65126 23.3464 6.64918 23.1395 6.65022C22.0732 6.6523 21.009 6.65126 19.9448 6.65126C19.9448 6.64918 19.9448 6.64814 19.9448 6.64606Z" fill="#EF3131"/>
<path d="M24.9528 22.4494C24.9528 23.7984 24.9548 25.1484 24.9517 26.4974C24.9496 27.5232 24.246 28.2766 23.2951 28.2808C22.3514 28.2849 21.625 27.5273 21.6219 26.5078C21.6156 23.8098 21.6156 21.1108 21.6219 18.4128C21.6239 17.3891 22.3379 16.6346 23.2847 16.6304C24.2471 16.6252 24.9507 17.387 24.9528 18.4419C24.9538 19.7763 24.9528 21.1128 24.9528 22.4494Z" fill="#FCFCFC"/>
<path d="M14.9733 22.4546C14.9733 21.1056 14.9713 19.7566 14.9744 18.4066C14.9765 17.3829 15.6852 16.6284 16.6362 16.6294C17.5684 16.6304 18.2991 17.3725 18.3032 18.3681C18.3136 21.0921 18.3136 23.8171 18.3032 26.5411C18.2991 27.5357 17.5684 28.2787 16.6372 28.2808C15.6884 28.2829 14.9775 27.5253 14.9754 26.5026C14.9713 25.1526 14.9733 23.8036 14.9733 22.4546Z" fill="#FCFCFC"/>
</svg>
