<svg width="25" height="24" viewBox="0 0 25 24" fill="none" xmlns="http://www.w3.org/2000/svg">
<g clip-path="url(#clip0_10428_6324)">
<path d="M11.9776 23.9956C8.0503 23.9956 4.12243 23.9944 0.195178 23.9994C0.0411557 23.9994 0.000623571 23.9769 0.000623571 23.8111C0.00561214 15.941 0.00623571 8.07026 0 0.199543C0 0.0230721 0.0461443 0 0.207026 0C8.06963 0.004365 15.9322 0.004365 23.7955 0C23.9564 0 24.0025 0.0230721 24.0025 0.199543C23.9963 8.06215 23.9969 15.9254 24.0025 23.788C24.0025 23.9701 23.9545 24 23.7842 23.9994C19.8483 23.9944 15.9129 23.9956 11.9776 23.9956ZM11.9931 4.99667C9.04739 4.99667 6.10164 4.99667 3.15589 4.9973C3.00873 4.9973 2.86032 4.99044 2.71565 5.03471C2.23613 5.1825 1.95427 5.62274 2.01413 6.13594C2.06838 6.598 2.46934 6.96903 2.95635 6.97901C3.54064 6.99148 4.12555 6.99522 4.70921 6.97838C4.94242 6.97152 5.00416 7.02764 5.00353 7.26834C4.9948 11.1413 4.99543 15.0143 4.99855 18.888C4.99979 20.6502 6.28809 21.9447 8.04594 21.9485C10.6643 21.9541 13.2827 21.9491 15.9011 21.9509C16.2228 21.9509 16.5377 21.9173 16.8458 21.8225C18.1297 21.4271 18.9559 20.2785 18.9566 18.8724C18.9584 15.0224 18.9572 11.1731 18.9572 7.32322C18.9572 6.98462 18.9572 6.98524 19.2839 6.98462C19.8607 6.98399 20.4375 6.9921 21.0137 6.97838C21.477 6.96716 21.8686 6.60923 21.9372 6.16649C22.0139 5.67075 21.7495 5.21991 21.29 5.05155C21.1316 4.99356 20.9688 4.9973 20.8054 4.9973C17.869 4.99605 14.9308 4.99667 11.9931 4.99667ZM11.9663 3.98774C11.9663 3.98836 11.9663 3.98961 11.9663 3.99023C12.6049 3.99023 13.244 3.99085 13.8826 3.98961C14.0067 3.98961 14.1307 3.99023 14.2523 3.95282C14.7219 3.8094 15.0231 3.35793 14.9657 2.87903C14.9065 2.38828 14.5043 2.00977 13.9985 2.00665C12.651 1.99855 11.3035 2.00291 9.95593 2.00603C9.86427 2.00603 9.76949 2.02286 9.68156 2.0503C9.22137 2.19497 8.9339 2.64082 8.9894 3.11287C9.04614 3.59302 9.44336 3.97464 9.93286 3.98399C10.6107 3.99771 11.2885 3.98774 11.9663 3.98774Z" fill="#FDFDFD"/>
<path d="M11.9931 4.99625C14.9313 4.99625 17.869 4.99625 20.8072 4.99687C20.9706 4.99687 21.1327 4.99313 21.2918 5.05112C21.7513 5.21949 22.0157 5.67033 21.939 6.16607C21.8704 6.6088 21.4782 6.96673 21.0155 6.97796C20.4393 6.99168 19.8625 6.98295 19.2857 6.98419C18.959 6.98482 18.959 6.98419 18.959 7.32279C18.959 11.1727 18.9602 15.022 18.9584 18.8719C18.9577 20.2781 18.1315 21.4267 16.8476 21.8221C16.5395 21.9168 16.224 21.9505 15.9029 21.9505C13.2845 21.9493 10.6661 21.9536 8.04773 21.948C6.28989 21.9443 5.00221 20.6491 5.00034 18.8875C4.99722 15.0145 4.9966 11.1415 5.00533 7.26792C5.00595 7.02722 4.94422 6.9711 4.711 6.97796C4.12734 6.99542 3.54181 6.99105 2.95815 6.97858C2.47114 6.96798 2.07018 6.59758 2.01593 6.13551C1.95544 5.62231 2.2373 5.18207 2.71745 5.03429C2.86212 4.99001 3.01053 4.99687 3.15769 4.99687C6.10094 4.99563 9.04732 4.99625 11.9931 4.99625ZM14.9712 13.4693C14.9712 12.6674 14.9725 11.8655 14.9712 11.0642C14.97 10.4313 14.5485 9.97484 13.9704 9.97733C13.4023 9.98045 12.9739 10.4325 12.9727 11.0468C12.9696 12.6655 12.969 14.285 12.9727 15.9038C12.9739 16.5155 13.4098 16.9701 13.9766 16.9676C14.5472 16.9651 14.9694 16.513 14.9706 15.8975C14.9725 15.0881 14.9712 14.2787 14.9712 13.4693ZM8.98434 13.4724C8.98434 14.2818 8.98309 15.0912 8.98496 15.9013C8.98621 16.5155 9.41273 16.9694 9.98205 16.9682C10.5408 16.9669 10.9798 16.5211 10.9816 15.9243C10.9879 14.29 10.9879 12.6549 10.9816 11.0206C10.9791 10.4232 10.5414 9.97796 9.98143 9.97733C9.41086 9.97671 8.98558 10.43 8.98434 11.0436C8.98309 11.853 8.98434 12.6631 8.98434 13.4724Z" fill="#CBCBCB"/>
<path d="M11.9657 3.98783C11.2879 3.98783 10.6101 3.99719 9.93286 3.98472C9.44335 3.97536 9.04614 3.59436 8.98939 3.11359C8.93327 2.64092 9.22074 2.19507 9.68156 2.05102C9.76948 2.02358 9.86426 2.00675 9.95593 2.00675C11.3035 2.00425 12.651 1.99926 13.9985 2.00737C14.5043 2.01049 14.9065 2.389 14.9657 2.87975C15.0237 3.35865 14.7219 3.81012 14.2523 3.95354C14.1307 3.99095 14.0066 3.9897 13.8826 3.99033C13.2428 3.99158 12.6042 3.99095 11.9657 3.99095C11.9657 3.9897 11.9657 3.98908 11.9657 3.98783Z" fill="#CBCBCB"/>
<path d="M14.972 13.4699C14.972 14.2793 14.9733 15.0893 14.9714 15.8987C14.9702 16.5142 14.548 16.9663 13.9775 16.9688C13.4113 16.9713 12.9754 16.5167 12.9735 15.905C12.9698 14.2862 12.9698 12.6667 12.9735 11.048C12.9748 10.4337 13.4031 9.98103 13.9712 9.97853C14.5486 9.97541 14.9708 10.4325 14.972 11.0654C14.9727 11.8661 14.972 12.668 14.972 13.4699Z" fill="#FCFCFC"/>
<path d="M8.98478 13.4727C8.98478 12.6633 8.98353 11.8539 8.98541 11.0438C8.98665 10.4296 9.41193 9.97692 9.9825 9.97754C10.5418 9.97816 10.9802 10.4234 10.9827 11.0208C10.9889 12.6552 10.9889 14.2902 10.9827 15.9245C10.9802 16.5213 10.5418 16.9672 9.98312 16.9684C9.4138 16.9696 8.98728 16.5151 8.98603 15.9015C8.98354 15.0914 8.98478 14.2821 8.98478 13.4727Z" fill="#FCFCFC"/>
</g>
<defs>
<clipPath id="clip0_10428_6324">
<rect width="24.0019" height="24" fill="white"/>
</clipPath>
</defs>
</svg>
