<svg width="18" height="18" viewBox="0 0 18 18" fill="none" xmlns="http://www.w3.org/2000/svg">
<path d="M4.57016 17.3701C4.38034 17.3304 4.18725 17.3018 4.00112 17.2494C2.80903 16.9135 2.05589 15.9947 2.00312 14.7437C1.94871 13.4514 2.09066 12.1775 2.58198 10.9674C2.89903 10.186 3.35966 9.51022 4.13162 9.09745C4.6078 8.843 5.11834 8.7215 5.65262 8.73254C5.82116 8.73622 5.9983 8.82131 6.15212 8.90477C6.40003 9.03936 6.62953 9.20709 6.87007 9.35559C8.26875 10.2192 9.66825 10.2184 11.0657 9.35231C11.2596 9.23204 11.458 9.11586 11.6401 8.97922C11.9747 8.72845 12.3425 8.69736 12.7401 8.75545C13.8246 8.915 14.5908 9.509 15.1075 10.4569C15.5686 11.3029 15.7764 12.2221 15.8684 13.1691C15.9159 13.6555 15.9384 14.1465 15.9323 14.6349C15.9147 16.0937 14.9132 17.1795 13.4622 17.3394C13.4262 17.3435 13.3914 17.3595 13.3558 17.3701C10.4279 17.3701 7.49884 17.3701 4.57016 17.3701Z" fill="#888888"/>
<path d="M8.85001 8.70265C6.60615 8.68915 4.81147 6.88301 4.82824 4.65551C4.84501 2.41983 6.64665 0.643964 8.87047 0.643555C11.0558 0.643146 12.9049 2.45665 12.8853 4.68456C12.8661 6.92474 11.0648 8.71574 8.85001 8.70265Z" fill="#888888"/>
</svg>
