<svg width="24" height="24" viewBox="0 0 24 24" fill="none" xmlns="http://www.w3.org/2000/svg">
<path d="M22.9957 18.2531C22.9957 18.5379 22.9957 18.8227 22.9957 19.1076C22.9203 19.6903 22.7172 20.2206 22.3465 20.6813C21.6728 21.5183 20.8046 21.9805 19.7244 21.9818C14.5906 21.9878 9.45675 21.9851 4.32291 21.9841C2.79791 21.9839 1.38917 20.8118 1.1419 19.304C1.00124 18.4465 1.13108 17.6294 1.58139 16.8582C3.0926 14.2701 4.58366 11.6703 6.08405 9.07593C7.07833 7.3567 8.07941 5.64128 9.06033 3.91441C9.52634 3.09399 10.1583 2.48806 11.0686 2.19539C12.4454 1.75272 13.9939 2.28534 14.7886 3.49497C15.391 4.41171 15.9019 5.3834 16.4529 6.33101C17.4226 7.99869 18.3821 9.67242 19.3482 11.3422C20.3997 13.1599 21.4456 14.981 22.4982 16.798C22.7588 17.2483 22.9742 17.7188 22.9957 18.2531Z" fill="#888888"/>
<path d="M12.0428 15.804C11.5592 15.8008 11.1776 15.4866 11.129 15.0048C11.0725 14.445 11.0502 13.8817 11.0161 13.3198C10.9346 11.9765 10.8501 10.6334 10.7765 9.28973C10.746 8.73097 10.9422 8.26788 11.4399 7.97432C12.2094 7.5205 13.2079 8.03748 13.2884 8.92952C13.3412 9.51523 13.2496 10.0973 13.2207 10.6806C13.153 12.0466 13.0366 13.41 13.0001 14.7777C12.9834 15.3989 12.6045 15.8077 12.0428 15.804Z" fill="#FEFEFE"/>
<path d="M13.2847 17.9602C13.2859 18.6298 12.7263 19.1835 12.0508 19.1811C11.374 19.1786 10.8106 18.616 10.8047 17.9368C10.7989 17.2571 11.382 16.6726 12.0619 16.6768C12.7492 16.6808 13.2834 17.2415 13.2847 17.9602Z" fill="#FEFEFE"/>
</svg>
