<svg width="14" height="14" viewBox="0 0 14 14" fill="none" xmlns="http://www.w3.org/2000/svg">
<g clip-path="url(#clip0_8995_94269)">
<path d="M11.4532 4.19435H10.3686V3.10976C10.3686 2.92342 10.2176 2.77236 10.0312 2.77236C9.8449 2.77236 9.69384 2.92342 9.69384 3.10976V4.19435H8.60927C8.42294 4.19435 8.27187 4.34541 8.27187 4.53174C8.27187 4.71807 8.42294 4.86913 8.60927 4.86913H9.69384V5.95374C9.69384 6.14007 9.8449 6.29113 10.0312 6.29113C10.2176 6.29113 10.3686 6.14007 10.3686 5.95374V4.86913H11.4532C11.6396 4.86913 11.7906 4.71807 11.7906 4.53174C11.7906 4.34541 11.6396 4.19435 11.4532 4.19435Z" fill="white" stroke="white" stroke-width="0.14375"/>
<path d="M5.34508 8.94287C2.89751 8.94287 0.90625 10.9341 0.90625 13.3817C0.90625 13.591 1.07595 13.7607 1.28528 13.7607H9.40493C9.61425 13.7607 9.78396 13.591 9.78396 13.3817C9.78396 10.9341 7.79267 8.94287 5.34508 8.94287Z" fill="white"/>
<path d="M5.3464 3.40625C4.01813 3.40625 2.9375 4.48691 2.9375 5.8152C2.9375 7.1435 4.01813 8.22413 5.3464 8.22413C6.67469 8.22413 7.75535 7.1435 7.75535 5.8152C7.75535 4.48691 6.67469 3.40625 5.3464 3.40625Z" fill="white"/>
</g>
<defs>
<clipPath id="clip0_8995_94269">
<rect width="12.9375" height="12.9375" fill="white" transform="translate(0.90625 0.59375)"/>
</clipPath>
</defs>
</svg>
