<svg width="20" height="20" viewBox="0 0 20 20" fill="none" xmlns="http://www.w3.org/2000/svg">
<path d="M9.89999 20C4.44119 20 0 15.584 0 10.1562C0 4.72846 4.44119 0.3125 9.89999 0.3125C15.3588 0.3125 19.8 4.72846 19.8 10.1562C19.8 15.584 15.3588 20 9.89999 20ZM13.4588 9.71612L8.01138 6.44402C7.9333 6.39751 7.84418 6.37249 7.75316 6.37152C7.66215 6.37055 7.57251 6.39368 7.49345 6.43852C7.41439 6.48337 7.34875 6.54832 7.30326 6.62671C7.25778 6.70511 7.23408 6.79412 7.23461 6.88462V13.4279C7.23408 13.5184 7.25778 13.6074 7.30326 13.6858C7.34875 13.7642 7.41439 13.8291 7.49345 13.874C7.57251 13.9188 7.66215 13.9419 7.75316 13.941C7.84418 13.94 7.9333 13.915 8.01138 13.8685L13.4588 10.5964C13.5347 10.5504 13.5974 10.4857 13.641 10.4087C13.6845 10.3316 13.7074 10.2447 13.7074 10.1562C13.7074 10.0678 13.6845 9.98092 13.641 9.90384C13.5974 9.82676 13.5347 9.76212 13.4588 9.71612Z" fill="white"/>
</svg>
