<svg width="30" height="30" viewBox="0 0 30 30" fill="none" xmlns="http://www.w3.org/2000/svg">
<path d="M19.5143 28.1575C14.3125 28.1575 9.11064 28.1575 3.90951 28.1575C3.84527 28.1384 3.78103 28.1179 3.71611 28.1015C2.88582 27.8903 2.32409 27.3819 2.0316 26.5776C1.9824 26.443 1.95301 26.3008 1.91406 26.1628C1.91406 18.7625 1.91406 11.3623 1.91406 3.96207C1.92705 3.93064 1.94481 3.90125 1.95301 3.86845C2.2537 2.63633 3.09629 1.96731 4.35301 1.96731C9.26304 1.96663 14.1731 1.96663 19.0838 1.96731C20.5284 1.96731 21.509 2.94658 21.5104 4.3885C21.5118 6.43383 21.509 8.47916 21.5145 10.5252C21.5152 10.7008 21.466 10.8238 21.3403 10.9489C19.2567 13.0243 17.1758 15.1024 15.1024 17.1874C14.8947 17.3958 14.6911 17.6322 14.5653 17.894C13.8546 19.3742 13.1596 20.8632 12.4769 22.3564C12.2015 22.9591 12.2179 23.5844 12.4831 24.1919C13.0065 25.3906 14.3692 25.8942 15.5965 25.3325C16.966 24.7058 18.3341 24.073 19.6885 23.4149C20.0494 23.24 20.3747 22.9796 20.6883 22.7254C20.9671 22.4992 21.2084 22.2259 21.4851 21.9546C21.4995 22.0195 21.5084 22.0427 21.5084 22.066C21.5084 23.3616 21.5234 24.6573 21.5008 25.9523C21.4885 26.6739 21.1742 27.2842 20.5749 27.6894C20.2598 27.9006 19.8703 28.0045 19.5143 28.1575ZM11.7362 6.92859C11.566 6.92859 11.3952 6.92859 11.225 6.92859C9.49538 6.92859 7.76577 6.92654 6.03616 6.92996C5.61315 6.93064 5.28855 7.2197 5.24413 7.61469C5.20108 7.99465 5.46281 8.35888 5.85028 8.44294C5.95689 8.46617 6.07033 8.46207 6.18035 8.46207C9.45233 8.46276 12.7236 8.46276 15.9956 8.46276C16.4815 8.46276 16.9667 8.46686 17.4526 8.46139C17.7915 8.45729 18.0409 8.29738 18.1742 7.98508C18.3956 7.46435 18.0102 6.93064 17.4109 6.92996C15.5193 6.92654 13.6277 6.92859 11.7362 6.92859ZM10.5129 12.5555C11.987 12.5555 13.4603 12.5541 14.9343 12.5568C15.2815 12.5575 15.5501 12.429 15.7031 12.1113C15.9546 11.5892 15.5747 11.024 14.9671 11.0227C13.3571 11.0186 11.7471 11.0213 10.1371 11.0213C8.78263 11.0213 7.42818 11.0227 6.07374 11.0206C5.72522 11.0199 5.46008 11.1593 5.31178 11.4764C5.0685 11.9985 5.45598 12.5527 6.06691 12.5548C7.54846 12.5582 9.03069 12.5555 10.5129 12.5555ZM9.28285 16.6482C10.3557 16.6482 11.4293 16.6475 12.5022 16.6489C12.8514 16.6496 13.1145 16.5019 13.258 16.1828C13.4938 15.658 13.1015 15.1154 12.4879 15.1147C10.3503 15.1126 8.21269 15.1126 6.07511 15.1147C5.58445 15.1154 5.23661 15.442 5.2414 15.8883C5.24618 16.3332 5.59333 16.6468 6.08946 16.6475C7.15415 16.6496 8.21816 16.6482 9.28285 16.6482Z" fill="#B8B8B8"/>
<path d="M21.8282 12.5645C23.0057 13.7419 24.1428 14.879 25.2758 16.0121C24.9492 16.3456 24.6096 16.703 24.259 17.0501C22.7378 18.5556 21.2187 20.0617 19.6865 21.5556C19.4726 21.764 19.2102 21.9424 18.9403 22.0715C17.6275 22.7002 16.3079 23.3146 14.9815 23.9125C14.795 23.9966 14.5421 24.0239 14.3453 23.9754C13.8902 23.8633 13.6988 23.3604 13.91 22.9005C14.3282 21.9875 14.7984 21.0957 15.1708 20.1649C15.6458 18.9772 16.3722 18.0048 17.2988 17.1273C18.7961 15.7093 20.2278 14.2216 21.6847 12.7613C21.7503 12.6957 21.7954 12.6096 21.8282 12.5645Z" fill="#B8B8B8"/>
<path d="M26.4731 14.9152C25.2929 13.7364 24.1558 12.6006 23.0371 11.4826C23.4683 11.035 23.8804 10.5437 24.3574 10.1268C24.9253 9.63138 25.7651 9.67649 26.3193 10.1931C26.7991 10.64 27.2644 11.1034 27.7107 11.5838C28.258 12.1722 28.2457 13.0605 27.6984 13.6489C27.2986 14.0788 26.8817 14.4936 26.4731 14.9152Z" fill="#B8B8B8"/>
</svg>
