<svg width="17" height="16" viewBox="0 0 17 16" fill="none" xmlns="http://www.w3.org/2000/svg">
<path d="M7.14283 0.557493L5.18983 4.69707L0.820829 5.36349C0.640831 5.39829 0.473644 5.48132 0.337092 5.60371C0.200541 5.72611 0.0997444 5.8833 0.0454481 6.05851C-0.00884807 6.23372 -0.0146083 6.42039 0.0287816 6.59862C0.0721716 6.77685 0.163085 6.93996 0.29183 7.07056L3.45283 10.2906L2.70483 14.8394C2.66827 15.0179 2.68291 15.2032 2.74705 15.3738C2.81119 15.5444 2.92222 15.6933 3.06732 15.8035C3.21243 15.9136 3.38571 15.9805 3.56716 15.9963C3.74861 16.0122 3.93084 15.9764 4.09283 15.8931L8.00183 13.7447L11.9108 15.8931C12.0728 15.976 12.255 16.0114 12.4362 15.9954C12.6175 15.9794 12.7906 15.9125 12.9355 15.8024C13.0805 15.6924 13.1915 15.5436 13.2558 15.3733C13.32 15.2029 13.335 15.0179 13.2988 14.8394L12.5508 10.2906L15.7118 7.07056C15.8406 6.93996 15.9315 6.77685 15.9749 6.59862C16.0183 6.42039 16.0125 6.23372 15.9582 6.05851C15.9039 5.8833 15.8031 5.72611 15.6666 5.60371C15.53 5.48132 15.3628 5.39829 15.1828 5.36349L10.8138 4.69707L8.85983 0.557493C8.78585 0.39151 8.6654 0.250525 8.51305 0.151589C8.36069 0.0526518 8.18295 0 8.00133 0C7.8197 0 7.64196 0.0526518 7.48961 0.151589C7.33725 0.250525 7.2168 0.39151 7.14283 0.557493Z" fill="#FFA216"/>
</svg>
